<svg width="121" height="32" viewBox="0 0 121 32" fill="none" xmlns="http://www.w3.org/2000/svg">
<path fill-rule="evenodd" clip-rule="evenodd" d="M10.8074 10.8073C8.7242 12.4838 7.22551 14.9099 6.53158 17.6887C5.21592 22.9824 6.86038 28.8492 11.2461 31.1432C17.2031 34.2311 25.6457 28.6289 24.4763 19.8063C24.3301 18.6596 23.9282 18.836 23.9282 19.2771C23.9282 26.5113 15.8511 31.9376 10.9904 26.9086C17.715 22.3211 20.968 19.6743 21.6987 19.1006C26.7425 14.9542 19.5788 3.92584 10.8074 10.8073ZM9.56476 24.3498C6.67775 14.3805 19.0306 8.55755 19.5787 15.1305C19.6518 16.2773 19.2131 17.4245 18.4093 18.0858C12.306 22.4087 9.56476 24.3498 9.56476 24.3498Z" fill="url(#paint0_linear_178_4851)"/>
<path fill-rule="evenodd" clip-rule="evenodd" d="M7.67704 1.33976L18.5859 0L15.4586 4.51138L16.295 6.5213L16.7676 7.63805C13.5314 7.68299 8.69509 10.4968 6.94954 14.6059C6.80404 14.2487 6.40414 13.3999 6.22249 12.9977L5.38609 11.0321L3.82264 11.2107C3.82264 12.0146 4.14979 12.9083 4.04089 14.0245C4.40465 14.2925 4.4774 14.8284 4.22254 15.2306L4.94959 17.6427L3.13129 18L3.31293 15.4092C2.91303 15.2306 2.84028 14.2481 3.38568 13.9352C3.49458 12.9078 3.27679 12.059 3.24018 11.3001H3.20404L0.585938 11.6135L7.67704 1.33976Z" fill="url(#paint1_linear_178_4851)"/>
<path d="M31.2679 21.3819L26.2109 12.2856H29.7806L33.0796 18.3728L36.3786 12.2856H39.867L34.81 21.2769L40.0831 30.7578H36.5134L32.9979 24.2854L29.5095 30.7578H26.021L31.267 21.3819H31.2679Z" fill="black"/>
<path fill-rule="evenodd" clip-rule="evenodd" d="M49.9804 28.4838V30.7575V30.7581H53.2252V19.8077C53.2252 14.8743 51.17 12.0059 46.9516 12.0059C44.6261 12.0059 43.0847 12.6356 41.5162 13.5455L42.4085 16.9392C43.7068 16.2395 44.8963 15.7848 46.4919 15.7848C48.7638 15.7848 50.0075 17.1844 50.0075 19.7383V20.0878C48.8986 19.6326 47.7898 19.318 46.0593 19.318C42.7333 19.318 40.2725 21.2773 40.2725 25.3702V25.4402C40.2725 29.1485 42.6525 31.1427 45.3565 31.1427C47.5196 31.1427 49.0069 29.9883 49.9804 28.4838ZM46.7897 22.2907C48.0605 22.2907 49.2235 22.6059 50.0616 23.0255V24.0748C50.0616 26.3842 48.4395 27.9582 46.2759 27.9582C44.7345 27.9582 43.5178 26.9783 43.5178 25.2292V25.1592C43.5178 23.3751 44.7345 22.2907 46.7897 22.2907Z" fill="black"/>
<path d="M55.8213 12.2855H59.0932V15.0845C60.0126 13.4405 61.2563 11.9009 63.4469 11.9009C65.5022 11.9009 66.9353 13.1953 67.6923 15.1546C68.8553 13.1953 70.3697 11.9009 72.5327 11.9009C75.6427 11.9009 77.5356 14.4548 77.5356 18.9679V30.7576H74.2637V20.2624C74.2637 17.3239 73.209 15.7493 71.3702 15.7493C69.5315 15.7493 68.3144 17.3583 68.3144 20.3324V30.7576H65.0425V20.2274C65.0425 17.3589 63.9607 15.7493 62.149 15.7493C60.3374 15.7493 59.0932 17.4984 59.0932 20.3675V30.7576H55.8213V12.2855Z" fill="black"/>
<path fill-rule="evenodd" clip-rule="evenodd" d="M83.7829 5.42871H80.2673V9.45219H83.7829V5.42871ZM83.6745 12.2856H80.4026V30.7578H83.6745V12.2856Z" fill="url(#paint2_linear_178_4851)"/>
<path d="M85.4858 28.344L86.9461 25.4756C88.4875 26.9802 90.1639 27.7493 91.6241 27.7493C93.0844 27.7493 93.8413 26.9795 93.8413 25.7551V25.6851C93.8413 24.2505 92.3269 23.7609 90.6506 23.0961C88.5412 22.3263 86.1887 21.207 86.1887 17.6737V17.6037C86.1887 14.1055 88.4329 11.9712 91.2727 11.9712C93.0573 11.9712 95.0043 12.776 96.5187 14.0705L95.2208 17.079C93.8418 15.9947 92.3815 15.3299 91.1915 15.3299C89.9207 15.3299 89.1904 16.0997 89.1904 17.1841V17.2541C89.1904 18.5836 90.7318 19.1433 92.4081 19.8431C94.4905 20.6829 96.843 21.9073 96.843 25.2304V25.3005C96.843 29.1839 94.5175 31.1081 91.5429 31.1081C89.5147 31.1081 87.2704 30.1632 85.4858 28.344H85.4858Z" fill="black"/>
<path d="M98.8716 12.2855H102.143V15.0845C103.063 13.4405 104.307 11.9009 106.497 11.9009C108.552 11.9009 109.986 13.1953 110.743 15.1546C111.906 13.1953 113.42 11.9009 115.583 11.9009C118.693 11.9009 120.586 14.4548 120.586 18.9679V30.7576H117.314V20.2624C117.314 17.3239 116.259 15.7493 114.421 15.7493C112.582 15.7493 111.365 17.3583 111.365 20.3324V30.7576H108.093V20.2274C108.093 17.3589 107.011 15.7493 105.199 15.7493C103.388 15.7493 102.143 17.4984 102.143 20.3675V30.7576H98.8716V12.2855Z" fill="black"/>
<defs>
<linearGradient id="paint0_linear_178_4851" x1="6.09057" y1="31.9994" x2="24.5858" y2="31.9994" gradientUnits="userSpaceOnUse">
<stop stop-color="#D33DA3"/>
<stop offset="1" stop-color="#8A35D2"/>
</linearGradient>
<linearGradient id="paint1_linear_178_4851" x1="0.585938" y1="18.0003" x2="18.5859" y2="18.0003" gradientUnits="userSpaceOnUse">
<stop stop-color="#D33DA3"/>
<stop offset="1" stop-color="#8A35D2"/>
</linearGradient>
<linearGradient id="paint2_linear_178_4851" x1="80.2673" y1="30.7578" x2="83.7829" y2="30.7578" gradientUnits="userSpaceOnUse">
<stop stop-color="#D33DA3"/>
<stop offset="1" stop-color="#8A35D2"/>
</linearGradient>
</defs>
</svg>
