<svg width="121" height="26" viewBox="0 0 121 26" fill="none" xmlns="http://www.w3.org/2000/svg">
<path fill-rule="evenodd" clip-rule="evenodd" d="M10.8074 9.23829C8.7242 10.5643 7.22551 12.4831 6.53158 14.681C5.21592 18.8679 6.86038 23.508 11.2461 25.3224C17.2031 27.7647 25.6457 23.3338 24.4763 16.3558C24.3301 15.4489 23.9282 15.5884 23.9282 15.9372C23.9282 21.659 15.8511 25.9508 10.9904 21.9732C17.715 18.3448 20.968 16.2514 21.6987 15.7977C26.7425 12.5182 19.5788 3.79559 10.8074 9.23829ZM9.56485 19.9494C6.67783 12.0644 19.0306 7.45893 19.5788 12.6577C19.6519 13.5646 19.2132 14.472 18.4094 14.9951C12.3061 18.4141 9.56485 19.9494 9.56485 19.9494Z" fill="url(#paint0_linear_519_6280)"/>
<path fill-rule="evenodd" clip-rule="evenodd" d="M7.67704 1.75008L18.5859 0.69043L15.4586 4.25858L16.295 5.84828L16.7676 6.73154C13.5314 6.76708 8.69509 8.99257 6.94954 12.2426C6.80404 11.96 6.40414 11.2887 6.22249 10.9706L5.38609 9.41599L3.82264 9.55727C3.82264 10.1931 4.14979 10.8999 4.04089 11.7828C4.40465 11.9947 4.4774 12.4185 4.22254 12.7367L4.94959 14.6445L3.13129 14.927L3.31293 12.878C2.91303 12.7367 2.84028 11.9596 3.38568 11.7121C3.49458 10.8995 3.27679 10.2282 3.24018 9.62792H3.20404L0.585938 9.87583L7.67704 1.75008Z" fill="url(#paint1_linear_519_6280)"/>
<path d="M31.2679 17.6017L26.2109 10.4072H29.7806L33.0796 15.2217L36.3786 10.4072H39.867L34.81 17.5186L40.0831 25.0173H36.5134L32.9979 19.8981L29.5095 25.0173H26.021L31.267 17.6017H31.2679Z" fill="black"/>
<path fill-rule="evenodd" clip-rule="evenodd" d="M49.9804 23.2188V25.0172V25.0177H53.2252V16.3567C53.2252 12.4548 51.17 10.186 46.9516 10.186C44.6261 10.186 43.0847 10.6841 41.5162 11.4037L42.4085 14.0879C43.7068 13.5345 44.8963 13.1749 46.4919 13.1749C48.7638 13.1749 50.0075 14.2818 50.0075 16.3018V16.5783C48.8986 16.2182 47.7898 15.9694 46.0593 15.9694C42.7333 15.9694 40.2725 17.519 40.2725 20.7562V20.8116C40.2725 23.7446 42.6525 25.3218 45.3565 25.3218C47.5196 25.3218 49.0069 24.4088 49.9804 23.2188ZM46.7897 18.3204C48.0605 18.3204 49.2235 18.5696 50.0616 18.9015V19.7315C50.0616 21.558 48.4395 22.8029 46.2759 22.8029C44.7345 22.8029 43.5178 22.0279 43.5178 20.6445V20.5891C43.5178 19.178 44.7345 18.3204 46.7897 18.3204Z" fill="black"/>
<path d="M55.8213 10.4072H59.0932V12.621C60.0126 11.3207 61.2563 10.103 63.4469 10.103C65.5022 10.103 66.9353 11.1269 67.6923 12.6764C68.8553 11.1269 70.3697 10.103 72.5327 10.103C75.6427 10.103 77.5356 12.123 77.5356 15.6925V25.0173H74.2637V16.7163C74.2637 14.3922 73.209 13.1468 71.3702 13.1468C69.5315 13.1468 68.3144 14.4194 68.3144 16.7717V25.0173H65.0425V16.6887C65.0425 14.4199 63.9607 13.1468 62.149 13.1468C60.3374 13.1468 59.0932 14.5302 59.0932 16.7994V25.0173H55.8213V10.4072Z" fill="black"/>
<path fill-rule="evenodd" clip-rule="evenodd" d="M83.7829 4.98438H80.2673V8.16664H83.7829V4.98438ZM83.6745 10.4073H80.4026V25.0173H83.6745V10.4073Z" fill="url(#paint2_linear_519_6280)"/>
<path d="M85.4858 23.1084L86.9461 20.8396C88.4875 22.0296 90.1639 22.638 91.6241 22.638C93.0844 22.638 93.8413 22.0291 93.8413 21.0607V21.0053C93.8413 19.8707 92.3269 19.4834 90.6506 18.9577C88.5412 18.3488 86.1887 17.4635 86.1887 14.669V14.6136C86.1887 11.8468 88.4329 10.1587 91.2727 10.1587C93.0573 10.1587 95.0043 10.7952 96.5187 11.8191L95.2208 14.1986C93.8418 13.341 92.3815 12.8152 91.1915 12.8152C89.9207 12.8152 89.1904 13.424 89.1904 14.2817V14.3371C89.1904 15.3886 90.7318 15.8313 92.4081 16.3847C94.4905 17.049 96.843 18.0174 96.843 20.6457V20.7011C96.843 23.7726 94.5175 25.2945 91.5429 25.2945C89.5147 25.2945 87.2704 24.5472 85.4858 23.1084H85.4858Z" fill="black"/>
<path d="M98.8716 10.4072H102.143V12.621C103.063 11.3207 104.307 10.103 106.497 10.103C108.552 10.103 109.986 11.1269 110.743 12.6764C111.906 11.1269 113.42 10.103 115.583 10.103C118.693 10.103 120.586 12.123 120.586 15.6925V25.0173H117.314V16.7163C117.314 14.3922 116.259 13.1468 114.421 13.1468C112.582 13.1468 111.365 14.4194 111.365 16.7717V25.0173H108.093V16.6887C108.093 14.4199 107.011 13.1468 105.199 13.1468C103.388 13.1468 102.143 14.5302 102.143 16.7994V25.0173H98.8716V10.4072Z" fill="black"/>
<defs>
<linearGradient id="paint0_linear_519_6280" x1="6.09057" y1="25.9997" x2="24.5858" y2="25.9997" gradientUnits="userSpaceOnUse">
<stop stop-color="#D33DA3"/>
<stop offset="1" stop-color="#8A35D2"/>
</linearGradient>
<linearGradient id="paint1_linear_519_6280" x1="0.585938" y1="14.9273" x2="18.5859" y2="14.9273" gradientUnits="userSpaceOnUse">
<stop stop-color="#D33DA3"/>
<stop offset="1" stop-color="#8A35D2"/>
</linearGradient>
<linearGradient id="paint2_linear_519_6280" x1="80.2673" y1="25.0173" x2="83.7829" y2="25.0173" gradientUnits="userSpaceOnUse">
<stop stop-color="#D33DA3"/>
<stop offset="1" stop-color="#8A35D2"/>
</linearGradient>
</defs>
</svg>
