<svg width="28" height="28" viewBox="0 0 28 28" fill="none" xmlns="http://www.w3.org/2000/svg">
<path d="M25.6494 14.6412C25.6609 14.4288 25.6667 14.2149 25.6667 13.9997C25.6667 7.55635 20.4434 2.33301 14 2.33301C7.55672 2.33301 2.33337 7.55635 2.33337 13.9997C2.33337 20.341 7.39264 25.5006 13.6949 25.6624M14 6.99967V13.9997L18.3615 16.1804" stroke="#CF3DA6" stroke-width="2.5" stroke-linecap="round" stroke-linejoin="round"/>
<path d="M17.2778 18.1278C17.6518 18.1278 18.0117 18.1906 18.3573 18.3161C18.7053 18.4415 19.0155 18.6416 19.2877 18.9162C19.5623 19.1908 19.7789 19.5554 19.9376 20.0099C20.0986 20.4621 20.1802 21.0173 20.1826 21.6754C20.1826 22.2933 20.1128 22.8449 19.9731 23.3303C19.8358 23.8132 19.6381 24.224 19.38 24.5625C19.122 24.901 18.8107 25.1591 18.4461 25.3366C18.0815 25.5118 17.6743 25.5994 17.2245 25.5994C16.7392 25.5994 16.3107 25.5059 15.939 25.3189C15.5673 25.1295 15.2678 24.8726 15.0405 24.5483C14.8156 24.2216 14.6795 23.8546 14.6322 23.4474H16.1485C16.2077 23.7126 16.332 23.9186 16.5214 24.0653C16.7108 24.2098 16.9451 24.282 17.2245 24.282C17.698 24.282 18.0578 24.076 18.304 23.6641C18.5503 23.2498 18.6745 22.6828 18.6769 21.9631H18.6272C18.5183 22.1761 18.3715 22.3596 18.1869 22.5135C18.0022 22.665 17.7903 22.7822 17.5512 22.8651C17.3145 22.9479 17.0623 22.9893 16.7948 22.9893C16.3663 22.9893 15.984 22.8887 15.6478 22.6875C15.3116 22.4863 15.0465 22.2093 14.8523 21.8565C14.6582 21.5038 14.5611 21.1013 14.5611 20.6491C14.5588 20.1615 14.6712 19.727 14.8985 19.3459C15.1258 18.9647 15.443 18.6664 15.8502 18.451C16.2598 18.2332 16.7356 18.1255 17.2778 18.1278ZM17.2884 19.3352C17.0493 19.3352 16.8362 19.392 16.6492 19.5057C16.4646 19.6193 16.3178 19.772 16.2089 19.9638C16.1023 20.1555 16.0503 20.3698 16.0526 20.6065C16.0526 20.8456 16.1047 21.0611 16.2089 21.2528C16.3154 21.4422 16.4598 21.5937 16.6421 21.7074C16.8268 21.8187 17.0375 21.8743 17.2742 21.8743C17.4518 21.8743 17.6163 21.8411 17.7678 21.7749C17.9193 21.7086 18.0507 21.6174 18.162 21.5014C18.2756 21.383 18.3644 21.2469 18.4283 21.093C18.4923 20.9392 18.5242 20.7758 18.5242 20.603C18.5218 20.3733 18.4674 20.1626 18.3609 19.9709C18.2543 19.7791 18.1075 19.6252 17.9205 19.5092C17.7335 19.3932 17.5228 19.3352 17.2884 19.3352ZM24.0995 25.6598C23.4887 25.6574 22.9631 25.5071 22.5228 25.2088C22.0848 24.9105 21.7475 24.4785 21.5107 23.9126C21.2763 23.3468 21.1603 22.6662 21.1627 21.8707C21.1627 21.0777 21.2799 20.4018 21.5143 19.843C21.751 19.2843 22.0884 18.8594 22.5263 18.5682C22.9667 18.2746 23.4911 18.1278 24.0995 18.1278C24.7079 18.1278 25.2311 18.2746 25.6691 18.5682C26.1094 18.8617 26.448 19.2879 26.6847 19.8466C26.9215 20.4029 27.0387 21.0777 27.0363 21.8707C27.0363 22.6686 26.9179 23.3504 26.6812 23.9162C26.4468 24.482 26.1106 24.9141 25.6727 25.2124C25.2347 25.5107 24.7103 25.6598 24.0995 25.6598ZM24.0995 24.3849C24.5162 24.3849 24.8488 24.1754 25.0974 23.7564C25.3459 23.3374 25.4691 22.7088 25.4667 21.8707C25.4667 21.3191 25.4099 20.8598 25.2962 20.4929C25.185 20.1259 25.0263 19.8501 24.8204 19.6655C24.6168 19.4808 24.3765 19.3885 24.0995 19.3885C23.6852 19.3885 23.3538 19.5956 23.1052 20.0099C22.8566 20.4242 22.7311 21.0445 22.7288 21.8707C22.7288 22.4295 22.7844 22.8958 22.8957 23.2699C23.0093 23.6416 23.1691 23.9209 23.3751 24.108C23.581 24.2926 23.8225 24.3849 24.0995 24.3849Z" fill="#CF3DA6"/>
</svg>
