<svg width="189" height="56" viewBox="0 0 189 56" fill="none" xmlns="http://www.w3.org/2000/svg">
<path d="M173.949 0.000181999H15.0593C14.4801 0.000181999 13.9079 0.000181999 13.3302 0.00298199C12.8467 0.00578198 12.367 0.013916 11.8788 0.0207619C10.8183 0.0318244 9.7602 0.114528 8.71383 0.268155C7.66892 0.425126 6.65674 0.721062 5.71154 1.14595C4.76748 1.57444 3.90487 2.13121 3.155 2.79607C2.4012 3.45906 1.77284 4.22539 1.2941 5.06559C0.814034 5.90412 0.481156 6.80267 0.306961 7.73023C0.131109 8.65661 0.0364821 9.59368 0.0239282 10.533C0.00927121 10.9623 0.00772337 11.3929 0 11.8222V44.1821C0.00772337 44.6168 0.00927121 45.0379 0.0239282 45.4727C0.0364859 46.412 0.131113 47.349 0.306961 48.2754C0.480675 49.2035 0.813573 50.1026 1.2941 50.9414C1.77263 51.7789 2.40107 52.5421 3.155 53.2014C3.90203 53.8692 4.7652 54.4264 5.71154 54.8516C6.65674 55.2776 7.6688 55.5753 8.71383 55.7347C9.76038 55.8871 10.8183 55.9698 11.8788 55.9822C12.367 55.9917 12.8467 55.9972 13.3302 55.9972C13.9079 56 14.4801 56 15.0593 56H173.949C174.517 56 175.094 56 175.661 55.9972C176.143 55.9972 176.636 55.9917 177.117 55.9822C178.176 55.9705 179.232 55.8878 180.276 55.7347C181.325 55.5742 182.34 55.2766 183.29 54.8516C184.236 54.4261 185.098 53.869 185.844 53.2014C186.596 52.5395 187.226 51.7769 187.711 50.9414C188.187 50.1019 188.517 49.2029 188.688 48.2754C188.865 47.3489 188.962 46.4121 188.982 45.4727C188.988 45.0379 188.988 44.6168 188.988 44.1821C189 43.6735 189 43.1676 189 42.6508V13.3507C189 12.838 189 12.3294 188.988 11.8222C188.988 11.3929 188.988 10.9623 188.982 10.533C188.962 9.59354 188.865 8.65668 188.688 7.73017C188.517 6.80315 188.187 5.90467 187.711 5.06553C186.736 3.38145 185.19 2.01061 183.29 1.14583C182.34 0.721974 181.325 0.426117 180.276 0.268029C179.232 0.113726 178.176 0.0309928 177.117 0.0205659C176.636 0.013734 176.143 0.00552998 175.661 0.00279999C175.094 0 174.517 0 173.949 0V0.000181999Z" fill="#A6A6A6"/>
<path d="M13.2019 54.7788C12.7199 54.7788 12.2495 54.7733 11.7712 54.7638C10.7804 54.7524 9.79197 54.676 8.81394 54.5354C7.90197 54.3964 7.01852 54.1378 6.19273 53.7682C5.37451 53.4016 4.62822 52.921 3.98247 52.3447C3.32736 51.7751 2.78196 51.1146 2.36787 50.3892C1.94921 49.659 1.65948 48.8764 1.50876 48.0686C1.34599 47.2006 1.25793 46.3229 1.24533 45.4431C1.2353 45.1478 1.22217 44.1645 1.22217 44.1645V11.817C1.22217 11.817 1.23615 10.8489 1.24541 10.5644C1.25748 9.68599 1.34503 8.80965 1.5073 7.94298C1.6583 7.13294 1.94826 6.34808 2.36714 5.61556C2.77971 4.89065 3.32208 4.2296 3.97324 3.65803C4.62367 3.08103 5.37234 2.5979 6.19195 2.22627C7.01585 1.85784 7.89763 1.60108 8.80775 1.4646C9.789 1.32257 10.7809 1.24577 11.7751 1.23487L13.2027 1.21777H175.798L177.243 1.23556C178.228 1.24592 179.211 1.32202 180.183 1.46323C181.102 1.60142 181.993 1.85997 182.826 2.23038C184.468 2.97932 185.804 4.16421 186.647 5.61898C187.06 6.34644 187.345 7.1249 187.494 7.92794C187.658 8.80172 187.75 9.68495 187.769 10.5706C187.774 10.9671 187.774 11.3931 187.774 11.817C187.786 12.3421 187.786 12.8419 187.786 13.3459V42.652C187.786 43.1607 187.786 43.6572 187.774 44.1576C187.774 44.613 187.774 45.0301 187.767 45.4595C187.749 46.3293 187.659 47.1968 187.497 48.0549C187.349 48.8685 187.061 49.6573 186.643 50.3934C186.226 51.1109 185.683 51.7658 185.036 52.3338C184.39 52.9132 183.642 53.3966 182.822 53.7656C181.991 54.138 181.101 54.3976 180.183 54.5354C179.205 54.6768 178.216 54.7531 177.225 54.7638C176.762 54.7733 176.277 54.7788 175.806 54.7788L174.091 54.7816L13.2019 54.7788Z" fill="black"/>
<path d="M45.9162 28.4202C45.9312 27.2517 46.2416 26.106 46.8185 25.0897C47.3953 24.0733 48.2198 23.2194 49.2154 22.6074C48.5829 21.7042 47.7486 20.9608 46.7787 20.4365C45.8087 19.9121 44.7298 19.6211 43.6277 19.5866C41.2768 19.3399 38.9977 20.9934 37.7997 20.9934C36.5785 20.9934 34.734 19.6111 32.7478 19.652C31.463 19.6935 30.211 20.0671 29.1135 20.7364C28.0161 21.4057 27.1108 22.3478 26.4857 23.471C23.7781 28.1588 25.7977 35.0482 28.3914 38.8375C29.689 40.6929 31.2056 42.7656 33.1901 42.6921C35.1319 42.6115 35.8572 41.4538 38.2012 41.4538C40.5235 41.4538 41.2039 42.6921 43.2286 42.6453C45.3124 42.6115 46.6252 40.7816 47.8773 38.9086C48.8097 37.5865 49.5272 36.1252 50.0031 34.5791C48.7925 34.067 47.7594 33.21 47.0327 32.1148C46.3059 31.0196 45.9176 29.7346 45.9162 28.4202Z" fill="white"/>
<path d="M42.0918 17.0949C43.228 15.731 43.7877 13.9779 43.6521 12.208C41.9164 12.3903 40.313 13.2199 39.1615 14.5315C38.5985 15.1722 38.1673 15.9176 37.8926 16.7251C37.6178 17.5325 37.5049 18.3863 37.5603 19.2374C38.4285 19.2463 39.2874 19.0581 40.0724 18.687C40.8573 18.3159 41.5478 17.7715 42.0918 17.0949Z" fill="white"/>
<path d="M70.463 37.9957H63.8362L62.2448 42.6947H59.438L65.7148 25.3096H68.631L74.9077 42.6947H72.053L70.463 37.9957ZM64.5226 35.8273H69.7754L67.1859 28.2012H67.1134L64.5226 35.8273Z" fill="white"/>
<path d="M88.4634 36.358C88.4634 40.2969 86.3552 42.8275 83.1737 42.8275C82.3678 42.8697 81.5663 42.684 80.861 42.2918C80.1557 41.8996 79.5751 41.3167 79.1856 40.6099H79.1254V46.888H76.5237V30.0197H79.0421V32.1279H79.0899C79.4973 31.4245 80.0877 30.8446 80.7984 30.45C81.5091 30.0554 82.3134 29.8609 83.1259 29.8871C86.3428 29.8871 88.4634 32.4301 88.4634 36.358ZM85.7891 36.358C85.7891 33.7918 84.463 32.1047 82.4395 32.1047C80.4516 32.1047 79.1145 33.8273 79.1145 36.358C79.1145 38.9119 80.4516 40.6222 82.4395 40.6222C84.463 40.6222 85.7891 38.9474 85.7891 36.358Z" fill="white"/>
<path d="M102.414 36.358C102.414 40.2968 100.306 42.8275 97.1244 42.8275C96.3185 42.8696 95.517 42.684 94.8117 42.2918C94.1064 41.8996 93.5258 41.3167 93.1363 40.6099H93.0761V46.888H90.4744V30.0197H92.9927V32.1279H93.0406C93.4479 31.4245 94.0383 30.8446 94.749 30.45C95.4597 30.0554 96.2641 29.8609 97.0765 29.8871C100.294 29.8871 102.414 32.4301 102.414 36.358ZM99.7398 36.358C99.7398 33.7918 98.4137 32.1047 96.3902 32.1047C94.4023 32.1047 93.0652 33.8273 93.0652 36.358C93.0652 38.9119 94.4023 40.6222 96.3902 40.6222C98.4137 40.6222 99.7398 38.9474 99.7398 36.358H99.7398Z" fill="white"/>
<path d="M111.635 37.8506C111.827 39.5746 113.502 40.7066 115.791 40.7066C117.984 40.7066 119.561 39.5746 119.561 38.0201C119.561 36.6707 118.61 35.8627 116.357 35.309L114.104 34.7662C110.911 33.9951 109.429 32.5021 109.429 30.0795C109.429 27.0799 112.043 25.0195 115.755 25.0195C119.429 25.0195 121.947 27.0799 122.032 30.0795H119.406C119.248 28.3445 117.814 27.2973 115.718 27.2973C113.622 27.2973 112.188 28.3568 112.188 29.899C112.188 31.1281 113.104 31.8514 115.345 32.405L117.26 32.8753C120.827 33.7189 122.309 35.1517 122.309 37.6946C122.309 40.9472 119.719 42.9843 115.598 42.9843C111.742 42.9843 109.139 40.995 108.971 37.8505L111.635 37.8506Z" fill="white"/>
<path d="M127.925 27.0195V30.0191H130.335V32.0795H127.925V39.0671C127.925 40.1527 128.407 40.6586 129.467 40.6586C129.753 40.6536 130.039 40.6335 130.323 40.5984V42.6464C129.846 42.7354 129.362 42.7757 128.877 42.7667C126.311 42.7667 125.31 41.8028 125.31 39.3446V32.0795H123.468V30.0191H125.31V27.0195H127.925Z" fill="white"/>
<path d="M131.731 36.3574C131.731 32.3693 134.08 29.8633 137.742 29.8633C141.417 29.8633 143.755 32.3693 143.755 36.3574C143.755 40.3564 141.43 42.8515 137.742 42.8515C134.056 42.8515 131.731 40.3564 131.731 36.3574ZM141.104 36.3574C141.104 33.6217 139.85 32.007 137.742 32.007C135.634 32.007 134.382 33.634 134.382 36.3574C134.382 39.1041 135.634 40.7064 137.742 40.7064C139.85 40.7064 141.104 39.1041 141.104 36.3574H141.104Z" fill="white"/>
<path d="M145.9 30.0196H148.382V32.177H148.442C148.61 31.5032 149.005 30.9077 149.56 30.4907C150.115 30.0737 150.797 29.8605 151.491 29.887C151.791 29.8859 152.09 29.9185 152.382 29.984V32.4176C152.004 32.302 151.609 32.2489 151.213 32.2604C150.835 32.2451 150.459 32.3117 150.109 32.4558C149.759 32.5998 149.444 32.8178 149.187 33.0949C148.929 33.3719 148.735 33.7014 148.617 34.0608C148.498 34.4201 148.459 34.8008 148.502 35.1766V42.6947H145.9L145.9 30.0196Z" fill="white"/>
<path d="M164.378 38.9715C164.028 41.2724 161.787 42.8515 158.92 42.8515C155.233 42.8515 152.944 40.381 152.944 36.4176C152.944 32.4418 155.245 29.8633 158.811 29.8633C162.318 29.8633 164.523 32.2723 164.523 36.1154V37.0068H155.57V37.164C155.529 37.6305 155.588 38.1004 155.742 38.5426C155.896 38.9848 156.143 39.3891 156.465 39.7287C156.788 40.0682 157.179 40.3353 157.612 40.5121C158.046 40.6889 158.512 40.7715 158.98 40.7543C159.595 40.8119 160.212 40.6695 160.739 40.3482C161.267 40.027 161.676 39.5442 161.907 38.9714L164.378 38.9715ZM155.583 35.1885H161.92C161.943 34.769 161.879 34.3493 161.733 33.9556C161.586 33.5619 161.36 33.2028 161.068 32.9007C160.776 32.5986 160.425 32.3601 160.036 32.2002C159.648 32.0403 159.231 31.9625 158.811 31.9715C158.387 31.9689 157.967 32.0504 157.575 32.211C157.183 32.3716 156.827 32.6083 156.526 32.9074C156.226 33.2065 155.988 33.5621 155.826 33.9536C155.664 34.3451 155.582 34.7648 155.583 35.1885V35.1885Z" fill="white"/>
<path d="M64.1963 12.2233C64.7418 12.1842 65.2891 12.2666 65.7989 12.4646C66.3087 12.6626 66.7681 12.9713 67.1441 13.3684C67.5202 13.7654 67.8034 14.241 67.9733 14.7608C68.1433 15.2806 68.1958 15.8316 68.127 16.3741C68.127 19.0429 66.6846 20.5769 64.1963 20.5769H61.179V12.2233H64.1963ZM62.4764 19.3955H64.0514C64.4412 19.4188 64.8312 19.3549 65.1932 19.2085C65.5551 19.062 65.8799 18.8367 66.1438 18.5489C66.4077 18.2611 66.6041 17.9181 66.7187 17.5448C66.8333 17.1715 66.8632 16.7774 66.8063 16.3911C66.8591 16.0064 66.8261 15.6147 66.7097 15.2442C66.5934 14.8736 66.3965 14.5334 66.1332 14.2479C65.8699 13.9624 65.5467 13.7387 65.1868 13.5928C64.8269 13.4468 64.4392 13.3823 64.0514 13.4038H62.4764V19.3955Z" fill="white"/>
<path d="M69.5927 17.4213C69.553 17.007 69.6004 16.589 69.7318 16.1941C69.8632 15.7992 70.0756 15.4362 70.3556 15.1282C70.6355 14.8202 70.9767 14.5741 71.3573 14.4058C71.7379 14.2374 72.1494 14.1504 72.5656 14.1504C72.9818 14.1504 73.3934 14.2374 73.774 14.4058C74.1546 14.5741 74.4958 14.8202 74.7757 15.1282C75.0556 15.4362 75.2681 15.7992 75.3994 16.1941C75.5308 16.589 75.5782 17.007 75.5386 17.4213C75.579 17.836 75.5321 18.2546 75.4011 18.6501C75.2701 19.0457 75.0577 19.4094 74.7777 19.718C74.4978 20.0266 74.1563 20.2731 73.7753 20.4419C73.3944 20.6106 72.9823 20.6978 72.5656 20.6978C72.149 20.6978 71.7369 20.6106 71.3559 20.4419C70.9749 20.2731 70.6335 20.0266 70.3535 19.718C70.0735 19.4094 69.8612 19.0457 69.7301 18.6501C69.5991 18.2546 69.5523 17.836 69.5927 17.4213ZM74.2589 17.4213C74.2589 16.0548 73.645 15.2557 72.5677 15.2557C71.4862 15.2557 70.8779 16.0548 70.8779 17.4213C70.8779 18.7988 71.4863 19.5917 72.5677 19.5917C73.645 19.5917 74.2589 18.7933 74.2589 17.4213H74.2589Z" fill="white"/>
<path d="M83.4422 20.5765H82.1516L80.8487 15.9336H80.7503L79.4528 20.5765H78.1745L76.4368 14.2725H77.6987L78.828 19.0828H78.921L80.2171 14.2725H81.4106L82.7067 19.0828H82.8051L83.929 14.2725H85.1731L83.4422 20.5765Z" fill="white"/>
<path d="M86.6345 14.2724H87.8322V15.2739H87.9252C88.0829 14.9142 88.3489 14.6127 88.6861 14.4113C89.0233 14.21 89.4149 14.1189 89.8064 14.1507C90.1131 14.1277 90.4211 14.1739 90.7076 14.2861C90.994 14.3982 91.2515 14.5733 91.4611 14.7985C91.6707 15.0237 91.8269 15.2931 91.9181 15.5869C92.0094 15.8806 92.0334 16.1912 91.9884 16.4954V20.5764H90.7443V16.8079C90.7443 15.7948 90.3041 15.291 89.3839 15.291C89.1757 15.2813 88.9678 15.3167 88.7745 15.3949C88.5812 15.473 88.4071 15.5921 88.2642 15.7438C88.1212 15.8956 88.0127 16.0764 87.9462 16.274C87.8796 16.4716 87.8566 16.6812 87.8787 16.8885V20.5765H86.6345L86.6345 14.2724Z" fill="white"/>
<path d="M93.9709 11.8115H95.2151V20.5765H93.9709V11.8115Z" fill="white"/>
<path d="M96.9444 17.4214C96.9048 17.0071 96.9523 16.5891 97.0837 16.1942C97.2151 15.7993 97.4276 15.4362 97.7075 15.1282C97.9875 14.8202 98.3287 14.5741 98.7093 14.4058C99.0899 14.2374 99.5015 14.1504 99.9177 14.1504C100.334 14.1504 100.746 14.2374 101.126 14.4058C101.507 14.5741 101.848 14.8202 102.128 15.1282C102.408 15.4362 102.62 15.7993 102.752 16.1942C102.883 16.5891 102.931 17.0071 102.891 17.4214C102.931 17.8362 102.884 18.2547 102.753 18.6503C102.622 19.0458 102.41 19.4095 102.13 19.7181C101.85 20.0267 101.508 20.2732 101.127 20.442C100.746 20.6107 100.334 20.6979 99.9177 20.6979C99.5011 20.6979 99.089 20.6107 98.708 20.442C98.327 20.2732 97.9855 20.0267 97.7055 19.7181C97.4255 19.4095 97.2131 19.0458 97.0821 18.6503C96.951 18.2547 96.9041 17.8362 96.9444 17.4214ZM101.611 17.4214C101.611 16.0549 100.997 15.2558 99.9194 15.2558C98.838 15.2558 98.2297 16.0549 98.2297 17.4214C98.2297 18.7989 98.838 19.5918 99.9194 19.5918C100.997 19.5918 101.611 18.7934 101.611 17.4214H101.611Z" fill="white"/>
<path d="M104.201 18.7933C104.201 17.6586 105.046 17.0044 106.546 16.9114L108.253 16.813V16.2688C108.253 15.603 107.813 15.227 106.963 15.227C106.268 15.227 105.787 15.482 105.649 15.9277H104.444C104.571 14.8449 105.59 14.1504 107.02 14.1504C108.601 14.1504 109.492 14.9372 109.492 16.2688V20.5761H108.294V19.6902H108.196C107.996 20.008 107.715 20.2671 107.383 20.441C107.05 20.6149 106.677 20.6973 106.302 20.68C106.038 20.7075 105.77 20.6793 105.517 20.5971C105.264 20.5149 105.031 20.3807 104.833 20.2029C104.635 20.0251 104.476 19.8079 104.368 19.5651C104.259 19.3223 104.202 19.0594 104.201 18.7933ZM108.253 18.2547V17.7276L106.714 17.8261C105.846 17.8842 105.452 18.1795 105.452 18.7352C105.452 19.3026 105.944 19.6328 106.621 19.6328C106.819 19.6528 107.02 19.6328 107.21 19.5739C107.4 19.515 107.577 19.4183 107.729 19.2898C107.882 19.1612 108.006 19.0033 108.096 18.8255C108.186 18.6476 108.24 18.4535 108.253 18.2547Z" fill="white"/>
<path d="M111.127 17.4218C111.127 15.4298 112.151 14.1679 113.744 14.1679C114.138 14.1497 114.529 14.2441 114.871 14.4399C115.214 14.6358 115.493 14.925 115.677 15.2739H115.77V11.8115H117.014V20.5765H115.822V19.5805H115.724C115.525 19.927 115.236 20.2127 114.887 20.4065C114.538 20.6004 114.143 20.6951 113.744 20.6804C112.14 20.6805 111.127 19.4186 111.127 17.4218ZM112.412 17.4218C112.412 18.7589 113.043 19.5635 114.097 19.5635C115.145 19.5635 115.793 18.7473 115.793 17.4273C115.793 16.1134 115.139 15.2856 114.097 15.2856C113.049 15.2856 112.412 16.0956 112.412 17.4218H112.412Z" fill="white"/>
<path d="M122.162 17.4213C122.122 17.007 122.17 16.589 122.301 16.1941C122.432 15.7992 122.645 15.4362 122.925 15.1282C123.205 14.8202 123.546 14.5741 123.926 14.4058C124.307 14.2374 124.719 14.1504 125.135 14.1504C125.551 14.1504 125.962 14.2374 126.343 14.4058C126.724 14.5741 127.065 14.8202 127.345 15.1282C127.625 15.4362 127.837 15.7992 127.969 16.1941C128.1 16.589 128.147 17.007 128.108 17.4213C128.148 17.836 128.101 18.2546 127.97 18.6501C127.839 19.0457 127.627 19.4094 127.347 19.718C127.067 20.0266 126.725 20.2731 126.344 20.4419C125.963 20.6106 125.551 20.6978 125.135 20.6978C124.718 20.6978 124.306 20.6106 123.925 20.4419C123.544 20.2731 123.203 20.0266 122.923 19.718C122.643 19.4094 122.43 19.0457 122.299 18.6501C122.168 18.2546 122.121 17.836 122.162 17.4213ZM126.828 17.4213C126.828 16.0548 126.214 15.2557 125.137 15.2557C124.055 15.2557 123.447 16.0548 123.447 17.4213C123.447 18.7988 124.055 19.5917 125.137 19.5917C126.214 19.5917 126.828 18.7933 126.828 17.4213Z" fill="white"/>
<path d="M129.777 14.2724H130.975V15.2739H131.067C131.225 14.9142 131.491 14.6127 131.828 14.4113C132.166 14.21 132.557 14.1189 132.949 14.1507C133.255 14.1277 133.563 14.1739 133.85 14.2861C134.136 14.3982 134.394 14.5733 134.603 14.7985C134.813 15.0237 134.969 15.2931 135.06 15.5869C135.152 15.8806 135.176 16.1912 135.131 16.4954V20.5764H133.887V16.8079C133.887 15.7948 133.446 15.291 132.526 15.291C132.318 15.2813 132.11 15.3167 131.917 15.3949C131.724 15.473 131.549 15.5921 131.406 15.7438C131.264 15.8956 131.155 16.0764 131.089 16.274C131.022 16.4716 130.999 16.6812 131.021 16.8885V20.5765H129.777V14.2724Z" fill="white"/>
<path d="M142.161 12.7031V14.3014H143.527V15.3493H142.161V18.5909C142.161 19.2513 142.433 19.5404 143.052 19.5404C143.211 19.5399 143.369 19.5303 143.527 19.5117V20.548C143.303 20.588 143.077 20.6092 142.85 20.6116C141.466 20.6116 140.915 20.1249 140.915 18.9094V15.3493H139.915V14.3013H140.915V12.7031H142.161Z" fill="white"/>
<path d="M145.226 11.8115H146.459V15.2855H146.558C146.723 14.9225 146.996 14.6193 147.34 14.4172C147.684 14.2151 148.082 14.124 148.48 14.1562C148.785 14.1396 149.09 14.1906 149.373 14.3054C149.656 14.4203 149.911 14.5962 150.118 14.8207C150.326 15.0452 150.481 15.3127 150.573 15.6041C150.665 15.8954 150.692 16.2036 150.651 16.5064V20.5765H149.406V16.8134C149.406 15.8064 148.937 15.2965 148.058 15.2965C147.844 15.2789 147.629 15.3083 147.427 15.3826C147.226 15.4569 147.043 15.5742 146.892 15.7265C146.741 15.8787 146.625 16.0621 146.552 16.2639C146.479 16.4657 146.451 16.681 146.47 16.8947V20.5765H145.226L145.226 11.8115Z" fill="white"/>
<path d="M157.905 18.8741C157.736 19.4503 157.37 19.9486 156.871 20.282C156.371 20.6155 155.771 20.7627 155.174 20.6979C154.759 20.7089 154.346 20.6293 153.964 20.4648C153.583 20.3003 153.242 20.0547 152.965 19.7451C152.688 19.4355 152.481 19.0693 152.36 18.672C152.238 18.2746 152.205 17.8556 152.262 17.444C152.206 17.0312 152.24 16.6113 152.362 16.2128C152.483 15.8142 152.688 15.4463 152.964 15.134C153.239 14.8217 153.579 14.5723 153.959 14.4026C154.339 14.2329 154.752 14.1469 155.168 14.1505C156.922 14.1505 157.981 15.3489 157.981 17.3285V17.7626H153.529V17.8323C153.51 18.0637 153.539 18.2965 153.614 18.516C153.69 18.7354 153.811 18.9366 153.969 19.1067C154.127 19.2767 154.319 19.4118 154.532 19.5034C154.746 19.5949 154.976 19.6409 155.208 19.6383C155.506 19.6741 155.807 19.6205 156.074 19.4844C156.341 19.3483 156.562 19.1358 156.708 18.8741L157.905 18.8741ZM153.529 16.8425H156.713C156.729 16.6309 156.7 16.4184 156.629 16.2186C156.558 16.0188 156.445 15.8361 156.299 15.6823C156.153 15.5285 155.976 15.407 155.78 15.3255C155.584 15.2441 155.374 15.2045 155.162 15.2094C154.946 15.2067 154.733 15.2471 154.533 15.3282C154.334 15.4093 154.153 15.5295 154.001 15.6817C153.849 15.8339 153.729 16.015 153.648 16.2144C153.567 16.4137 153.526 16.6273 153.529 16.8425H153.529Z" fill="white"/>
</svg>
