<svg width="189" height="56" viewBox="0 0 189 56" fill="none" xmlns="http://www.w3.org/2000/svg">
<path d="M173.949 0.000181999H15.0593C14.4801 0.000181999 13.9079 0.000181999 13.3302 0.00298199C12.8467 0.00578198 12.367 0.013916 11.8788 0.0207619C10.8183 0.0318244 9.7602 0.114528 8.71383 0.268155C7.66892 0.425126 6.65674 0.721062 5.71154 1.14595C4.76748 1.57444 3.90487 2.13121 3.155 2.79607C2.4012 3.45906 1.77284 4.22539 1.2941 5.06559C0.814034 5.90412 0.481156 6.80267 0.306961 7.73023C0.131109 8.65661 0.0364821 9.59368 0.0239282 10.533C0.00927121 10.9623 0.00772337 11.3929 0 11.8222V44.1821C0.00772337 44.6168 0.00927121 45.0379 0.0239282 45.4727C0.0364859 46.412 0.131113 47.349 0.306961 48.2754C0.480675 49.2035 0.813573 50.1026 1.2941 50.9414C1.77263 51.7789 2.40107 52.5421 3.155 53.2014C3.90203 53.8692 4.7652 54.4264 5.71154 54.8516C6.65674 55.2776 7.6688 55.5753 8.71383 55.7347C9.76038 55.8871 10.8183 55.9698 11.8788 55.9822C12.367 55.9917 12.8467 55.9972 13.3302 55.9972C13.9079 56 14.4801 56 15.0593 56H173.949C174.517 56 175.094 56 175.661 55.9972C176.143 55.9972 176.636 55.9917 177.117 55.9822C178.176 55.9705 179.232 55.8878 180.276 55.7347C181.325 55.5742 182.34 55.2766 183.29 54.8516C184.236 54.4261 185.098 53.869 185.844 53.2014C186.596 52.5395 187.226 51.7769 187.711 50.9414C188.187 50.1019 188.517 49.2029 188.688 48.2754C188.865 47.3489 188.962 46.4121 188.982 45.4727C188.988 45.0379 188.988 44.6168 188.988 44.1821C189 43.6735 189 43.1676 189 42.6508V13.3507C189 12.838 189 12.3294 188.988 11.8222C188.988 11.3929 188.988 10.9623 188.982 10.533C188.962 9.59354 188.865 8.65668 188.688 7.73017C188.517 6.80315 188.187 5.90467 187.711 5.06553C186.736 3.38145 185.19 2.01061 183.29 1.14583C182.34 0.721974 181.325 0.426117 180.276 0.268029C179.232 0.113726 178.176 0.0309928 177.117 0.0205659C176.636 0.013734 176.143 0.00552998 175.661 0.00279999C175.094 0 174.517 0 173.949 0V0.000181999Z" fill="#A6A6A6"/>
<path d="M13.2024 54.7798C12.7204 54.7798 12.25 54.7743 11.7717 54.7648C10.7809 54.7534 9.79246 54.677 8.81443 54.5364C7.90246 54.3974 7.01901 54.1388 6.19322 53.7692C5.37499 53.4026 4.62871 52.922 3.98295 52.3457C3.32785 51.7761 2.78244 51.1156 2.36835 50.3902C1.9497 49.66 1.65997 48.8774 1.50925 48.0696C1.34648 47.2016 1.25842 46.3239 1.24582 45.4441C1.23579 45.1487 1.22266 44.1655 1.22266 44.1655V11.818C1.22266 11.818 1.23664 10.8498 1.2459 10.5654C1.25796 9.68697 1.34551 8.81063 1.50779 7.94396C1.65879 7.13392 1.94875 6.34905 2.36763 5.61654C2.7802 4.89163 3.32257 4.23057 3.97373 3.659C4.62416 3.082 5.37283 2.59888 6.19244 2.22725C7.01634 1.85881 7.89812 1.60205 8.80824 1.46558C9.78948 1.32354 10.7814 1.24675 11.7756 1.23585L13.2032 1.21875H175.798L177.243 1.23653C178.228 1.24689 179.211 1.323 180.183 1.46421C181.103 1.60239 181.994 1.86094 182.827 2.23135C184.469 2.98029 185.805 4.16518 186.648 5.61995C187.06 6.34741 187.345 7.12588 187.495 7.92892C187.659 8.8027 187.751 9.68593 187.77 10.5716C187.774 10.9681 187.774 11.3941 187.774 11.818C187.787 12.3431 187.787 12.8429 187.787 13.3468V42.653C187.787 43.1617 187.787 43.6581 187.774 44.1586C187.774 44.614 187.774 45.0311 187.768 45.4604C187.75 46.3303 187.659 47.1977 187.498 48.0559C187.35 48.8695 187.062 49.6582 186.643 50.3944C186.226 51.1119 185.684 51.7667 185.036 52.3347C184.39 52.9141 183.642 53.3976 182.822 53.7665C181.991 54.139 181.102 54.3985 180.183 54.5364C179.205 54.6778 178.217 54.7541 177.226 54.7648C176.763 54.7743 176.277 54.7798 175.806 54.7798L174.091 54.7826L13.2024 54.7798Z" fill="black"/>
<path d="M45.9155 28.4251C45.9305 27.2566 46.2409 26.1109 46.8177 25.0945C47.3946 24.0782 48.2191 23.2243 49.2146 22.6123C48.5822 21.709 47.7479 20.9657 46.7779 20.4413C45.808 19.917 44.7291 19.626 43.627 19.5915C41.2761 19.3447 38.997 20.9983 37.799 20.9983C36.5778 20.9983 34.7333 19.616 32.7471 19.6569C31.4623 19.6984 30.2102 20.072 29.1128 20.7413C28.0154 21.4105 27.11 22.3527 26.485 23.4759C23.7774 28.1637 25.797 35.0531 28.3906 38.8423C29.6883 40.6978 31.2049 42.7705 33.1893 42.697C35.1312 42.6164 35.8565 41.4587 38.2005 41.4587C40.5228 41.4587 41.2032 42.697 43.2279 42.6502C45.3116 42.6164 46.6245 40.7865 47.8766 38.9134C48.809 37.5913 49.5264 36.1301 50.0024 34.5839C48.7918 34.0719 47.7587 33.2149 47.0319 32.1197C46.3052 31.0245 45.9169 29.7395 45.9155 28.4251Z" fill="white"/>
<path d="M42.0921 17.0978C43.2282 15.7339 43.7879 13.9809 43.6524 12.2109C41.9166 12.3932 40.3133 13.2228 39.1618 14.5344C38.5988 15.1751 38.1676 15.9205 37.8928 16.728C37.6181 17.5355 37.5052 18.3892 37.5606 19.2403C38.4288 19.2493 39.2877 19.0611 40.0726 18.69C40.8575 18.3188 41.548 17.7744 42.0921 17.0978Z" fill="white"/>
<path d="M70.4625 37.9947H63.8357L62.2443 42.6937H59.4375L65.7143 25.3086H68.6305L74.9072 42.6937H72.0525L70.4625 37.9947ZM64.5221 35.8264H69.7749L67.1854 28.2002H67.1129L64.5221 35.8264Z" fill="white"/>
<path d="M88.4631 36.356C88.4631 40.2949 86.3549 42.8255 83.1735 42.8255C82.3676 42.8677 81.5661 42.6821 80.8608 42.2899C80.1554 41.8977 79.5748 41.3148 79.1854 40.608H79.1252V46.8861H76.5234V30.0178H79.0418V32.126H79.0897C79.497 31.4225 80.0874 30.8427 80.7981 30.4481C81.5088 30.0535 82.3132 29.8589 83.1256 29.8851C86.3426 29.8852 88.4631 32.4281 88.4631 36.356ZM85.7889 36.356C85.7889 33.7898 84.4627 32.1027 82.4393 32.1027C80.4514 32.1027 79.1143 33.8254 79.1143 36.356C79.1143 38.9099 80.4514 40.6203 82.4393 40.6203C84.4627 40.6203 85.7889 38.9455 85.7889 36.356Z" fill="white"/>
<path d="M102.414 36.356C102.414 40.2949 100.306 42.8255 97.1247 42.8255C96.3187 42.8677 95.5172 42.682 94.8119 42.2899C94.1066 41.8977 93.526 41.3148 93.1366 40.6079H93.0764V46.886H90.4746V30.0178H92.993V32.126H93.0408C93.4482 31.4225 94.0386 30.8426 94.7493 30.4481C95.4599 30.0535 96.2643 29.8589 97.0768 29.8851C100.294 29.8851 102.414 32.4281 102.414 36.356ZM99.7401 36.356C99.7401 33.7898 98.4139 32.1027 96.3905 32.1027C94.4026 32.1027 93.0655 33.8254 93.0655 36.356C93.0655 38.9099 94.4026 40.6203 96.3905 40.6203C98.4139 40.6203 99.7401 38.9455 99.7401 36.356H99.7401Z" fill="white"/>
<path d="M111.634 37.8506C111.827 39.5746 113.502 40.7066 115.79 40.7066C117.983 40.7066 119.561 39.5746 119.561 38.0201C119.561 36.6707 118.609 35.8627 116.356 35.309L114.103 34.7662C110.911 33.9951 109.429 32.5021 109.429 30.0795C109.429 27.0799 112.043 25.0195 115.755 25.0195C119.428 25.0195 121.947 27.0799 122.031 30.0795H119.405C119.248 28.3445 117.814 27.2973 115.718 27.2973C113.622 27.2973 112.188 28.3568 112.188 29.899C112.188 31.1281 113.104 31.8514 115.345 32.405L117.26 32.8753C120.827 33.7189 122.309 35.1517 122.309 37.6946C122.309 40.9472 119.718 42.9843 115.597 42.9843C111.742 42.9843 109.139 40.995 108.971 37.8505L111.634 37.8506Z" fill="white"/>
<path d="M127.924 27.0195V30.0191H130.334V32.0795H127.924V39.0671C127.924 40.1527 128.406 40.6586 129.466 40.6586C129.752 40.6536 130.038 40.6335 130.322 40.5984V42.6464C129.845 42.7354 129.361 42.7757 128.877 42.7667C126.311 42.7667 125.31 41.8028 125.31 39.3446V32.0795H123.467V30.0191H125.31V27.0195H127.924Z" fill="white"/>
<path d="M131.73 36.3574C131.73 32.3693 134.079 29.8633 137.742 29.8633C141.417 29.8633 143.755 32.3693 143.755 36.3574C143.755 40.3564 141.429 42.8515 137.742 42.8515C134.056 42.8515 131.73 40.3564 131.73 36.3574ZM141.104 36.3574C141.104 33.6217 139.85 32.007 137.742 32.007C135.634 32.007 134.381 33.634 134.381 36.3574C134.381 39.1041 135.634 40.7064 137.742 40.7064C139.85 40.7064 141.104 39.1041 141.104 36.3574H141.104Z" fill="white"/>
<path d="M145.9 30.0177H148.382V32.175H148.442C148.61 31.5012 149.005 30.9058 149.56 30.4887C150.115 30.0717 150.797 29.8585 151.491 29.885C151.791 29.884 152.09 29.9165 152.382 29.9821V32.4157C152.004 32.3 151.609 32.2469 151.213 32.2585C150.835 32.2431 150.459 32.3098 150.109 32.4538C149.759 32.5978 149.444 32.8159 149.187 33.0929C148.929 33.37 148.735 33.6995 148.617 34.0588C148.498 34.4181 148.459 34.7988 148.502 35.1746V42.6928H145.9L145.9 30.0177Z" fill="white"/>
<path d="M164.377 38.9715C164.027 41.2724 161.786 42.8515 158.919 42.8515C155.232 42.8515 152.943 40.381 152.943 36.4176C152.943 32.4418 155.244 29.8633 158.81 29.8633C162.317 29.8633 164.522 32.2723 164.522 36.1154V37.0068H155.57V37.164C155.528 37.6305 155.587 38.1004 155.741 38.5426C155.895 38.9848 156.142 39.3891 156.464 39.7287C156.787 40.0682 157.178 40.3353 157.612 40.5121C158.045 40.6889 158.512 40.7715 158.98 40.7543C159.594 40.8119 160.211 40.6695 160.739 40.3482C161.266 40.027 161.676 39.5442 161.907 38.9714L164.377 38.9715ZM155.582 35.1885H161.919C161.942 34.769 161.879 34.3493 161.732 33.9556C161.586 33.5619 161.359 33.2028 161.067 32.9007C160.775 32.5986 160.424 32.3601 160.036 32.2002C159.647 32.0403 159.23 31.9625 158.81 31.9715C158.386 31.9689 157.966 32.0504 157.574 32.211C157.182 32.3716 156.826 32.6083 156.526 32.9074C156.226 33.2065 155.988 33.5621 155.826 33.9536C155.664 34.3451 155.581 34.7648 155.582 35.1885V35.1885Z" fill="white"/>
<path d="M64.1951 12.2243C64.7406 12.1852 65.2879 12.2676 65.7977 12.4656C66.3074 12.6636 66.7669 12.9723 67.1429 13.3693C67.5189 13.7664 67.8021 14.242 67.9721 14.7618C68.1421 15.2815 68.1946 15.8326 68.1258 16.3751C68.1258 19.0438 66.6834 20.5779 64.1951 20.5779H61.1777V12.2243H64.1951ZM62.4752 19.3965H64.0502C64.44 19.4198 64.83 19.3559 65.192 19.2094C65.5539 19.063 65.8787 18.8376 66.1426 18.5499C66.4064 18.2621 66.6028 17.9191 66.7174 17.5458C66.832 17.1725 66.862 16.7784 66.8051 16.3921C66.8579 16.0073 66.8249 15.6157 66.7085 15.2451C66.5922 14.8746 66.3953 14.5344 66.132 14.2489C65.8687 13.9634 65.5455 13.7397 65.1856 13.5937C64.8257 13.4478 64.438 13.3833 64.0502 13.4048H62.4752V19.3965Z" fill="white"/>
<path d="M69.5922 17.4233C69.5526 17.009 69.5999 16.591 69.7313 16.1961C69.8627 15.8012 70.0752 15.4381 70.3551 15.1301C70.635 14.8222 70.9762 14.5761 71.3568 14.4077C71.7374 14.2393 72.149 14.1523 72.5651 14.1523C72.9813 14.1523 73.3929 14.2393 73.7735 14.4077C74.1541 14.5761 74.4953 14.8222 74.7752 15.1301C75.0551 15.4381 75.2676 15.8012 75.399 16.1961C75.5303 16.591 75.5777 17.009 75.5381 17.4233C75.5785 17.838 75.5316 18.2565 75.4006 18.6521C75.2696 19.0476 75.0573 19.4114 74.7773 19.7199C74.4973 20.0285 74.1558 20.2751 73.7748 20.4439C73.3939 20.6126 72.9818 20.6998 72.5651 20.6998C72.1485 20.6998 71.7364 20.6126 71.3554 20.4439C70.9745 20.2751 70.633 20.0285 70.353 19.7199C70.073 19.4114 69.8607 19.0476 69.7297 18.6521C69.5986 18.2565 69.5518 17.838 69.5922 17.4233ZM74.2584 17.4233C74.2584 16.0568 73.6445 15.2577 72.5672 15.2577C71.4857 15.2577 70.8774 16.0568 70.8774 17.4233C70.8774 18.8007 71.4858 19.5937 72.5672 19.5937C73.6445 19.5937 74.2584 18.7952 74.2584 17.4233H74.2584Z" fill="white"/>
<path d="M83.441 20.5775H82.1504L80.8475 15.9346H80.749L79.4516 20.5775H78.1732L76.4355 14.2734H77.6975L78.8268 19.0838H78.9197L80.2158 14.2734H81.4094L82.7055 19.0838H82.8039L83.9277 14.2734H85.1719L83.441 20.5775Z" fill="white"/>
<path d="M86.6328 14.2724H87.8305V15.2739H87.9234C88.0812 14.9142 88.3472 14.6127 88.6844 14.4113C89.0216 14.21 89.4132 14.1189 89.8047 14.1507C90.1114 14.1277 90.4194 14.1739 90.7059 14.2861C90.9923 14.3982 91.2498 14.5733 91.4594 14.7985C91.6689 15.0237 91.8252 15.2931 91.9164 15.5869C92.0077 15.8806 92.0317 16.1912 91.9867 16.4954V20.5764H90.7426V16.8079C90.7426 15.7948 90.3024 15.291 89.3822 15.291C89.174 15.2813 88.9661 15.3167 88.7728 15.3949C88.5795 15.473 88.4054 15.5921 88.2624 15.7438C88.1195 15.8956 88.011 16.0764 87.9445 16.274C87.8779 16.4716 87.8549 16.6812 87.8769 16.8885V20.5765H86.6328L86.6328 14.2724Z" fill="white"/>
<path d="M93.9688 11.8125H95.2129V20.5775H93.9688V11.8125Z" fill="white"/>
<path d="M96.9437 17.4234C96.9041 17.0091 96.9515 16.5911 97.0829 16.1961C97.2144 15.8012 97.4268 15.4381 97.7068 15.1302C97.9867 14.8222 98.328 14.5761 98.7086 14.4077C99.0892 14.2393 99.5008 14.1523 99.917 14.1523C100.333 14.1523 100.745 14.2393 101.125 14.4077C101.506 14.5761 101.847 14.8222 102.127 15.1302C102.407 15.4381 102.62 15.8012 102.751 16.1961C102.882 16.5911 102.93 17.0091 102.89 17.4234C102.931 17.8381 102.884 18.2567 102.753 18.6522C102.622 19.0477 102.409 19.4115 102.129 19.7201C101.849 20.0286 101.508 20.2752 101.127 20.4439C100.746 20.6127 100.334 20.6999 99.917 20.6999C99.5003 20.6999 99.0882 20.6127 98.7073 20.4439C98.3263 20.2752 97.9848 20.0286 97.7048 19.7201C97.4248 19.4115 97.2124 19.0477 97.0813 18.6522C96.9503 18.2567 96.9034 17.8381 96.9437 17.4234ZM101.61 17.4234C101.61 16.0569 100.996 15.2578 99.9187 15.2578C98.8373 15.2578 98.2289 16.0569 98.2289 17.4234C98.2289 18.8008 98.8373 19.5938 99.9187 19.5938C100.996 19.5938 101.61 18.7953 101.61 17.4234H101.61Z" fill="white"/>
<path d="M104.199 18.7953C104.199 17.6605 105.044 17.0063 106.544 16.9134L108.252 16.8149V16.2708C108.252 15.605 107.811 15.229 106.961 15.229C106.266 15.229 105.785 15.484 105.647 15.9297H104.443C104.57 14.8469 105.588 14.1523 107.018 14.1523C108.599 14.1523 109.49 14.9391 109.49 16.2708V20.5781H108.293V19.6922H108.194C107.994 20.01 107.714 20.269 107.381 20.4429C107.048 20.6168 106.676 20.6993 106.301 20.682C106.036 20.7095 105.768 20.6813 105.515 20.5991C105.262 20.5169 105.029 20.3826 104.831 20.2048C104.633 20.0271 104.475 19.8098 104.366 19.567C104.257 19.3243 104.2 19.0614 104.199 18.7953ZM108.252 18.2566V17.7296L106.712 17.828C105.844 17.8861 105.45 18.1814 105.45 18.7372C105.45 19.3046 105.942 19.6347 106.619 19.6347C106.817 19.6548 107.018 19.6348 107.208 19.5759C107.399 19.5169 107.575 19.4203 107.728 19.2917C107.88 19.1631 108.005 19.0052 108.095 18.8274C108.185 18.6496 108.238 18.4555 108.252 18.2566Z" fill="white"/>
<path d="M111.125 17.4228C111.125 15.4308 112.149 14.1689 113.742 14.1689C114.136 14.1507 114.527 14.2451 114.869 14.4409C115.211 14.6368 115.491 14.926 115.675 15.2749H115.768V11.8125H117.012V20.5775H115.82V19.5815H115.721C115.523 19.928 115.234 20.2136 114.885 20.4075C114.536 20.6014 114.141 20.6961 113.742 20.6814C112.138 20.6815 111.125 19.4195 111.125 17.4228ZM112.41 17.4228C112.41 18.7599 113.04 19.5645 114.095 19.5645C115.143 19.5645 115.791 18.7483 115.791 17.4282C115.791 16.1144 115.136 15.2865 114.095 15.2865C113.047 15.2865 112.41 16.0966 112.41 17.4228H112.41Z" fill="white"/>
<path d="M122.161 17.4233C122.121 17.009 122.168 16.591 122.3 16.1961C122.431 15.8012 122.644 15.4381 122.923 15.1301C123.203 14.8222 123.545 14.5761 123.925 14.4077C124.306 14.2393 124.717 14.1523 125.133 14.1523C125.55 14.1523 125.961 14.2393 126.342 14.4077C126.722 14.5761 127.064 14.8222 127.344 15.1301C127.623 15.4381 127.836 15.8012 127.967 16.1961C128.099 16.591 128.146 17.009 128.106 17.4233C128.147 17.838 128.1 18.2565 127.969 18.6521C127.838 19.0476 127.626 19.4114 127.346 19.7199C127.066 20.0285 126.724 20.2751 126.343 20.4439C125.962 20.6126 125.55 20.6998 125.133 20.6998C124.717 20.6998 124.305 20.6126 123.924 20.4439C123.543 20.2751 123.201 20.0285 122.921 19.7199C122.641 19.4114 122.429 19.0476 122.298 18.6521C122.167 18.2565 122.12 17.838 122.161 17.4233ZM126.827 17.4233C126.827 16.0568 126.213 15.2577 125.136 15.2577C124.054 15.2577 123.446 16.0568 123.446 17.4233C123.446 18.8007 124.054 19.5937 125.136 19.5937C126.213 19.5937 126.827 18.7952 126.827 17.4233Z" fill="white"/>
<path d="M129.775 14.2724H130.973V15.2739H131.066C131.224 14.9142 131.49 14.6127 131.827 14.4113C132.164 14.21 132.556 14.1189 132.947 14.1507C133.254 14.1277 133.562 14.1739 133.848 14.2861C134.135 14.3982 134.392 14.5733 134.602 14.7985C134.812 15.0237 134.968 15.2931 135.059 15.5869C135.15 15.8806 135.174 16.1912 135.129 16.4954V20.5764H133.885V16.8079C133.885 15.7948 133.445 15.291 132.525 15.291C132.317 15.2813 132.109 15.3167 131.915 15.3949C131.722 15.473 131.548 15.5921 131.405 15.7438C131.262 15.8956 131.154 16.0764 131.087 16.274C131.02 16.4716 130.997 16.6812 131.02 16.8885V20.5765H129.775V14.2724Z" fill="white"/>
<path d="M142.16 12.7031V14.3014H143.526V15.3493H142.16V18.5909C142.16 19.2513 142.432 19.5404 143.052 19.5404C143.21 19.5399 143.369 19.5303 143.526 19.5117V20.548C143.303 20.588 143.076 20.6092 142.849 20.6116C141.466 20.6116 140.915 20.1249 140.915 18.9094V15.3493H139.914V14.3013H140.915V12.7031H142.16Z" fill="white"/>
<path d="M145.225 11.8125H146.458V15.2865H146.556C146.722 14.9235 146.995 14.6202 147.339 14.4182C147.683 14.2161 148.081 14.125 148.478 14.1572C148.784 14.1406 149.089 14.1916 149.372 14.3064C149.655 14.4213 149.909 14.5972 150.117 14.8217C150.324 15.0462 150.479 15.3136 150.571 15.605C150.664 15.8964 150.69 16.2045 150.65 16.5074V20.5775H149.404V16.8143C149.404 15.8074 148.935 15.2974 148.056 15.2974C147.842 15.2799 147.627 15.3093 147.426 15.3836C147.225 15.4578 147.042 15.5752 146.891 15.7274C146.74 15.8797 146.624 16.0631 146.551 16.2649C146.478 16.4667 146.45 16.682 146.469 16.8957V20.5775H145.225L145.225 11.8125Z" fill="white"/>
<path d="M157.905 18.8761C157.736 19.4522 157.37 19.9506 156.87 20.284C156.371 20.6174 155.77 20.7646 155.173 20.6999C154.758 20.7108 154.345 20.6313 153.964 20.4668C153.582 20.3022 153.241 20.0566 152.964 19.747C152.687 19.4374 152.481 19.0713 152.359 18.6739C152.238 18.2766 152.204 17.8576 152.261 17.446C152.206 17.0332 152.24 16.6133 152.361 16.2147C152.482 15.8162 152.687 15.4483 152.963 15.136C153.239 14.8237 153.578 14.5743 153.959 14.4046C154.339 14.2349 154.751 14.1489 155.168 14.1524C156.922 14.1524 157.98 15.3508 157.98 17.3304V17.7646H153.529V17.8343C153.509 18.0656 153.538 18.2985 153.614 18.5179C153.69 18.7374 153.811 18.9386 153.969 19.1086C154.127 19.2787 154.319 19.4138 154.532 19.5053C154.745 19.5969 154.975 19.6429 155.208 19.6403C155.505 19.676 155.807 19.6224 156.074 19.4863C156.341 19.3502 156.561 19.1378 156.707 18.876L157.905 18.8761ZM153.529 16.8444H156.713C156.728 16.6329 156.7 16.4203 156.628 16.2205C156.557 16.0207 156.445 15.8381 156.299 15.6843C156.152 15.5305 155.976 15.4089 155.78 15.3275C155.584 15.246 155.373 15.2065 155.161 15.2113C154.946 15.2086 154.732 15.249 154.533 15.3302C154.334 15.4113 154.153 15.5315 154 15.6837C153.848 15.8359 153.728 16.017 153.647 16.2163C153.566 16.4157 153.526 16.6293 153.529 16.8444H153.529Z" fill="white"/>
</svg>
