<svg width="37" height="38" viewBox="0 0 37 38" fill="none" xmlns="http://www.w3.org/2000/svg">
<path d="M9.18489 18.2031L9.16016 19.8241L11.2205 21.8839L12.5095 21.6743L13.1189 20.734L10.683 18.2987L9.18489 18.2031Z" fill="#D9E5FF"/>
<path d="M7.9602 23.2615L5.05149 19.4219L0.265625 19.3028L2.98315 15.3231L1.61656 10.6903L6.2048 12.0702L10.1461 9.32617L10.2642 14.1587L14.0668 17.0957L9.55151 18.7024L7.9602 23.2615Z" fill="#FDBF00"/>
<path d="M25.9546 18.3011C25.1812 19.0743 24.2931 19.9619 23.5195 20.7351L23.9431 21.8847H25.4182C26.1381 21.1651 26.7572 20.5463 27.4772 19.8266L27.6013 18.1992L25.9546 18.3011Z" fill="#BED5FF"/>
<path d="M35.0205 10.6903C33.7768 11.0643 31.1644 11.85 30.4323 12.0702C29.364 11.3265 27.1199 9.76402 26.4909 9.32617C26.4765 9.91309 26.3872 13.5697 26.3729 14.1587C25.911 14.5154 23.0338 16.7377 22.5703 17.0956C23.1187 17.2908 26.5352 18.5065 27.0855 18.7023C27.2787 19.256 28.4828 22.7058 28.6767 23.2615C29.03 22.7952 31.2309 19.89 31.5854 19.4219C32.1667 19.4074 35.788 19.3173 36.3714 19.3028C35.6347 18.2241 34.0875 15.9582 33.6538 15.3231C33.8198 14.7604 34.8539 11.2549 35.0205 10.6903Z" fill="#FF9F22"/>
<path d="M17.7955 17.7168L17.2443 18.2347C15.971 19.0061 12.5627 21.0708 11.2188 21.8849C11.5596 22.4672 13.6848 26.0986 14.0271 26.6836V31.8423L16.172 32.5643L18.3169 31.8423L19.0319 26.1575L18.3169 18.2348L17.7955 17.7168Z" fill="#FFDA2D"/>
<path d="M22.6062 26.6852C22.9458 26.105 25.0742 22.4692 25.416 21.8851C24.0146 21.0366 20.4999 18.9087 19.3893 18.2361L18.8139 17.8086L18.3164 18.2365V31.844L20.4613 32.5659L22.6062 31.844C22.6062 31.2199 22.6062 27.3133 22.6062 26.6852Z" fill="#FDBF00"/>
<path d="M17.7823 11.6407L17.2461 12.6219V18.2342H18.3185L19.0335 14.8439L18.3185 12.1033C18.3094 12.0955 17.775 11.6343 17.7823 11.6407Z" fill="#ECF2FF"/>
<path d="M19.3928 12.6218L18.8565 11.6406L18.3203 12.1033V18.2342H19.3928C19.3928 16.4501 19.3928 14.4058 19.3928 12.6218Z" fill="#D9E5FF"/>
<path d="M18.3186 0.773438C18.0419 1.28983 16.3182 4.50692 16.0406 5.02512C14.767 5.2614 12.0862 5.75888 11.332 5.89886C11.7329 6.32414 14.2304 8.97344 14.6328 9.40017C14.4617 10.6962 14.1019 13.4243 14.0007 14.1918C14.5251 13.9383 17.7923 12.3586 18.3186 12.1041L19.0336 7.88262L18.3186 0.773438Z" fill="#FFDA2D"/>
<path d="M22.0023 9.40017C22.4032 8.97489 24.9006 6.32558 25.3029 5.89886C24.0294 5.66257 21.3485 5.16502 20.5944 5.02512C20.3193 4.5119 18.5923 1.28846 18.3164 0.773438V12.1042C18.8387 12.3567 22.1103 13.9385 22.6344 14.1919C22.4629 12.893 22.1031 10.1648 22.0023 9.40017Z" fill="#FDBF00"/>
<path d="M19.0311 33.6125L18.3162 31.8438C17.5376 31.8438 12.665 31.8438 11.8814 31.8438C11.8814 33.635 10.4382 35.0924 8.66406 35.0924L14.4374 35.8143L18.3162 35.0924L19.0311 33.6125Z" fill="#495F66"/>
<path d="M6.51953 37.2556H18.3165L19.0315 36.1727L18.3165 35.0898C14.6765 35.0898 10.1878 35.0898 6.51953 35.0898V37.2556Z" fill="#3B4A51"/>
<path d="M24.7511 31.8438C23.9726 31.8438 19.1001 31.8438 18.3164 31.8438V35.0924L22.3917 35.8143L27.9685 35.0924C26.1945 35.0924 24.7511 33.6352 24.7511 31.8438Z" fill="#3B4A51"/>
<path d="M30.1134 37.2556C30.1134 36.4982 30.1134 35.8473 30.1134 35.0898C28.7286 35.0898 21.7454 35.0898 18.3164 35.0898V37.2556H30.1134Z" fill="#283646"/>
</svg>
