<svg width="1440" height="142" viewBox="0 0 1440 142" fill="none" xmlns="http://www.w3.org/2000/svg">
<path fill-rule="evenodd" clip-rule="evenodd" d="M0 4.50344L24 12.2614C48 20.0193 96 35.5351 144 35.5351C192 35.5351 240 20.0192 288 10.3887C336 0.758171 384 -2.98704 432 2.63076C480 8.51607 528 23.7644 576 29.6497C624 35.535 672 31.5223 720 23.7644C768 16.274 816 4.50329 864 4.50329C912 4.50328 960 16.2739 1008 21.8917C1056 27.777 1104 27.777 1152 35.5349C1200 43.0253 1248 58.5412 1296 64.4265C1344 70.0443 1392 66.2991 1416 64.4265L1440 62.2864V142H1416C1392 142 1344 142 1296 142C1248 142 1200 142 1152 142C1104 142 1056 142 1008 142C960 142 912 142 864 142C816 142 768 142 720 142C672 142 624 142 576 142C528 142 480 142 432 142C384 142 336 142 288 142C240 142 192 142 144 142C96 142 48 142 24 142H2.40407e-05L0 4.50344Z" fill="#FAFBFD"/>
</svg>
