<svg width="1440" height="201" viewBox="0 0 1440 201" fill="none" xmlns="http://www.w3.org/2000/svg">
<path fill-rule="evenodd" clip-rule="evenodd" d="M1.19204e-06 93.5307L34.8 98.0631C68.4 102.595 136.8 111.66 205.2 107.128C274.8 102.595 343.2 84.4661 411.6 88.9985C480 93.5308 548.4 120.725 616.8 138.854C685.2 156.984 754.8 166.049 823.2 152.452C891.6 138.854 960 102.596 1028.4 111.66C1096.8 120.725 1165.2 175.113 1234.8 193.243C1303.2 211.372 1371.6 193.243 1405.2 184.178L1440 175.113L1440 0.000251778L1405.2 0.000245693C1371.6 0.000239818 1303.2 0.000227859 1234.8 0.000215899C1165.2 0.00020373 1096.8 0.000191771 1028.4 0.000179811C960 0.000167852 891.6 0.000155892 823.2 0.000143933C754.8 0.000131973 685.2 0.000119804 616.8 0.000107845C548.4 9.58853e-05 480 8.39259e-05 411.6 7.19664e-05C343.2 6.0007e-05 274.8 4.80476e-05 205.2 3.58783e-05C136.8 2.39189e-05 68.4 1.19594e-05 34.8 6.08462e-06L0 0L1.19204e-06 93.5307Z" fill="#F2F6FB" fill-opacity="0.4"/>
</svg>
