<svg width="677" height="729" viewBox="0 0 677 729" fill="none" xmlns="http://www.w3.org/2000/svg">
<path d="M0.000818253 134.408C12.2853 170.328 64.8016 204.358 111.483 173.637C184.136 125.825 241.855 -10.567 351.645 0.653252C508.886 16.7227 488.107 262.454 559.867 342.839C650.158 443.982 737.332 552.5 619.973 614.5C-114.387 865 0.000818253 625 0.000818253 625V134.408Z" fill="#F2F6FB"/>
<g clip-path="url(#clip0_376_4680)">
<path d="M187.654 338.305V371.997C187.654 376.104 191.554 379.781 197.943 382.552C204.746 385.488 214.375 387.318 225.06 387.318C245.714 387.318 262.43 380.458 262.43 372.014V338.321H187.654V338.305Z" fill="#945915"/>
<path d="M187.652 338.305V371.997C187.652 376.104 191.553 379.782 197.941 382.552V348.859L195.906 339.921L194.135 338.321H187.652V338.305Z" fill="#874C12"/>
<path d="M187.654 338.304C187.654 342.411 191.554 346.088 197.943 348.859C204.746 351.795 214.375 353.625 225.06 353.625C245.714 353.625 262.43 346.765 262.43 338.321C262.43 337.529 262.279 336.738 261.996 335.962L257.775 324.253L249.408 326.711C242.869 324.402 234.351 323 225.042 323C217.315 323 210.117 323.957 204.162 325.622C202.956 325.936 201.787 326.298 200.675 326.694L192.12 324.732L188.106 335.946C187.804 336.705 187.654 337.48 187.654 338.304Z" fill="#FFCB24"/>
<path d="M187.652 338.306C187.652 342.413 191.553 346.09 197.941 348.861L203.972 327.752C203.972 327.752 204.085 326.861 204.16 325.641C202.954 325.954 201.786 326.317 200.674 326.713L192.118 324.75L188.104 335.964C187.803 336.707 187.652 337.482 187.652 338.306Z" fill="#F9B800"/>
<path d="M225.04 340.319C206.67 340.319 191.779 334.22 191.779 326.696C191.779 319.173 206.67 313.074 225.04 313.074C243.409 313.074 258.301 319.173 258.301 326.696C258.301 334.22 243.409 340.319 225.04 340.319Z" fill="#FFD357"/>
<path d="M225.172 325.458C230.373 325.458 234.613 321.764 234.613 317.196V282.662H215.749V317.196C215.749 321.764 219.971 325.458 225.172 325.458Z" fill="#FBC006"/>
<path d="M215.731 282.662V317.196C215.731 321.517 219.556 325.079 224.399 325.425C222.477 323.957 221.29 321.764 221.29 319.34V284.806H234.613V282.662H215.731Z" fill="#F7A500"/>
<path d="M169.015 199.131V255.351C169.015 282.414 194.098 304.381 225.041 304.381C228.169 304.381 231.26 304.15 234.237 303.705C244.244 302.287 253.346 298.527 260.808 293.101C273.189 284.08 281.066 270.524 281.066 255.351V199.131H169.015Z" fill="#FFCB24"/>
<path d="M234.255 303.705C244.261 302.287 253.364 298.527 260.826 293.101C268.59 284.706 273.207 274.003 273.207 262.36V206.156H260.204V262.377C260.185 279.759 249.84 295.03 234.255 303.705Z" fill="#FFD96E"/>
<path d="M169.016 199.131V255.351C169.016 279.05 188.219 298.824 213.753 303.392C199.488 294.519 190.216 279.94 190.216 263.449V207.228H281.086V199.131H169.016Z" fill="#F9B800"/>
<path d="M225.041 214.533C194.089 214.533 168.997 207.637 168.997 199.13C168.997 190.623 194.089 183.727 225.041 183.727C255.994 183.727 281.086 190.623 281.086 199.13C281.086 207.637 255.994 214.533 225.041 214.533Z" fill="#FFD96E"/>
<path d="M225.114 212.752C196.441 212.752 173.196 206.653 173.196 199.13C173.196 191.607 196.441 185.508 225.114 185.508C253.787 185.508 277.031 191.607 277.031 199.13C277.031 206.653 253.787 212.752 225.114 212.752Z" fill="#C5A600"/>
<path d="M225.041 358.243C224.57 358.243 224.099 358.243 223.609 358.226V374.091C224.08 374.108 224.551 374.108 225.041 374.108C239.476 374.108 252.008 370.76 258.227 365.845V349.98C252.008 354.895 239.476 358.243 225.041 358.243Z" fill="#FFCB24"/>
<path d="M313.536 260.793C313.518 261.931 315.854 262.855 318.738 262.871C321.621 262.888 323.958 261.997 323.976 260.859C323.995 259.738 321.659 258.798 318.775 258.781C315.892 258.765 313.555 259.656 313.536 260.793Z" fill="#C93CA9"/>
<path d="M313.712 241.994L324.152 242.074L323.96 260.891L313.52 260.811L313.712 241.994Z" fill="#C93CA9"/>
<path d="M313.724 241.977C313.705 243.098 316.042 244.039 318.925 244.055C321.808 244.072 324.145 243.181 324.164 242.043C324.183 240.922 321.846 239.982 318.963 239.965C316.08 239.949 313.743 240.856 313.724 241.977Z" fill="#9537CC"/>
<path d="M296.895 207.541C296.895 207.541 286.718 223.373 283.76 227.958C280.801 232.559 252.025 243.246 215.768 218.986C199.297 208.168 192.966 189.961 196.584 184.321C200.202 178.697 212.036 160.309 212.036 160.309L296.895 207.541Z" fill="#C53CAC"/>
<path d="M327.422 212.456L229.523 215.458L183.316 142.614L281.497 139.596L327.422 212.456Z" fill="#0A2982"/>
<path d="M185.749 138.838L183.318 142.615L188.708 145.27L192.27 143.983L185.749 138.838Z" fill="#0A2982"/>
<path d="M329.836 208.679L327.424 212.455L320.037 206.32L329.836 208.679Z" fill="#0A2982"/>
<path d="M329.836 208.68L231.956 211.682L185.749 138.837L283.93 135.836L329.836 208.68Z" fill="url(#paint0_linear_376_4680)"/>
<path d="M318.829 242.802C319.357 242.802 319.809 242.422 319.809 241.944L319.828 208.631C319.828 208.35 319.677 208.103 319.414 207.938L259.336 170.568C258.903 170.304 258.3 170.386 257.98 170.766C257.678 171.145 257.772 171.673 258.206 171.953L317.887 209.076L317.868 241.944C317.868 242.422 318.302 242.802 318.829 242.802Z" fill="#F05DCB"/>
<path d="M253.305 171.459C253.626 174.163 256.377 176.109 259.468 175.829C262.558 175.549 264.782 173.141 264.461 170.436C264.141 167.732 261.39 165.786 258.299 166.066C255.228 166.346 252.985 168.754 253.305 171.459Z" fill="#0A2982"/>
<path d="M391.497 301.89C391.497 310.532 405.593 317.541 422.987 317.541C440.381 317.541 454.477 310.532 454.477 301.89C454.477 293.248 440.381 286.256 422.987 286.256C405.593 286.239 391.497 293.248 391.497 301.89Z" fill="url(#paint1_linear_376_4680)"/>
<path d="M466.406 213.131L454.477 296.068H454.346C453.083 304.132 439.534 310.482 422.969 310.482C405.575 310.482 391.479 303.473 391.479 294.848L379.551 213.147H466.406V213.131Z" fill="#AB1280"/>
<path d="M379.588 213.148L391.517 294.849C391.517 301.181 399.074 306.624 409.966 309.081C408.289 307.168 407.347 305.057 407.347 302.847L395.437 221.147H465.257L466.406 213.148H379.588Z" fill="#CF3DA6"/>
<path d="M422.988 234.703C399.009 234.703 379.569 225.045 379.569 213.132C379.569 201.218 399.009 191.561 422.988 191.561C446.967 191.561 466.406 201.218 466.406 213.132C466.406 225.045 446.967 234.703 422.988 234.703Z" fill="#D0DCFE"/>
<path d="M422.99 229.773C402.122 229.773 385.206 222.323 385.206 213.132C385.206 203.942 402.122 196.492 422.99 196.492C443.857 196.492 460.773 203.942 460.773 213.132C460.773 222.323 443.857 229.773 422.99 229.773Z" fill="#FF62D3"/>
<path d="M422.99 229.773C402.122 229.773 385.206 222.323 385.206 213.132C385.206 203.942 402.122 196.492 422.99 196.492C443.857 196.492 460.773 203.942 460.773 213.132C460.773 222.323 443.857 229.773 422.99 229.773Z" fill="#CF3DA6"/>
<path d="M406.898 205.661L407.859 205.497C408.368 205.414 408.707 204.969 408.613 204.524L405.805 191.841C405.711 191.396 405.202 191.099 404.693 191.182L403.732 191.347C403.224 191.429 402.884 191.874 402.979 192.32L405.786 205.002C405.9 205.447 406.39 205.744 406.898 205.661Z" fill="#FD9220"/>
<path d="M410.836 267.985C411.081 269.123 413.38 269.304 415.961 268.364C418.543 267.424 420.446 265.742 420.201 264.604C419.956 263.466 417.657 263.285 415.076 264.225C412.494 265.148 410.591 266.831 410.836 267.985Z" fill="#9A98ED"/>
<path d="M400.755 174.773L420.203 264.604L410.837 267.985L391.389 178.138L400.755 174.773Z" fill="#FBC006"/>
<path d="M391.386 178.137C391.631 179.275 393.93 179.457 396.512 178.517C399.094 177.577 400.997 175.894 400.752 174.756C400.507 173.619 398.208 173.437 395.626 174.377C393.026 175.317 391.122 176.999 391.386 178.137Z" fill="#205CE1"/>
<path d="M415.187 155.296L415.263 158.149L415.3 159.32L415.413 163.262L415.432 164.432L415.545 168.374L415.583 169.545L415.677 173.371L415.715 174.542L415.828 178.401L415.866 179.572L415.96 183.513L415.998 184.651L416.111 188.593L416.167 189.731L416.261 193.59L416.299 194.728L416.412 198.62L416.431 199.791L416.544 203.683L416.582 204.821L416.676 208.779L416.714 209.95L416.827 213.891L416.864 215.029L416.959 218.938L416.996 220.076L417.109 224.034L417.147 225.172L417.241 229.064L417.279 230.235L417.392 234.176L417.411 235.314L417.863 251.393C417.957 255.071 420.973 257.644 423.931 256.539L433.674 252.878C435.69 252.103 437.028 249.827 436.915 247.32L433.617 153.02C433.504 149.672 430.96 147.215 428.209 147.759L419.069 149.573C416.77 150.068 415.112 152.492 415.187 155.296Z" fill="#8D36D1"/>
<path d="M415.261 158.165L415.299 159.336C415.318 159.336 415.337 159.336 415.374 159.319L419.52 158.379C419.765 158.313 419.935 158.016 419.897 157.686C419.841 157.39 419.596 157.159 419.332 157.258L415.261 158.165Z" fill="white"/>
<path d="M415.412 163.261L415.431 164.432C415.468 164.432 415.487 164.432 415.525 164.415L419.671 163.459C419.935 163.409 420.104 163.113 420.048 162.799C419.991 162.502 419.746 162.272 419.501 162.338L415.412 163.261Z" fill="white"/>
<path d="M415.545 168.373L415.583 169.544C415.621 169.544 415.64 169.527 415.677 169.527L419.823 168.571C420.087 168.521 420.257 168.208 420.2 167.911C420.144 167.598 419.917 167.383 419.654 167.449L415.545 168.373Z" fill="white"/>
<path d="M415.678 173.353L415.715 174.524C415.753 174.524 415.772 174.524 415.791 174.508L419.936 173.551C420.2 173.502 420.37 173.205 420.313 172.892C420.257 172.578 420.031 172.364 419.767 172.43L415.678 173.353Z" fill="white"/>
<path d="M415.847 178.384L415.885 179.555C415.904 179.555 415.923 179.555 415.96 179.539L420.106 178.582C420.351 178.533 420.521 178.236 420.483 177.922C420.427 177.625 420.182 177.395 419.918 177.461L415.847 178.384Z" fill="white"/>
<path d="M415.977 183.496L416.015 184.634H416.109L420.255 183.678C420.5 183.612 420.669 183.315 420.631 182.985C420.575 182.688 420.33 182.457 420.066 182.556L415.977 183.496Z" fill="white"/>
<path d="M416.128 188.576L416.165 189.731C416.184 189.731 416.203 189.731 416.222 189.714L420.368 188.758C420.613 188.708 420.782 188.411 420.745 188.098C420.688 187.801 420.443 187.57 420.179 187.636L416.128 188.576Z" fill="white"/>
<path d="M416.26 193.605L416.298 194.743H416.392L420.538 193.787C420.802 193.721 420.971 193.424 420.915 193.127C420.858 192.814 420.613 192.583 420.368 192.665L416.26 193.605Z" fill="white"/>
<path d="M416.411 198.637L416.43 199.808C416.449 199.808 416.468 199.808 416.505 199.791L420.651 198.835C420.915 198.785 421.085 198.488 421.028 198.175C420.972 197.862 420.746 197.647 420.482 197.713L416.411 198.637Z" fill="white"/>
<path d="M416.545 203.699L416.582 204.837H416.658L420.804 203.88C421.067 203.815 421.237 203.518 421.181 203.221C421.124 202.907 420.879 202.677 420.634 202.759L416.545 203.699Z" fill="white"/>
<path d="M416.676 208.796L416.714 209.967C416.751 209.967 416.77 209.967 416.808 209.951L420.954 208.994C421.199 208.945 421.368 208.648 421.331 208.334C421.274 208.038 421.048 207.807 420.765 207.873L416.676 208.796Z" fill="white"/>
<path d="M416.827 213.908L416.864 215.046H416.883C416.902 215.046 416.94 215.029 416.959 215.029L421.104 214.073C421.368 214.023 421.538 213.71 421.481 213.413C421.444 213.1 421.199 212.885 420.935 212.951L416.827 213.908Z" fill="white"/>
<path d="M416.958 218.954L416.996 220.092C417.015 220.092 417.015 220.092 417.034 220.092C417.071 220.092 417.09 220.092 417.128 220.076L421.274 219.119C421.537 219.07 421.688 218.773 421.651 218.459C421.594 218.163 421.349 217.932 421.104 217.998L416.958 218.954Z" fill="white"/>
<path d="M417.128 224.065L417.165 225.203H417.222L421.368 224.247C421.613 224.181 421.782 223.884 421.745 223.587C421.688 223.274 421.462 223.059 421.179 223.125L417.128 224.065Z" fill="white"/>
<path d="M417.259 229.097L417.297 230.268C417.315 230.268 417.334 230.268 417.353 230.251L421.499 229.295C421.763 229.245 421.932 228.949 421.876 228.635C421.838 228.338 421.593 228.107 421.329 228.173L417.259 229.097Z" fill="white"/>
<path d="M417.412 234.192L417.431 235.33H417.525L421.671 234.374C421.935 234.308 422.104 234.011 422.048 233.714C422.01 233.401 421.746 233.186 421.501 233.252L417.412 234.192Z" fill="white"/>
<path d="M596.812 375.544L566.416 390.864L494.014 354.385L524.185 338.965L596.812 375.544Z" fill="url(#paint2_linear_376_4680)"/>
<path d="M521.714 230.235L589.367 264.34L566.414 275.901L517.908 241.318V232.165C517.908 230.45 520.018 229.378 521.714 230.235Z" fill="#AB1280"/>
<path d="M589.367 267.506L522.11 233.582L497.895 245.819L565.133 279.726L589.367 267.506Z" fill="#FF62D3"/>
<path d="M496.049 242.142C496.916 241.663 497.971 241.383 498.97 241.894L566.396 275.884L589.349 264.323L521.697 230.218C520.98 229.855 520.17 229.855 519.492 230.086V230.07C519.492 230.07 521.847 229.064 522.771 228.569C523.619 228.14 524.636 227.909 525.616 228.387L596.793 264.273V368.93L570.128 355.489V382.404L497.349 345.71C495.992 345.017 495.144 343.747 495.144 342.378L492.864 243.659C492.902 243.692 495.012 242.719 496.049 242.142Z" fill="#D931AA"/>
<path d="M566.416 279.645L596.812 264.324V368.981L566.416 384.302V279.645Z" fill="#CF3DA6"/>
<path d="M570.541 285.3L593.984 273.492V281.491L570.541 293.299V285.3Z" fill="white"/>
<path d="M570.541 295.871L593.984 284.047V286.817L570.541 298.642V295.871Z" fill="white"/>
<path d="M570.541 301.017L593.984 289.209V291.98L570.541 303.788V301.017Z" fill="white"/>
<path d="M570.541 370.696L593.984 358.871V361.642L570.541 373.466V370.696Z" fill="white"/>
<path d="M495.237 243.774L566.414 279.661V384.317L493.635 347.623C492.279 346.93 491.431 345.661 491.431 344.292V245.704C491.431 243.989 493.541 242.917 495.237 243.774Z" fill="#AB1280"/>
<path d="M542.367 384.087L511.971 399.407L439.569 362.928L469.739 347.508L542.367 384.087Z" fill="url(#paint3_linear_376_4680)"/>
<path d="M467.269 237.919L534.922 272.024L511.969 283.585L463.462 249.001V239.849C463.462 238.133 465.573 237.061 467.269 237.919Z" fill="#B4BBE1"/>
<path d="M534.941 275.192L467.666 241.285L443.45 253.506L510.707 287.413L534.941 275.192Z" fill="#DAE3F2"/>
<path d="M441.604 249.827C442.471 249.349 443.526 249.068 444.525 249.58L511.971 283.569L534.923 272.009L467.271 237.904C466.555 237.541 465.744 237.541 465.066 237.772V237.755C465.066 237.755 467.421 236.749 468.345 236.254C469.193 235.826 470.21 235.595 471.19 236.073L542.367 271.959V376.616L515.702 363.175V390.09L442.923 353.395C441.566 352.703 440.718 351.433 440.718 350.064L438.438 251.344C438.457 251.377 440.568 250.404 441.604 249.827Z" fill="#CED2EF"/>
<path d="M511.971 287.345L542.367 272.008V376.665L511.971 391.985V287.345Z" fill="#C5C8E8"/>
<path d="M516.096 292.986L539.539 281.178V289.176L516.096 301.001V292.986Z" fill="white"/>
<path d="M516.096 303.558L539.539 291.75V294.521L516.096 306.329V303.558Z" fill="white"/>
<path d="M516.096 308.719L539.539 296.895V299.665L516.096 311.49V308.719Z" fill="white"/>
<path d="M516.096 378.379L539.539 366.555V369.325L516.096 381.15V378.379Z" fill="white"/>
<path d="M440.792 251.46L511.969 287.346V392.003L439.19 355.309C437.833 354.616 436.985 353.346 436.985 351.977V253.39C436.985 251.674 439.096 250.602 440.792 251.46Z" fill="#B4BBE1"/>
<path d="M75.9806 249.001V295.986L79.6176 297.718L129.632 264.8L137.434 221.575L133.815 219.844L75.9806 249.001Z" fill="#FF9906"/>
<path d="M75.9817 249V295.985L79.6187 297.717L129.633 264.799L79.6187 250.732L75.9817 249Z" fill="#EF770A"/>
<path d="M79.6179 250.734V297.719L137.434 268.561V221.576L79.6179 250.734Z" fill="#FCC106"/>
<path d="M130.254 237.045V240.97L109.355 261.469L88.4184 261.914V258.006L130.254 237.045Z" fill="white"/>
<path d="M109.355 263.745L130.254 243.246V263.284L88.4184 284.245V264.191L109.355 263.745Z" fill="white"/>
<path d="M307.47 286.009V319.091L311.503 321.037L346.724 297.866L352.227 267.423L348.194 265.477L307.47 286.009Z" fill="#FF9906"/>
<path d="M307.469 286.008V319.09L311.502 321.036L346.723 297.865L311.502 287.954L307.469 286.008Z" fill="#EF770A"/>
<path d="M311.503 287.954V321.036L352.227 300.521V267.422L311.503 287.954Z" fill="#FCC106"/>
<path d="M341.992 290.693L336.471 300.242L320.603 290.066" stroke="white" stroke-width="3.1599" stroke-miterlimit="10" stroke-linecap="round" stroke-linejoin="round"/>
<path d="M53.5912 365.335V398.434L57.624 400.38L92.8449 377.193L98.3477 346.765L94.3337 344.803L53.5912 365.335Z" fill="#CF3DA6"/>
<path d="M53.5902 365.336V398.435L57.623 400.381L92.8438 377.194L57.623 367.298L53.5902 365.336Z" fill="#5C1047"/>
<path d="M57.6241 367.298V400.38L98.3477 379.848V346.766L57.6241 367.298Z" fill="#842C6B"/>
<path d="M78.9185 363.62L81.9902 367.48C82.1786 367.71 82.5178 367.793 82.8193 367.661L89.4716 365.072C90.1123 364.824 90.6776 365.418 90.3007 365.946L84.9865 373.202C84.8923 373.334 84.8546 373.499 84.8734 373.664L86.2491 379.947C86.3245 380.31 86.0041 380.689 85.5707 380.706L78.4474 381.102C78.2589 381.118 78.0705 381.184 77.9385 381.316L71.4371 387.649C70.966 388.111 70.1368 387.797 70.231 387.187L71.3806 380.772C71.4371 380.492 71.2675 380.244 70.966 380.145L65.9344 378.447C65.4256 378.282 65.3691 377.671 65.8214 377.391L73.8304 372.246C73.9435 372.163 74.0377 372.064 74.0943 371.949L77.6559 363.802C77.882 363.324 78.5981 363.225 78.9185 363.62Z" fill="white"/>
<path d="M529.008 421.078L273.058 549.648L114.856 469.662L370.806 341.076L529.008 421.078Z" fill="url(#paint4_linear_376_4680)"/>
<path d="M370.806 328.789L114.856 457.359V462.356L273.058 542.357L529.008 413.771V408.774L370.806 328.789Z" fill="#D0A5F2"/>
<path d="M529.008 408.774L273.058 537.36L114.856 457.359L370.806 328.789L529.008 408.774Z" fill="#8D36D1"/>
<path d="M368.848 314.541C368.848 314.541 322.207 319.357 244.095 379.7C244.095 379.7 176.574 391.013 123.941 437.603V454.671L273.21 529.676L518.117 406.631V389.546L368.848 314.541Z" fill="white"/>
<path d="M518.117 389.547C518.117 389.547 471.476 394.362 393.365 454.706C393.365 454.706 325.844 466.019 273.21 512.608V529.677L518.117 406.632V389.547Z" fill="#F5F5F5"/>
<path d="M123.938 437.602L273.207 512.606V529.692L123.938 454.687V437.602Z" fill="#E2E2E2"/>
<path d="M134.304 404.981L283.592 479.969C291.262 475.665 298.951 472.07 306.527 469.085C312.557 466.71 318.493 464.698 324.278 463.016C362.345 451.933 393.363 454.721 393.363 454.721L244.075 379.716C244.075 379.7 188.144 374.686 134.304 404.981Z" fill="#F5F5F5"/>
<path d="M151.98 408.248L155.522 410.029C195.153 389.777 234.991 387.897 250.82 388.078L244.752 385.027C225.474 385.473 188.444 389.117 151.98 408.248Z" fill="url(#paint5_linear_376_4680)"/>
<path d="M168.076 416.346L171.6 418.111C211.211 397.859 251.049 395.979 266.879 396.16L260.83 393.109C241.57 393.555 204.559 397.183 168.076 416.346Z" fill="url(#paint6_linear_376_4680)"/>
<path d="M184.13 424.41L187.654 426.174C227.228 405.939 267.085 404.026 282.934 404.224L276.847 401.156C257.587 401.602 220.576 405.279 184.13 424.41Z" fill="url(#paint7_linear_376_4680)"/>
<path d="M200.036 432.391L203.579 434.172C243.134 413.937 282.953 412.024 298.82 412.205L292.771 409.154C273.474 409.6 236.482 413.261 200.036 432.391Z" fill="url(#paint8_linear_376_4680)"/>
<path d="M216.149 440.489L219.672 442.27C259.247 422.035 299.028 420.122 314.914 420.303L308.865 417.252C289.587 417.681 252.613 421.342 216.149 440.489Z" fill="url(#paint9_linear_376_4680)"/>
<path d="M233.164 449.031L236.688 450.812C276.243 430.56 316.081 428.647 331.93 428.845L325.843 425.777C306.546 426.239 269.572 429.917 233.164 449.031Z" fill="url(#paint10_linear_376_4680)"/>
<path d="M249.428 457.195L252.952 458.976C292.489 438.757 332.251 436.811 348.156 436.992L342.107 433.941C322.791 434.403 285.818 438.081 249.428 457.195Z" fill="url(#paint11_linear_376_4680)"/>
<path d="M265.598 465.343L269.122 467.108C308.677 446.889 348.496 444.976 364.363 445.157L358.276 442.09C338.979 442.552 302.006 446.213 265.598 465.343Z" fill="url(#paint12_linear_376_4680)"/>
<path d="M374.879 325.014C358.804 329.103 320.436 342.297 265.994 383.114L262.677 381.448C315.028 342 352.322 327.801 370.469 322.787L374.879 325.014Z" fill="url(#paint13_linear_376_4680)"/>
<path d="M390.781 333.011C374.631 337.134 336.301 350.393 281.953 391.144L278.636 389.478C330.893 350.08 368.168 335.847 386.372 330.801L390.781 333.011Z" fill="url(#paint14_linear_376_4680)"/>
<path d="M407.027 341.176C390.972 345.249 352.604 358.442 298.123 399.276L294.807 397.61C347.176 358.146 384.489 343.963 402.618 338.949L407.027 341.176Z" fill="url(#paint15_linear_376_4680)"/>
<path d="M423.043 349.224C406.931 353.33 368.582 366.556 314.195 407.341L310.879 405.675C363.173 366.243 400.467 352.027 418.633 347.014L423.043 349.224Z" fill="url(#paint16_linear_376_4680)"/>
<path d="M439.195 357.339C423.083 361.429 384.734 374.655 330.329 415.456L327.012 413.79C379.325 374.358 416.6 360.159 434.767 355.129L439.195 357.339Z" fill="url(#paint17_linear_376_4680)"/>
<path d="M455.211 365.387C439.08 369.509 400.75 382.736 346.382 423.52L343.047 421.838C395.322 382.423 432.616 368.207 450.801 363.16L455.211 365.387Z" fill="url(#paint18_linear_376_4680)"/>
<path d="M471.305 373.484C455.211 377.591 416.843 390.801 362.457 431.601L359.122 429.919C411.435 390.487 448.729 376.288 466.895 371.258L471.305 373.484Z" fill="url(#paint19_linear_376_4680)"/>
<path d="M487.438 381.597C471.306 385.704 432.976 398.947 378.609 439.714L375.292 438.049C427.568 398.633 464.861 384.418 483.047 379.371L487.438 381.597Z" fill="url(#paint20_linear_376_4680)"/>
<path d="M370.73 398.615L364.757 399.143L364.059 403.596L273.209 357.946L280.502 353.279L370.73 398.615Z" fill="#6CE3FF"/>
<path opacity="0.5" d="M425.267 403.414C427.528 405.64 443.904 412.55 453.119 414.975C454.193 414.414 455.249 413.87 456.285 413.342L426.906 399.703C426.906 399.687 422.986 401.188 425.267 403.414Z" fill="#898989"/>
<path d="M455.437 307.201C455.437 307.201 458.829 310.78 456.7 316.667C455.381 320.312 454.194 320.658 453.873 322.571C453.553 324.485 456.7 328.096 454.005 333.555C452.63 336.342 444.149 333.093 444.149 333.093L439.834 328.096L444.149 317.739L455.437 307.201Z" fill="#2A3049"/>
<path d="M444.356 325.391L443.866 330.454C443.866 330.454 454.325 334.016 454.551 332.351C454.778 330.685 452.365 329.696 451.913 328.558C451.461 327.42 451.913 326.447 451.913 326.447C451.913 326.447 453.251 324.204 453.025 321.516" fill="#22293F"/>
<path d="M498.401 458.465C498.401 458.465 498.081 458.745 498.137 459.092C498.194 459.438 498.759 460.032 499.927 460.576C501.096 461.12 501.982 461.351 503.206 462.225C504.413 463.099 506.693 464.963 507.974 465.886C509.274 466.81 511.084 467.304 512.064 467.436C513.062 467.568 515.625 467.964 517.585 467.865C519.338 467.766 520.563 466.925 520.751 466.282C520.939 465.655 520.864 464.583 520.864 464.583" fill="#3A3D51"/>
<path d="M506.941 447.678V453.912V456.616H500.93L498.989 447.678H506.941Z" fill="#FFE1BD"/>
<path d="M450.728 389.708C450.728 389.708 457.041 404.864 469.78 408.756C471.853 409.399 473.869 409.894 475.791 410.306C485.647 412.384 492.978 411.774 492.978 411.774C491.828 422.972 497.557 443.966 498.97 448.913C499.178 449.656 499.856 450.2 500.685 450.365C500.836 450.398 501.005 450.414 501.156 450.431C502.758 450.645 504.247 450.464 505.34 450.216C506.395 449.969 507.149 449.161 507.187 448.204C507.526 440.618 509.109 404.567 504.398 401.714C492.77 394.639 464.258 386.228 458.454 384.315C457.776 384.101 457.248 383.639 456.965 383.045L455.062 378.988L450.728 389.708Z" fill="#3A3D51"/>
<path d="M472.377 401.699L475.788 410.308C485.644 412.386 492.974 411.776 492.974 411.776C491.825 422.974 497.554 443.968 498.967 448.915C499.174 449.657 499.853 450.201 500.682 450.366C500.833 450.399 501.002 450.416 501.153 450.432H501.172C495.707 433.726 496.611 407.686 496.611 407.686C484.909 408.329 472.754 401.897 472.377 401.699Z" fill="#333647"/>
<path d="M466.422 452.148L463.708 457.211C463.708 457.211 455.511 463.692 457.32 455.71L460.674 446.508" fill="#FFE1BD"/>
<path d="M423.06 392.001C423.55 396.685 425.19 401.913 432.426 405.475C438.796 408.625 452.251 414.315 468.457 417.943C467.854 419.18 467.195 420.582 466.479 422.165C463.614 428.382 460.297 444.33 459.11 449.574C458.922 450.399 459.167 451.24 459.732 451.9C459.864 452.048 459.996 452.18 460.147 452.295C461.164 453.07 462.634 453.911 464.236 453.911C465.329 453.911 466.29 453.318 466.78 452.477C470.078 446.771 485.964 419.576 487.321 413.771C487.472 413.094 487.679 411.989 487.359 411.198C487.264 410.884 487.151 410.654 487.019 410.505C479.821 403.859 455.436 394.277 455.436 394.277L455.059 379.006L428.28 381.612L424.115 382.007C424.115 382.007 422.646 388.093 423.06 392.001Z" fill="#3A3D51"/>
<path d="M423.062 392.001C423.552 396.685 425.192 401.913 432.428 405.475C438.798 408.625 452.253 414.315 468.46 417.943C467.857 419.18 467.197 420.581 466.481 422.165C463.616 428.382 460.3 444.33 459.113 449.574C458.924 450.399 459.169 451.24 459.734 451.899C461.412 446.754 465.124 436.067 466.406 430.196C467.894 423.368 474.32 415.255 474.32 415.255C474.32 415.255 466.462 413.424 455.249 410.175C444.037 406.926 431.938 402.061 428.414 396.207C424.89 390.352 428.414 381.76 428.414 381.76C428.414 381.76 428.358 381.71 428.282 381.611L424.118 382.007C424.118 382.007 422.648 388.093 423.062 392.001Z" fill="#333647"/>
<path d="M498.573 459.107C499.59 459.931 500.269 460.047 502.982 461.399C505.696 462.735 508.41 465.934 510.615 466.528C512.819 467.122 517.191 467.847 519.321 466.957C520.47 466.479 520.904 465.704 520.96 464.928C520.998 464.285 520.791 463.642 520.508 463.164C519.924 462.125 518.096 461.333 515.891 460.443C513.686 459.552 511.35 457.21 509.823 455.957C508.297 454.687 507.826 453.285 507.298 452.593C507.034 452.246 504.792 452.675 504.057 453.714C503.699 454.242 503.793 454.456 503.944 454.654C504.075 454.852 504.057 455.083 503.906 455.264C503.793 455.396 503.604 455.479 503.397 455.495C500.457 455.594 500.118 452.922 500.118 452.922C498.026 453.681 497.555 458.282 498.573 459.107Z" fill="#FBC006"/>
<path d="M453.93 459.438C453.93 459.438 453.195 460.097 453.195 460.691C453.195 461.153 454.382 463.313 455.287 463.94C455.287 463.94 455.532 464.27 455.833 464.781C456.135 465.292 457.624 468.096 458.943 469.563C460.262 471.031 463.296 471.889 464.653 472.235C465.991 472.581 467.517 472.829 469.779 472.103C472.059 471.394 472.172 469.91 472.172 469.91L466.047 466.941" fill="#3A3D51"/>
<path d="M453.534 460.195C453.478 460.656 454.269 462.289 455.777 463.757C457.51 466.758 459.225 469.265 460.186 469.875C461.317 470.601 463.446 471.36 465.689 471.937C468.44 472.646 472.209 471.31 472.379 469.298C472.379 469.199 472.379 469.1 472.379 469.001C472.19 466.841 468.742 465.192 467.329 464.582C465.746 463.889 465.067 459.568 464.766 457.803C464.709 457.424 464.351 456.715 463.465 456.748C462.58 456.781 461.656 457.028 461.129 457.441C460.582 457.853 460.733 458.067 460.733 458.48C460.733 458.776 460.488 458.941 460.167 458.958C460.036 458.958 459.904 458.941 459.772 458.892C459.282 458.71 457.039 456.979 457.322 455.725C457.322 455.725 456.757 455.544 456.304 456.072C455.871 456.583 453.685 458.809 453.534 460.195Z" fill="#FBC006"/>
<path d="M446.957 343.896C446.957 343.896 450.293 352.735 453.063 358.705C453.816 360.354 454.533 361.789 455.136 362.746C455.324 363.059 455.55 363.389 455.776 363.719C460.337 370.249 472.322 379.831 476.958 383.707C476.958 383.707 476.958 383.723 476.977 383.723C477.391 384.069 477.919 384.251 478.465 384.3C479.445 384.399 480.501 384.02 481.066 383.228C481.255 382.965 481.349 382.717 481.368 382.503C481.424 382.09 481.255 381.761 481.179 381.612C481.179 381.612 481.16 381.596 481.16 381.579C481.123 381.546 481.123 381.513 481.123 381.513C479.502 379.369 470.419 367.363 466.838 362.729C465.123 360.536 463.861 359.084 462.975 358.144C462.617 354.747 461.449 344.308 459.658 338.222C459.64 338.14 459.602 338.057 459.583 337.975C458.829 335.584 457.642 333.819 456.398 332.549C455.833 331.972 455.268 331.494 454.721 331.114C454.608 331.048 454.514 330.999 454.382 330.933C453.27 330.372 451.8 329.96 450.142 329.68C449.162 329.713 448.201 329.96 447.353 330.455C445.939 331.279 444.959 332.632 444.658 334.677C444.338 336.573 445.619 340.201 446.957 343.896Z" fill="#2EED89"/>
<path d="M459.564 337.99C459.696 338.848 461.694 351.959 461.807 358.49C461.807 358.49 479.69 379.896 481.368 382.501C481.424 382.089 481.255 381.759 481.179 381.611C481.179 381.611 481.16 381.594 481.16 381.578C481.123 381.545 481.123 381.512 481.123 381.512C479.502 379.368 470.419 367.362 466.838 362.728C465.123 360.534 463.861 359.083 462.975 358.143C462.617 354.746 461.449 344.307 459.658 338.221C459.621 338.172 459.583 338.073 459.564 337.99Z" fill="#41F28D"/>
<path d="M453.063 358.705C453.816 360.354 454.532 361.789 455.136 362.745C459.112 369.259 472.077 379.649 476.977 383.706C476.977 383.706 476.977 383.723 476.996 383.723C477.41 384.069 477.938 384.25 478.484 384.3C476.072 382.073 462.202 369.325 460.431 367.247C458.471 364.971 457.453 363.273 457.736 361.854C458.019 360.436 458.433 359.941 459.79 357.385C461.807 353.625 461.637 352.025 461.637 352.025C461.637 352.025 456.398 353.493 455.927 353.526C455.663 353.559 454.288 356.198 453.063 358.705Z" fill="#27E076"/>
<path d="M457.019 336.242C457.019 336.242 456.699 340.101 458.187 342.69C459.676 345.296 461.071 347.77 461.617 351.58L455.455 345.247L457.019 336.242Z" fill="#27E076"/>
<path d="M446.957 343.896C446.957 343.896 450.293 352.735 453.063 358.705C453.816 360.354 454.533 361.789 455.136 362.746C455.324 363.059 455.55 363.389 455.776 363.719C460.337 370.249 472.322 379.831 476.958 383.707C476.958 383.707 476.958 383.723 476.977 383.723C477.391 384.069 477.919 384.251 478.465 384.3C479.445 384.399 480.501 384.02 481.066 383.228C481.255 382.965 481.349 382.717 481.368 382.503C481.424 382.09 481.255 381.761 481.179 381.612C481.179 381.612 481.16 381.596 481.16 381.579C481.123 381.546 481.123 381.513 481.123 381.513C479.502 379.369 470.419 367.363 466.838 362.729C465.123 360.536 463.861 359.084 462.975 358.144C462.617 354.747 461.449 344.308 459.658 338.222C459.64 338.14 459.602 338.057 459.583 337.975C458.829 335.584 457.642 333.819 456.398 332.549C455.833 331.972 455.268 331.494 454.721 331.114C454.608 331.048 454.514 330.999 454.382 330.933C453.27 330.372 451.8 329.96 450.142 329.68C449.162 329.713 448.201 329.96 447.353 330.455C445.939 331.279 444.959 332.632 444.658 334.677C444.338 336.573 445.619 340.201 446.957 343.896Z" fill="#FBC006"/>
<path d="M424.025 380.276C423.667 380.969 423.44 381.447 424.138 381.991C424.138 381.991 426.531 384.597 434.031 384.844C434.144 384.844 434.238 384.844 434.352 384.844C434.936 384.844 435.614 384.795 436.349 384.712C441.852 384.069 450.935 381.282 454.139 379.6C454.139 379.6 454.176 379.583 454.233 379.55C454.252 379.55 454.252 379.534 454.27 379.534C454.666 379.319 455.835 378.643 455.703 378.214C455.156 376.532 455.062 374.421 455.062 374.405C455.1 370.876 455.232 366.192 455.816 363.718C455.853 363.57 455.891 363.405 455.929 363.273C455.985 363.058 456.061 362.844 456.136 362.646C456.946 360.37 458.68 358.028 459.98 356.033L459.999 356C460.847 354.714 461.507 353.559 461.601 352.685C462.166 348.133 457.022 345 457.286 341.026C457.493 337.925 458.058 334.775 456.4 332.582C456.004 332.037 455.458 331.543 454.723 331.147C454.61 331.081 454.515 331.031 454.384 330.966C453.272 330.405 451.802 329.993 450.143 329.712C445.677 328.954 439.779 329.168 435.143 330.339C435.143 330.339 419.935 335.798 418.409 340.729C416.882 345.66 421.707 354.862 423.723 359.463C423.949 359.991 424.175 360.568 424.383 361.178C426.003 366.011 426.832 373.316 425.909 376.301C425.909 376.285 424.552 379.237 424.025 380.276Z" fill="#FBC006"/>
<path d="M424.138 382.008C424.138 382.008 426.531 384.613 434.031 384.861C434.144 384.861 434.238 384.861 434.352 384.861C434.936 384.861 435.614 384.811 436.349 384.729C435.049 384.58 433.673 384.234 432.882 383.558C431.148 382.041 432.693 374.405 433.127 372.195C433.522 370.117 432.769 365.796 434.446 365.302L434.842 362.976C434.842 362.976 436.198 364.444 439.327 363.916C443.096 363.273 444.735 362.63 446.092 362.3C447.844 361.855 449.88 361.64 453.479 360.882C457.399 360.041 457.87 359.266 457.87 359.266C458.567 358.144 459.321 357.056 459.962 356.066L459.98 356.033C459.98 356.033 458.134 358.029 455.458 358.523C452.801 359.018 441.343 361.607 438.874 361.278C436.387 360.948 433.73 357.864 433.73 357.864L424.383 361.195C426.003 366.027 426.832 373.333 425.909 376.318C425.909 376.318 424.571 379.27 424.025 380.326C423.667 380.969 423.44 381.447 424.138 382.008Z" fill="#F9A208"/>
<path d="M430.882 335.187C431.127 337.133 439.55 341.801 446.108 343.747C446.108 343.747 448.878 337.216 448.219 333.423C448.106 332.747 447.635 332.12 446.937 331.807C446.579 331.642 446.278 331.444 445.995 331.213C445.26 330.586 444.808 329.696 444.808 328.739C444.808 328.277 444.846 327.816 444.864 327.403C444.977 326.199 445.185 325.325 445.185 325.325L432.992 319.471C432.992 319.471 434.613 329.415 433.218 330.949C433.199 330.916 430.637 333.357 430.882 335.187Z" fill="#FFE1BD"/>
<path opacity="0.25" d="M433.935 329.547L436.686 326.826L437.609 326.364C436.573 325.606 435.65 324.682 435.084 323.561L444.846 327.387C444.808 327.799 444.789 328.244 444.789 328.722C444.789 329.679 445.223 330.553 445.977 331.196C445.977 331.196 444.827 331.097 444.036 329.992C443.546 329.316 440.87 328.013 438.627 327.057C438.589 328.079 438.024 330.306 436.14 331.378C433.181 333.06 429.845 332.697 429.845 332.697L433.935 329.547Z" fill="#EDA38C"/>
<path d="M454.719 307.927C454.719 307.927 455.925 314.755 453.89 320.758C451.855 326.761 449.066 328.476 447.483 328.558C445.9 328.641 436.534 327.42 433.839 321.648C431.145 315.876 431.71 309.312 432.916 305.899C434.122 302.485 440.887 299.566 445.636 300.291C450.366 301.017 454.267 303.953 454.719 307.927Z" fill="#FFE1BD"/>
<path d="M438.043 396.884V398.352L474.602 385.637L497.348 393.916L497.103 393.503H500.25V394.691C500.25 394.856 500.137 395.004 499.967 395.054L461.505 408.428C461.241 408.527 460.94 408.511 460.676 408.428L436.479 399.622C436.272 399.556 436.14 399.374 436.14 399.193V397.775L438.043 396.884Z" fill="#4B9CB5"/>
<path d="M437.138 399.273C437.138 399.471 437.27 399.636 437.42 399.636C437.571 399.636 437.703 399.471 437.703 399.273C437.703 399.075 437.571 398.91 437.42 398.91C437.251 398.91 437.138 399.075 437.138 399.273Z" fill="#48C8EF"/>
<path d="M438.549 400.015C438.393 400.015 438.267 399.852 438.267 399.652C438.267 399.451 438.393 399.289 438.549 399.289C438.705 399.289 438.832 399.451 438.832 399.652C438.832 399.852 438.705 400.015 438.549 400.015Z" fill="#48C8EF"/>
<path d="M439.474 400.065C439.474 400.263 439.606 400.428 439.756 400.428C439.907 400.428 440.039 400.263 440.039 400.065C440.039 399.867 439.907 399.702 439.756 399.702C439.606 399.686 439.474 399.851 439.474 400.065Z" fill="#48C8EF"/>
<path d="M474.602 384.168L500.25 393.502L461.091 407.125L436.423 398.137C436.065 398.005 436.065 397.576 436.423 397.444L474.602 384.168Z" fill="#48C8EF"/>
<path d="M474.773 385.833L496.916 393.897C497.085 393.963 497.085 394.177 496.916 394.243L462.826 406.101C462.769 406.118 462.712 406.118 462.675 406.101L440.532 398.037C440.363 397.971 440.363 397.756 440.532 397.69L474.622 385.833C474.66 385.816 474.717 385.816 474.773 385.833Z" fill="#6CE3FF"/>
<path d="M465.312 388.439L471.964 390.864C472.059 390.897 472.059 391.028 471.964 391.061L461.449 394.723C461.204 394.805 460.903 394.805 460.658 394.723L454.043 392.315C453.93 392.265 453.93 392.133 454.043 392.084L464.521 388.439C464.766 388.34 465.048 388.357 465.312 388.439Z" fill="#85EEFF"/>
<path d="M461.844 407.701C461.749 407.685 461.636 407.635 461.523 407.536C461.504 407.503 461.467 407.487 461.448 407.47L461.09 407.141L471.699 383.904C471.831 383.607 472.095 383.392 472.416 383.277L510.614 369.985C510.727 369.952 510.84 369.968 510.915 370.051L511.575 370.644L511.594 370.661L510.294 371.502L500.249 393.502L462.579 406.613L462.71 406.712L461.881 407.701H461.844Z" fill="#B3E8F4"/>
<path d="M461.844 407.702L472.303 384.795C472.51 384.35 472.906 383.987 473.415 383.822L511.406 370.612C511.481 370.595 511.538 370.612 511.594 370.645L511.613 370.661C511.651 370.694 511.651 370.744 511.632 370.793L501.079 393.931C501.004 394.08 500.872 394.195 500.721 394.245L462.202 407.652C462.202 407.652 462.165 407.669 462.108 407.685C462.051 407.685 461.995 407.702 461.882 407.685H461.844V407.702Z" fill="#5AAFD1"/>
<path opacity="0.17" d="M486.135 390.055C486.512 391.061 488.208 391.457 489.923 390.962C491.638 390.467 492.712 389.247 492.335 388.241C491.958 387.235 490.262 386.839 488.547 387.334C486.832 387.828 485.758 389.049 486.135 390.055Z" fill="white"/>
<path d="M453.479 388.801L454.93 390.4C455.646 391.192 456.909 391.423 458.039 391.621L460.188 392.05C460.244 392.05 460.32 392.066 460.376 392.099C460.433 392.132 460.508 392.182 460.565 392.231L462.939 394.012C463.033 394.095 463.127 394.177 463.184 394.276C463.184 394.276 464.447 396.107 464.71 396.733C464.786 396.882 464.334 397.047 463.957 396.832C463.58 396.618 462.166 394.87 462.166 394.87C462.166 394.87 463.316 397.063 463.599 397.805C463.674 397.987 463.241 398.102 462.751 397.789C462.261 397.475 460.979 395.2 460.979 395.2C460.979 395.2 461.676 396.964 461.808 397.525C461.846 397.69 461.601 397.805 461.073 397.624C460.546 397.442 459.603 395.48 459.603 395.48L458.869 394.952L459.509 395.694C459.509 395.694 460.15 396.915 460.301 397.278C460.376 397.492 459.83 397.525 459.321 397.047C458.812 396.568 457.926 395.496 457.531 395.447C457.135 395.397 456.89 395.777 455.194 395.661C453.705 395.562 452.65 393.27 452.65 393.27L448.994 390.071L453.479 388.801Z" fill="#FFE1BD"/>
<path d="M420.121 351.612C420.121 351.612 425.567 366.026 428.281 370.462C432.257 376.976 445.222 387.366 450.122 391.423L450.141 391.439C450.631 391.835 451.271 392.033 451.893 392.05C452.798 392.05 453.702 391.67 454.211 390.961C454.381 390.73 454.456 390.516 454.494 390.318C454.588 389.856 454.4 389.493 454.305 389.345C454.305 389.345 454.287 389.329 454.287 389.312C454.249 389.279 454.249 389.246 454.249 389.246C452.628 387.102 443.545 375.096 439.965 370.462C438.25 368.269 436.987 366.817 436.101 365.877C435.781 362.727 434.745 353.525 433.162 347.357C433.162 347.324 433.162 347.308 433.162 347.308C433.048 346.829 432.917 346.384 432.785 345.955C431.635 341.997 429.28 339.754 427.376 338.517C425.341 337.198 422.571 336.951 420.46 338.171C420.064 338.402 419.706 338.666 419.386 338.996C418.557 339.804 417.991 340.925 417.765 342.393C417.502 344.29 418.783 347.918 420.121 351.612Z" fill="#2EED89"/>
<path d="M420.122 351.614C420.122 351.614 425.568 366.028 428.282 370.465C432.258 376.979 445.223 387.369 450.123 391.426L450.142 391.442C450.632 391.838 451.273 392.036 451.895 392.052C449.407 389.892 440.248 381.877 438.119 379.931C435.631 377.655 430.506 372.13 428.584 368.403C426.661 364.659 421.969 351.944 420.179 346.799C418.445 341.818 419.331 339.196 419.406 339.031C418.577 339.839 418.012 340.961 417.785 342.429C417.503 344.292 418.784 347.92 420.122 351.614Z" fill="#27E076"/>
<path d="M433.181 347.375C433.275 348.266 434.858 362.811 434.821 366.11C434.821 366.11 452.78 387.763 454.513 390.303C454.608 389.841 454.419 389.478 454.325 389.33C454.325 389.33 454.306 389.314 454.306 389.297C454.268 389.264 454.268 389.231 454.268 389.231C452.648 387.087 443.565 375.081 439.984 370.447C438.269 368.254 437.007 366.802 436.121 365.862C435.782 362.729 434.745 353.543 433.181 347.375Z" fill="#41F28D"/>
<path d="M420.121 351.612C420.121 351.612 425.567 366.026 428.281 370.462C432.257 376.976 445.222 387.366 450.122 391.423L450.141 391.439C450.631 391.835 451.271 392.033 451.893 392.05C452.798 392.05 453.702 391.67 454.211 390.961C454.381 390.73 454.456 390.516 454.494 390.318C454.588 389.856 454.4 389.493 454.305 389.345C454.305 389.345 454.287 389.329 454.287 389.312C454.249 389.279 454.249 389.246 454.249 389.246C452.628 387.102 443.545 375.096 439.965 370.462C438.25 368.269 436.987 366.817 436.101 365.877C435.781 362.727 434.745 353.525 433.162 347.357C433.162 347.324 433.162 347.308 433.162 347.308C433.048 346.829 432.917 346.384 432.785 345.955C431.635 341.997 429.28 339.754 427.376 338.517C425.341 337.198 422.571 336.951 420.46 338.171C420.064 338.402 419.706 338.666 419.386 338.996C418.557 339.804 417.991 340.925 417.765 342.393C417.502 344.29 418.783 347.918 420.121 351.612Z" fill="#FBC006"/>
<path d="M427.168 333.736C429.58 332.582 432.369 332.747 434.876 331.312L434.895 331.295C435.064 331.197 435.253 331.081 435.422 330.966C435.592 330.85 435.78 330.718 435.95 330.57C439.135 327.997 437.552 322.093 437.552 319.075V318.894C437.646 314.672 437.439 311.505 443.488 312.643C446.145 313.138 448.557 312.973 450.423 312.643C454.361 311.934 456.66 308.158 454.795 305.041C454.7 304.892 454.606 304.76 454.512 304.612C450.366 298.807 440.925 299.483 435.912 302.105C431.672 304.331 430.127 307.448 430.202 313.056C430.278 317.855 428.148 317.64 427.168 321.961C427.093 322.274 427.017 322.604 426.98 322.967C426.923 323.363 426.867 323.775 426.829 324.171C426.301 329.283 427.168 333.736 427.168 333.736Z" fill="#2A3049"/>
<path d="M427.168 333.736C429.581 332.581 432.37 332.746 434.876 331.311L434.895 331.295C435.064 331.196 435.253 331.081 435.422 330.965C435.592 330.85 435.781 330.718 435.95 330.569C439.135 327.997 437.552 322.093 437.552 319.075L434.801 317.508C434.801 317.508 434.499 319.141 434.801 320.559C435.102 321.994 435.649 322.06 436.195 323.709C436.742 325.358 436.553 328.458 434.669 329.662C432.784 330.866 429.844 330.586 428.959 331.031C428.959 331.031 426.999 327.716 427.168 321.928C427.093 322.241 427.018 322.571 426.98 322.934C426.923 323.329 426.867 323.742 426.829 324.138C426.302 329.283 427.168 333.736 427.168 333.736Z" fill="#22293F"/>
<path d="M438.324 316.832C438.324 316.832 437.363 315.447 435.856 315.661C434.348 315.876 434.536 317.822 434.951 319.438C435.516 321.532 438.042 321.301 438.042 321.301" fill="#FFE1BD"/>
<path d="M498.573 459.105C499.591 459.93 500.269 460.045 502.983 461.398C505.697 462.734 508.41 465.933 510.615 466.527C512.82 467.12 517.192 467.846 519.321 466.956C520.471 466.477 520.904 465.702 520.961 464.927C520 465.867 519.133 466.378 515.967 466.296C512.801 466.197 509.635 465.306 507.694 463.195C505.734 461.084 504.491 460.029 502.38 459.303C500.269 458.578 499.289 457.654 499.572 456.797C499.874 455.939 500.627 455.395 502.154 455.708C503.68 456.021 503.888 455.279 503.888 455.279C503.774 455.411 503.586 455.494 503.379 455.51C500.439 455.609 500.1 452.938 500.1 452.938C498.027 453.68 497.556 458.281 498.573 459.105Z" fill="#F9A208"/>
<path d="M453.534 460.196C453.478 460.657 454.269 462.29 455.777 463.758C457.51 466.759 459.225 469.266 460.186 469.876C461.317 470.602 463.446 471.36 465.689 471.938C468.44 472.647 472.209 471.311 472.379 469.299C469.364 471.624 462.712 469.431 461.581 468.441C460.45 467.452 460.167 465.984 458.49 464.467C456.813 462.933 454.91 461.136 455.833 459.701C456.493 458.695 458.585 458.893 459.169 459.091C459.753 459.289 460.149 458.942 460.149 458.942C460.017 458.942 459.885 458.926 459.753 458.876C459.263 458.695 457.02 456.963 457.303 455.71C457.303 455.71 456.738 455.528 456.285 456.056C455.871 456.584 453.685 458.81 453.534 460.196Z" fill="#F9A208"/>
<path d="M113.216 495.587L234.614 556.887L244.715 551.824L123.317 490.491L104.378 486.104C104.057 486.022 103.812 486.368 104.038 486.583L113.216 495.587Z" fill="url(#paint21_linear_376_4680)"/>
<path d="M123.129 480.464L106.753 477.05C106.187 476.934 105.773 477.528 106.168 477.907L117.306 488.627L123.129 480.464Z" fill="#B4BBE1"/>
<path d="M106.168 477.906L110.54 482.128C110.615 481.535 110.803 480.924 111.143 480.331C111.425 479.786 111.821 479.308 112.236 478.896C112.443 478.698 112.669 478.517 112.914 478.352L106.733 477.082C106.168 476.917 105.772 477.544 106.168 477.906Z" fill="#4588FF"/>
<path d="M236.953 538.581L235.408 540.972L231.413 547.124L118.551 489.469C118.306 489.37 118.08 489.238 117.873 489.106C117.289 488.71 116.855 488.182 116.572 487.539C116.045 486.319 116.101 484.752 116.893 483.301C117.194 482.756 117.571 482.262 117.986 481.866C119.154 480.728 120.718 480.134 122.188 480.266C122.603 480.299 123.017 480.398 123.394 480.563C123.47 480.58 123.526 480.612 123.602 480.645L123.847 480.777C123.884 480.794 123.903 480.81 123.941 480.827C123.96 480.843 123.978 480.86 124.016 480.876L236.953 538.581Z" fill="#4588FF"/>
<path d="M236.953 538.581L235.408 540.972L231.488 539.95L117.986 481.882C117.986 481.882 117.986 481.882 117.986 481.866C119.154 480.728 120.718 480.134 122.188 480.266C122.603 480.299 123.017 480.398 123.394 480.563C123.47 480.58 123.526 480.612 123.602 480.645L123.847 480.777C123.884 480.794 123.903 480.81 123.941 480.827C123.96 480.843 123.979 480.86 124.016 480.876L236.953 538.581Z" fill="#80B4FF"/>
<path d="M238.591 544.749C237.234 547.206 234.332 548.443 232.089 547.503C231.844 547.404 231.618 547.272 231.411 547.14C230.827 546.744 230.393 546.2 230.129 545.573C229.602 544.353 229.658 542.786 230.45 541.335C231.562 539.29 233.766 538.102 235.764 538.284C236.179 538.317 236.593 538.416 236.97 538.581C237.045 538.614 237.102 538.647 237.177 538.663L237.422 538.812C237.46 538.828 237.479 538.845 237.517 538.861C239.307 539.999 239.834 542.506 238.591 544.749Z" fill="#3081E2"/>
<path d="M155.75 558.766C158.766 560.383 160.122 559.723 163.759 560.927C167.415 562.114 174.388 565.94 177.309 566.204C180.23 566.485 183.867 565.083 184.903 562.906C185.94 560.712 183.038 559.047 179.815 557.595C176.574 556.128 168.961 551.213 168.961 551.213L158.445 550.355C159.086 550.933 159.538 551.378 159.538 551.378L160.556 556.309L155.675 557.167C155.694 557.15 154.978 557.925 155.75 558.766Z" fill="#595959"/>
<path d="M168.98 550.34C168.98 550.34 176.593 555.271 179.835 556.722C183.057 558.173 185.959 559.839 184.923 562.032C183.886 564.226 180.249 565.611 177.328 565.331C174.407 565.05 167.435 561.224 163.779 560.037C160.123 558.849 158.785 559.493 155.751 557.893C154.639 557.299 154.206 552.764 156.411 549.301" fill="#CF3DA6"/>
<path d="M121.173 526.986C121.173 527.151 121.211 527.282 121.267 527.398C121.776 528.503 122.624 529.13 125.224 530.498C127.844 531.867 129.634 535.561 131.82 537.276C134.006 539.008 136.776 540.608 139.396 540.707C141.996 540.789 145.219 539.239 145.539 537.507C145.86 535.776 144.597 535.231 143.353 534.506C142.109 533.78 138.246 530.68 137.53 529.855C136.795 529.031 135.137 526.573 135.137 526.573L126.393 520.273C125.13 520.851 124.113 521.642 123.321 522.5C123.717 522.45 124.075 522.434 124.15 522.5C124.32 522.648 125.13 524.528 125.13 524.528C125.13 524.528 124.452 525.501 124.226 525.584C123.981 525.65 122.077 525.765 122.077 525.765C122.077 525.765 121.286 526.26 121.173 526.986Z" fill="#595959"/>
<path d="M135.454 525.881C135.454 525.881 137.112 528.338 137.847 529.163C138.582 529.988 142.427 533.088 143.689 533.814C144.933 534.539 146.195 535.083 145.875 536.815C145.555 538.547 142.332 540.097 139.732 540.015C137.131 539.916 134.342 538.332 132.156 536.601C129.97 534.869 128.18 531.175 125.56 529.806C122.96 528.437 122.131 527.827 121.603 526.722C121.075 525.617 122.639 521.428 126.71 519.598" fill="#CF3DA6"/>
<path d="M125.749 519.334C127.916 526.442 136.585 526.079 136.585 526.079C136.585 526.079 143.934 519.334 151.566 511.533C156.937 506.075 162.44 500.088 165.643 495.569C166.359 494.547 166.963 493.607 167.434 492.766C168.093 491.562 168.677 489.946 169.224 488.033C173.219 474.081 174.519 444.379 174.519 444.379L151.811 454.224L152.019 485.46C152.019 485.46 149.851 487.224 147.176 489.929C145.555 491.578 143.746 493.557 142.125 495.701C137.753 501.473 125.749 519.334 125.749 519.334Z" fill="#3A3D51"/>
<path d="M125.749 519.334C127.916 526.442 136.585 526.08 136.585 526.08C136.585 526.08 143.934 519.335 151.566 511.534L150.228 498.687L148.023 489.93H147.156C145.536 491.579 143.727 493.558 142.106 495.702C137.753 501.474 125.749 519.334 125.749 519.334Z" fill="#242733"/>
<path d="M157.033 463.789C157.033 463.789 160.199 477.873 160.67 477.956C161.028 478.005 164.138 489.797 165.626 495.569C166.342 494.546 166.945 493.606 167.417 492.765C168.076 491.561 168.66 489.945 169.207 488.032C167.775 478.45 163.308 457.209 163.308 457.209H159.219L157.033 463.789Z" fill="#333647"/>
<path d="M132.61 458.38C133.59 462.684 140.28 478.384 145.161 490.011C148.233 497.35 150.079 504.985 150.72 512.769C151.832 526.375 154.169 546.891 154.96 550.865C154.96 550.865 155.733 551.41 157.014 551.954C159.747 553.092 164.797 554.18 169.735 549.958C169.735 549.958 169.904 506.371 169.678 498.718C169.471 491.066 161.141 459.88 161.141 459.88C161.141 459.88 174.05 456.236 174.465 444.395L138.716 448.435L132.573 449.128C132.61 449.128 131.178 451.948 132.61 458.38Z" fill="#3A3D51"/>
<path d="M132.611 458.379C133.591 462.683 140.281 478.383 145.162 490.01C148.234 497.349 150.081 504.985 150.721 512.769C151.833 526.374 154.17 546.89 154.961 550.865C154.961 550.865 155.734 551.409 157.015 551.953C156.205 541.25 153.699 508.036 153.209 501.851C152.662 494.446 146.839 482.325 143.296 471.572C139.754 460.82 140.375 449.869 140.375 449.869L138.717 448.418L132.574 449.111C132.611 449.127 131.179 451.947 132.611 458.379Z" fill="#333647"/>
<path d="M130.762 449.195C130.762 449.195 130.517 449.921 130.347 450.927C130.291 451.257 130.441 451.57 130.762 451.752C131.478 452.164 133.098 452.988 136.246 454.044C139.807 455.231 144.537 455.413 147.948 455.132C149.38 455.017 163.439 452.296 171.843 447.645C173.973 446.458 175.066 444.264 174.651 442.087V442.038C174.369 440.587 130.762 449.195 130.762 449.195Z" fill="#2268BC"/>
<path d="M124.184 402.409C125.258 406.268 126.558 410.094 127.896 413.904C128.518 415.701 129.272 417.482 130.026 419.247C132.721 425.613 135.547 431.995 133.927 438.938C133.286 441.659 131.684 445.073 132.042 447.86C132.268 449.526 132.532 450.944 135.886 452.824C136.565 453.22 137.338 453.517 138.11 453.731L138.562 453.847L138.77 453.896C139.486 454.078 140.202 454.21 140.918 454.309C142.671 454.572 144.442 454.622 146.213 454.49C147.043 454.44 147.872 454.342 148.682 454.21C153.789 453.368 163.324 451.324 171.56 446.854C171.578 446.838 171.616 446.838 171.616 446.838C174.179 445.485 175.574 442.22 174.763 437.718C174.367 435.458 173.746 432.309 173.218 429.752C172.615 426.751 172.351 423.683 172.464 420.632C172.521 419.264 172.558 417.878 172.596 416.526C174.104 408.066 179.531 390.914 176.893 386.297C175.197 383.378 172.163 378.413 172.163 378.413C172.163 378.413 165.529 376.797 162.081 376.599C161.591 376.583 161.12 376.566 160.63 376.566C157.841 377.045 154.92 377.44 152.036 377.985C150.171 378.331 148.324 378.71 146.515 379.205C145.968 379.354 145.46 379.502 144.932 379.667C144.499 379.815 144.065 379.947 143.651 380.096C141.012 380.986 139.165 381.745 137.696 382.372C135.886 383.163 134.662 383.823 133.361 384.565C133.286 384.598 133.229 384.631 133.154 384.68C131.684 385.505 129.479 386.89 127.501 388.44C125.578 389.941 123.882 391.574 123.317 392.976C123.166 393.355 122.997 393.932 122.846 394.724C122.827 394.773 122.827 394.823 122.827 394.872C122.563 397.33 123.524 400.034 124.184 402.409Z" fill="#CF3DA6"/>
<path d="M122.882 394.707L125.916 395.037C126.726 389.628 144.629 381.431 144.629 381.431L144.949 379.65C144.516 379.799 144.082 379.931 143.668 380.079C141.029 380.97 139.182 381.728 137.713 382.355C135.903 383.147 134.679 383.806 133.378 384.548C133.303 384.581 133.246 384.614 133.171 384.664C131.701 385.488 129.496 386.874 127.518 388.424C125.595 389.925 123.899 391.557 123.334 392.959C123.183 393.338 123.032 393.916 122.882 394.707Z" fill="#5C1047"/>
<path d="M145.065 371.008V377.786C145.065 377.786 152.999 382.799 157.201 382.074C159.01 381.76 159.971 379.732 159.594 376.862L155.769 376.186L145.065 371.008Z" fill="#F2BA88"/>
<path d="M158.162 381.678L162.666 386.312C162.666 386.312 162.836 380.755 159.82 377.918C156.881 375.148 156.768 377.539 156.768 377.539C156.768 377.539 159.538 380.342 158.162 381.678Z" fill="white"/>
<path d="M166.96 361.988C166.96 361.988 167.6 367.661 166.262 372.856C164.924 378.051 164.51 379.221 162.117 380.145C159.723 381.069 157.575 381.167 153.561 378.908C149.547 376.649 147.342 372.955 147.342 372.955C147.342 372.955 146.777 373.284 145.326 371.866C143.083 369.64 142.65 368.535 142.65 365.517C142.65 362.499 143.517 358.706 146.193 354.781C148.869 350.839 157.104 352.109 160.835 353.775C164.566 355.457 166.244 358.607 166.96 361.988Z" fill="#FFD1A4"/>
<path d="M170.222 362.235C166.114 368.584 155.881 364.412 155.881 364.412C155.127 367.166 152.922 367.43 151.848 367.941C150.793 368.452 150.566 371.124 150.566 371.124H149.605C149.605 371.124 149.568 368.452 149.078 367.1C148.588 365.764 145.723 364.725 144.291 366.688C142.991 368.452 144.48 370.415 145.346 371.866C145.629 374.175 145.083 375.148 145.083 375.148C145.083 375.148 143.519 373.795 142.482 371.041C141.427 368.287 140.654 362.499 142.482 356.298C142.67 355.655 142.953 355.061 143.33 354.517C146.477 349.866 155.428 348.975 158.952 350.014C161.986 350.921 169.506 353.906 170.9 358.161C171.296 359.398 171.145 360.783 170.222 362.235Z" fill="#2A3049"/>
<path d="M170.523 488.957C170.467 489.287 170.41 489.617 170.354 489.93C170.41 489.551 170.467 489.237 170.523 488.957Z" fill="#3A3A3A"/>
<path d="M145.084 377.094C145.084 377.094 144.594 377.654 144.217 378.496C143.897 379.188 143.671 380.062 143.671 380.062C143.671 380.062 146.912 385.9 155.826 388.407L156.844 382.091C156.825 382.124 149.023 381.184 145.084 377.094Z" fill="white"/>
<path d="M170.222 362.236C166.113 368.585 155.881 364.413 155.881 364.413C155.127 367.167 152.922 367.431 151.848 367.942C150.792 368.453 150.566 371.125 150.566 371.125H149.605C149.605 371.125 149.568 368.453 149.078 367.101C148.588 365.765 145.723 364.726 144.291 366.689C142.991 368.453 144.48 370.416 145.346 371.867C145.629 374.176 145.083 375.149 145.083 375.149C145.083 375.149 143.518 373.796 142.482 371.042C141.427 368.288 140.654 362.5 142.482 356.299C142.67 355.656 142.953 355.062 143.33 354.518C145.045 355.804 150.001 359.317 155.183 361.23C161.628 363.588 167.131 363.209 168.789 362.038C171.183 360.339 170.9 358.162 170.9 358.162C171.296 359.399 171.145 360.784 170.222 362.236Z" fill="#1C2235"/>
<path d="M135.152 458.695C135.152 458.695 135.397 462.093 135.755 462.851C135.906 463.28 136.264 463.676 136.528 464.055C136.98 464.731 139.015 467.914 139.317 469.778C139.505 470.949 138.657 474.395 138.242 475.072C138.205 475.154 138.148 475.22 138.054 475.27C137.96 475.319 137.847 475.319 137.734 475.303C136.452 475.138 136.377 473.752 136.49 472.878C136.546 472.383 136.565 470.866 136.188 470.899C134.718 471.691 134.549 475.039 134.304 476.358C133.965 478.139 135.114 481.701 134.115 481.652C133.72 481.635 130.591 480.464 129.932 479.294C128.839 478.123 128.217 476.787 128.01 475.253C127.746 473.406 128.274 471.757 128.594 470.058C128.801 468.887 129.14 467.65 129.31 466.051C129.423 465.061 128.99 461.136 128.99 461.136L135.152 458.695Z" fill="#FFD1A4"/>
<path d="M133.926 438.938C133.286 441.66 131.684 445.073 132.042 447.861C132.268 449.526 132.532 450.944 135.886 452.825C136.565 453.22 137.337 453.517 138.11 453.732L138.562 453.847C138.996 443.589 137.469 426.718 137.469 426.718C139.975 419.066 139.316 401.832 139.316 401.832C139.316 401.832 130.911 410.408 130.911 411.133C130.911 411.546 130.44 415.751 130.025 419.247C132.72 425.613 135.547 431.995 133.926 438.938Z" fill="#5C1047"/>
<path d="M119.491 427.838L127.99 462.554C127.99 462.554 128.367 462.752 129.121 462.9C130.459 463.18 132.984 463.279 136.678 461.713C136.678 461.713 135.867 434.584 134.831 426.618C134.831 426.618 140.503 407.158 139.09 398.401C138.185 392.76 132.683 390.814 128.254 391.458C125.823 391.82 123.694 392.958 122.865 394.706C122.883 394.706 117.833 422.825 119.491 427.838Z" fill="#CF3DA6"/>
<path d="M178.118 414.646C178.137 414.629 178.156 414.629 178.175 414.613C178.175 414.613 172.559 404.718 171.108 400.793L172.408 378.496C172.408 378.496 177.44 379.304 181.906 387.501C186.391 395.713 195.964 415.949 194.833 419.33C194.833 419.33 188.125 414.596 178.175 414.646C178.156 414.646 178.137 414.646 178.118 414.646Z" fill="#CF3DA6"/>
<path d="M147.045 409.384V435.903C147.045 435.903 147.045 435.919 147.045 435.936C147.045 436.051 147.064 436.48 147.309 436.612L147.328 436.628C147.365 436.645 147.384 436.661 147.403 436.678L147.874 436.958L147.931 436.843L170.318 425.414V397.164L170.808 396.306L170.318 396.059L148.477 407.191C147.592 407.652 147.045 408.493 147.045 409.384Z" fill="#97A2CE"/>
<path d="M170.808 396.322L148.967 407.471C148.082 407.916 147.535 408.757 147.535 409.664V436.43C147.535 436.941 148.176 437.255 148.666 437.007L170.808 425.711V396.322Z" fill="#B4BBE1"/>
<path d="M177.687 399.786L170.809 396.322L170.225 396.619L170.489 403.463L177.687 399.786Z" fill="#97A2CE"/>
<path d="M170.225 396.619L177.047 400.115V404.865L170.225 400.561V396.619Z" fill="#8792B2"/>
<path d="M170.225 397.428L176.236 400.528L177.047 428.877L156.091 439.812L149.307 436.233C148.704 435.919 148.346 435.342 148.346 434.732V409.615C148.346 408.972 148.742 408.362 149.382 408.048L170.225 397.428Z" fill="white"/>
<path d="M154.412 413.111V439.629C154.412 439.629 154.412 439.646 154.412 439.662C154.412 439.778 154.431 440.207 154.676 440.338L154.695 440.355C154.733 440.371 154.752 440.388 154.77 440.404L155.242 440.685L155.298 440.569L177.686 429.141V400.89L178.176 400.033L177.686 399.785L155.845 410.917C154.959 411.379 154.412 412.22 154.412 413.111Z" fill="#97A2CE"/>
<path d="M178.176 400.031L156.334 411.18C155.449 411.641 154.902 412.466 154.902 413.373V440.139C154.902 440.65 155.543 440.964 156.033 440.716L178.176 429.42V400.031Z" fill="#B4BBE1"/>
<path d="M146.007 426.173C146.139 425.365 146.892 425.101 146.892 425.101L150.379 426.503C150.134 426.256 149.399 425.761 149.116 425.514C148.362 424.854 148.758 424.178 149.116 424.112C149.474 424.046 152.64 425.299 153.507 425.745C153.846 425.926 154.317 426.421 154.581 426.751C155.259 427.361 155.938 427.443 156.334 427.427L159.424 426.454L162.703 428.647L161.912 431.929C161.912 431.929 156.032 434.799 154.261 434.403C148.306 433.1 146.591 430.527 146.591 430.527C146.101 429.851 145.875 426.981 146.007 426.173Z" fill="#FFD1A4"/>
<path d="M160.987 432.752C160.987 432.752 161.251 432.323 161.345 431.763C161.628 429.85 160.554 426.584 157.539 426.7C157.539 426.7 168.77 419.312 178.136 414.628C178.701 414.43 184.091 414.496 188.199 415.733C192.175 416.937 194.851 419.312 194.851 419.312C193.683 422.709 160.987 432.752 160.987 432.752Z" fill="#CF3DA6"/>
<path d="M119.491 427.839L127.99 462.554C127.99 462.554 128.367 462.752 129.121 462.9C128.574 460.41 122.035 430.214 121.752 425.085C121.432 419.741 128.273 391.475 128.273 391.475C125.842 391.837 123.712 392.975 122.883 394.723C122.883 394.707 117.833 422.825 119.491 427.839Z" fill="#5C1047"/>
<path opacity="0.55" d="M200.052 423.601C200.052 423.601 200.052 423.601 200.052 423.585L200.259 417.73C200.259 417.73 200.259 417.714 200.259 417.681V417.433L200.278 417.466C200.862 406.631 218.312 398.352 239.456 398.896C260.732 399.424 277.692 408.742 277.315 419.66L277.127 425.58C276.976 429.736 274.376 433.496 270.041 436.564L278.182 441C279.219 440.571 280.312 440.357 281.405 440.456C281.97 440.505 282.498 440.637 283.044 440.851C283.138 440.884 283.214 440.934 283.308 440.983L283.628 441.148C283.685 441.165 283.723 441.198 283.76 441.231C283.817 441.264 283.817 441.28 283.873 441.313L324.258 463.033C318.472 464.715 312.536 466.727 306.506 469.102L276.43 452.956C276.091 452.808 275.789 452.643 275.525 452.429C274.734 451.917 274.149 451.175 273.754 450.334C273.358 449.444 273.264 448.438 273.339 447.382L262.56 441.511C262.372 441.429 262.202 441.33 262.013 441.231C261.863 441.115 261.712 440.967 261.599 440.835C254.984 443.276 246.787 444.628 237.911 444.414C217.219 443.869 200.636 435.079 200.014 424.541L199.995 424.558L200.052 423.601Z" fill="#B4BBE1"/>
<path d="M281.651 403.018C281.613 404.057 281.425 405.096 281.104 406.086C277.882 415.931 260.94 423.105 240.795 422.594C220.65 422.083 204.236 414.035 201.673 404.041C201.41 403.035 201.334 394.657 201.334 394.657C201.334 394.657 211.887 376.285 242.19 376.648C260.526 376.879 281.651 396.718 281.651 396.718C281.651 396.718 281.707 401.039 281.651 403.018ZM275.262 402.853C275.338 400.363 274.395 397.972 272.624 395.778C267.592 389.561 255.871 385.009 242.058 384.646C228.263 384.284 216.259 388.225 210.813 394.179C208.891 396.273 207.798 398.615 207.704 401.105C207.383 410.67 222.233 414.398 240.889 414.876C259.565 415.371 274.942 412.435 275.262 402.853Z" fill="#8D36D1"/>
<path opacity="0.2" d="M276.807 396.72C276.487 406.483 260.469 414.003 241.021 413.508C221.592 413.013 206.101 404.685 206.441 394.905C206.761 385.142 222.779 377.622 242.227 378.117C261.656 378.628 277.146 386.956 276.807 396.72Z" fill="url(#paint22_linear_376_4680)"/>
<path opacity="0.2" d="M261.863 381.548C226.812 382.224 216.278 397.314 213.357 405.856C208.891 402.756 206.309 398.963 206.441 394.906C206.78 385.143 222.685 377.969 242.133 378.464C249.275 378.661 256.398 379.585 261.863 381.548Z" fill="white"/>
<path opacity="0.6" d="M273.341 397.1C273.058 405.741 258.868 412.404 241.663 411.959C224.458 411.513 210.757 404.158 211.059 395.5C211.078 395.253 211.078 395.005 211.115 394.758C212.077 402.872 225.268 409.567 241.663 409.996C258.34 410.441 272.191 404.191 273.265 395.929C273.341 396.308 273.36 396.704 273.341 397.1Z" fill="white"/>
<path d="M278.107 390.633L268.986 382.338L242.698 376.648L216.07 380.969L206.421 388.77L203.915 393.635L207.722 394.806C207.722 394.806 212.207 378.974 242.603 379.765C272.981 380.54 276.411 396.587 276.411 396.587L280.293 395.614L278.107 390.633Z" fill="#8D36D1"/>
<path d="M281.65 396.719C281.613 397.758 281.424 398.797 281.104 399.786C277.881 409.632 260.94 416.806 240.795 416.295C220.65 415.783 204.236 407.735 201.673 397.741C201.409 396.735 201.296 395.696 201.334 394.657C201.711 383.278 220.009 374.504 242.189 375.082C264.37 375.642 282.027 385.339 281.65 396.719ZM275.262 396.57C275.337 394.08 274.395 391.689 272.624 389.495C267.592 383.278 255.871 378.726 242.057 378.363C228.263 378.001 216.259 381.942 210.813 387.896C208.891 389.99 207.798 392.332 207.703 394.822C207.383 404.387 222.233 412.551 240.889 413.029C259.564 413.507 274.942 406.136 275.262 396.57Z" fill="#81C5E8"/>
<path d="M281.65 396.719C281.613 397.758 281.424 398.797 281.104 399.786C277.881 409.632 260.94 416.806 240.795 416.295C220.65 415.783 204.236 407.735 201.673 397.741C201.409 396.735 201.296 395.696 201.334 394.657C201.711 383.278 220.009 374.504 242.189 375.082C264.37 375.642 282.027 385.339 281.65 396.719ZM275.262 396.57C275.337 394.08 274.395 391.689 272.624 389.495C267.592 383.278 255.871 378.726 242.057 378.363C228.263 378.001 216.259 381.942 210.813 387.896C208.891 389.99 207.798 392.332 207.703 394.822C207.383 404.387 222.233 412.551 240.889 413.029C259.564 413.507 274.942 406.136 275.262 396.57Z" fill="#BB63FF"/>
<path d="M286.457 421.094L285.684 422.083H285.666L282.217 426.536L281.331 427.674L266.237 419.428C266.029 419.346 265.86 419.247 265.69 419.131C265.219 418.818 264.861 418.373 264.654 417.861C264.541 417.614 264.465 417.334 264.427 417.053C264.295 416.229 264.446 415.322 264.917 414.431C265.502 413.359 266.463 412.568 267.499 412.188C268.064 411.99 268.649 411.908 269.214 411.957C269.553 411.99 269.874 412.056 270.194 412.188C270.25 412.205 270.307 412.238 270.364 412.254L270.571 412.37C270.59 412.386 270.627 412.403 270.646 412.419L286.457 421.094Z" fill="#CDD5F7"/>
<path d="M286.457 421.094L285.684 422.084H285.666L267.499 412.221C268.064 412.024 268.649 411.941 269.214 411.991C269.553 412.024 269.874 412.09 270.194 412.221C270.25 412.238 270.307 412.271 270.364 412.287L270.571 412.403C270.59 412.419 270.627 412.436 270.646 412.452L286.457 421.094Z" fill="white"/>
<path d="M282.254 426.553L281.368 427.691L266.274 419.445C266.066 419.363 265.897 419.264 265.727 419.148C265.256 418.835 264.898 418.39 264.691 417.878C264.578 417.631 264.502 417.351 264.465 417.07L282.254 426.553Z" fill="#B4BBE1"/>
<path d="M334.508 444.165L332.322 447.546L326.687 456.237L280.762 431.4H280.744C280.386 431.252 280.084 431.087 279.801 430.873C278.972 430.312 278.35 429.553 277.973 428.663C277.22 426.931 277.314 424.738 278.426 422.676C278.84 421.901 279.368 421.225 279.971 420.648C279.971 420.648 279.971 420.648 279.971 420.631C281.629 419.032 283.834 418.174 285.907 418.372C286.491 418.421 287.075 418.553 287.603 418.784C287.697 418.817 287.792 418.867 287.886 418.916L288.244 419.114C288.3 419.13 288.338 419.163 288.376 419.18C288.413 419.196 288.432 419.229 288.47 419.246L334.508 444.165Z" fill="#8D36D1"/>
<path d="M334.508 444.165L332.322 447.546L326.8 446.094L279.971 420.664C279.971 420.664 279.971 420.664 279.971 420.648C279.971 420.648 279.971 420.648 279.971 420.631C281.629 419.032 283.834 418.174 285.907 418.372C286.491 418.421 287.075 418.553 287.603 418.784C287.697 418.817 287.792 418.867 287.886 418.916L288.244 419.114C288.3 419.13 288.338 419.163 288.376 419.18C288.413 419.196 288.432 419.229 288.47 419.246L334.508 444.165Z" fill="#BB63FF"/>
<path d="M336.827 452.874C334.924 456.353 330.816 458.085 327.65 456.766H327.631C327.292 456.617 326.972 456.452 326.67 456.238C325.86 455.677 325.238 454.919 324.842 454.028C324.088 452.296 324.183 450.103 325.294 448.058C326.877 445.172 329.968 443.49 332.776 443.754C333.36 443.803 333.944 443.935 334.472 444.166C334.566 444.199 334.66 444.248 334.755 444.298L335.113 444.496C335.169 444.512 335.207 444.545 335.245 444.562C337.826 446.161 338.561 449.691 336.827 452.874Z" fill="#CDD5F7"/>
<path d="M384.959 546.629V548.361C384.959 548.707 385.016 549.037 385.129 549.367C385.129 549.367 385.129 549.366 385.129 549.383C385.148 549.465 385.185 549.515 385.223 549.597C385.261 549.647 385.28 549.713 385.336 549.812C385.374 549.861 385.43 549.927 385.468 550.026C385.581 550.142 385.675 550.29 385.807 550.438C385.864 550.521 385.92 550.587 385.977 550.669C386.033 550.719 386.109 550.785 386.165 550.818C386.26 550.9 386.354 550.983 386.448 551.082C386.938 551.477 387.635 551.939 388.578 552.335C391.593 553.654 394.777 554.627 397.001 555.782C397.717 556.161 399.696 557.315 399.696 557.315C399.696 557.315 401.298 558.453 402.56 559.13C403.861 559.806 406.65 560.977 409.401 560.729C412.115 560.465 413.415 558.948 413.547 558.025L413.509 556.573L403.427 553.292L384.959 546.629Z" fill="#3A3A3A"/>
<path d="M402.616 546.216C402.616 546.216 399.525 546.1 394.475 545.342C389.425 544.583 385.957 544.369 385.298 545.754C384.657 547.09 384.525 548.525 389.029 551.213C393.533 553.918 397.019 554.198 400.637 556.738C403.313 558.618 405.725 559.063 408.401 559.228C411.096 559.393 412.905 558.486 413.489 557.529C414.846 555.303 413.433 551.081 413.433 551.081L402.616 546.216Z" fill="#CF3DA6"/>
<path d="M366.718 557.25V558.85C366.699 559.592 367.17 560.252 367.905 560.614C369.639 561.422 373.163 562.775 378.364 563.336C383.415 563.88 385.129 564.061 385.129 564.061C385.129 564.061 387.334 564.21 388.917 564.375C390.519 564.556 393.138 564.49 394.288 563.616C394.571 563.385 394.759 563.22 394.929 563.072C394.929 563.072 394.929 563.055 394.948 563.039C394.948 563.039 394.966 563.006 394.985 562.989C395.079 562.907 395.136 562.824 395.193 562.725C395.362 562.429 395.4 562.049 395.438 561.901C395.438 561.851 395.438 561.818 395.438 561.818L395.419 561.159V560.862L391.706 560.631C391.687 560.631 391.687 560.631 391.687 560.631L389.859 560.515L388.145 560.416L386.562 560.317L366.718 557.25Z" fill="#3A3A3A"/>
<path d="M381.51 553.16C381.51 553.16 379.305 554.974 376.705 554.974C374.104 554.974 369.035 554.925 367.735 555.716C367.094 556.112 366.755 556.59 366.717 557.135C366.679 557.679 366.924 558.273 367.414 558.899C368.394 560.153 374.952 562.033 379.89 562.363C384.827 562.709 385.091 562.643 387.428 562.989C389.764 563.336 392.195 563.484 393.665 562.857C396.209 561.752 396.379 558.388 394.833 556.162C393.269 553.952 381.51 553.16 381.51 553.16Z" fill="#CF3DA6"/>
<path d="M408.458 392.299L408.853 393.123L408.231 395.828L398.357 400.182L397.773 400.116L396.19 399.951L393.702 399.671V396.669C393.702 395.135 392.741 393.635 391.139 393.024C391.083 392.991 391.026 392.975 391.026 392.975C390.48 392.794 389.914 392.48 389.349 391.985L389.198 391.853C387.295 390.089 385.599 386.114 386.089 377.44C386.183 375.922 386.579 373.3 387.37 371.964C388.803 369.557 391.855 367.957 398.15 369.458C408.646 371.997 413.225 376.17 413.753 379.765C414.299 383.36 408.458 392.299 408.458 392.299Z" fill="#FFD1A4"/>
<path d="M393.719 399.654V396.653C393.719 395.119 392.758 393.618 391.157 393.008C391.665 393.206 393.267 393.882 395.378 394.871C396.226 395.267 396.207 397.659 396.207 399.934L393.719 399.654Z" fill="#F2BA88"/>
<path d="M385.469 410.985L370.449 403.25L371.429 410.111L380.268 418.422L385.469 410.985Z" fill="#FFD1A4"/>
<path d="M376.891 415.535L358.047 424.012C357.444 424.292 356.69 424.012 356.501 423.435L347.343 397.774C347.022 396.834 347.494 395.828 348.455 395.399L365.961 387.532C366.885 387.12 367.997 387.549 368.317 388.456L377.532 414.249C377.683 414.744 377.419 415.288 376.891 415.535Z" fill="#0A2982"/>
<path d="M375.818 414.825L358.65 422.593C358.198 422.807 357.632 422.593 357.482 422.164L348.888 398.152C348.549 397.014 348.606 396.519 349.906 395.959L366.244 388.57C366.659 388.389 367.149 388.57 367.281 388.983L376.213 413.984C376.364 414.297 376.176 414.66 375.818 414.825Z" fill="#205CE1"/>
<g opacity="0.5">
<path opacity="0.5" d="M350.809 397.394L351.148 398.318L366.262 391.49L365.96 390.616C365.96 390.599 365.941 390.583 365.941 390.566L350.809 397.394Z" fill="#6CE3FF"/>
<path opacity="0.5" d="M351.922 400.412L352.242 401.319L367.355 394.524L367.035 393.617L351.922 400.412Z" fill="#6CE3FF"/>
<path opacity="0.5" d="M352.993 403.43L353.314 404.354L368.465 397.543L368.107 396.619L352.993 403.43Z" fill="#6CE3FF"/>
<path opacity="0.5" d="M354.067 406.448L354.407 407.371L369.539 400.544L369.2 399.637L354.067 406.448Z" fill="#6CE3FF"/>
<path opacity="0.5" d="M355.161 409.499L355.481 410.407L370.613 403.579L370.293 402.672L355.161 409.499Z" fill="#6CE3FF"/>
<path opacity="0.5" d="M356.236 412.501L356.556 413.408L371.707 406.613L371.387 405.689L356.236 412.501Z" fill="#6CE3FF"/>
<path opacity="0.5" d="M357.31 415.536L357.649 416.443L372.781 409.632L372.461 408.725L357.31 415.536Z" fill="#6CE3FF"/>
<path opacity="0.5" d="M358.403 418.554L358.723 419.478L373.855 412.65L373.535 411.727L358.403 418.554Z" fill="#6CE3FF"/>
</g>
<path d="M361.344 419.114L357.971 421.571L357.33 422.033C357.33 422.033 356.557 419.196 355.182 418.124C354.71 417.761 353.335 417.267 352.562 417.085C352.11 416.97 351.714 416.755 351.431 416.425C350.772 415.634 349.792 413.902 350.301 410.901C350.395 410.324 350.565 409.928 350.734 409.647C350.753 409.631 350.753 409.631 350.753 409.631C351.168 409.004 351.695 409.021 351.695 409.021C351.695 409.021 353.975 410.439 354.635 410.868C355.182 411.214 355.879 411.907 356.406 411.396C356.689 411.132 355.031 409.285 354.56 408.443C354.107 407.602 354.993 406.695 355.389 407.009C355.766 407.339 358.102 409.911 359.064 412.088C360.025 414.282 361.344 419.114 361.344 419.114Z" fill="#FFD1A4"/>
<path d="M358.742 419.478L357.97 421.588L357.329 422.05C357.329 422.05 356.556 419.214 355.181 418.142C354.709 417.779 353.334 417.284 352.561 417.103C352.109 416.987 351.713 416.773 351.43 416.443C350.771 415.651 349.791 413.92 350.3 410.918C350.394 410.341 350.564 409.945 350.733 409.665C350.752 409.648 350.752 409.648 350.752 409.648C350.752 409.648 350.771 410.16 351.713 410.902C352.655 411.627 354.031 412.287 354.691 412.65C355.331 413.013 356.349 414.349 356.99 415.668C357.649 417.004 358.742 419.478 358.742 419.478Z" fill="#F2BA88"/>
<path d="M418.578 474.427C416.242 485.609 414.564 499.478 414.564 499.478C414.564 499.478 418.465 527.25 414.074 551.444C413.886 552.582 413.434 555.006 411.757 555.946C410.795 556.457 408.289 556.82 406.329 555.913C406.254 555.864 406.16 555.847 406.084 555.798C399.526 552.664 400.224 548.591 399.281 545.919C399.3 535.15 400.582 508.681 397.981 502.859L395.644 479.391L396.492 462.619H419.954V462.669L420.067 462.619C420.067 462.636 422.065 467.138 418.578 474.427Z" fill="#3A3A3A"/>
<path d="M411.416 474.89C409.211 481.239 406.365 497.847 405.762 501.887C405.762 501.887 407.948 533.848 406.083 555.815C399.525 552.682 400.222 548.608 399.28 545.937C399.299 535.167 400.58 508.698 397.98 502.877L395.643 479.409L396.491 462.637H412.622C412.622 462.637 413.621 468.524 411.416 474.89Z" fill="#2D2D2D"/>
<path d="M409.91 468.177C409.175 471.063 407.724 475.087 404.841 478.913C404.389 479.506 403.993 480.117 403.597 480.727C403.522 481.007 402.372 484.767 400.959 489.814C399.527 494.86 397.812 501.177 396.587 506.569C397.265 513.315 399.169 536.964 395.532 557.447C395.268 558.898 394.081 560.102 392.441 560.498C391.687 560.679 390.82 560.794 389.859 560.745C389.162 560.695 388.446 560.58 387.692 560.3C383.848 558.881 381.078 553.505 381.078 553.505C381.078 553.505 380.983 519.499 378.967 510.577C378.571 508.862 378.383 507.147 378.251 505.415C377.874 499.956 377.196 489.979 376.988 485.806C376.593 477.692 376.517 470.898 376.838 467.863L396.059 468.078L409.91 468.177Z" fill="#3A3A3A"/>
<path d="M396.078 468.029C395.984 469.035 395.909 469.695 395.909 469.695C395.909 469.695 395.72 473.933 393.27 480.282C390.82 486.632 388.389 501.705 388.126 507.362C387.862 512.557 391.028 537.327 389.841 560.696C389.143 560.647 388.427 560.531 387.673 560.251C383.829 558.833 381.059 553.456 381.059 553.456C381.059 553.456 380.965 519.45 378.948 510.528C378.552 508.813 378.364 507.098 378.232 505.366C377.855 499.907 377.177 489.93 376.97 485.758C376.574 477.644 376.498 470.849 376.819 467.814L396.078 468.029Z" fill="#2D2D2D"/>
<path d="M422.346 420.73C419.256 428.959 417.503 442.499 419.369 448.139C421.253 453.796 422.346 461.794 422.346 461.794C420.594 466.033 404.199 475.219 395.04 475.911C393.928 475.994 392.797 475.961 391.686 475.796C383.639 474.757 376.082 468.49 376.082 468.49C376.082 468.49 377.816 445.303 378.909 430.477C379.644 420.615 381.302 414.48 382.339 411.462C382.847 409.944 383.205 409.235 383.205 409.235C384.167 408.114 387.069 406.234 390.743 404.106C390.762 404.106 390.8 404.09 390.819 404.073C393.287 402.639 396.095 401.105 398.922 399.654H398.941C402.71 397.707 406.498 395.877 409.532 394.558C409.89 394.409 410.229 394.261 410.549 394.129C412.698 393.205 414.356 392.612 415.204 392.463C419.519 391.754 425.286 393.749 427.038 400.577C428.791 407.438 425.418 412.484 422.346 420.73Z" fill="#CF3DA6"/>
<path opacity="0.75" d="M390.705 448.058C390.158 454.39 391.251 470.173 391.666 475.83C383.619 474.791 376.062 468.524 376.062 468.524C376.062 468.524 377.796 445.336 378.889 430.51C379.624 420.648 381.282 414.513 382.319 411.495C383.186 410.621 383.751 410.061 383.751 410.061H394.361C394.361 410.061 399.882 411.05 397.885 422.05C395.868 433.05 391.364 440.29 390.705 448.058Z" fill="#205CE2"/>
<path d="M410.607 397.625C408.986 399.555 403.201 402.358 400.544 402.853C397.868 403.331 395.738 403.101 394.476 403.084C392.704 403.068 391.329 403.925 390.82 404.107C390.782 404.123 390.763 404.14 390.745 404.14C390.726 404.156 390.707 404.156 390.707 404.156L392.29 402.045L394.137 401.023C394.137 401.023 396.831 400.165 397.434 399.918C397.623 399.835 398.207 399.769 398.942 399.687H398.961C400.563 399.522 402.843 399.373 403.201 399.341C403.71 399.291 407.856 396.784 408.044 396.685C408.138 396.636 408.967 395.448 409.552 394.591C409.91 394.442 410.249 394.294 410.569 394.162C411.116 394.789 411.888 396.092 410.607 397.625Z" fill="#165BD6"/>
<path d="M416.525 380.095C415.62 384.811 411.06 392.232 408.742 392.909C407.347 393.337 406.028 393.502 404.935 393.552C403.126 393.634 401.506 392.513 401.185 390.946C400.902 389.627 400.431 387.961 399.621 386.675C398 384.069 395.89 382.7 394.834 383.178C393.76 383.657 393.873 385.339 393.873 385.339L393.176 385.322C393.176 385.322 393.12 384.778 393.007 384.069C392.931 383.36 392.837 382.453 392.799 381.76C392.799 379.996 392.177 378.264 390.952 376.879C390.217 376.021 389.332 374.702 388.371 372.706C387.749 371.387 387.598 370.117 387.73 368.979V368.963C388.163 365.334 389.859 363.85 391.461 362.811C396.681 359.463 407.592 365.681 411.625 368.649C413.83 370.265 415.375 372.145 416.148 374.273V374.289C416.807 376.054 416.939 377.967 416.525 380.095Z" fill="#713E23"/>
<path d="M409.85 393.931L408.851 393.123C402.331 399.423 393.719 399.654 393.719 399.654C393.719 399.654 391.363 401.732 390.685 404.156L392.061 403.381C392.777 402.969 393.587 402.688 394.435 402.573C394.982 402.507 396.169 402.441 396.169 402.441C401.558 402.375 406.929 399.077 409.718 397.048C410.849 396.24 410.905 394.789 409.85 393.931Z" fill="white"/>
<path d="M385.466 550.453C385.56 550.618 385.692 550.75 385.805 550.882C385.673 550.717 385.56 550.585 385.466 550.453Z" fill="#474747"/>
<path d="M385.976 551.097C385.9 551.031 385.863 550.949 385.806 550.883C385.9 550.998 386.013 551.13 386.164 551.262C386.089 551.213 386.051 551.163 385.976 551.097Z" fill="#474747"/>
<path d="M356.767 420.499C356.767 420.499 356.767 420.499 356.767 420.516C356.918 420.895 358.444 425.216 359.367 427.921C360.253 430.526 363.174 439.976 365.53 444.478C365.549 444.561 365.586 444.627 365.643 444.709C365.775 444.924 365.888 445.105 365.963 445.27C365.982 445.352 366.02 445.402 366.076 445.484C366.076 445.501 366.095 445.501 366.095 445.517C366.208 445.682 366.284 445.864 366.359 446.012C367.245 447.447 368.865 448.634 370.938 448.865H371.183C374.424 448.865 382.17 436.678 384.469 432.951C383.527 432.439 382.377 431.796 381.133 431.005C378.891 429.57 376.403 427.657 374.538 425.232C373.388 427.475 371.032 430.807 369.996 432.951C369.996 432.951 369.864 432.67 369.676 432.175C368.941 430.576 366.811 426.717 365.077 424.606C362.552 421.555 360.969 417.465 360.762 417.02C360.762 417.151 360.649 417.531 359.481 417.663C359.085 417.712 358.689 418.009 358.293 418.405C357.898 418.801 357.54 419.295 357.219 419.741C357.163 419.79 357.125 419.856 357.087 419.906C356.955 420.12 356.842 420.285 356.767 420.499Z" fill="#FFD1A4"/>
<path d="M356.767 420.501C356.767 420.501 356.767 420.501 356.767 420.517C356.918 420.897 358.444 425.217 359.367 427.922C360.253 430.528 363.174 439.977 365.53 444.48C365.549 444.562 365.586 444.628 365.643 444.711C365.775 444.925 365.888 445.106 365.963 445.271C365.982 445.354 366.02 445.403 366.076 445.486C366.076 445.502 366.095 445.502 366.095 445.519C366.208 445.684 366.284 445.865 366.359 446.013C367.245 447.448 368.865 448.636 370.938 448.867H371.183C374.424 448.867 382.17 436.679 384.469 432.952C383.527 432.441 382.377 431.798 381.133 431.006C378.853 434.7 372.201 445.288 369.713 445.271C368.526 445.271 366.057 438.427 364.248 434.337C362.439 430.247 358.312 418.406 358.312 418.406C357.916 418.802 357.558 419.297 357.238 419.742C357.181 419.792 357.144 419.858 357.106 419.907C356.955 420.121 356.842 420.286 356.767 420.501Z" fill="#F2BA88"/>
<path d="M372.952 425.744C375.76 429.405 380.867 432.489 383.581 433.974C384.41 434.435 385.069 434.749 385.484 434.93C386.049 434.155 394.473 422.561 395.359 418.521C395.472 418.24 395.528 417.977 395.566 417.746C396.678 412.386 394.793 410.473 394.548 410.225C394.492 410.176 394.435 410.11 394.397 410.061C390.591 406.069 384.447 405.938 380.867 411.825C379.209 414.546 375.854 419.989 372.952 425.744Z" fill="#CF3DA6"/>
<path d="M416.525 380.096C415.62 384.813 411.06 392.234 408.742 392.91C407.347 393.339 406.028 393.504 404.935 393.553C403.126 393.636 401.506 392.514 401.185 390.947C400.902 389.628 400.431 387.962 399.621 386.676C398 384.07 395.89 382.702 394.834 383.18C393.76 383.658 393.873 385.34 393.873 385.34L393.176 385.324C393.176 385.324 393.12 384.78 393.007 384.07C392.931 383.361 392.837 382.454 392.799 381.762C392.799 379.997 392.177 378.265 390.952 376.88C390.217 376.022 389.332 374.703 388.371 372.708C387.749 371.388 387.598 370.118 387.73 368.98C388.239 370.118 392.592 378.991 404.747 381.217C417.429 383.543 416.242 374.736 416.148 374.291C416.807 376.055 416.939 377.968 416.525 380.096Z" fill="#442312"/>
<path d="M382.943 463.692C383.979 465.358 387.635 467.733 391.951 467.205C392.723 467.106 393.534 466.974 394.344 466.809C394.438 466.793 394.514 466.776 394.589 466.776C403.635 464.946 415.544 459.421 418.654 455.529C422.649 450.532 418.71 423.436 412.567 413.096V413.079C410.946 410.374 407.856 409.467 406.047 409.715C406.047 409.715 394.024 413.673 390.217 417.763C386.392 421.836 379.721 458.497 382.943 463.692Z" fill="#FBC006"/>
<path d="M382.942 463.692C383.978 465.358 387.634 467.733 391.95 467.205C392.722 467.106 393.532 466.974 394.343 466.809C391.516 467.469 389.349 464.616 389.349 462.637C389.349 460.674 392.194 430.478 395.436 422.051C396.397 419.56 408.684 414.646 412.547 413.079C410.926 410.374 407.836 409.467 406.027 409.715C406.027 409.715 394.004 413.673 390.197 417.763C386.39 421.836 379.719 458.497 382.942 463.692Z" fill="#FFD04D"/>
<path d="M401.184 411.793C401.184 411.793 398.658 407.571 395.662 405.889C392.666 404.19 389.726 404.603 389.726 404.603L385.26 407.39C385.26 407.39 387.823 407.307 390.668 409.138C392.364 410.226 395.153 414.481 395.153 414.481L401.184 411.793Z" fill="#FFD04D"/>
<path d="M377.779 444.018C377.779 444.018 378.552 448.751 383.734 451.901L382.886 457.887C382.886 457.887 380.06 456.419 377.233 451.159L377.779 444.018Z" fill="#FFD04D"/>
</g>
<defs>
<linearGradient id="paint0_linear_376_4680" x1="348" y1="222" x2="176" y2="147" gradientUnits="userSpaceOnUse">
<stop stop-color="#8D36D1"/>
<stop offset="1" stop-color="#CF3DA6"/>
</linearGradient>
<linearGradient id="paint1_linear_376_4680" x1="454.484" y1="301.883" x2="391.499" y2="301.883" gradientUnits="userSpaceOnUse">
<stop stop-color="#B4BBE1" stop-opacity="0.1"/>
<stop offset="1" stop-color="#B4BBE1" stop-opacity="0.3"/>
</linearGradient>
<linearGradient id="paint2_linear_376_4680" x1="501.626" y1="342.839" x2="582.982" y2="396.512" gradientUnits="userSpaceOnUse">
<stop stop-color="#B4BBE1" stop-opacity="0.1"/>
<stop offset="1" stop-color="#B4BBE1" stop-opacity="0.3"/>
</linearGradient>
<linearGradient id="paint3_linear_376_4680" x1="447.184" y1="351.382" x2="528.539" y2="405.054" gradientUnits="userSpaceOnUse">
<stop stop-color="#B4BBE1" stop-opacity="0.1"/>
<stop offset="1" stop-color="#B4BBE1" stop-opacity="0.3"/>
</linearGradient>
<linearGradient id="paint4_linear_376_4680" x1="529.004" y1="445.364" x2="114.853" y2="445.364" gradientUnits="userSpaceOnUse">
<stop stop-color="#B4BBE1" stop-opacity="0.1"/>
<stop offset="1" stop-color="#B4BBE1" stop-opacity="0.3"/>
</linearGradient>
<linearGradient id="paint5_linear_376_4680" x1="250.816" y1="397.528" x2="151.977" y2="397.528" gradientUnits="userSpaceOnUse">
<stop stop-color="#CED5EF"/>
<stop offset="0.3714" stop-color="#D5DDF1"/>
<stop offset="0.8656" stop-color="#DAE3F2"/>
</linearGradient>
<linearGradient id="paint6_linear_376_4680" x1="266.878" y1="405.602" x2="168.076" y2="405.602" gradientUnits="userSpaceOnUse">
<stop stop-color="#CED5EF"/>
<stop offset="0.3714" stop-color="#D5DDF1"/>
<stop offset="0.8656" stop-color="#DAE3F2"/>
</linearGradient>
<linearGradient id="paint7_linear_376_4680" x1="282.937" y1="413.666" x2="184.134" y2="413.666" gradientUnits="userSpaceOnUse">
<stop stop-color="#CED5EF"/>
<stop offset="0.3714" stop-color="#D5DDF1"/>
<stop offset="0.8656" stop-color="#DAE3F2"/>
</linearGradient>
<linearGradient id="paint8_linear_376_4680" x1="298.821" y1="421.662" x2="200.035" y2="421.662" gradientUnits="userSpaceOnUse">
<stop stop-color="#CED5EF"/>
<stop offset="0.3714" stop-color="#D5DDF1"/>
<stop offset="0.8656" stop-color="#DAE3F2"/>
</linearGradient>
<linearGradient id="paint9_linear_376_4680" x1="314.916" y1="429.751" x2="216.149" y2="429.751" gradientUnits="userSpaceOnUse">
<stop stop-color="#CED5EF"/>
<stop offset="0.3714" stop-color="#D5DDF1"/>
<stop offset="0.8656" stop-color="#DAE3F2"/>
</linearGradient>
<linearGradient id="paint10_linear_376_4680" x1="331.931" y1="438.296" x2="233.164" y2="438.296" gradientUnits="userSpaceOnUse">
<stop stop-color="#CED5EF"/>
<stop offset="0.3714" stop-color="#D5DDF1"/>
<stop offset="0.8656" stop-color="#DAE3F2"/>
</linearGradient>
<linearGradient id="paint11_linear_376_4680" x1="348.151" y1="446.462" x2="249.419" y2="446.462" gradientUnits="userSpaceOnUse">
<stop stop-color="#CED5EF"/>
<stop offset="0.3714" stop-color="#D5DDF1"/>
<stop offset="0.8656" stop-color="#DAE3F2"/>
</linearGradient>
<linearGradient id="paint12_linear_376_4680" x1="364.371" y1="454.592" x2="265.604" y2="454.592" gradientUnits="userSpaceOnUse">
<stop stop-color="#CED5EF"/>
<stop offset="0.3714" stop-color="#D5DDF1"/>
<stop offset="0.8656" stop-color="#DAE3F2"/>
</linearGradient>
<linearGradient id="paint13_linear_376_4680" x1="374.875" y1="352.965" x2="262.675" y2="352.965" gradientUnits="userSpaceOnUse">
<stop stop-color="#CED5EF"/>
<stop offset="0.3714" stop-color="#D5DDF1"/>
<stop offset="0.8656" stop-color="#DAE3F2"/>
</linearGradient>
<linearGradient id="paint14_linear_376_4680" x1="390.789" y1="360.974" x2="278.643" y2="360.974" gradientUnits="userSpaceOnUse">
<stop stop-color="#CED5EF"/>
<stop offset="0.3714" stop-color="#D5DDF1"/>
<stop offset="0.8656" stop-color="#DAE3F2"/>
</linearGradient>
<linearGradient id="paint15_linear_376_4680" x1="407.022" y1="369.117" x2="294.805" y2="369.117" gradientUnits="userSpaceOnUse">
<stop stop-color="#CED5EF"/>
<stop offset="0.3714" stop-color="#D5DDF1"/>
<stop offset="0.8656" stop-color="#DAE3F2"/>
</linearGradient>
<linearGradient id="paint16_linear_376_4680" x1="423.036" y1="377.179" x2="310.872" y2="377.179" gradientUnits="userSpaceOnUse">
<stop stop-color="#CED5EF"/>
<stop offset="0.3714" stop-color="#D5DDF1"/>
<stop offset="0.8656" stop-color="#DAE3F2"/>
</linearGradient>
<linearGradient id="paint17_linear_376_4680" x1="439.189" y1="385.29" x2="327.017" y2="385.29" gradientUnits="userSpaceOnUse">
<stop stop-color="#CED5EF"/>
<stop offset="0.3714" stop-color="#D5DDF1"/>
<stop offset="0.8656" stop-color="#DAE3F2"/>
</linearGradient>
<linearGradient id="paint18_linear_376_4680" x1="455.202" y1="393.352" x2="343.048" y2="393.352" gradientUnits="userSpaceOnUse">
<stop stop-color="#CED5EF"/>
<stop offset="0.3714" stop-color="#D5DDF1"/>
<stop offset="0.8656" stop-color="#DAE3F2"/>
</linearGradient>
<linearGradient id="paint19_linear_376_4680" x1="471.308" y1="401.438" x2="359.127" y2="401.438" gradientUnits="userSpaceOnUse">
<stop stop-color="#CED5EF"/>
<stop offset="0.3714" stop-color="#D5DDF1"/>
<stop offset="0.8656" stop-color="#DAE3F2"/>
</linearGradient>
<linearGradient id="paint20_linear_376_4680" x1="487.443" y1="409.543" x2="375.288" y2="409.543" gradientUnits="userSpaceOnUse">
<stop stop-color="#CED5EF"/>
<stop offset="0.3714" stop-color="#D5DDF1"/>
<stop offset="0.8656" stop-color="#DAE3F2"/>
</linearGradient>
<linearGradient id="paint21_linear_376_4680" x1="244.722" y1="521.496" x2="103.966" y2="521.496" gradientUnits="userSpaceOnUse">
<stop stop-color="#B4BBE1" stop-opacity="0.1"/>
<stop offset="1" stop-color="#B4BBE1" stop-opacity="0.3"/>
</linearGradient>
<linearGradient id="paint22_linear_376_4680" x1="276.821" y1="395.821" x2="206.444" y2="395.821" gradientUnits="userSpaceOnUse">
<stop stop-color="#B4BBE1" stop-opacity="0.1"/>
<stop offset="1" stop-color="#B4BBE1" stop-opacity="0.3"/>
</linearGradient>
<clipPath id="clip0_376_4680">
<rect width="544" height="432" fill="white" transform="matrix(-1 0 0 1 597 135)"/>
</clipPath>
</defs>
</svg>
