<svg width="37" height="39" viewBox="0 0 37 39" fill="none" xmlns="http://www.w3.org/2000/svg">
<path d="M27.6758 4.23836V34.955C27.6758 36.7608 26.2204 38.2304 24.4319 38.2304H3.31034C1.52185 38.2304 0.0664062 36.7608 0.0664062 34.955V4.23836C0.0664062 2.43248 1.52185 0.962891 3.31034 0.962891H24.4319C26.2204 0.962891 27.6758 2.43248 27.6758 4.23836Z" fill="#EEF4FF"/>
<path d="M27.6749 4.23836V34.955C27.6749 36.7608 26.2195 38.2304 24.431 38.2304H13.9062V0.962891H24.431C26.2195 0.962891 27.6749 2.43248 27.6749 4.23836Z" fill="#D9E6FC"/>
<path d="M23.0641 9.11526C23.0641 9.71795 22.5797 10.2071 21.9828 10.2071H5.83522C5.23833 10.2071 4.75391 9.71795 4.75391 9.11526C4.75391 8.51257 5.23833 8.02344 5.83522 8.02344H21.9828C22.5797 8.02344 23.0641 8.51257 23.0641 9.11526Z" fill="#425796"/>
<path d="M23.0631 9.11526C23.0631 9.71795 22.5787 10.2071 21.9818 10.2071H13.8359V8.02344H21.9818C22.5787 8.02344 23.0631 8.51257 23.0631 9.11526Z" fill="#283758"/>
<path d="M19.6039 14.9395C19.6039 15.5422 19.1195 16.0313 18.5226 16.0313H5.83522C5.23833 16.0313 4.75391 15.5422 4.75391 14.9395C4.75391 14.3368 5.23833 13.8477 5.83522 13.8477H18.5226C19.1195 13.8477 19.6039 14.3368 19.6039 14.9395Z" fill="#425796"/>
<path d="M19.6029 14.9395C19.6029 15.5422 19.1185 16.0313 18.5216 16.0313H13.8359V13.8477H18.5216C19.1185 13.8477 19.6029 14.3368 19.6029 14.9395Z" fill="#283758"/>
<path d="M16.1437 20.7617C16.1437 21.3644 15.6593 21.8536 15.0624 21.8536H5.83522C5.23833 21.8536 4.75391 21.3644 4.75391 20.7617C4.75391 20.1591 5.23833 19.6699 5.83522 19.6699H15.0624C15.6593 19.6699 16.1437 20.1591 16.1437 20.7617Z" fill="#425796"/>
<path d="M16.1427 20.7617C16.1427 21.3644 15.6583 21.8536 15.0614 21.8536H13.8359V19.6699H15.0614C15.6583 19.6699 16.1427 20.1591 16.1427 20.7617Z" fill="#283758"/>
<path d="M36.6763 17.2167C36.5415 17.4467 36.091 17.914 33.0719 20.9223C31.3224 22.6656 28.7099 25.2634 24.797 29.1634C24.6089 29.3519 25.0342 29.1219 18.3777 32.2584C17.4586 32.6929 16.5171 31.7226 16.9402 30.807C20.0515 24.0762 19.818 24.513 20.0104 24.3208C23.9104 20.383 26.5012 17.7655 28.2234 16.0266C31.5704 12.6456 31.636 12.5815 31.6439 12.5903C32.5111 11.8828 33.7575 11.9526 34.5375 12.7402C36.4911 14.7128 36.3966 14.6101 36.4911 14.7288C37.0447 15.4101 37.1463 16.4066 36.6763 17.2167Z" fill="#FFE278"/>
<path d="M36.6741 17.2159C36.4614 17.5791 35.4594 18.5341 24.7948 29.1626C24.6067 29.3512 25.032 29.1211 18.3754 32.2576C18.2291 32.3267 18.0727 32.3602 17.9184 32.3602C17.6192 32.3602 17.3583 32.2416 17.168 32.0545L35.4169 13.6289C36.4593 14.6807 36.411 14.6305 36.4888 14.728C37.0424 15.4093 37.1441 16.4058 36.6741 17.2159Z" fill="#FFB454"/>
<path d="M36.6756 17.2167C36.5408 17.4467 36.0903 17.914 33.0712 20.9223L33.0655 20.9172L30.6333 18.4614L28.2227 16.0281V16.0266C31.5697 12.6456 31.6353 12.5815 31.6432 12.5903C32.5104 11.8828 33.7568 11.9526 34.5368 12.7402C34.8951 13.102 35.1841 13.3939 35.4184 13.6297C36.4622 14.6829 36.4132 14.632 36.4904 14.7288C37.044 15.4101 37.1456 16.4066 36.6756 17.2167Z" fill="#DD5958"/>
<path d="M36.6752 17.2159C36.5404 17.4459 36.0898 17.9132 33.0708 20.9216L33.065 20.9165L30.6328 18.4606L35.418 13.6289C36.4618 14.6822 36.4128 14.6312 36.4899 14.728C37.0435 15.4093 37.1452 16.4058 36.6752 17.2159Z" fill="#D8225B"/>
</svg>
