<svg width="64" height="65" viewBox="0 0 64 65" fill="none" xmlns="http://www.w3.org/2000/svg">
<rect y="0.839844" width="64" height="64" rx="32" fill="#CF3DA6" fill-opacity="0.08"/>
<path d="M45.3333 23.4666V39.3199C45.3333 40.6132 44.28 41.7999 42.9867 41.9599L42.5733 42.0132C40.3867 42.3066 37.3067 43.2132 34.8267 44.2532C33.96 44.6132 33 43.9599 33 43.0132V24.4666C33 23.9732 33.28 23.5199 33.72 23.2799C36.16 21.9599 39.8533 20.7866 42.36 20.5732H42.44C44.04 20.5732 45.3333 21.8666 45.3333 23.4666Z" fill="#CF3DA6"/>
<path d="M30.28 23.2799C27.84 21.9599 24.1467 20.7866 21.64 20.5732H21.5467C19.9467 20.5732 18.6533 21.8666 18.6533 23.4666V39.3199C18.6533 40.6132 19.7067 41.7999 21 41.9599L21.4133 42.0132C23.6 42.3066 26.68 43.2132 29.16 44.2532C30.0267 44.6132 30.9867 43.9599 30.9867 43.0132V24.4666C30.9867 23.9599 30.72 23.5199 30.28 23.2799ZM22.6667 27.3199H25.6667C26.2133 27.3199 26.6667 27.7732 26.6667 28.3199C26.6667 28.8799 26.2133 29.3199 25.6667 29.3199H22.6667C22.12 29.3199 21.6667 28.8799 21.6667 28.3199C21.6667 27.7732 22.12 27.3199 22.6667 27.3199ZM26.6667 33.3199H22.6667C22.12 33.3199 21.6667 32.8799 21.6667 32.3199C21.6667 31.7732 22.12 31.3199 22.6667 31.3199H26.6667C27.2133 31.3199 27.6667 31.7732 27.6667 32.3199C27.6667 32.8799 27.2133 33.3199 26.6667 33.3199Z" fill="#CF3DA6"/>
</svg>
