<svg width="32" height="32" viewBox="0 0 32 32" fill="none" xmlns="http://www.w3.org/2000/svg">
<path d="M29.3333 6.46658V22.3199C29.3333 23.6132 28.28 24.7999 26.9867 24.9599L26.5733 25.0132C24.3867 25.3066 21.3067 26.2132 18.8267 27.2532C17.96 27.6132 17 26.9599 17 26.0132V7.46658C17 6.97324 17.28 6.51991 17.72 6.27991C20.16 4.95991 23.8533 3.78658 26.36 3.57324H26.44C28.04 3.57324 29.3333 4.86658 29.3333 6.46658Z" fill="#CF3DA6"/>
<path d="M14.28 6.27991C11.84 4.95991 8.14665 3.78658 5.63999 3.57324H5.54665C3.94665 3.57324 2.65332 4.86658 2.65332 6.46658V22.3199C2.65332 23.6132 3.70665 24.7999 4.99999 24.9599L5.41332 25.0132C7.59999 25.3066 10.68 26.2132 13.16 27.2532C14.0267 27.6132 14.9867 26.9599 14.9867 26.0132V7.46658C14.9867 6.95991 14.72 6.51991 14.28 6.27991ZM6.66665 10.3199H9.66665C10.2133 10.3199 10.6667 10.7732 10.6667 11.3199C10.6667 11.8799 10.2133 12.3199 9.66665 12.3199H6.66665C6.11999 12.3199 5.66665 11.8799 5.66665 11.3199C5.66665 10.7732 6.11999 10.3199 6.66665 10.3199ZM10.6667 16.3199H6.66665C6.11999 16.3199 5.66665 15.8799 5.66665 15.3199C5.66665 14.7732 6.11999 14.3199 6.66665 14.3199H10.6667C11.2133 14.3199 11.6667 14.7732 11.6667 15.3199C11.6667 15.8799 11.2133 16.3199 10.6667 16.3199Z" fill="#CF3DA6"/>
</svg>
