<svg width="32" height="32" viewBox="0 0 32 32" fill="none" xmlns="http://www.w3.org/2000/svg">
<path d="M14.7333 19.9337L12.2666 22.4003C11.7466 22.9203 10.92 22.9203 10.3866 22.4137C10.24 22.267 10.0933 22.1337 9.94663 21.987C8.57329 20.6003 7.33329 19.147 6.22663 17.627C5.13329 16.107 4.25329 14.587 3.61329 13.0803C2.98663 11.5603 2.66663 10.107 2.66663 8.72033C2.66663 7.81366 2.82663 6.94699 3.14663 6.14699C3.46663 5.33366 3.97329 4.58699 4.67996 3.92033C5.53329 3.08033 6.46663 2.66699 7.45329 2.66699C7.82663 2.66699 8.19996 2.74699 8.53329 2.90699C8.87996 3.06699 9.18663 3.30699 9.42663 3.65366L12.52 8.01366C12.76 8.34699 12.9333 8.65366 13.0533 8.94699C13.1733 9.22699 13.24 9.50699 13.24 9.76033C13.24 10.0803 13.1466 10.4003 12.96 10.707C12.7866 11.0137 12.5333 11.3337 12.2133 11.6537L11.2 12.707C11.0533 12.8537 10.9866 13.027 10.9866 13.2403C10.9866 13.347 11 13.4403 11.0266 13.547C11.0666 13.6537 11.1066 13.7337 11.1333 13.8137C11.3733 14.2537 11.7866 14.827 12.3733 15.5203C12.9733 16.2137 13.6133 16.9203 14.3066 17.627C14.44 17.7603 14.5866 17.8937 14.72 18.027C15.2533 18.547 15.2666 19.4003 14.7333 19.9337Z" fill="#CF3DA6"/>
<path d="M29.2934 24.4397C29.2934 24.8131 29.2267 25.1997 29.0934 25.5731C29.0534 25.6797 29.0134 25.7864 28.96 25.8931C28.7334 26.3731 28.4401 26.8264 28.0534 27.2531C27.4001 27.9731 26.68 28.4931 25.8667 28.8264C25.8534 28.8264 25.84 28.8397 25.8267 28.8397C25.04 29.1597 24.1867 29.3331 23.2667 29.3331C21.9067 29.3331 20.4534 29.0131 18.92 28.3597C17.3867 27.7064 15.8534 26.8264 14.3334 25.7197C13.8134 25.3331 13.2934 24.9464 12.8 24.5331L17.16 20.1731C17.5334 20.4531 17.8667 20.6664 18.1467 20.8131C18.2134 20.8397 18.2934 20.8797 18.3867 20.9197C18.4934 20.9597 18.6 20.9731 18.72 20.9731C18.9467 20.9731 19.12 20.8931 19.2667 20.7464L20.28 19.7464C20.6134 19.4131 20.9334 19.1597 21.24 18.9997C21.5467 18.8131 21.8534 18.7197 22.1867 18.7197C22.44 18.7197 22.7067 18.7731 23 18.8931C23.2934 19.0131 23.6 19.1864 23.9334 19.4131L28.3467 22.5464C28.6934 22.7864 28.9334 23.0664 29.08 23.3997C29.2134 23.7331 29.2934 24.0664 29.2934 24.4397Z" fill="#CF3DA6"/>
</svg>
