<svg width="167" height="461" viewBox="0 0 167 461" fill="none" xmlns="http://www.w3.org/2000/svg">
<path d="M-16.4656 148.523C-27.9998 126.823 -30.0298 102.119 -23.4889 76.2508C-20.7322 65.3299 -16.8147 54.5202 -17.2991 43.0852C-17.7801 31.6422 -23.897 19.0518 -35.4214 14.1334C-49.5701 8.1031 -65.2668 16.0008 -74.3006 26.5798C-93.2954 48.8281 -105.14 79.1206 -92.0173 108.936C-81.8021 132.155 -59.3951 150.987 -51.7281 174.788C-44.3006 197.832 -51.7802 222.518 -41.1982 244.785C-35.625 256.515 -25.4982 266.345 -14.4555 274.529C1.18876 286.11 19.7255 295.122 38.9687 296.885C58.221 298.652 78.0655 292.172 87.6994 277.951C112.953 240.673 69.4057 198.249 39.985 180.305C20.0858 168.162 -7.76021 164.886 -16.4656 148.523Z" fill="url(#paint0_linear_20_5428)"/>
<g opacity="0.7">
<g opacity="0.7">
<path opacity="0.7" d="M7.59797 260.166C8.52857 260.371 9.5734 259.646 9.93168 258.546C10.29 257.445 9.82602 256.387 8.89543 256.182C7.96484 255.977 6.92 256.702 6.56172 257.803C6.20343 258.903 6.66738 259.961 7.59797 260.166Z" fill="#C9C2C2"/>
<path opacity="0.7" d="M24.0325 264.57C24.9631 264.775 26.008 264.049 26.3662 262.949C26.7245 261.849 26.2606 260.791 25.33 260.585C24.3994 260.38 23.3546 261.106 22.9963 262.206C22.638 263.306 23.102 264.364 24.0325 264.57Z" fill="#C9C2C2"/>
<path opacity="0.7" d="M40.4805 268.977C41.4111 269.182 42.456 268.456 42.8142 267.356C43.1725 266.256 42.7086 265.198 41.778 264.993C40.8474 264.787 39.8026 265.513 39.4443 266.613C39.086 267.713 39.5499 268.772 40.4805 268.977Z" fill="#C9C2C2"/>
<path opacity="0.7" d="M59.2498 271.76C58.893 272.855 57.8428 273.584 56.9161 273.38C55.9893 273.176 55.5184 272.126 55.8798 271.017C56.2366 269.921 57.2868 269.192 58.2135 269.396C59.1403 269.6 59.6112 270.65 59.2498 271.76Z" fill="#C9C2C2"/>
<path opacity="0.7" d="M73.3502 277.784C74.2808 277.99 75.3256 277.264 75.6839 276.164C76.0422 275.064 75.5782 274.005 74.6476 273.8C73.717 273.595 72.6722 274.321 72.3139 275.421C71.9556 276.521 72.4196 277.579 73.3502 277.784Z" fill="#C9C2C2"/>
<path opacity="0.7" d="M92.1187 280.567C91.7619 281.663 90.7117 282.392 89.785 282.188C88.8582 281.983 88.3873 280.934 88.7487 279.824C89.1055 278.728 90.1557 277.999 91.0824 278.204C92.0212 278.41 92.4801 279.457 92.1187 280.567Z" fill="#C9C2C2"/>
<path opacity="0.7" d="M106.233 286.595C107.164 286.8 108.209 286.075 108.567 284.974C108.925 283.874 108.461 282.816 107.531 282.611C106.6 282.406 105.555 283.131 105.197 284.231C104.839 285.332 105.303 286.39 106.233 286.595Z" fill="#C9C2C2"/>
<path opacity="0.7" d="M125.002 289.379C124.645 290.474 123.595 291.204 122.668 290.999C121.742 290.795 121.271 289.746 121.632 288.636C121.989 287.54 123.039 286.811 123.966 287.015C124.905 287.222 125.363 288.269 125.002 289.379Z" fill="#C9C2C2"/>
<path opacity="0.7" d="M139.116 295.406C140.047 295.612 141.092 294.886 141.45 293.786C141.808 292.686 141.344 291.627 140.414 291.422C139.483 291.217 138.438 291.943 138.08 293.043C137.722 294.143 138.186 295.201 139.116 295.406Z" fill="#C9C2C2"/>
</g>
<g opacity="0.7">
<path opacity="0.7" d="M3.59773 275.094C4.52832 275.299 5.57315 274.574 5.93143 273.473C6.28972 272.373 5.82578 271.315 4.89519 271.11C3.96459 270.905 2.91976 271.63 2.56147 272.73C2.20319 273.831 2.66714 274.889 3.59773 275.094Z" fill="#C9C2C2"/>
<path opacity="0.7" d="M20.0323 279.498C20.9629 279.703 22.0077 278.978 22.366 277.878C22.7243 276.777 22.2603 275.719 21.3298 275.514C20.3992 275.309 19.3543 276.034 18.996 277.135C18.6378 278.235 19.1017 279.293 20.0323 279.498Z" fill="#C9C2C2"/>
<path opacity="0.7" d="M36.4803 283.906C37.4109 284.111 38.4557 283.385 38.814 282.285C39.1723 281.185 38.7083 280.126 37.7778 279.921C36.8472 279.716 35.8023 280.442 35.444 281.542C35.0858 282.642 35.5497 283.7 36.4803 283.906Z" fill="#C9C2C2"/>
<path opacity="0.7" d="M55.2495 286.688C54.8927 287.784 53.8426 288.513 52.9158 288.309C51.9891 288.105 51.5182 287.055 51.8796 285.945C52.2364 284.85 53.2866 284.12 54.2133 284.325C55.1354 284.543 55.6064 285.593 55.2495 286.688Z" fill="#C9C2C2"/>
<path opacity="0.7" d="M69.3499 292.713C70.2805 292.918 71.3253 292.193 71.6836 291.093C72.0419 289.992 71.578 288.934 70.6474 288.729C69.7168 288.524 68.672 289.249 68.3137 290.35C67.9554 291.45 68.4193 292.508 69.3499 292.713Z" fill="#C9C2C2"/>
<path opacity="0.7" d="M88.1184 295.496C87.7616 296.592 86.7115 297.321 85.7847 297.116C84.858 296.912 84.3871 295.863 84.7485 294.753C85.1053 293.657 86.1555 292.928 87.0822 293.132C88.0163 293.353 88.4752 294.4 88.1184 295.496Z" fill="#C9C2C2"/>
<path opacity="0.7" d="M102.233 301.524C103.164 301.729 104.208 301.003 104.567 299.903C104.925 298.803 104.461 297.745 103.53 297.539C102.6 297.334 101.555 298.06 101.197 299.16C100.838 300.26 101.302 301.319 102.233 301.524Z" fill="#C9C2C2"/>
<path opacity="0.7" d="M121.002 304.307C120.645 305.403 119.595 306.132 118.668 305.928C117.741 305.724 117.27 304.674 117.632 303.564C117.989 302.469 119.039 301.739 119.965 301.944C120.9 302.165 121.359 303.212 121.002 304.307Z" fill="#C9C2C2"/>
<path opacity="0.7" d="M135.116 310.334C136.047 310.539 137.091 309.814 137.45 308.714C137.808 307.613 137.344 306.555 136.413 306.35C135.483 306.145 134.438 306.87 134.08 307.971C133.722 309.071 134.185 310.129 135.116 310.334Z" fill="#C9C2C2"/>
</g>
<g opacity="0.7">
<path opacity="0.7" d="M1.91463 288.412C1.55783 289.508 0.507628 290.237 -0.419116 290.032C-1.34586 289.828 -1.81217 288.765 -1.45537 287.669C-1.09857 286.573 -0.0604384 285.841 0.878341 286.048C1.81249 286.269 2.27143 287.316 1.91463 288.412Z" fill="#C9C2C2"/>
<path opacity="0.7" d="M18.3623 292.819C18.0055 293.915 16.9674 294.647 16.0286 294.44C15.1019 294.235 14.6356 293.172 14.9924 292.076C15.3492 290.98 16.3994 290.251 17.3261 290.455C18.2482 290.674 18.7191 291.723 18.3623 292.819Z" fill="#C9C2C2"/>
<path opacity="0.7" d="M34.7972 297.222C34.4404 298.318 33.3902 299.047 32.4635 298.843C31.5367 298.639 31.0704 297.575 31.4272 296.479C31.784 295.384 32.8221 294.652 33.7609 294.859C34.6951 295.08 35.154 296.127 34.7972 297.222Z" fill="#C9C2C2"/>
<path opacity="0.7" d="M51.2459 301.63C50.8891 302.725 49.8389 303.455 48.9122 303.25C47.9854 303.046 47.5191 301.982 47.8759 300.887C48.2327 299.791 49.2829 299.062 50.2096 299.266C51.1317 299.485 51.6027 300.534 51.2459 301.63Z" fill="#C9C2C2"/>
<path opacity="0.7" d="M67.68 306.034C67.3232 307.13 66.273 307.859 65.3463 307.655C64.4195 307.45 63.9532 306.387 64.31 305.291C64.6668 304.195 65.7049 303.463 66.6437 303.67C67.5658 303.889 68.0368 304.938 67.68 306.034Z" fill="#C9C2C2"/>
<path opacity="0.7" d="M84.1148 310.437C83.758 311.533 82.7078 312.262 81.7811 312.058C80.8543 311.854 80.388 310.79 80.7448 309.694C81.1016 308.599 82.1518 307.869 83.0785 308.074C84.0127 308.295 84.4716 309.342 84.1148 310.437Z" fill="#C9C2C2"/>
<path opacity="0.7" d="M100.563 314.844C100.206 315.94 99.1561 316.669 98.2293 316.465C97.3026 316.261 96.8363 315.197 97.1931 314.101C97.5499 313.006 98.588 312.274 99.5268 312.481C100.449 312.699 100.92 313.749 100.563 314.844Z" fill="#C9C2C2"/>
<path opacity="0.7" d="M116.998 319.248C116.641 320.343 115.591 321.073 114.664 320.868C113.738 320.664 113.271 319.6 113.628 318.505C113.985 317.409 115.035 316.68 115.962 316.884C116.896 317.105 117.355 318.152 116.998 319.248Z" fill="#C9C2C2"/>
<path opacity="0.7" d="M133.446 323.655C133.089 324.751 132.051 325.483 131.112 325.276C130.174 325.069 129.719 324.008 130.076 322.912C130.433 321.816 131.471 321.084 132.41 321.291C133.349 321.498 133.803 322.559 133.446 323.655Z" fill="#C9C2C2"/>
</g>
<g opacity="0.7">
<path opacity="0.7" d="M14.3587 307.761C14.0019 308.857 12.9638 309.589 12.025 309.382C11.0982 309.178 10.6273 308.128 10.9887 307.018C11.3455 305.923 12.3957 305.194 13.3224 305.398C14.2492 305.602 14.7155 306.666 14.3587 307.761Z" fill="#C9C2C2"/>
<path opacity="0.7" d="M30.7935 312.165C30.4367 313.26 29.3865 313.99 28.4598 313.785C27.533 313.581 27.0621 312.532 27.4235 311.422C27.7803 310.326 28.8185 309.594 29.7572 309.801C30.696 310.008 31.1503 311.069 30.7935 312.165Z" fill="#C9C2C2"/>
<path opacity="0.7" d="M47.2422 316.572C46.8854 317.668 45.8353 318.397 44.9085 318.193C43.9818 317.988 43.5108 316.939 43.8723 315.829C44.2291 314.733 45.2792 314.004 46.206 314.208C47.1327 314.413 47.599 315.476 47.2422 316.572Z" fill="#C9C2C2"/>
<path opacity="0.7" d="M63.6766 320.976C63.3198 322.072 62.2696 322.801 61.3428 322.597C60.4161 322.393 59.9452 321.343 60.3066 320.233C60.6634 319.138 61.7015 318.406 62.6403 318.613C63.567 318.817 64.0334 319.881 63.6766 320.976Z" fill="#C9C2C2"/>
<path opacity="0.7" d="M80.1111 325.38C79.7543 326.475 78.7042 327.205 77.7774 327C76.8507 326.796 76.3797 325.747 76.7412 324.637C77.098 323.541 78.1481 322.812 79.0749 323.016C80.0137 323.223 80.4679 324.284 80.1111 325.38Z" fill="#C9C2C2"/>
<path opacity="0.7" d="M96.5594 329.787C96.2026 330.883 95.1524 331.612 94.2257 331.407C93.2989 331.203 92.828 330.154 93.1894 329.044C93.5462 327.948 94.5843 327.216 95.5231 327.423C96.4499 327.628 96.9162 328.691 96.5594 329.787Z" fill="#C9C2C2"/>
<path opacity="0.7" d="M112.994 334.19C112.638 335.286 111.587 336.015 110.661 335.811C109.734 335.606 109.263 334.557 109.624 333.447C109.981 332.352 111.031 331.622 111.958 331.827C112.897 332.034 113.351 333.095 112.994 334.19Z" fill="#C9C2C2"/>
<path opacity="0.7" d="M129.442 338.597C129.086 339.693 128.047 340.425 127.109 340.218C126.17 340.011 125.711 338.964 126.072 337.854C126.429 336.759 127.467 336.027 128.406 336.234C129.345 336.441 129.799 337.502 129.442 338.597Z" fill="#C9C2C2"/>
</g>
<g opacity="0.7">
<path opacity="0.7" d="M8.02132 324.323C8.95191 324.529 9.99674 323.803 10.355 322.703C10.7133 321.603 10.2494 320.544 9.31877 320.339C8.38818 320.134 7.34335 320.86 6.98506 321.96C6.62678 323.06 7.09073 324.118 8.02132 324.323Z" fill="#C9C2C2"/>
<path opacity="0.7" d="M24.4693 328.731C25.3999 328.936 26.4447 328.21 26.803 327.11C27.1613 326.01 26.6974 324.952 25.7668 324.746C24.8362 324.541 23.7913 325.267 23.4331 326.367C23.0748 327.467 23.5387 328.526 24.4693 328.731Z" fill="#C9C2C2"/>
<path opacity="0.7" d="M43.2386 331.513C42.8818 332.609 41.8316 333.338 40.9049 333.134C39.9781 332.93 39.5072 331.88 39.8686 330.77C40.23 329.661 41.2756 328.945 42.2023 329.15C43.1291 329.354 43.5954 330.418 43.2386 331.513Z" fill="#C9C2C2"/>
<path opacity="0.7" d="M57.3392 337.538C58.2698 337.743 59.3146 337.018 59.6729 335.918C60.0312 334.817 59.5672 333.759 58.6366 333.554C57.706 333.349 56.6612 334.075 56.3029 335.175C55.9447 336.275 56.4086 337.333 57.3392 337.538Z" fill="#C9C2C2"/>
<path opacity="0.7" d="M76.1075 340.321C75.7507 341.417 74.7005 342.146 73.7738 341.942C72.847 341.737 72.3761 340.688 72.7375 339.578C73.0989 338.468 74.1445 337.753 75.0712 337.957C76.01 338.164 76.4643 339.225 76.1075 340.321Z" fill="#C9C2C2"/>
<path opacity="0.7" d="M90.222 346.349C91.1526 346.554 92.1974 345.828 92.5557 344.728C92.914 343.628 92.45 342.57 91.5195 342.365C90.5889 342.159 89.544 342.885 89.1857 343.985C88.8275 345.085 89.2914 346.144 90.222 346.349Z" fill="#C9C2C2"/>
<path opacity="0.7" d="M108.991 349.133C108.634 350.228 107.584 350.957 106.657 350.753C105.731 350.549 105.26 349.499 105.621 348.39C105.982 347.28 107.028 346.565 107.955 346.769C108.894 346.976 109.348 348.037 108.991 349.133Z" fill="#C9C2C2"/>
<path opacity="0.7" d="M123.105 355.159C124.036 355.365 125.08 354.639 125.439 353.539C125.797 352.439 125.333 351.38 124.403 351.175C123.472 350.97 122.427 351.696 122.069 352.796C121.711 353.896 122.174 354.954 123.105 355.159Z" fill="#C9C2C2"/>
</g>
<g opacity="0.7">
<path opacity="0.7" d="M4.01691 339.265C4.9475 339.47 5.99233 338.745 6.35062 337.644C6.7089 336.544 6.24497 335.486 5.31437 335.281C4.38378 335.076 3.33894 335.801 2.98066 336.901C2.62237 338.002 3.08632 339.06 4.01691 339.265Z" fill="#C9C2C2"/>
<path opacity="0.7" d="M20.4649 343.672C21.3955 343.877 22.4403 343.152 22.7986 342.052C23.1569 340.951 22.693 339.893 21.7624 339.688C20.8318 339.483 19.7869 340.208 19.4287 341.309C19.0704 342.409 19.5343 343.467 20.4649 343.672Z" fill="#C9C2C2"/>
<path opacity="0.7" d="M39.2342 346.455C38.8774 347.551 37.8272 348.28 36.9005 348.075C35.9737 347.871 35.5074 346.808 35.8642 345.712C36.221 344.616 37.2712 343.887 38.1979 344.091C39.1247 344.296 39.5956 345.345 39.2342 346.455Z" fill="#C9C2C2"/>
<path opacity="0.7" d="M53.3348 352.48C54.2654 352.685 55.3102 351.959 55.6685 350.859C56.0268 349.759 55.5628 348.701 54.6322 348.496C53.7017 348.29 52.6568 349.016 52.2985 350.116C51.9402 351.216 52.4042 352.275 53.3348 352.48Z" fill="#C9C2C2"/>
<path opacity="0.7" d="M72.1031 355.262C71.7463 356.358 70.6961 357.087 69.7694 356.883C68.8426 356.679 68.3763 355.615 68.7331 354.519C69.0899 353.424 70.1401 352.695 71.0668 352.899C72.0056 353.106 72.4645 354.153 72.1031 355.262Z" fill="#C9C2C2"/>
<path opacity="0.7" d="M86.2176 361.29C87.1482 361.495 88.193 360.77 88.5513 359.67C88.9096 358.569 88.4457 357.511 87.5151 357.306C86.5845 357.101 85.5396 357.827 85.1813 358.927C84.8231 360.027 85.287 361.085 86.2176 361.29Z" fill="#C9C2C2"/>
<path opacity="0.7" d="M104.987 364.074C104.63 365.17 103.58 365.899 102.653 365.695C101.726 365.49 101.26 364.427 101.617 363.331C101.973 362.235 103.024 361.506 103.95 361.71C104.889 361.917 105.348 362.964 104.987 364.074Z" fill="#C9C2C2"/>
<path opacity="0.7" d="M119.101 370.101C120.031 370.306 121.076 369.58 121.434 368.48C121.793 367.38 121.329 366.322 120.398 366.117C119.468 365.911 118.423 366.637 118.064 367.737C117.706 368.837 118.17 369.896 119.101 370.101Z" fill="#C9C2C2"/>
</g>
<g opacity="0.7">
<path opacity="0.7" d="M0.0178882 354.194C0.948481 354.399 1.99333 353.673 2.35161 352.573C2.70989 351.473 2.24594 350.415 1.31535 350.209C0.384758 350.004 -0.660071 350.73 -1.01835 351.83C-1.37664 352.93 -0.912705 353.988 0.0178882 354.194Z" fill="#C9C2C2"/>
<path opacity="0.7" d="M16.4659 358.601C17.3965 358.806 18.4413 358.08 18.7996 356.98C19.1579 355.88 18.6939 354.822 17.7633 354.617C16.8328 354.411 15.7879 355.137 15.4296 356.237C15.0714 357.337 15.5353 358.396 16.4659 358.601Z" fill="#C9C2C2"/>
<path opacity="0.7" d="M35.2352 361.384C34.8784 362.479 33.8282 363.208 32.9014 363.004C31.9747 362.8 31.5038 361.75 31.8652 360.641C32.2266 359.531 33.2722 358.816 34.1989 359.02C35.121 359.238 35.592 360.288 35.2352 361.384Z" fill="#C9C2C2"/>
<path opacity="0.7" d="M49.3355 367.408C50.2661 367.614 51.311 366.888 51.6692 365.788C52.0275 364.688 51.5636 363.629 50.633 363.424C49.7024 363.219 48.6576 363.945 48.2993 365.045C47.941 366.145 48.4049 367.203 49.3355 367.408Z" fill="#C9C2C2"/>
<path opacity="0.7" d="M68.104 370.191C67.7472 371.287 66.6971 372.016 65.7703 371.812C64.8436 371.607 64.3727 370.558 64.7341 369.448C65.0955 368.338 66.141 367.623 67.0678 367.828C68.0019 368.049 68.4608 369.095 68.104 370.191Z" fill="#C9C2C2"/>
<path opacity="0.7" d="M82.2186 376.219C83.1492 376.424 84.194 375.699 84.5523 374.598C84.9106 373.498 84.4466 372.44 83.516 372.235C82.5854 372.03 81.5406 372.755 81.1823 373.855C80.824 374.956 81.288 376.014 82.2186 376.219Z" fill="#C9C2C2"/>
<path opacity="0.7" d="M100.987 379.002C100.631 380.097 99.5804 380.827 98.6536 380.622C97.7269 380.418 97.256 379.369 97.6174 378.259C97.9788 377.149 99.0244 376.434 99.9511 376.638C100.885 376.859 101.344 377.906 100.987 379.002Z" fill="#C9C2C2"/>
<path opacity="0.7" d="M115.102 385.03C116.032 385.235 117.077 384.509 117.435 383.409C117.794 382.309 117.33 381.25 116.399 381.045C115.468 380.84 114.424 381.566 114.065 382.666C113.707 383.766 114.171 384.824 115.102 385.03Z" fill="#C9C2C2"/>
</g>
<g opacity="0.7">
<path opacity="0.7" d="M14.7828 371.919C14.426 373.014 13.3758 373.744 12.4491 373.539C11.5223 373.335 11.0514 372.286 11.4128 371.176C11.7696 370.08 12.8077 369.348 13.7465 369.555C14.6807 369.776 15.1396 370.823 14.7828 371.919Z" fill="#C9C2C2"/>
<path opacity="0.7" d="M31.2315 376.326C30.8747 377.422 29.8245 378.151 28.8978 377.947C27.971 377.742 27.5001 376.693 27.8615 375.583C28.2183 374.487 29.2685 373.758 30.1952 373.962C31.1173 374.181 31.5883 375.23 31.2315 376.326Z" fill="#C9C2C2"/>
<path opacity="0.7" d="M47.6656 380.73C47.3088 381.826 46.2586 382.555 45.3319 382.351C44.4051 382.146 43.9342 381.097 44.2956 379.987C44.6524 378.892 45.6905 378.16 46.6293 378.367C47.5514 378.585 48.0224 379.635 47.6656 380.73Z" fill="#C9C2C2"/>
<path opacity="0.7" d="M64.1004 385.134C63.7436 386.229 62.6934 386.958 61.7667 386.754C60.8399 386.55 60.369 385.5 60.7304 384.391C61.0872 383.295 62.1374 382.566 63.0641 382.77C63.9983 382.991 64.4572 384.038 64.1004 385.134Z" fill="#C9C2C2"/>
<path opacity="0.7" d="M80.5486 389.541C80.1918 390.636 79.1417 391.366 78.2149 391.161C77.2882 390.957 76.8172 389.908 77.1787 388.798C77.5355 387.702 78.5736 386.97 79.5124 387.177C80.4345 387.396 80.9054 388.445 80.5486 389.541Z" fill="#C9C2C2"/>
<path opacity="0.7" d="M96.9837 393.945C96.6269 395.041 95.5767 395.77 94.65 395.566C93.7232 395.361 93.2523 394.312 93.6137 393.202C93.9705 392.106 95.0207 391.377 95.9474 391.581C96.8816 391.803 97.3405 392.849 96.9837 393.945Z" fill="#C9C2C2"/>
<path opacity="0.7" d="M113.432 398.351C113.075 399.447 112.037 400.179 111.098 399.972C110.159 399.765 109.7 398.718 110.062 397.608C110.419 396.513 111.457 395.781 112.395 395.988C113.334 396.195 113.788 397.256 113.432 398.351Z" fill="#C9C2C2"/>
</g>
<g opacity="0.7">
<path opacity="0.7" d="M10.7788 386.86C10.422 387.956 9.37188 388.685 8.44513 388.481C7.51839 388.276 7.04744 387.227 7.40888 386.117C7.76568 385.021 8.80382 384.29 9.7426 384.496C10.6814 384.703 11.1356 385.764 10.7788 386.86Z" fill="#C9C2C2"/>
<path opacity="0.7" d="M27.2276 391.267C26.8708 392.363 25.8206 393.092 24.8939 392.888C23.9671 392.684 23.4962 391.634 23.8576 390.524C24.2144 389.429 25.2646 388.699 26.1913 388.904C27.1181 389.108 27.5844 390.172 27.2276 391.267Z" fill="#C9C2C2"/>
<path opacity="0.7" d="M43.6617 395.672C43.3049 396.767 42.2547 397.497 41.3279 397.292C40.4012 397.088 39.9303 396.039 40.2917 394.929C40.6485 393.833 41.6866 393.101 42.6254 393.308C43.5522 393.512 44.0185 394.576 43.6617 395.672Z" fill="#C9C2C2"/>
<path opacity="0.7" d="M60.0965 400.075C59.7397 401.171 58.6895 401.9 57.7628 401.696C56.836 401.491 56.3651 400.442 56.7265 399.332C57.0833 398.236 58.1335 397.507 59.0602 397.711C59.999 397.918 60.4533 398.979 60.0965 400.075Z" fill="#C9C2C2"/>
<path opacity="0.7" d="M76.5447 404.482C76.1879 405.578 75.1377 406.307 74.211 406.103C73.2843 405.898 72.8133 404.849 73.1747 403.739C73.5315 402.644 74.5697 401.912 75.5085 402.119C76.4352 402.323 76.9015 403.387 76.5447 404.482Z" fill="#C9C2C2"/>
<path opacity="0.7" d="M92.9795 408.886C92.6227 409.982 91.5726 410.711 90.6458 410.507C89.7191 410.303 89.2481 409.253 89.6096 408.144C89.9664 407.048 91.0165 406.319 91.9433 406.523C92.8821 406.73 93.3363 407.791 92.9795 408.886Z" fill="#C9C2C2"/>
<path opacity="0.7" d="M109.428 413.294C109.071 414.389 108.033 415.121 107.094 414.914C106.155 414.707 105.696 413.661 106.058 412.551C106.415 411.455 107.453 410.723 108.392 410.93C109.33 411.137 109.785 412.198 109.428 413.294Z" fill="#C9C2C2"/>
</g>
<g opacity="0.7">
<path opacity="0.7" d="M4.45491 403.426C5.38551 403.631 6.43034 402.906 6.78862 401.805C7.1469 400.705 6.68296 399.647 5.75236 399.442C4.82177 399.237 3.77694 399.962 3.41866 401.062C3.06038 402.163 3.52432 403.221 4.45491 403.426Z" fill="#C9C2C2"/>
<path opacity="0.7" d="M23.2242 406.209C22.8674 407.304 21.8172 408.034 20.8905 407.829C19.9637 407.625 19.4928 406.576 19.8542 405.466C20.2156 404.356 21.2612 403.641 22.1879 403.845C23.1147 404.049 23.581 405.113 23.2242 406.209Z" fill="#C9C2C2"/>
<path opacity="0.7" d="M37.3243 412.234C38.2549 412.439 39.2997 411.713 39.658 410.613C40.0163 409.513 39.5523 408.455 38.6217 408.249C37.6912 408.044 36.6463 408.77 36.288 409.87C35.9298 410.97 36.3937 412.028 37.3243 412.234Z" fill="#C9C2C2"/>
<path opacity="0.7" d="M56.0931 415.016C55.7363 416.112 54.6861 416.841 53.7594 416.637C52.8326 416.433 52.3617 415.383 52.7231 414.273C53.0845 413.163 54.1301 412.448 55.0568 412.653C55.9956 412.86 56.4499 413.921 56.0931 415.016Z" fill="#C9C2C2"/>
<path opacity="0.7" d="M70.2071 421.044C71.1377 421.249 72.1825 420.524 72.5408 419.424C72.8991 418.323 72.4352 417.265 71.5046 417.06C70.574 416.855 69.5291 417.58 69.1709 418.681C68.8126 419.781 69.2765 420.839 70.2071 421.044Z" fill="#C9C2C2"/>
<path opacity="0.7" d="M88.9761 423.827C88.6193 424.923 87.5692 425.652 86.6424 425.447C85.7157 425.243 85.2447 424.194 85.6062 423.084C85.9676 421.974 87.0131 421.259 87.9399 421.463C88.8786 421.67 89.3329 422.731 88.9761 423.827Z" fill="#C9C2C2"/>
<path opacity="0.7" d="M103.09 429.855C104.021 430.06 105.066 429.334 105.424 428.234C105.782 427.134 105.318 426.076 104.388 425.871C103.457 425.665 102.412 426.391 102.054 427.491C101.696 428.591 102.16 429.65 103.09 429.855Z" fill="#C9C2C2"/>
</g>
<g opacity="0.7">
<path opacity="0.7" d="M2.77446 416.732C2.41766 417.828 1.3675 418.557 0.440754 418.353C-0.48599 418.148 -0.952303 417.085 -0.595502 415.989C-0.238702 414.894 0.799425 414.162 1.7382 414.369C2.67235 414.59 3.13126 415.636 2.77446 416.732Z" fill="#C9C2C2"/>
<path opacity="0.7" d="M19.2234 421.139C18.8666 422.235 17.8165 422.964 16.8897 422.76C15.963 422.556 15.4967 421.492 15.8535 420.396C16.2103 419.301 17.2604 418.571 18.1872 418.776C19.1093 418.994 19.5802 420.044 19.2234 421.139Z" fill="#C9C2C2"/>
<path opacity="0.7" d="M35.6575 425.544C35.3007 426.639 34.2506 427.369 33.3238 427.164C32.3971 426.96 31.9308 425.896 32.2876 424.801C32.6444 423.705 33.6825 422.973 34.6213 423.18C35.5434 423.399 36.0143 424.448 35.6575 425.544Z" fill="#C9C2C2"/>
<path opacity="0.7" d="M52.0923 429.947C51.7355 431.043 50.6854 431.772 49.7586 431.568C48.8319 431.363 48.3656 430.3 48.7224 429.204C49.0792 428.108 50.1293 427.379 51.0561 427.583C51.9902 427.805 52.4491 428.851 52.0923 429.947Z" fill="#C9C2C2"/>
<path opacity="0.7" d="M68.5403 434.354C68.1835 435.45 67.1334 436.179 66.2066 435.975C65.2799 435.771 64.8136 434.707 65.1704 433.611C65.5272 432.516 66.5653 431.784 67.5041 431.991C68.4262 432.209 68.8971 433.259 68.5403 434.354Z" fill="#C9C2C2"/>
<path opacity="0.7" d="M84.9759 438.758C84.6191 439.853 83.5689 440.582 82.6422 440.378C81.7154 440.174 81.2491 439.11 81.6059 438.015C81.9627 436.919 83.0129 436.19 83.9396 436.394C84.8738 436.615 85.3327 437.662 84.9759 438.758Z" fill="#C9C2C2"/>
<path opacity="0.7" d="M101.424 443.165C101.067 444.26 100.029 444.992 99.0899 444.785C98.1511 444.578 97.6969 443.517 98.0537 442.422C98.4105 441.326 99.4486 440.594 100.387 440.801C101.326 441.008 101.78 442.069 101.424 443.165Z" fill="#C9C2C2"/>
</g>
<g opacity="0.7">
<path opacity="0.7" d="M15.2195 436.079C14.8627 437.175 13.8126 437.904 12.8858 437.699C11.9591 437.495 11.4928 436.432 11.8496 435.336C12.2064 434.24 13.2565 433.511 14.1833 433.715C15.1054 433.934 15.5763 434.983 15.2195 436.079Z" fill="#C9C2C2"/>
<path opacity="0.7" d="M29.3201 442.104C30.2507 442.309 31.2956 441.583 31.6538 440.483C32.0121 439.383 31.5482 438.325 30.6176 438.12C29.687 437.914 28.6422 438.64 28.2839 439.74C27.9256 440.84 28.3895 441.899 29.3201 442.104Z" fill="#C9C2C2"/>
<path opacity="0.7" d="M48.0884 444.886C47.7316 445.982 46.6814 446.711 45.7547 446.507C44.828 446.303 44.3616 445.239 44.7184 444.144C45.0752 443.048 46.1254 442.319 47.0522 442.523C47.9863 442.744 48.4452 443.791 48.0884 444.886Z" fill="#C9C2C2"/>
<path opacity="0.7" d="M62.2029 450.914C63.1335 451.119 64.1784 450.394 64.5367 449.294C64.8949 448.194 64.431 447.135 63.5004 446.93C62.5698 446.725 61.525 447.451 61.1667 448.551C60.8084 449.651 61.2724 450.709 62.2029 450.914Z" fill="#C9C2C2"/>
<path opacity="0.7" d="M80.972 453.697C80.6152 454.793 79.565 455.522 78.6382 455.318C77.7115 455.113 77.2452 454.05 77.602 452.954C77.9588 451.858 79.009 451.129 79.9357 451.333C80.8699 451.555 81.3288 452.601 80.972 453.697Z" fill="#C9C2C2"/>
<path opacity="0.7" d="M95.086 459.725C96.0166 459.93 97.0614 459.204 97.4197 458.104C97.778 457.004 97.3141 455.946 96.3835 455.741C95.4529 455.535 94.408 456.261 94.0497 457.361C93.6915 458.461 94.1554 459.52 95.086 459.725Z" fill="#C9C2C2"/>
</g>
</g>
<defs>
<linearGradient id="paint0_linear_20_5428" x1="-161" y1="215.314" x2="172.405" y2="187.06" gradientUnits="userSpaceOnUse">
<stop stop-color="#8E36CF"/>
<stop offset="1" stop-color="#CF3DA6"/>
</linearGradient>
</defs>
</svg>
