<svg width="121" height="36" viewBox="0 0 121 36" fill="none" xmlns="http://www.w3.org/2000/svg">
<path fill-rule="evenodd" clip-rule="evenodd" d="M11.666 12.1594C9.49572 14.0455 7.93436 16.7748 7.2114 19.901C5.84071 25.8564 7.55395 32.4565 12.1231 35.0373C18.3293 38.5112 27.125 32.2088 25.9066 22.2833C25.7543 20.9933 25.3355 21.1917 25.3355 21.6879C25.3355 29.8265 16.9207 35.931 11.8567 30.2734C18.8625 25.1125 22.2516 22.1348 23.0129 21.4894C28.2676 16.8247 20.8043 4.41779 11.666 12.1594ZM10.3714 27.3949C7.36368 16.1794 20.2331 9.62859 20.8042 17.0232C20.8804 18.3133 20.4233 19.604 19.5859 20.3479C13.2273 25.2111 10.3714 27.3949 10.3714 27.3949Z" fill="url(#paint0_linear_610_8843)"/>
<path fill-rule="evenodd" clip-rule="evenodd" d="M8.01095 1.48853L19.4335 0L16.1589 5.01234L17.0347 7.24545L17.5296 8.48621C14.141 8.53614 9.07693 11.6624 7.24919 16.2278C7.09683 15.8309 6.6781 14.8878 6.4879 14.441L5.61212 12.2572L3.97505 12.4556C3.97505 13.3488 4.31761 14.3417 4.20358 15.5819C4.58446 15.8796 4.66064 16.475 4.39378 16.9219L5.15506 19.6019L3.25114 19.9988L3.44134 17.1203C3.02261 16.9219 2.94644 15.8303 3.51752 15.4826C3.63154 14.3411 3.40349 13.3981 3.36517 12.5549H3.32732L0.585938 12.9031L8.01095 1.48853Z" fill="url(#paint1_linear_610_8843)"/>
<path d="M31.2684 25.3815L26.2114 16.2852H29.7811L33.0801 22.3723L36.3791 16.2852H39.8675L34.8105 25.2764L40.0836 34.7573H36.5139L32.9984 28.285L29.5099 34.7573H26.0215L31.2675 25.3815H31.2684Z" fill="black"/>
<path fill-rule="evenodd" clip-rule="evenodd" d="M49.9814 32.4857V34.7595V34.7601H53.2262V23.8096C53.2262 18.8763 51.1709 16.0078 46.9526 16.0078C44.6271 16.0078 43.0857 16.6375 41.5171 17.5474L42.4094 20.9412C43.7078 20.2414 44.8973 19.7868 46.4929 19.7868C48.7647 19.7868 50.0084 21.1863 50.0084 23.7402V24.0898C48.8996 23.6346 47.7908 23.32 46.0603 23.32C42.7343 23.32 40.2734 25.2792 40.2734 29.3721V29.4422C40.2734 33.1505 42.6535 35.1447 45.3575 35.1447C47.5206 35.1447 49.0079 33.9903 49.9814 32.4857ZM46.7907 26.2927C48.0615 26.2927 49.2245 26.6078 50.0626 27.0274V28.0768C50.0626 30.3862 48.4404 31.9602 46.2769 31.9602C44.7354 31.9602 43.5188 30.9803 43.5188 29.2312V29.1611C43.5188 27.377 44.7354 26.2927 46.7907 26.2927Z" fill="black"/>
<path d="M55.8223 16.2869H59.0942V19.086C60.0135 17.4419 61.2572 15.9023 63.4479 15.9023C65.5031 15.9023 66.9363 17.1968 67.6933 19.156C68.8562 17.1968 70.3706 15.9023 72.5337 15.9023C75.6437 15.9023 77.5365 18.4563 77.5365 22.9694V34.7591H74.2646V24.2639C74.2646 21.3254 73.2099 19.7507 71.3712 19.7507C69.5325 19.7507 68.3154 21.3598 68.3154 24.3339V34.7591H65.0434V24.2288C65.0434 21.3604 63.9617 19.7507 62.15 19.7507C60.3384 19.7507 59.0942 21.4998 59.0942 24.3689V34.7591H55.8223V16.2869Z" fill="black"/>
<path fill-rule="evenodd" clip-rule="evenodd" d="M83.7831 9.42969H80.2676V13.4532H83.7831V9.42969ZM83.6747 16.2866H80.4028V34.7588H83.6747V16.2866Z" fill="url(#paint2_linear_610_8843)"/>
<path d="M85.4863 32.3455L86.9466 29.477C88.488 30.9816 90.1644 31.7508 91.6246 31.7508C93.0849 31.7508 93.8418 30.981 93.8418 29.7566V29.6865C93.8418 28.252 92.3274 27.7623 90.6511 27.0976C88.5417 26.3278 86.1891 25.2084 86.1891 21.6752V21.6052C86.1891 18.107 88.4334 15.9727 91.2732 15.9727C93.0578 15.9727 95.0048 16.7775 96.5192 18.0719L95.2213 21.0805C93.8423 19.9961 92.382 19.3314 91.192 19.3314C89.9212 19.3314 89.1909 20.1012 89.1909 21.1856V21.2556C89.1909 22.5851 90.7323 23.1448 92.4086 23.8445C94.491 24.6844 96.8435 25.9088 96.8435 29.2319V29.3019C96.8435 33.1853 94.518 35.1095 91.5434 35.1095C89.5152 35.1095 87.2709 34.1646 85.4863 32.3455H85.4863Z" fill="black"/>
<path d="M98.8721 16.2869H102.144V19.086C103.063 17.4419 104.307 15.9023 106.498 15.9023C108.553 15.9023 109.986 17.1968 110.743 19.156C111.906 17.1968 113.42 15.9023 115.584 15.9023C118.693 15.9023 120.586 18.4563 120.586 22.9694V34.7591H117.314V24.2639C117.314 21.3254 116.26 19.7507 114.421 19.7507C112.582 19.7507 111.365 21.3598 111.365 24.3339V34.7591H108.093V24.2288C108.093 21.3604 107.011 19.7507 105.2 19.7507C103.388 19.7507 102.144 21.4998 102.144 24.3689V34.7591H98.8721V16.2869Z" fill="black"/>
<defs>
<linearGradient id="paint0_linear_610_8843" x1="6.75195" y1="36.0006" x2="26.0207" y2="36.0006" gradientUnits="userSpaceOnUse">
<stop stop-color="#D33DA3"/>
<stop offset="1" stop-color="#8A35D2"/>
</linearGradient>
<linearGradient id="paint1_linear_610_8843" x1="0.585938" y1="19.9991" x2="19.4335" y2="19.9991" gradientUnits="userSpaceOnUse">
<stop stop-color="#D33DA3"/>
<stop offset="1" stop-color="#8A35D2"/>
</linearGradient>
<linearGradient id="paint2_linear_610_8843" x1="80.2676" y1="34.7588" x2="83.7831" y2="34.7588" gradientUnits="userSpaceOnUse">
<stop stop-color="#D33DA3"/>
<stop offset="1" stop-color="#8A35D2"/>
</linearGradient>
</defs>
</svg>
