<svg width="121" height="36" viewBox="0 0 121 36" fill="none" xmlns="http://www.w3.org/2000/svg">
<path fill-rule="evenodd" clip-rule="evenodd" d="M11.666 12.1584C9.49572 14.0445 7.93436 16.7738 7.2114 19.9001C5.84071 25.8555 7.55395 32.4556 12.1231 35.0363C18.3293 38.5102 27.125 32.2078 25.9066 22.2824C25.7543 20.9923 25.3355 21.1908 25.3355 21.6869C25.3355 29.8255 16.9207 35.9301 11.8567 30.2724C18.8625 25.1115 22.2516 22.1338 23.0129 21.4885C28.2676 16.8238 20.8043 4.41681 11.666 12.1584ZM10.3714 27.3939C7.36368 16.1784 20.2331 9.62762 20.8042 17.0222C20.8804 18.3123 20.4233 19.603 19.5859 20.3469C13.2273 25.2101 10.3714 27.3939 10.3714 27.3939Z" fill="url(#paint0_linear_11_4105)"/>
<path fill-rule="evenodd" clip-rule="evenodd" d="M8.01095 1.48853L19.4335 0L16.1589 5.01234L17.0347 7.24545L17.5296 8.48621C14.141 8.53614 9.07693 11.6624 7.24919 16.2278C7.09683 15.8309 6.6781 14.8878 6.4879 14.441L5.61212 12.2572L3.97505 12.4556C3.97505 13.3488 4.31761 14.3417 4.20358 15.5819C4.58446 15.8796 4.66064 16.475 4.39378 16.9219L5.15506 19.6019L3.25114 19.9988L3.44134 17.1203C3.02261 16.9219 2.94644 15.8303 3.51752 15.4826C3.63154 14.3411 3.40349 13.3981 3.36517 12.5549H3.32732L0.585938 12.9031L8.01095 1.48853Z" fill="url(#paint1_linear_11_4105)"/>
<path d="M31.2684 25.3815L26.2114 16.2852H29.7811L33.0801 22.3723L36.3791 16.2852H39.8675L34.8105 25.2764L40.0836 34.7573H36.5139L32.9984 28.285L29.5099 34.7573H26.0215L31.2675 25.3815H31.2684Z" fill="black"/>
<path fill-rule="evenodd" clip-rule="evenodd" d="M49.9814 32.4838V34.7575V34.7581H53.2262V23.8077C53.2262 18.8743 51.1709 16.0059 46.9526 16.0059C44.6271 16.0059 43.0857 16.6356 41.5171 17.5455L42.4094 20.9392C43.7078 20.2395 44.8973 19.7848 46.4929 19.7848C48.7647 19.7848 50.0084 21.1844 50.0084 23.7383V24.0878C48.8996 23.6326 47.7908 23.318 46.0603 23.318C42.7343 23.318 40.2734 25.2773 40.2734 29.3702V29.4402C40.2734 33.1485 42.6535 35.1427 45.3575 35.1427C47.5206 35.1427 49.0079 33.9883 49.9814 32.4838ZM46.7907 26.2907C48.0615 26.2907 49.2245 26.6059 50.0626 27.0255V28.0748C50.0626 30.3842 48.4404 31.9582 46.2769 31.9582C44.7354 31.9582 43.5188 30.9783 43.5188 29.2292V29.1592C43.5188 27.3751 44.7354 26.2907 46.7907 26.2907Z" fill="black"/>
<path d="M55.8223 16.286H59.0942V19.085C60.0135 17.441 61.2572 15.9014 63.4479 15.9014C65.5031 15.9014 66.9363 17.1958 67.6933 19.155C68.8562 17.1958 70.3706 15.9014 72.5337 15.9014C75.6437 15.9014 77.5365 18.4553 77.5365 22.9684V34.7581H74.2646V24.2629C74.2646 21.3244 73.2099 19.7498 71.3712 19.7498C69.5325 19.7498 68.3154 21.3588 68.3154 24.3329V34.7581H65.0434V24.2279C65.0434 21.3594 63.9617 19.7498 62.15 19.7498C60.3384 19.7498 59.0942 21.4989 59.0942 24.3679V34.7581H55.8223V16.286Z" fill="black"/>
<path fill-rule="evenodd" clip-rule="evenodd" d="M83.7831 9.42871H80.2676V13.4522H83.7831V9.42871ZM83.6747 16.2856H80.4028V34.7578H83.6747V16.2856Z" fill="url(#paint2_linear_11_4105)"/>
<path d="M85.4863 32.3436L86.9466 29.4751C88.488 30.9797 90.1644 31.7488 91.6246 31.7488C93.0849 31.7488 93.8418 30.979 93.8418 29.7546V29.6846C93.8418 28.25 92.3274 27.7604 90.6511 27.0956C88.5417 26.3258 86.1891 25.2065 86.1891 21.6732V21.6032C86.1891 18.105 88.4334 15.9707 91.2732 15.9707C93.0578 15.9707 95.0048 16.7755 96.5192 18.07L95.2213 21.0785C93.8423 19.9942 92.382 19.3294 91.192 19.3294C89.9212 19.3294 89.1909 20.0992 89.1909 21.1836V21.2536C89.1909 22.5831 90.7323 23.1428 92.4086 23.8426C94.491 24.6824 96.8435 25.9068 96.8435 29.2299V29.3C96.8435 33.1834 94.518 35.1076 91.5434 35.1076C89.5152 35.1076 87.2709 34.1627 85.4863 32.3436H85.4863Z" fill="black"/>
<path d="M98.8721 16.286H102.144V19.085C103.063 17.441 104.307 15.9014 106.498 15.9014C108.553 15.9014 109.986 17.1958 110.743 19.155C111.906 17.1958 113.42 15.9014 115.584 15.9014C118.693 15.9014 120.586 18.4553 120.586 22.9684V34.7581H117.314V24.2629C117.314 21.3244 116.26 19.7498 114.421 19.7498C112.582 19.7498 111.365 21.3588 111.365 24.3329V34.7581H108.093V24.2279C108.093 21.3594 107.011 19.7498 105.2 19.7498C103.388 19.7498 102.144 21.4989 102.144 24.3679V34.7581H98.8721V16.286Z" fill="black"/>
<defs>
<linearGradient id="paint0_linear_11_4105" x1="6.75195" y1="35.9996" x2="26.0207" y2="35.9996" gradientUnits="userSpaceOnUse">
<stop stop-color="#D33DA3"/>
<stop offset="1" stop-color="#8A35D2"/>
</linearGradient>
<linearGradient id="paint1_linear_11_4105" x1="0.585938" y1="19.9991" x2="19.4335" y2="19.9991" gradientUnits="userSpaceOnUse">
<stop stop-color="#D33DA3"/>
<stop offset="1" stop-color="#8A35D2"/>
</linearGradient>
<linearGradient id="paint2_linear_11_4105" x1="80.2676" y1="34.7578" x2="83.7831" y2="34.7578" gradientUnits="userSpaceOnUse">
<stop stop-color="#D33DA3"/>
<stop offset="1" stop-color="#8A35D2"/>
</linearGradient>
</defs>
</svg>
