<svg width="56" height="57" viewBox="0 0 56 57" fill="none" xmlns="http://www.w3.org/2000/svg">
<path d="M48.8558 30.051C48.8777 29.6262 48.8888 29.1984 48.8888 28.7679C48.8888 15.8813 38.9396 5.43457 26.6666 5.43457C14.3936 5.43457 4.44434 15.8813 4.44434 28.7679C4.44434 41.4505 14.081 51.7698 26.0854 52.0934M26.6666 14.7679V28.7679L34.9741 33.1293" stroke="#8E36CF" stroke-width="4" stroke-linecap="round" stroke-linejoin="round"/>
<path d="M35.9838 46.4666C35.4298 46.4666 34.9386 46.3719 34.5101 46.1825C34.0839 45.9908 33.7478 45.7268 33.5015 45.3906C33.2553 45.0545 33.1299 44.6674 33.1251 44.2294H34.8936C34.9007 44.388 34.9516 44.5289 35.0463 44.652C35.141 44.7727 35.27 44.8674 35.4334 44.9361C35.5967 45.0047 35.7826 45.0391 35.9909 45.0391C36.1992 45.0391 36.3827 45.0024 36.5413 44.929C36.7023 44.8532 36.8278 44.7502 36.9177 44.62C37.0077 44.4875 37.0515 44.3359 37.0491 44.1655C37.0515 43.995 37.003 43.8435 36.9035 43.7109C36.8041 43.5784 36.6632 43.4754 36.4809 43.402C36.301 43.3286 36.088 43.2919 35.8417 43.2919H35.1351V42.0419H35.8417C36.0572 42.0419 36.2466 42.0064 36.4099 41.9354C36.5756 41.8643 36.7047 41.7649 36.797 41.6371C36.8893 41.5069 36.9343 41.3577 36.9319 41.1896C36.9343 41.0263 36.8952 40.883 36.8148 40.7599C36.7366 40.6345 36.6265 40.5374 36.4845 40.4688C36.3448 40.4001 36.1827 40.3658 35.998 40.3658C35.8039 40.3658 35.6275 40.4001 35.4689 40.4688C35.3126 40.5374 35.1883 40.6345 35.096 40.7599C35.0037 40.8854 34.9551 41.031 34.9504 41.1967H33.2707C33.2755 40.7635 33.3962 40.3823 33.6329 40.0533C33.8697 39.7218 34.1917 39.4626 34.5988 39.2756C35.0084 39.0885 35.4748 38.995 35.998 38.995C36.5188 38.995 36.9769 39.0862 37.3723 39.2685C37.7676 39.4508 38.0754 39.6993 38.2956 40.0142C38.5158 40.3267 38.6258 40.6806 38.6258 41.076C38.6282 41.4856 38.4944 41.8229 38.2246 42.0881C37.957 42.3532 37.6126 42.5166 37.1912 42.5781V42.6349C37.7546 42.7012 38.1796 42.8835 38.466 43.1818C38.7549 43.4801 38.8981 43.853 38.8957 44.3004C38.8957 44.7218 38.7714 45.0959 38.5229 45.4226C38.2766 45.7469 37.9334 46.0026 37.493 46.1896C37.055 46.3743 36.552 46.4666 35.9838 46.4666ZM42.8029 46.4666C42.4051 46.4666 42.024 46.4027 41.6594 46.2749C41.2948 46.1446 40.9705 45.9387 40.6864 45.657C40.4023 45.3729 40.1786 45.0012 40.0152 44.5419C39.8519 44.0803 39.7714 43.518 39.7737 42.8551C39.7761 42.2562 39.8495 41.7187 39.9939 41.2429C40.1383 40.7647 40.3443 40.3587 40.6118 40.0249C40.8817 39.6911 41.2037 39.4366 41.5777 39.2614C41.9541 39.0838 42.3744 38.995 42.8384 38.995C43.3474 38.995 43.796 39.0945 44.1843 39.2933C44.5749 39.4898 44.8874 39.755 45.1218 40.0888C45.3561 40.4202 45.4946 40.7895 45.5372 41.1967H43.8078C43.7557 40.9671 43.6409 40.7931 43.4634 40.6747C43.2882 40.554 43.0798 40.4936 42.8384 40.4936C42.3933 40.4936 42.0607 40.6866 41.8405 41.0724C41.6227 41.4583 41.5114 41.9744 41.5067 42.6207H41.5529C41.6523 42.4029 41.7955 42.2159 41.9825 42.0597C42.1696 41.9034 42.3838 41.7839 42.6253 41.701C42.8691 41.6158 43.1272 41.5732 43.3995 41.5732C43.8351 41.5732 44.2198 41.6738 44.5536 41.875C44.8874 42.0762 45.149 42.352 45.3384 42.7024C45.5278 43.0504 45.6213 43.4493 45.6189 43.8991C45.6213 44.4058 45.5029 44.8532 45.2638 45.2415C45.0247 45.6274 44.6932 45.928 44.2695 46.1435C43.8481 46.3589 43.3592 46.4666 42.8029 46.4666ZM42.7922 45.1172C43.0076 45.1172 43.2006 45.0663 43.371 44.9645C43.5415 44.8627 43.6753 44.7242 43.7723 44.549C43.8694 44.3738 43.9167 44.1761 43.9144 43.956C43.9167 43.7334 43.8694 43.5357 43.7723 43.3629C43.6776 43.1901 43.545 43.0528 43.3746 42.951C43.2065 42.8492 43.0136 42.7983 42.7958 42.7983C42.6371 42.7983 42.4892 42.8279 42.3519 42.8871C42.2146 42.9463 42.095 43.0291 41.9932 43.1357C41.8938 43.2398 41.8156 43.3629 41.7588 43.505C41.702 43.6446 41.6724 43.7962 41.67 43.9595C41.6724 44.175 41.7221 44.3703 41.8192 44.5455C41.9163 44.7206 42.0488 44.8603 42.2169 44.9645C42.385 45.0663 42.5768 45.1172 42.7922 45.1172ZM49.4 46.4666C48.8697 46.4666 48.3986 46.3707 47.9866 46.179C47.5747 45.9872 47.2492 45.7232 47.0101 45.3871C46.7733 45.0509 46.6502 44.665 46.6407 44.2294H48.3453C48.3595 44.4969 48.4684 44.7124 48.672 44.8757C48.8756 45.0367 49.1183 45.1172 49.4 45.1172C49.6202 45.1172 49.8155 45.0687 49.9859 44.9716C50.1564 44.8745 50.2901 44.7384 50.3872 44.5632C50.4843 44.3857 50.5316 44.1821 50.5292 43.9524C50.5316 43.718 50.4831 43.5133 50.3836 43.3381C50.2866 43.1629 50.1516 43.0268 49.9788 42.9297C49.8084 42.8303 49.6119 42.7805 49.3893 42.7805C49.1786 42.7782 48.9786 42.8243 48.7892 42.919C48.6022 43.0137 48.4601 43.1428 48.3631 43.3061L46.8112 43.0149L47.1273 39.0945H51.7934V40.5114H48.5726L48.4057 42.2266H48.4483C48.569 42.0253 48.7631 41.8596 49.0307 41.7294C49.3006 41.5968 49.6071 41.5305 49.9504 41.5305C50.386 41.5305 50.7743 41.6323 51.1152 41.8359C51.4585 42.0372 51.7283 42.3165 51.9248 42.674C52.1237 43.0315 52.2231 43.4411 52.2231 43.9027C52.2231 44.4022 52.1048 44.8449 51.868 45.2308C51.6336 45.6167 51.3046 45.9197 50.8808 46.1399C50.4594 46.3577 49.9658 46.4666 49.4 46.4666Z" fill="#8E36CF"/>
</svg>
