<svg width="56" height="57" viewBox="0 0 56 57" fill="none" xmlns="http://www.w3.org/2000/svg">
<path d="M21.07 51.378L26.5067 46.8047C27.3234 46.1047 28.6767 46.1047 29.4934 46.8047L34.93 51.378C36.19 52.008 37.73 51.378 38.1967 50.0247L39.2234 46.9213C39.48 46.1747 39.2234 45.078 38.6634 44.518L33.3667 39.198C32.97 38.8247 32.6667 38.078 32.6667 37.5413V30.8913C32.6667 29.9113 33.39 29.4447 34.3 29.818L45.7567 34.7647C47.5534 35.5347 49.0234 34.578 49.0234 32.618V29.608C49.0234 28.0447 47.8567 26.248 46.41 25.6413L33.3667 20.018C32.9934 19.8547 32.6667 19.3647 32.6667 18.9447V11.9447C32.6667 9.75134 31.0567 7.16134 29.0967 6.15801C28.3967 5.80801 27.58 5.80801 26.88 6.15801C24.92 7.16134 23.31 9.77467 23.31 11.968V18.968C23.31 19.388 22.9834 19.878 22.61 20.0413L9.59002 25.6647C8.14335 26.248 6.97668 28.0447 6.97668 29.608V32.618C6.97668 34.578 8.44668 35.5347 10.2434 34.7647L21.7 29.818C22.5867 29.4213 23.3334 29.9113 23.3334 30.8913V37.5413C23.3334 38.078 23.03 38.8247 22.6567 39.198L17.36 44.518C16.8 45.078 16.5434 46.1513 16.8 46.9213L17.8267 50.0247C18.2467 51.378 19.7867 52.0313 21.07 51.378Z" stroke="#8E36CF" stroke-width="4" stroke-linecap="round" stroke-linejoin="round"/>
</svg>
