<svg width="56" height="57" viewBox="0 0 56 57" fill="none" xmlns="http://www.w3.org/2000/svg">
<path d="M51.3334 23.3308C51.1861 22.904 50.9181 22.5291 50.5619 22.2516C50.2057 21.9741 49.7766 21.8059 49.3268 21.7674L36.0501 19.8308L30.1001 7.76743C29.909 7.37293 29.6107 7.04023 29.2393 6.80743C28.8679 6.57464 28.4384 6.45117 28.0001 6.45117C27.5618 6.45117 27.1323 6.57464 26.7609 6.80743C26.3895 7.04023 26.0912 7.37293 25.9001 7.76743L19.9501 19.8074L6.67344 21.7674C6.2416 21.8288 5.8356 22.01 5.50153 22.2905C5.16745 22.5709 4.91868 22.9394 4.78344 23.3541C4.65965 23.7593 4.64854 24.1906 4.75131 24.6017C4.85408 25.0128 5.06684 25.3881 5.36678 25.6874L15.0034 35.0208L12.6701 48.2741C12.5868 48.7115 12.6304 49.1637 12.7958 49.5772C12.9612 49.9906 13.2414 50.3481 13.6034 50.6074C13.9563 50.8597 14.3724 51.0086 14.8052 51.0374C15.238 51.0663 15.6702 50.9739 16.0534 50.7708L28.0001 44.5408L39.9001 50.7941C40.2276 50.9788 40.5974 51.0753 40.9734 51.0741C41.4677 51.0759 41.9498 50.9206 42.3501 50.6308C42.7121 50.3714 42.9924 50.0139 43.1577 49.6005C43.3231 49.187 43.3667 48.7349 43.2834 48.2974L40.9501 35.0441L50.5868 25.7108C50.9237 25.4253 51.1727 25.0502 51.3048 24.6289C51.437 24.2076 51.4469 23.7575 51.3334 23.3308ZM36.9834 32.6641C36.7098 32.9288 36.5051 33.2564 36.3871 33.6184C36.2692 33.9803 36.2416 34.3657 36.3068 34.7408L37.9868 44.5174L29.2134 39.8508C28.8759 39.671 28.4992 39.577 28.1168 39.577C27.7343 39.577 27.3577 39.671 27.0201 39.8508L18.2468 44.5174L19.9268 34.7408C19.992 34.3657 19.9644 33.9803 19.8464 33.6184C19.7285 33.2564 19.5238 32.9288 19.2501 32.6641L12.2501 25.6641L22.0734 24.2408C22.4514 24.1882 22.8108 24.0437 23.1199 23.82C23.4291 23.5962 23.6787 23.3001 23.8468 22.9574L28.0001 14.0674L32.3868 22.9808C32.5549 23.3234 32.8044 23.6195 33.1136 23.8433C33.4228 24.067 33.7821 24.2115 34.1601 24.2641L43.9834 25.6874L36.9834 32.6641Z" fill="#8E36CF"/>
</svg>
