<svg width="56" height="57" viewBox="0 0 56 57" fill="none" xmlns="http://www.w3.org/2000/svg">
<path d="M51.2986 30.051C51.3216 29.6262 51.3333 29.1984 51.3333 28.7679C51.3333 15.8813 40.8866 5.43457 28 5.43457C15.1133 5.43457 4.66663 15.8813 4.66663 28.7679C4.66663 41.4505 14.7852 51.7698 27.3898 52.0934M28 14.7679V28.7679L36.7228 33.1293" stroke="#8E36CF" stroke-width="4" stroke-linecap="round" stroke-linejoin="round"/>
<path d="M38.9649 40.3954C39.3627 40.3954 39.7426 40.4605 40.1049 40.5907C40.4671 40.7186 40.7902 40.9234 41.0743 41.2051C41.3584 41.4844 41.5821 41.8526 41.7455 42.3095C41.9088 42.7664 41.9905 43.3239 41.9905 43.9821C41.9929 44.5881 41.9219 45.1315 41.7774 45.612C41.633 46.0903 41.4259 46.4975 41.156 46.8336C40.8885 47.1698 40.5665 47.4267 40.1901 47.6042C39.8137 47.7794 39.3934 47.867 38.9294 47.867C38.4181 47.867 37.9671 47.7688 37.5764 47.5723C37.1882 47.3734 36.8769 47.1059 36.6425 46.7697C36.4105 46.4335 36.272 46.0571 36.227 45.6404H37.9564C38.0109 45.8819 38.1257 46.0642 38.3009 46.1873C38.4761 46.3081 38.6856 46.3684 38.9294 46.3684C39.3745 46.3684 39.7071 46.1755 39.9273 45.7896C40.1475 45.4037 40.2576 44.8793 40.2576 44.2164H40.2149C40.1131 44.4342 39.9687 44.6213 39.7817 44.7775C39.597 44.9338 39.3828 45.0533 39.1389 45.1362C38.8951 45.219 38.6382 45.2605 38.3684 45.2605C37.9327 45.2605 37.548 45.161 37.2142 44.9622C36.8828 44.7633 36.6224 44.4899 36.433 44.1419C36.246 43.7939 36.1513 43.3961 36.1489 42.9487C36.1465 42.4468 36.2637 42.0041 36.5005 41.6206C36.7372 41.2347 37.0675 40.934 37.4912 40.7186C37.915 40.5008 38.4062 40.3931 38.9649 40.3954ZM38.9756 41.7449C38.7578 41.7449 38.5637 41.7958 38.3932 41.8975C38.2251 41.9993 38.0925 42.1367 37.9955 42.3095C37.8984 42.4823 37.8511 42.6764 37.8534 42.8919C37.8558 43.1073 37.9043 43.3014 37.999 43.4743C38.0961 43.6471 38.2275 43.7844 38.3932 43.8862C38.5613 43.988 38.7531 44.0389 38.9685 44.0389C39.1295 44.0389 39.2786 44.0093 39.4159 43.9501C39.5532 43.8909 39.6728 43.8092 39.7746 43.7051C39.8764 43.5985 39.9557 43.4754 40.0125 43.3358C40.0717 43.1961 40.1001 43.0469 40.0978 42.8883C40.0954 42.6776 40.0457 42.4859 39.9486 42.313C39.8515 42.1402 39.7178 42.0029 39.5473 41.9011C39.3792 41.7969 39.1887 41.7449 38.9756 41.7449ZM45.9633 47.9451C45.3289 47.9451 44.782 47.7948 44.3227 47.4941C43.8634 47.1911 43.5095 46.7567 43.2609 46.1909C43.0124 45.6227 42.8892 44.9397 42.8916 44.1419C42.894 43.344 43.0183 42.667 43.2645 42.1106C43.5131 41.5519 43.8658 41.127 44.3227 40.8358C44.782 40.5422 45.3289 40.3954 45.9633 40.3954C46.5978 40.3954 47.1447 40.5422 47.604 40.8358C48.0656 41.127 48.4207 41.5519 48.6693 42.1106C48.9179 42.6693 49.041 43.3464 49.0386 44.1419C49.0386 44.9421 48.9143 45.6262 48.6658 46.1944C48.4172 46.7626 48.0633 47.197 47.604 47.4977C47.1471 47.796 46.6002 47.9451 45.9633 47.9451ZM45.9633 46.5069C46.3421 46.5069 46.6487 46.314 46.8831 45.9281C47.1175 45.5398 47.2335 44.9444 47.2311 44.1419C47.2311 43.6163 47.1778 43.1831 47.0713 42.8422C46.9648 42.4989 46.8168 42.2432 46.6274 42.0751C46.438 41.907 46.2167 41.823 45.9633 41.823C45.5869 41.823 45.2827 42.0136 45.0507 42.3947C44.8187 42.7735 44.7015 43.3559 44.6991 44.1419C44.6968 44.6745 44.7477 45.1161 44.8518 45.4664C44.9584 45.8168 45.1075 46.0784 45.2993 46.2512C45.491 46.4217 45.7124 46.5069 45.9633 46.5069Z" fill="#8E36CF"/>
</svg>
