<svg width="56" height="57" viewBox="0 0 56 57" fill="none" xmlns="http://www.w3.org/2000/svg">
<path d="M50.6566 17.7771C50.4397 17.5584 50.1816 17.3848 49.8973 17.2664C49.6129 17.1479 49.308 17.0869 48.9999 17.0869C48.6919 17.0869 48.3869 17.1479 48.1026 17.2664C47.8183 17.3848 47.5602 17.5584 47.3433 17.7771L32.6666 32.4771L22.6566 22.4438C22.4397 22.2251 22.1816 22.0515 21.8973 21.933C21.6129 21.8146 21.308 21.7536 20.9999 21.7536C20.6919 21.7536 20.3869 21.8146 20.1026 21.933C19.8183 22.0515 19.5602 22.2251 19.3433 22.4438L5.34327 36.4438C5.12457 36.6607 4.95099 36.9188 4.83253 37.2031C4.71407 37.4874 4.65308 37.7924 4.65308 38.1004C4.65308 38.4085 4.71407 38.7135 4.83253 38.9978C4.95099 39.2821 5.12457 39.5402 5.34327 39.7571C5.56019 39.9758 5.81826 40.1494 6.10259 40.2679C6.38693 40.3863 6.69191 40.4473 6.99994 40.4473C7.30797 40.4473 7.61295 40.3863 7.89728 40.2679C8.18162 40.1494 8.43969 39.9758 8.65661 39.7571L20.9999 27.3904L31.0099 37.4238C31.2269 37.6425 31.4849 37.8161 31.7693 37.9345C32.0536 38.053 32.3586 38.114 32.6666 38.114C32.9746 38.114 33.2796 38.053 33.564 37.9345C33.8483 37.8161 34.1064 37.6425 34.3233 37.4238L50.6566 21.0904C50.8753 20.8735 51.0489 20.6155 51.1674 20.3311C51.2858 20.0468 51.3468 19.7418 51.3468 19.4338C51.3468 19.1257 51.2858 18.8208 51.1674 18.5364C51.0489 18.2521 50.8753 17.994 50.6566 17.7771V17.7771Z" fill="#8E36CF"/>
</svg>
