<svg width="56" height="57" viewBox="0 0 56 57" fill="none" xmlns="http://www.w3.org/2000/svg">
<path d="M49.7001 24.288C49.0444 23.5009 48.224 22.8672 47.2967 22.4318C46.3694 21.9963 45.3579 21.7698 44.3334 21.768H33.6934L35.0001 18.4313C35.5436 16.9704 35.7246 15.3994 35.5276 13.8532C35.3305 12.3069 34.7614 10.8315 33.8688 9.55354C32.9763 8.27558 31.7871 7.2332 30.4033 6.51581C29.0194 5.79842 27.4822 5.42743 25.9234 5.43467C25.4746 5.43561 25.0355 5.56598 24.6589 5.81016C24.2823 6.05434 23.9841 6.40196 23.8001 6.81134L17.1501 21.768H11.6667C9.81023 21.768 8.02976 22.5055 6.717 23.8183C5.40425 25.131 4.66675 26.9115 4.66675 28.768V45.1013C4.66675 46.9579 5.40425 48.7383 6.717 50.0511C8.02976 51.3638 9.81023 52.1013 11.6667 52.1013H41.3701C43.0076 52.1008 44.5932 51.5262 45.8508 50.4774C47.1085 49.4286 47.9587 47.9722 48.2534 46.3613L51.2167 30.028C51.4 29.0186 51.3592 27.9812 51.0971 26.9893C50.835 25.9973 50.3581 25.0752 49.7001 24.288ZM16.3334 47.4347H11.6667C11.0479 47.4347 10.4544 47.1888 10.0168 46.7513C9.57925 46.3137 9.33341 45.7202 9.33341 45.1013V28.768C9.33341 28.1492 9.57925 27.5557 10.0168 27.1181C10.4544 26.6805 11.0479 26.4347 11.6667 26.4347H16.3334V47.4347ZM46.6667 29.188L43.7034 45.5213C43.604 46.0649 43.3149 46.5556 42.8877 46.9059C42.4604 47.2563 41.9226 47.4437 41.3701 47.4347H21.0001V24.5913L27.3467 10.3113C28 10.5018 28.6068 10.8256 29.1286 11.2624C29.6505 11.6991 30.0761 12.2393 30.3787 12.8488C30.6812 13.4584 30.8542 14.124 30.8865 14.8037C30.9189 15.4834 30.81 16.1625 30.5667 16.798L29.3301 20.1347C29.0666 20.8399 28.9776 21.5985 29.0708 22.3456C29.164 23.0927 29.4365 23.8061 29.8652 24.4251C30.2939 25.044 30.8659 25.55 31.5325 25.9C32.1991 26.2499 32.9405 26.4334 33.6934 26.4347H44.3334C44.6762 26.4341 45.0149 26.5091 45.3254 26.6543C45.636 26.7995 45.9107 27.0113 46.1301 27.2747C46.3549 27.5344 46.5195 27.8406 46.6123 28.1714C46.705 28.5021 46.7236 28.8492 46.6667 29.188Z" fill="#8E36CF"/>
</svg>
