<svg width="56" height="57" viewBox="0 0 56 57" fill="none" xmlns="http://www.w3.org/2000/svg">
<path d="M30.3333 26.4346H16.3333C15.7145 26.4346 15.121 26.6804 14.6834 27.118C14.2458 27.5556 14 28.1491 14 28.7679C14 29.3867 14.2458 29.9802 14.6834 30.4178C15.121 30.8554 15.7145 31.1012 16.3333 31.1012H30.3333C30.9521 31.1012 31.5456 30.8554 31.9832 30.4178C32.4208 29.9802 32.6666 29.3867 32.6666 28.7679C32.6666 28.1491 32.4208 27.5556 31.9832 27.118C31.5456 26.6804 30.9521 26.4346 30.3333 26.4346ZM39.6666 17.1012H16.3333C15.7145 17.1012 15.121 17.3471 14.6834 17.7847C14.2458 18.2222 14 18.8157 14 19.4346C14 20.0534 14.2458 20.6469 14.6834 21.0845C15.121 21.5221 15.7145 21.7679 16.3333 21.7679H39.6666C40.2855 21.7679 40.879 21.5221 41.3165 21.0845C41.7541 20.6469 42 20.0534 42 19.4346C42 18.8157 41.7541 18.2222 41.3165 17.7847C40.879 17.3471 40.2855 17.1012 39.6666 17.1012ZM44.3333 5.43457H11.6666C9.81011 5.43457 8.02963 6.17207 6.71688 7.48482C5.40412 8.79758 4.66663 10.5781 4.66663 12.4346V35.7679C4.66663 37.6244 5.40412 39.4049 6.71688 40.7177C8.02963 42.0304 9.81011 42.7679 11.6666 42.7679H38.71L47.3433 51.4246C47.5613 51.6408 47.8199 51.8119 48.1042 51.928C48.3885 52.0442 48.6929 52.103 49 52.1012C49.306 52.1091 49.6097 52.0452 49.8866 51.9146C50.3127 51.7395 50.6775 51.4423 50.9349 51.0602C51.1924 50.6782 51.331 50.2286 51.3333 49.7679V12.4346C51.3333 10.5781 50.5958 8.79758 49.283 7.48482C47.9703 6.17207 46.1898 5.43457 44.3333 5.43457ZM46.6666 44.1446L41.3233 38.7779C41.1053 38.5616 40.8467 38.3906 40.5624 38.2744C40.2781 38.1583 39.9737 38.0995 39.6666 38.1012H11.6666C11.0478 38.1012 10.4543 37.8554 10.0167 37.4178C9.57913 36.9802 9.33329 36.3867 9.33329 35.7679V12.4346C9.33329 11.8157 9.57913 11.2222 10.0167 10.7847C10.4543 10.3471 11.0478 10.1012 11.6666 10.1012H44.3333C44.9521 10.1012 45.5456 10.3471 45.9832 10.7847C46.4208 11.2222 46.6666 11.8157 46.6666 12.4346V44.1446Z" fill="#8E36CF"/>
</svg>
