<svg width="65" height="65" viewBox="0 0 65 65" fill="none" xmlns="http://www.w3.org/2000/svg">
<path fill-rule="evenodd" clip-rule="evenodd" d="M37.3835 14.4449C37.3835 9.46154 41.4459 5.418 46.451 5.418C47.6393 5.4148 48.8167 5.64578 49.9158 6.09776C51.0148 6.54973 52.0141 7.21384 52.8564 8.05213C53.6987 8.89043 54.3676 9.88648 54.8248 10.9834C55.2821 12.0803 55.5187 13.2565 55.5212 14.4449C55.5212 19.4309 51.4587 23.4745 46.451 23.4745C45.2501 23.4753 44.0611 23.2378 42.9527 22.7757C41.8444 22.3136 40.8388 21.6361 39.9943 20.7824L27.4412 29.3299C27.7901 31.0714 27.6187 32.8771 26.9482 34.5218L40.712 43.5676C42.3336 42.2463 44.3619 41.5258 46.4537 41.5282C47.642 41.5254 48.8193 41.7567 49.9183 42.209C51.0172 42.6613 52.0162 43.3257 52.8583 44.1643C53.7004 45.0028 54.369 45.9991 54.8259 47.0961C55.2828 48.1931 55.519 49.3694 55.5212 50.5578C55.5212 55.5411 51.4587 59.5847 46.451 59.5847C45.2628 59.5875 44.0857 59.3563 42.987 58.9041C41.8882 58.452 40.8893 57.7878 40.0473 56.9496C39.2052 56.1113 38.5366 55.1154 38.0795 54.0187C37.6225 52.922 37.3859 51.7459 37.3835 50.5578C37.3814 49.292 37.6481 48.0402 38.1662 46.8853L24.5107 37.918C22.8566 39.355 20.7382 40.1448 18.547 40.1415C17.3586 40.1444 16.1813 39.9131 15.0824 39.4608C13.9835 39.0084 12.9844 38.344 12.1424 37.5055C11.3003 36.667 10.6317 35.6707 10.1748 34.5737C9.71789 33.4766 9.48162 32.3003 9.47949 31.112C9.48198 29.9238 9.71851 28.7478 10.1756 27.6511C10.6326 26.5544 11.3013 25.5584 12.1433 24.7202C12.9853 23.8819 13.9843 23.2178 15.083 22.7656C16.1818 22.3135 17.3588 22.0822 18.547 22.0851C21.4287 22.0851 23.9907 23.4203 25.651 25.5003L37.8195 17.2155C37.5292 16.3207 37.3821 15.3856 37.3835 14.4449Z" fill="#8E36CF"/>
</svg>
