<svg width="47" height="55" viewBox="0 0 47 55" fill="none" xmlns="http://www.w3.org/2000/svg">
<path d="M40.0833 7.13331C35.7735 2.82355 29.9282 0.402344 23.8333 0.402344C17.7383 0.402344 11.893 2.82355 7.58327 7.13331C3.2735 11.4431 0.852295 17.2884 0.852295 23.3833C0.852295 29.4782 3.2735 35.3235 7.58327 39.6333L21.8562 53.9333C22.108 54.1872 22.4075 54.3886 22.7375 54.5261C23.0676 54.6636 23.4216 54.7344 23.7791 54.7344C24.1366 54.7344 24.4906 54.6636 24.8207 54.5261C25.1507 54.3886 25.4502 54.1872 25.702 53.9333L40.0833 39.4979C44.375 35.2061 46.7861 29.3851 46.7861 23.3156C46.7861 17.2461 44.375 11.4252 40.0833 7.13331V7.13331ZM36.2103 35.625L23.8333 48.0562L11.4562 35.625C9.01095 33.1775 7.34622 30.06 6.67244 26.6666C5.99866 23.2732 6.34607 19.7562 7.67076 16.5602C8.99544 13.3641 11.2379 10.6326 14.1148 8.71086C16.9916 6.7891 20.3736 5.76339 23.8333 5.76339C27.2929 5.76339 30.6749 6.7891 33.5518 8.71086C36.4286 10.6326 38.6711 13.3641 39.9958 16.5602C41.3205 19.7562 41.6679 23.2732 40.9941 26.6666C40.3203 30.06 38.6556 33.1775 36.2103 35.625V35.625ZM15.7083 15.0687C13.5219 17.2619 12.2941 20.2323 12.2941 23.3291C12.2941 26.4259 13.5219 29.3964 15.7083 31.5896C17.3326 33.2167 19.4013 34.3279 21.6548 34.7838C23.9083 35.2397 26.2463 35.0199 28.3753 34.1521C30.5044 33.2842 32.3298 31.807 33.6225 29.9057C34.9152 28.0043 35.6176 25.7636 35.6416 23.4646C35.6538 21.9295 35.3581 20.4076 34.772 18.9887C34.1858 17.5699 33.3212 16.283 32.2291 15.2041C31.1557 14.1061 29.8758 13.2312 28.463 12.6298C27.0501 12.0283 25.5323 11.7122 23.9969 11.6996C22.4614 11.6871 20.9386 11.9782 19.5161 12.5564C18.0936 13.1347 16.7995 13.9885 15.7083 15.0687V15.0687ZM28.4103 27.7437C27.384 28.7857 26.0276 29.4389 24.573 29.5915C23.1184 29.7441 21.6559 29.3867 20.4357 28.5804C19.2154 27.7741 18.3131 26.569 17.8831 25.171C17.453 23.7731 17.5219 22.2692 18.0779 20.9164C18.634 19.5637 19.6427 18.4461 20.9315 17.7547C22.2204 17.0633 23.7094 16.8411 25.1439 17.126C26.5785 17.411 27.8695 18.1854 28.7963 19.3168C29.7231 20.4483 30.2281 21.8666 30.2249 23.3291C30.1855 25.0009 29.4842 26.5887 28.2749 27.7437H28.4103Z" fill="#8E36CF"/>
</svg>
