<svg width="55" height="45" viewBox="0 0 55 45" fill="none" xmlns="http://www.w3.org/2000/svg">
<path d="M46.7917 0.833008H8.875C6.72012 0.833008 4.65349 1.68903 3.12976 3.21277C1.60602 4.7365 0.75 6.80312 0.75 8.95801V36.0413C0.75 38.1962 1.60602 40.2629 3.12976 41.7866C4.65349 43.3103 6.72012 44.1663 8.875 44.1663H46.7917C48.9465 44.1663 51.0132 43.3103 52.5369 41.7866C54.0606 40.2629 54.9167 38.1962 54.9167 36.0413V8.95801C54.9167 6.80312 54.0606 4.7365 52.5369 3.21277C51.0132 1.68903 48.9465 0.833008 46.7917 0.833008V0.833008ZM8.875 6.24967H46.7917C47.51 6.24967 48.1988 6.53502 48.7067 7.04293C49.2147 7.55084 49.5 8.23971 49.5 8.95801L27.8333 22.1747L6.16667 8.95801C6.16667 8.23971 6.45201 7.55084 6.95992 7.04293C7.46783 6.53502 8.15671 6.24967 8.875 6.24967V6.24967ZM49.5 36.0413C49.5 36.7596 49.2147 37.4485 48.7067 37.9564C48.1988 38.4643 47.51 38.7497 46.7917 38.7497H8.875C8.15671 38.7497 7.46783 38.4643 6.95992 37.9564C6.45201 37.4485 6.16667 36.7596 6.16667 36.0413V15.133L26.425 27.5101C26.8367 27.7478 27.3038 27.8729 27.7792 27.8729C28.2546 27.8729 28.7216 27.7478 29.1333 27.5101L49.5 15.133V36.0413Z" fill="#8E36CF"/>
</svg>
