<svg width="55" height="55" viewBox="0 0 55 55" fill="none" xmlns="http://www.w3.org/2000/svg">
<path d="M47.9832 30.2086C47.3874 30.2086 46.7645 30.019 46.1686 29.8836C44.962 29.6177 43.7763 29.2647 42.6207 28.8274C41.3643 28.3703 39.9832 28.394 38.7432 28.894C37.5032 29.394 36.492 30.3349 35.9041 31.5357L35.3082 32.7544C32.6703 31.287 30.2463 29.4644 28.1041 27.3378C25.9774 25.1955 24.1548 22.7715 22.6874 20.1336L23.8249 19.3753C25.0257 18.7873 25.9666 17.7761 26.4666 16.5361C26.9666 15.2961 26.9903 13.915 26.5332 12.6586C26.1032 11.5006 25.7503 10.3154 25.477 9.11069C25.3416 8.51486 25.2332 7.89194 25.152 7.26902C24.8231 5.36133 23.8239 3.63374 22.3343 2.39738C20.8447 1.16102 18.9626 0.497131 17.027 0.525273H8.90197C7.73476 0.514314 6.5789 0.754976 5.51306 1.23088C4.44722 1.70678 3.49643 2.40674 2.72543 3.28312C1.95442 4.1595 1.38129 5.19172 1.04506 6.3095C0.708832 7.42728 0.617393 8.60439 0.77697 9.76069C2.2198 21.1069 7.40163 31.6491 15.5039 39.722C23.6063 47.7949 34.1672 52.9383 45.5186 54.3399H46.5478C48.545 54.3428 50.4733 53.61 51.9645 52.2815C52.8213 51.5152 53.5057 50.5758 53.9726 49.5253C54.4395 48.4749 54.6781 47.3373 54.6728 46.1878V38.0628C54.6396 36.1815 53.9546 34.3701 52.7346 32.9377C51.5145 31.5053 49.8352 30.5407 47.9832 30.2086V30.2086ZM49.3374 46.4586C49.3369 46.8432 49.2545 47.2232 49.0958 47.5734C48.937 47.9237 48.7055 48.2361 48.4166 48.4899C48.1148 48.7526 47.7611 48.9487 47.3784 49.0654C46.9957 49.182 46.5927 49.2167 46.1957 49.1669C36.0527 47.8664 26.6314 43.2262 19.4177 35.9781C12.204 28.7301 7.6085 19.2868 6.35614 9.13777C6.31303 8.74105 6.35081 8.33971 6.46718 7.958C6.58356 7.57629 6.77612 7.22214 7.03322 6.91694C7.28702 6.62805 7.59943 6.39651 7.94966 6.23774C8.2999 6.07896 8.67993 5.99659 9.06447 5.99611H17.1895C17.8193 5.98209 18.4343 6.18807 18.9286 6.57859C19.4229 6.96911 19.7657 7.51973 19.8978 8.13569C20.0061 8.87597 20.1416 9.60722 20.3041 10.3294C20.6169 11.7571 21.0333 13.1601 21.5499 14.5274L17.7582 16.2878C17.434 16.4365 17.1424 16.6478 16.9001 16.9096C16.6578 17.1714 16.4696 17.4784 16.3463 17.8131C16.223 18.1478 16.167 18.5035 16.1816 18.8599C16.1961 19.2163 16.2809 19.5663 16.4311 19.8899C20.329 28.239 27.0403 34.9504 35.3895 38.8482C36.0488 39.1191 36.7884 39.1191 37.4478 38.8482C37.7856 38.7274 38.096 38.5407 38.361 38.2989C38.626 38.0571 38.8403 37.7651 38.9916 37.4399L40.6707 33.6482C42.0708 34.1489 43.4998 34.5649 44.9499 34.894C45.6721 35.0565 46.4034 35.1919 47.1436 35.3003C47.7596 35.4324 48.3102 35.7751 48.7007 36.2695C49.0913 36.7638 49.2972 37.3788 49.2832 38.0086L49.3374 46.4586Z" fill="#8E36CF"/>
</svg>
