<svg width="18" height="18" viewBox="0 0 18 18" fill="none" xmlns="http://www.w3.org/2000/svg">
<path d="M15.95 6.7671L4.2833 0.933766C3.82287 0.704607 3.30298 0.623025 2.79449 0.700142C2.28601 0.77726 1.81368 1.00932 1.4419 1.3647C1.07013 1.72007 0.817006 2.18145 0.717039 2.68594C0.617073 3.19043 0.67513 3.71348 0.883295 4.18377L2.8833 8.65877C2.92868 8.76696 2.95205 8.88311 2.95205 9.00043C2.95205 9.11776 2.92868 9.23391 2.8833 9.3421L0.883295 13.8171C0.713879 14.1977 0.642258 14.6146 0.674943 15.0299C0.707627 15.4452 0.843581 15.8458 1.07045 16.1952C1.29731 16.5446 1.6079 16.8318 1.97398 17.0306C2.34006 17.2295 2.75003 17.3337 3.16663 17.3338C3.55682 17.3299 3.9412 17.2388 4.29163 17.0671L15.9583 11.2338C16.3721 11.0256 16.72 10.7065 16.963 10.3122C17.2061 9.91781 17.3348 9.46368 17.3348 9.00043C17.3348 8.53719 17.2061 8.08306 16.963 7.6887C16.72 7.29435 16.3721 6.97528 15.9583 6.7671H15.95ZM15.2083 9.7421L3.54163 15.5754C3.38843 15.649 3.2164 15.674 3.04862 15.647C2.88083 15.62 2.7253 15.5424 2.60289 15.4245C2.48048 15.3066 2.39703 15.1541 2.36374 14.9875C2.33045 14.8208 2.3489 14.648 2.41663 14.4921L4.4083 10.0171C4.43408 9.95734 4.45634 9.89613 4.47496 9.83377H10.2166C10.4376 9.83377 10.6496 9.74597 10.8059 9.58969C10.9622 9.43341 11.05 9.22145 11.05 9.00043C11.05 8.77942 10.9622 8.56746 10.8059 8.41118C10.6496 8.2549 10.4376 8.1671 10.2166 8.1671H4.47496C4.45634 8.10474 4.43408 8.04352 4.4083 7.98377L2.41663 3.50877C2.3489 3.3529 2.33045 3.18006 2.36374 3.01341C2.39703 2.84676 2.48048 2.69427 2.60289 2.57639C2.7253 2.45851 2.88083 2.38087 3.04862 2.35389C3.2164 2.32691 3.38843 2.35187 3.54163 2.42543L15.2083 8.25877C15.3448 8.3287 15.4594 8.43494 15.5393 8.5658C15.6193 8.69666 15.6617 8.84706 15.6617 9.00043C15.6617 9.1538 15.6193 9.3042 15.5393 9.43506C15.4594 9.56592 15.3448 9.67217 15.2083 9.7421V9.7421Z" fill="#FDFDFD"/>
</svg>
