<svg width="189" height="56" viewBox="0 0 189 56" fill="none" xmlns="http://www.w3.org/2000/svg">
<path d="M182 0H7C3.13401 0 0 3.13399 0 6.99997V48.9998C0 52.8657 3.13401 55.9997 7 55.9997H182C185.866 55.9997 189 52.8657 189 48.9998V6.99997C189 3.13399 185.866 0 182 0Z" fill="black"/>
<path d="M182 1.11971C183.559 1.12152 185.054 1.74163 186.156 2.84401C187.258 3.9464 187.878 5.44102 187.88 6.99997V48.9998C187.878 50.5587 187.258 52.0533 186.156 53.1557C185.054 54.2581 183.559 54.8782 182 54.88H7C5.44103 54.8782 3.94643 54.2581 2.8441 53.1557C1.74177 52.0533 1.12172 50.5587 1.12 48.9998V6.99997C1.1217 5.441 1.74173 3.94636 2.84407 2.84397C3.94641 1.74159 5.44102 1.12149 7 1.11971H182ZM182 0H7C5.14515 0.00542931 3.36783 0.744667 2.05625 2.05624C0.744671 3.36781 0.00542934 5.14513 0 6.99997L0 48.9998C0.00542934 50.8546 0.744671 52.6319 2.05625 53.9435C3.36783 55.2551 5.14515 55.9943 7 55.9997H182C183.855 55.9943 185.632 55.2551 186.944 53.9435C188.255 52.6319 188.995 50.8546 189 48.9998V6.99997C188.995 5.14513 188.255 3.36781 186.944 2.05624C185.632 0.744667 183.855 0.00542931 182 0Z" fill="#A6A6A6"/>
<path d="M66.3857 14.3409C66.4112 14.8547 66.3318 15.3682 66.1525 15.8503C65.9731 16.3323 65.6975 16.7728 65.3425 17.145C64.9446 17.5577 64.464 17.8817 63.9323 18.0958C63.4005 18.31 62.8296 18.4095 62.2567 18.3878C61.6802 18.3929 61.1085 18.2828 60.5752 18.0638C60.0419 17.8449 59.5577 17.5216 59.1511 17.1128C58.7446 16.7041 58.4238 16.2182 58.2077 15.6837C57.9916 15.1492 57.8845 14.5769 57.8928 14.0005C57.8846 13.424 57.9917 12.8517 58.2078 12.3172C58.4239 11.7827 58.7447 11.2968 59.1512 10.888C59.5578 10.4792 60.0419 10.1558 60.5752 9.93677C61.1085 9.71772 61.6802 9.60746 62.2567 9.61247C62.8495 9.61068 63.4362 9.73051 63.9808 9.96457C64.4866 10.1696 64.9368 10.4912 65.2947 10.9031L64.5564 11.642C64.275 11.3109 63.9213 11.0488 63.5226 10.876C63.1239 10.7032 62.6908 10.6243 62.2567 10.6454C61.8198 10.6431 61.3869 10.7291 60.984 10.8981C60.5811 11.0671 60.2164 11.3156 59.9119 11.6289C59.6073 11.9422 59.3691 12.3137 59.2115 12.7212C59.0539 13.1287 58.9802 13.5638 58.9947 14.0005C58.9843 14.6545 59.1683 15.297 59.5235 15.8463C59.8787 16.3956 60.389 16.8271 60.9898 17.0861C61.5905 17.345 62.2546 17.4197 62.8978 17.3007C63.5411 17.1817 64.1345 16.8744 64.6028 16.4177C65.0339 15.9532 65.2837 15.3494 65.3069 14.7161H62.2567V13.7072H66.3269C66.3654 13.9162 66.3851 14.1284 66.3857 14.3409Z" fill="white" stroke="white" stroke-width="0.2" stroke-miterlimit="10"/>
<path d="M72.8389 10.832H69.0135V13.4952H72.463V14.5043H69.0135V17.1675H72.8389V18.1998H67.9348V9.7998H72.8389V10.832Z" fill="white" stroke="white" stroke-width="0.2" stroke-miterlimit="10"/>
<path d="M77.3901 18.1998H76.31V10.832H73.9639V9.7998H79.7362V10.832H77.3901V18.1998Z" fill="white" stroke="white" stroke-width="0.2" stroke-miterlimit="10"/>
<path d="M83.9131 18.1998V9.7998H84.9918V18.1998H83.9131Z" fill="white" stroke="white" stroke-width="0.2" stroke-miterlimit="10"/>
<path d="M89.7796 18.1998H88.6995V10.832H86.3535V9.7998H92.1257V10.832H89.7796V18.1998Z" fill="white" stroke="white" stroke-width="0.2" stroke-miterlimit="10"/>
<path d="M103.053 17.1147C102.235 17.9299 101.128 18.3876 99.9735 18.3876C98.819 18.3876 97.7115 17.9299 96.8939 17.1147C96.4895 16.7051 96.1715 16.2182 95.9589 15.6832C95.7464 15.1482 95.6436 14.5759 95.6566 14.0003C95.6436 13.4247 95.7464 12.8524 95.9589 12.3174C96.1715 11.7824 96.4895 11.2956 96.8939 10.8859C97.2981 10.4817 97.7779 10.1611 98.3061 9.94256C98.8343 9.72403 99.4003 9.6118 99.9719 9.61231C100.544 9.61281 101.109 9.72604 101.637 9.94552C102.165 10.165 102.644 10.4864 103.048 10.8913C103.452 11.2999 103.771 11.7857 103.984 12.3197C104.198 12.8538 104.302 13.4253 104.29 14.0003C104.303 14.5758 104.2 15.148 103.988 15.683C103.775 16.218 103.457 16.7048 103.053 17.1147ZM97.691 16.4114C98.2965 17.0159 99.1172 17.3554 99.9728 17.3554C100.828 17.3554 101.649 17.0159 102.255 16.4114C102.565 16.0935 102.808 15.7159 102.969 15.3015C103.129 14.8871 103.204 14.4444 103.188 14.0003C103.204 13.5562 103.129 13.1135 102.969 12.6991C102.808 12.2847 102.565 11.9071 102.255 11.5892C101.649 10.9847 100.828 10.6452 99.9728 10.6452C99.1172 10.6452 98.2965 10.9847 97.691 11.5892C97.3809 11.9074 97.1384 12.285 96.9782 12.6994C96.8179 13.1138 96.7432 13.5563 96.7586 14.0003C96.7432 14.4443 96.8179 14.8868 96.9782 15.3012C97.1384 15.7156 97.3809 16.0932 97.691 16.4114Z" fill="white" stroke="white" stroke-width="0.2" stroke-miterlimit="10"/>
<path d="M105.805 18.1998V9.7998H107.119L111.201 16.3343H111.248L111.201 14.7155V9.7998H112.282V18.1998H111.155L106.884 11.3488H106.837L106.884 12.9676V18.1998H105.805Z" fill="white" stroke="white" stroke-width="0.2" stroke-miterlimit="10"/>
<path d="M95.3901 30.4523C94.2134 30.4568 93.0644 30.8098 92.0882 31.4668C91.1119 32.1238 90.3522 33.0553 89.905 34.1437C89.4578 35.2321 89.3431 36.4286 89.5754 37.5822C89.8077 38.7358 90.3766 39.7946 91.2103 40.6251C92.0439 41.4556 93.1049 42.0204 94.2594 42.2483C95.4138 42.4763 96.6099 42.357 97.6966 41.9057C98.7833 41.4543 99.712 40.6911 100.365 39.7124C101.019 38.7337 101.367 37.5833 101.367 36.4066C101.379 35.6196 101.232 34.8382 100.935 34.1091C100.639 33.38 100.199 32.718 99.6409 32.1624C99.0832 31.6069 98.4195 31.1692 97.6893 30.8754C96.959 30.5816 96.1771 30.4377 95.3901 30.4523ZM95.3901 40.0154C94.6655 40.067 93.942 39.8993 93.314 39.5341C92.686 39.1689 92.1824 38.623 91.869 37.9676C91.5555 37.3122 91.4467 36.5776 91.5566 35.8594C91.6665 35.1413 91.9901 34.4728 92.4852 33.9412C92.9803 33.4095 93.624 33.0392 94.3325 32.8785C95.041 32.7178 95.7815 32.7741 96.4576 33.0401C97.1336 33.3061 97.7139 33.7695 98.1229 34.37C98.5319 34.9704 98.7507 35.6801 98.7507 36.4066C98.7727 36.8656 98.7026 37.3243 98.5446 37.7558C98.3867 38.1873 98.144 38.5828 97.8308 38.9191C97.5177 39.2554 97.1404 39.5256 96.7213 39.7139C96.3021 39.9022 95.8495 40.0047 95.3901 40.0154ZM82.3514 30.4523C81.1746 30.4567 80.0256 30.8097 79.0494 31.4667C78.0731 32.1237 77.3134 33.0552 76.8662 34.1436C76.4189 35.232 76.3042 36.4285 76.5365 37.5821C76.7688 38.7357 77.3377 39.7946 78.1713 40.625C79.005 41.4555 80.066 42.0204 81.2204 42.2483C82.3749 42.4763 83.571 42.357 84.6577 41.9057C85.7444 41.4543 86.673 40.6911 87.3263 39.7124C87.9796 38.7337 88.3283 37.5833 88.3282 36.4066C88.3398 35.6196 88.1929 34.8383 87.8964 34.1091C87.5998 33.38 87.1596 32.718 86.602 32.1625C86.0444 31.607 85.3807 31.1693 84.6505 30.8755C83.9202 30.5817 83.1383 30.4378 82.3514 30.4523ZM82.3514 40.0154C81.6267 40.067 80.9032 39.8993 80.2752 39.5341C79.6472 39.1689 79.1437 38.623 78.8302 37.9676C78.5168 37.3122 78.4079 36.5776 78.5178 35.8594C78.6277 35.1413 78.9513 34.4728 79.4464 33.9412C79.9415 33.4095 80.5852 33.0392 81.2937 32.8785C82.0023 32.7178 82.7427 32.7741 83.4188 33.0401C84.0949 33.3061 84.6752 33.7695 85.0842 34.37C85.4932 34.9704 85.7119 35.6801 85.7119 36.4066C85.7339 36.8656 85.6639 37.3243 85.5059 37.7558C85.3479 38.1873 85.1052 38.5829 84.7921 38.9191C84.4789 39.2554 84.1017 39.5256 83.6825 39.7139C83.2633 39.9022 82.8107 40.0047 82.3514 40.0154ZM66.841 32.2793V34.8053H72.8858C72.7986 35.9901 72.3138 37.1108 71.5099 37.9855C70.9041 38.603 70.1757 39.0866 69.3715 39.4051C68.5673 39.7237 67.7053 39.8701 66.841 39.8349C65.0742 39.811 63.3879 39.0923 62.1469 37.8345C60.9059 36.5766 60.2102 34.8807 60.2102 33.1137C60.2102 31.3467 60.9059 29.6508 62.1469 28.3929C63.3879 27.135 65.0742 26.4164 66.841 26.3925C68.5381 26.3703 70.1754 27.0187 71.3972 28.1968L73.179 26.415C72.3454 25.5897 71.3554 24.9392 70.267 24.5015C69.1787 24.0639 68.0139 23.8479 66.841 23.8663C65.6153 23.8485 64.3983 24.0745 63.2607 24.5312C62.1231 24.9879 61.0877 25.6662 60.2146 26.5267C59.3415 27.3872 58.6482 28.4126 58.1749 29.5434C57.7017 30.6742 57.458 31.8879 57.458 33.1137C57.458 34.3395 57.7017 35.5531 58.1749 36.684C58.6482 37.8148 59.3415 38.8402 60.2146 39.7007C61.0877 40.5612 62.1231 41.2395 63.2607 41.6962C64.3983 42.1529 65.6153 42.3789 66.841 42.3611C68.0387 42.4107 69.2332 42.2052 70.3453 41.758C71.4575 41.3108 72.4618 40.6322 73.2917 39.7673C74.7651 38.1591 75.5504 36.038 75.4796 33.8581C75.4854 33.3287 75.44 32.8 75.3441 32.2793H66.841ZM130.273 34.2414C129.915 33.1629 129.234 32.2207 128.322 31.5428C127.41 30.8649 126.311 30.4841 125.175 30.4523C124.41 30.4571 123.654 30.6169 122.953 30.9221C122.251 31.2274 121.619 31.6717 121.094 32.2283C120.569 32.7849 120.162 33.4421 119.898 34.1602C119.635 34.8784 119.519 35.6426 119.559 36.4066C119.542 37.1895 119.683 37.9678 119.973 38.695C120.263 39.4222 120.697 40.0835 121.249 40.6393C121.8 41.1951 122.458 41.634 123.183 41.9299C123.908 42.2257 124.686 42.3723 125.469 42.3611C126.449 42.3665 127.416 42.1282 128.282 41.6676C129.148 41.207 129.887 40.5386 130.43 39.7222L128.401 38.369C128.096 38.874 127.666 39.2913 127.152 39.5799C126.638 39.8686 126.058 40.0186 125.469 40.0154C124.862 40.0386 124.262 39.879 123.748 39.5572C123.233 39.2355 122.826 38.7665 122.581 38.2111L130.543 34.9181L130.273 34.2414ZM122.153 36.2263C122.125 35.7929 122.184 35.3583 122.326 34.9479C122.468 34.5374 122.69 34.1595 122.98 33.836C123.27 33.5126 123.621 33.2502 124.014 33.0642C124.406 32.8783 124.832 32.7724 125.265 32.7529C125.717 32.7232 126.168 32.8271 126.561 33.0517C126.954 33.2763 127.272 33.6117 127.476 34.016L122.153 36.2263ZM115.68 42.0001H118.296V24.498H115.68V42.0001ZM111.394 31.783H111.304C110.906 31.3508 110.421 31.0086 109.88 30.7791C109.34 30.5496 108.756 30.4382 108.169 30.4523C106.634 30.5176 105.183 31.1735 104.12 32.2831C103.056 33.3926 102.463 34.8699 102.463 36.4067C102.463 37.9434 103.056 39.4208 104.12 40.5303C105.183 41.6398 106.634 42.2957 108.169 42.3611C108.759 42.3768 109.344 42.2638 109.886 42.0301C110.427 41.7964 110.911 41.4476 111.304 41.0078H111.394V41.8649C111.394 44.143 110.177 45.3608 108.214 45.3608C107.56 45.3452 106.926 45.1352 106.391 44.7576C105.857 44.38 105.447 43.852 105.214 43.2407L102.936 44.1881C103.366 45.2334 104.097 46.1267 105.038 46.7536C105.978 47.3804 107.084 47.7122 108.214 47.7065C111.282 47.7065 113.875 45.9022 113.875 41.504V30.8131H111.394V31.783ZM108.395 40.0154C107.49 39.9387 106.648 39.5253 106.034 38.857C105.42 38.1887 105.079 37.3142 105.079 36.4067C105.079 35.4991 105.42 34.6247 106.034 33.9564C106.648 33.2881 107.49 32.8747 108.395 32.798C108.845 32.82 109.285 32.9323 109.691 33.1283C110.097 33.3243 110.459 33.5999 110.755 33.9387C111.052 34.2776 111.278 34.6727 111.418 35.1006C111.559 35.5285 111.612 35.9803 111.575 36.4292C111.61 36.8752 111.555 37.3238 111.413 37.7481C111.27 38.1724 111.044 38.5636 110.747 38.8984C110.45 39.2332 110.089 39.5047 109.685 39.6966C109.281 39.8885 108.842 39.9969 108.395 40.0154ZM142.528 24.4983H136.268V42.0001H138.88V35.3692H142.528C143.267 35.4097 144.006 35.2992 144.701 35.0443C145.396 34.7895 146.031 34.3956 146.569 33.8869C147.106 33.3782 147.534 32.7653 147.826 32.0856C148.119 31.4059 148.27 30.6737 148.27 29.9337C148.27 29.1938 148.119 28.4616 147.826 27.7819C147.534 27.1022 147.106 26.4893 146.569 25.9806C146.031 25.4719 145.396 25.078 144.701 24.8232C144.006 24.5683 143.267 24.4578 142.528 24.4983ZM142.596 32.9335H138.88V26.9341H142.596C142.995 26.9259 143.392 26.9973 143.763 27.1444C144.134 27.2914 144.472 27.511 144.757 27.7904C145.042 28.0698 145.269 28.4032 145.424 28.7713C145.578 29.1394 145.658 29.5346 145.658 29.9338C145.658 30.3331 145.578 30.7283 145.424 31.0963C145.269 31.4644 145.042 31.7979 144.757 32.0772C144.472 32.3566 144.134 32.5762 143.763 32.7233C143.392 32.8703 142.995 32.9418 142.596 32.9335ZM158.74 30.4201C157.787 30.3644 156.838 30.5883 156.01 31.0643C155.182 31.5403 154.511 32.2476 154.079 33.0996L156.398 34.0678C156.628 33.645 156.976 33.2983 157.4 33.0704C157.824 32.8424 158.305 32.743 158.785 32.7843C159.448 32.7196 160.109 32.9203 160.624 33.3423C161.139 33.7644 161.465 34.3734 161.532 35.0359V35.2161C160.693 34.7704 159.757 34.5384 158.807 34.5406C156.308 34.5406 153.764 35.9141 153.764 38.481C153.788 39.022 153.921 39.5525 154.154 40.0412C154.387 40.5299 154.716 40.9668 155.122 41.3259C155.527 41.685 156 41.9591 156.514 42.1318C157.027 42.3045 157.569 42.3723 158.109 42.3312C158.767 42.37 159.423 42.2316 160.009 41.9307C160.595 41.6297 161.09 41.1771 161.442 40.62H161.532V41.971H164.054V35.2611C164.054 32.1539 161.735 30.4201 158.74 30.4201ZM158.425 40.012C157.569 40.012 156.376 39.5843 156.376 38.5259C156.376 37.1751 157.862 36.6571 159.145 36.6571C159.979 36.6349 160.803 36.8371 161.532 37.2426C161.436 38.0017 161.069 38.7004 160.497 39.2095C159.926 39.7186 159.19 40.0037 158.425 40.012ZM173.241 30.8029L170.246 38.3908H170.156L167.049 30.8029H164.234L168.895 41.4081L166.238 47.3074H168.962L176.145 30.8029H173.241ZM149.711 42.0001H152.323V24.4983H149.711V42.0001Z" fill="white"/>
<path d="M14.6093 10.5528C14.1502 11.1017 13.9184 11.8054 13.9614 12.5197V43.482C13.9183 44.1963 14.1501 44.9001 14.6093 45.4489L14.7129 45.5498L32.0575 28.2055V27.7962L14.7129 10.4512L14.6093 10.5528Z" fill="url(#paint0_linear_20_5579)"/>
<path d="M37.8388 33.9903L32.0576 28.2064V27.7972L37.8402 22.0146L37.9705 22.089L44.8204 25.9811C46.7771 27.0927 46.7771 28.9116 44.8204 30.0239L37.9705 33.916L37.8388 33.9903Z" fill="url(#paint1_linear_20_5579)"/>
<path d="M37.9705 33.9144L32.0576 28.001L14.6094 45.4489C15.0081 45.8006 15.5172 46.0016 16.0485 46.0173C16.5799 46.033 17.1 45.8624 17.5187 45.5349L37.9705 33.9144Z" fill="url(#paint2_linear_20_5579)"/>
<path d="M37.9705 22.0883L17.5187 10.4678C17.1 10.1403 16.5799 9.96967 16.0485 9.98537C15.5172 10.0011 15.0081 10.2021 14.6094 10.5538L32.0576 28.0019L37.9705 22.0883Z" fill="url(#paint3_linear_20_5579)"/>
<path opacity="0.2" d="M37.8401 33.7842L17.5187 45.3303C17.1161 45.6368 16.6247 45.8041 16.1187 45.8068C15.6127 45.8095 15.1195 45.6475 14.7137 45.3453L14.6094 45.4496L14.713 45.5506L14.7137 45.5499C15.1195 45.8522 15.6127 46.0143 16.1187 46.0116C16.6247 46.0089 17.1162 45.8415 17.5187 45.5349L37.9705 33.9144L37.8401 33.7842Z" fill="black"/>
<path opacity="0.12" d="M14.6095 45.2452C14.1505 44.6962 13.9187 43.9926 13.9616 43.2783V43.4829C13.9187 44.1971 14.1505 44.9008 14.6095 45.4497L14.7138 45.3454L14.6095 45.2452Z" fill="black"/>
<path opacity="0.12" d="M44.8203 29.8182L37.8401 33.7846L37.9704 33.9148L44.8203 30.0227C45.2233 29.8478 45.572 29.5681 45.8301 29.2127C46.0882 28.8573 46.2463 28.4392 46.288 28.002C46.2014 28.3979 46.0236 28.7683 45.7689 29.0835C45.5141 29.3988 45.1893 29.6504 44.8203 29.8182Z" fill="black"/>
<path opacity="0.25" d="M17.5187 10.6729L44.8204 26.1848C45.1895 26.3526 45.5144 26.6042 45.7691 26.9196C46.0239 27.235 46.2016 27.6056 46.288 28.0017C46.2466 27.5643 46.0886 27.1459 45.8305 26.7904C45.5723 26.4348 45.2235 26.155 44.8204 25.9803L17.5187 10.4683C15.562 9.3566 13.9614 10.28 13.9614 12.5211V12.7257C13.9614 10.4847 15.562 9.56128 17.5187 10.6729Z" fill="white"/>
<defs>
<linearGradient id="paint0_linear_20_5579" x1="30.5194" y1="12.1932" x2="7.02413" y2="35.6886" gradientUnits="userSpaceOnUse">
<stop stop-color="#00A0FF"/>
<stop offset="0.00657" stop-color="#00A1FF"/>
<stop offset="0.2601" stop-color="#00BEFF"/>
<stop offset="0.5122" stop-color="#00D2FF"/>
<stop offset="0.7604" stop-color="#00DFFF"/>
<stop offset="1" stop-color="#00E3FF"/>
</linearGradient>
<linearGradient id="paint1_linear_20_5579" x1="47.368" y1="28.0025" x2="13.4923" y2="28.0025" gradientUnits="userSpaceOnUse">
<stop stop-color="#FFE000"/>
<stop offset="0.4087" stop-color="#FFBD00"/>
<stop offset="0.7754" stop-color="#FFA500"/>
<stop offset="1" stop-color="#FF9C00"/>
</linearGradient>
<linearGradient id="paint2_linear_20_5579" x1="34.7575" y1="31.2141" x2="2.89611" y2="63.0757" gradientUnits="userSpaceOnUse">
<stop stop-color="#FF3A44"/>
<stop offset="1" stop-color="#C31162"/>
</linearGradient>
<linearGradient id="paint3_linear_20_5579" x1="10.2161" y1="0.247268" x2="24.4435" y2="14.4748" gradientUnits="userSpaceOnUse">
<stop stop-color="#32A071"/>
<stop offset="0.0685" stop-color="#2DA771"/>
<stop offset="0.4762" stop-color="#15CF74"/>
<stop offset="0.8009" stop-color="#06E775"/>
<stop offset="1" stop-color="#00F076"/>
</linearGradient>
</defs>
</svg>
