<svg width="189" height="56" viewBox="0 0 189 56" fill="none" xmlns="http://www.w3.org/2000/svg">
<path d="M182 0H7C3.13401 0 0 3.13399 0 6.99997V48.9998C0 52.8657 3.13401 55.9997 7 55.9997H182C185.866 55.9997 189 52.8657 189 48.9998V6.99997C189 3.13399 185.866 0 182 0Z" fill="black"/>
<path d="M182 1.11971C183.559 1.12152 185.054 1.74163 186.156 2.84401C187.258 3.9464 187.878 5.44102 187.88 6.99997V48.9998C187.878 50.5587 187.258 52.0533 186.156 53.1557C185.054 54.2581 183.559 54.8782 182 54.88H7C5.44103 54.8782 3.94643 54.2581 2.8441 53.1557C1.74177 52.0533 1.12172 50.5587 1.12 48.9998V6.99997C1.1217 5.441 1.74173 3.94636 2.84407 2.84397C3.94641 1.74159 5.44102 1.12149 7 1.11971H182ZM182 0H7C5.14515 0.00542931 3.36783 0.744667 2.05625 2.05624C0.744671 3.36781 0.00542934 5.14513 0 6.99997L0 48.9998C0.00542934 50.8546 0.744671 52.6319 2.05625 53.9435C3.36783 55.2551 5.14515 55.9943 7 55.9997H182C183.855 55.9943 185.632 55.2551 186.944 53.9435C188.255 52.6319 188.995 50.8546 189 48.9998V6.99997C188.995 5.14513 188.255 3.36781 186.944 2.05624C185.632 0.744667 183.855 0.00542931 182 0Z" fill="#A6A6A6"/>
<path d="M66.386 14.3419C66.4114 14.8556 66.3321 15.3692 66.1527 15.8512C65.9733 16.3333 65.6977 16.7738 65.3427 17.146C64.9448 17.5586 64.4643 17.8826 63.9325 18.0968C63.4008 18.311 62.8298 18.4104 62.257 18.3887C61.6805 18.3939 61.1088 18.2838 60.5754 18.0648C60.0421 17.8459 59.5579 17.5225 59.1514 17.1138C58.7448 16.705 58.424 16.2191 58.2079 15.6847C57.9919 15.1502 57.8848 14.5779 57.893 14.0014C57.8848 13.425 57.992 12.8527 58.2081 12.3182C58.4242 11.7837 58.7449 11.2978 59.1515 10.889C59.558 10.4802 60.0422 10.1568 60.5755 9.93775C61.1088 9.7187 61.6805 9.60844 62.257 9.61344C62.8497 9.61165 63.4365 9.73149 63.9811 9.96554C64.4868 10.1706 64.937 10.4921 65.295 10.9041L64.5566 11.643C64.2752 11.3118 63.9215 11.0497 63.5228 10.8769C63.1241 10.7041 62.691 10.6252 62.257 10.6464C61.82 10.6441 61.3872 10.73 60.9843 10.899C60.5813 11.068 60.2167 11.3166 59.9121 11.6299C59.6075 11.9431 59.3693 12.3146 59.2117 12.7221C59.0541 13.1296 58.9804 13.5648 58.995 14.0014C58.9845 14.6555 59.1686 15.2979 59.5238 15.8473C59.879 16.3966 60.3893 16.8281 60.99 17.087C61.5907 17.346 62.2548 17.4207 62.8981 17.3017C63.5413 17.1827 64.1347 16.8754 64.6031 16.4187C65.0341 15.9542 65.284 15.3504 65.3071 14.7171H62.257V13.7081H66.3272C66.3657 13.9172 66.3853 14.1293 66.386 14.3419Z" fill="white" stroke="white" stroke-width="0.2" stroke-miterlimit="10"/>
<path d="M72.8396 10.833H69.0142V13.4962H72.4637V14.5053H69.0142V17.1685H72.8396V18.2007H67.9355V9.80078H72.8396V10.833Z" fill="white" stroke="white" stroke-width="0.2" stroke-miterlimit="10"/>
<path d="M77.3911 18.2007H76.311V10.833H73.9648V9.80078H79.7372V10.833H77.3911V18.2007Z" fill="white" stroke="white" stroke-width="0.2" stroke-miterlimit="10"/>
<path d="M83.9121 18.2007V9.80078H84.9908V18.2007H83.9121Z" fill="white" stroke="white" stroke-width="0.2" stroke-miterlimit="10"/>
<path d="M89.7796 18.2007H88.6995V10.833H86.3535V9.80078H92.1257V10.833H89.7796V18.2007Z" fill="white" stroke="white" stroke-width="0.2" stroke-miterlimit="10"/>
<path d="M103.054 17.1157C102.236 17.9308 101.129 18.3886 99.9743 18.3886C98.8197 18.3886 97.7123 17.9308 96.8947 17.1157C96.4902 16.706 96.1722 16.2192 95.9597 15.6842C95.7471 15.1491 95.6443 14.5768 95.6574 14.0013C95.6443 13.4257 95.7471 12.8534 95.9597 12.3184C96.1722 11.7834 96.4902 11.2965 96.8947 10.8869C97.2988 10.4826 97.7787 10.1621 98.3068 9.94354C98.835 9.725 99.4011 9.61278 99.9727 9.61328C100.544 9.61379 101.11 9.72702 101.638 9.94649C102.166 10.166 102.645 10.4874 103.048 10.8923C103.453 11.3009 103.772 11.7866 103.985 12.3207C104.199 12.8548 104.303 13.4263 104.291 14.0013C104.304 14.5768 104.201 15.149 103.988 15.684C103.776 16.219 103.458 16.7058 103.054 17.1157ZM97.6917 16.4123C98.2972 17.0169 99.1179 17.3564 99.9736 17.3564C100.829 17.3564 101.65 17.0169 102.255 16.4123C102.566 16.0944 102.809 15.7169 102.969 15.3025C103.13 14.8881 103.205 14.4454 103.189 14.0013C103.205 13.5571 103.13 13.1145 102.969 12.7001C102.809 12.2857 102.566 11.9081 102.255 11.5902C101.65 10.9857 100.829 10.6462 99.9736 10.6462C99.1179 10.6462 98.2972 10.9857 97.6917 11.5902C97.3816 11.9084 97.1391 12.286 96.9789 12.7004C96.8187 13.1148 96.7439 13.5573 96.7593 14.0013C96.7439 14.4453 96.8187 14.8878 96.9789 15.3022C97.1391 15.7165 97.3816 16.0942 97.6917 16.4123Z" fill="white" stroke="white" stroke-width="0.2" stroke-miterlimit="10"/>
<path d="M105.805 18.2007V9.80078H107.119L111.201 16.3352H111.247L111.201 14.7164V9.80078H112.281V18.2007H111.155L106.883 11.3497H106.837L106.883 12.9685V18.2007H105.805Z" fill="white" stroke="white" stroke-width="0.2" stroke-miterlimit="10"/>
<path d="M95.3891 30.4504C94.2124 30.4548 93.0634 30.8078 92.0872 31.4648C91.111 32.1218 90.3513 33.0533 89.9041 34.1417C89.4568 35.2302 89.3421 36.4267 89.5744 37.5802C89.8068 38.7338 90.3756 39.7927 91.2093 40.6231C92.0429 41.4536 93.104 42.0185 94.2584 42.2464C95.4128 42.4743 96.6089 42.3551 97.6956 41.9037C98.7824 41.4524 99.711 40.6892 100.364 39.7104C101.018 38.7317 101.366 37.5814 101.366 36.4047C101.378 35.6176 101.231 34.8363 100.934 34.1072C100.638 33.378 100.198 32.716 99.6399 32.1605C99.0822 31.605 98.4185 31.1673 97.6883 30.8735C96.958 30.5797 96.1762 30.4358 95.3891 30.4504ZM95.3891 40.0134C94.6645 40.0651 93.941 39.8974 93.313 39.5321C92.685 39.1669 92.1815 38.621 91.868 37.9656C91.5546 37.3102 91.4457 36.5756 91.5556 35.8575C91.6655 35.1393 91.9891 34.4709 92.4842 33.9392C92.9793 33.4075 93.623 33.0372 94.3315 32.8765C95.04 32.7158 95.7805 32.7721 96.4566 33.0382C97.1326 33.3042 97.7129 33.7676 98.1219 34.368C98.5309 34.9685 98.7497 35.6782 98.7497 36.4047C98.7717 36.8636 98.7016 37.3224 98.5437 37.7539C98.3857 38.1854 98.143 38.5809 97.8298 38.9172C97.5167 39.2534 97.1394 39.5237 96.7203 39.7119C96.3011 39.9002 95.8485 40.0027 95.3891 40.0134ZM82.3504 30.4504C81.1737 30.4548 80.0246 30.8078 79.0484 31.4647C78.0721 32.1217 77.3124 33.0532 76.8652 34.1416C76.418 35.2301 76.3032 36.4266 76.5355 37.5802C76.7678 38.7337 77.3367 39.7926 78.1703 40.6231C79.004 41.4536 80.065 42.0185 81.2194 42.2464C82.3739 42.4743 83.57 42.3551 84.6567 41.9037C85.7434 41.4524 86.6721 40.6892 87.3253 39.7105C87.9786 38.7317 88.3273 37.5814 88.3273 36.4047C88.3388 35.6176 88.192 34.8363 87.8954 34.1072C87.5989 33.3781 87.1587 32.7161 86.601 32.1605C86.0434 31.605 85.3797 31.1673 84.6495 30.8735C83.9192 30.5797 83.1374 30.4358 82.3504 30.4504ZM82.3504 40.0134C81.6257 40.0651 80.9023 39.8974 80.2742 39.5321C79.6462 39.1669 79.1427 38.621 78.8293 37.9656C78.5158 37.3102 78.4069 36.5756 78.5168 35.8575C78.6267 35.1393 78.9503 34.4709 79.4454 33.9392C79.9405 33.4075 80.5843 33.0372 81.2928 32.8765C82.0013 32.7158 82.7418 32.7721 83.4178 33.0382C84.0939 33.3042 84.6742 33.7676 85.0832 34.368C85.4922 34.9685 85.7109 35.6782 85.7109 36.4047C85.733 36.8636 85.6629 37.3224 85.5049 37.7539C85.347 38.1854 85.1043 38.5809 84.7911 38.9172C84.478 39.2535 84.1007 39.5237 83.6815 39.712C83.2624 39.9002 82.8098 40.0027 82.3504 40.0134ZM66.8401 32.2773V34.8034H72.8848C72.7976 35.9882 72.3128 37.1088 71.5089 37.9836C70.9032 38.601 70.1747 39.0846 69.3705 39.4032C68.5663 39.7217 67.7043 39.8681 66.8401 39.833C65.0732 39.809 63.3869 39.0904 62.1459 37.8325C60.9049 36.5746 60.2092 34.8787 60.2092 33.1117C60.2092 31.3448 60.9049 29.6488 62.1459 28.391C63.3869 27.1331 65.0732 26.4144 66.8401 26.3905C68.5372 26.3683 70.1745 27.0167 71.3962 28.1948L73.178 26.4131C72.3444 25.5878 71.3544 24.9372 70.2661 24.4996C69.1777 24.0619 68.013 23.846 66.8401 23.8644C65.6143 23.8465 64.3973 24.0725 63.2597 24.5292C62.1221 24.986 61.0867 25.6643 60.2136 26.5247C59.3405 27.3852 58.6472 28.4107 58.174 29.5415C57.7007 30.6723 57.457 31.8859 57.457 33.1117C57.457 34.3376 57.7007 35.5512 58.174 36.682C58.6472 37.8128 59.3405 38.8383 60.2136 39.6987C61.0867 40.5592 62.1221 41.2375 63.2597 41.6942C64.3973 42.151 65.6143 42.377 66.8401 42.3591C68.0377 42.4088 69.2322 42.2032 70.3444 41.756C71.4565 41.3088 72.4608 40.6303 73.2907 39.7653C74.7641 38.1571 75.5494 36.0361 75.4786 33.8561C75.4844 33.3267 75.439 32.798 75.3431 32.2773H66.8401ZM130.272 34.2394C129.914 33.1609 129.233 32.2187 128.321 31.5408C127.409 30.8629 126.31 30.4822 125.174 30.4504C124.409 30.4551 123.653 30.6149 122.952 30.9202C122.25 31.2254 121.618 31.6698 121.093 32.2263C120.568 32.7829 120.161 33.4401 119.897 34.1583C119.634 34.8765 119.518 35.6406 119.558 36.4047C119.541 37.1875 119.682 37.9658 119.972 38.693C120.262 39.4203 120.696 40.0816 121.248 40.6374C121.799 41.1932 122.457 41.6321 123.182 41.9279C123.907 42.2237 124.685 42.3704 125.468 42.3591C126.448 42.3645 127.415 42.1263 128.281 41.6657C129.148 41.2051 129.886 40.5366 130.429 39.7203L128.4 38.367C128.096 38.8721 127.665 39.2894 127.151 39.578C126.637 39.8666 126.057 40.0167 125.468 40.0134C124.861 40.0366 124.261 39.877 123.747 39.5553C123.232 39.2335 122.826 38.7645 122.581 38.2091L130.542 34.9162L130.272 34.2394ZM122.152 36.2243C122.124 35.791 122.183 35.3563 122.325 34.9459C122.467 34.5355 122.689 34.1575 122.979 33.8341C123.269 33.5106 123.62 33.2483 124.013 33.0623C124.405 32.8763 124.831 32.7705 125.264 32.751C125.716 32.7212 126.167 32.8252 126.56 33.0498C126.953 33.2744 127.271 33.6097 127.475 34.014L122.152 36.2243ZM115.679 41.9982H118.295V24.496H115.679V41.9982ZM111.393 31.781H111.303C110.905 31.3489 110.42 31.0066 109.879 30.7771C109.339 30.5477 108.755 30.4362 108.168 30.4504C106.633 30.5157 105.182 31.1716 104.119 32.2811C103.055 33.3906 102.462 34.868 102.462 36.4047C102.462 37.9415 103.055 39.4188 104.119 40.5284C105.182 41.6379 106.633 42.2938 108.168 42.3591C108.758 42.3748 109.343 42.2619 109.885 42.0282C110.426 41.7945 110.91 41.4456 111.303 41.0059H111.393V41.863C111.393 44.141 110.176 45.3589 108.213 45.3589C107.559 45.3432 106.925 45.1332 106.39 44.7556C105.856 44.3781 105.447 43.85 105.214 43.2387L102.935 44.1861C103.365 45.2314 104.096 46.1248 105.037 46.7516C105.977 47.3785 107.083 47.7103 108.213 47.7046C111.281 47.7046 113.874 45.9003 113.874 41.502V30.8111H111.393V31.781ZM108.394 40.0134C107.489 39.9367 106.647 39.5233 106.033 38.855C105.419 38.1868 105.078 37.3123 105.078 36.4047C105.078 35.4972 105.419 34.6227 106.033 33.9544C106.647 33.2861 107.489 32.8727 108.394 32.796C108.844 32.818 109.285 32.9303 109.69 33.1263C110.096 33.3223 110.458 33.5979 110.754 33.9368C111.051 34.2756 111.277 34.6708 111.417 35.0986C111.558 35.5265 111.611 35.9783 111.574 36.4272C111.609 36.8733 111.554 37.3219 111.412 37.7462C111.269 38.1704 111.043 38.5617 110.746 38.8965C110.449 39.2313 110.088 39.5027 109.684 39.6947C109.28 39.8866 108.841 39.995 108.394 40.0134ZM142.527 24.4963H136.267V41.9982H138.879V35.3673H142.527C143.266 35.4078 144.005 35.2972 144.7 35.0424C145.395 34.7875 146.03 34.3937 146.568 33.885C147.105 33.3763 147.533 32.7633 147.825 32.0836C148.118 31.404 148.269 30.6718 148.269 29.9318C148.269 29.1918 148.118 28.4596 147.825 27.7799C147.533 27.1002 147.105 26.4873 146.568 25.9786C146.03 25.4699 145.395 25.0761 144.7 24.8212C144.005 24.5664 143.266 24.4558 142.527 24.4963ZM142.595 32.9316H138.879V26.9322H142.595C142.994 26.9239 143.391 26.9954 143.762 27.1424C144.133 27.2894 144.471 27.5091 144.756 27.7884C145.041 28.0678 145.268 28.4013 145.423 28.7693C145.577 29.1374 145.657 29.5326 145.657 29.9319C145.657 30.3311 145.577 30.7263 145.423 31.0944C145.268 31.4624 145.041 31.7959 144.756 32.0753C144.471 32.3547 144.133 32.5743 143.762 32.7213C143.391 32.8684 142.994 32.9398 142.595 32.9316ZM158.739 30.4182C157.786 30.3625 156.837 30.5864 156.009 31.0624C155.181 31.5383 154.51 32.2457 154.078 33.0976L156.397 34.0658C156.627 33.643 156.975 33.2964 157.399 33.0684C157.823 32.8405 158.304 32.741 158.784 32.7823C159.447 32.7176 160.108 32.9183 160.623 33.3404C161.138 33.7624 161.464 34.3715 161.531 35.0339V35.2141C160.692 34.7684 159.756 34.5364 158.806 34.5386C156.307 34.5386 153.763 35.9121 153.763 38.479C153.787 39.02 153.92 39.5506 154.153 40.0393C154.386 40.528 154.715 40.9649 155.121 41.324C155.526 41.6831 155.999 41.9571 156.513 42.1298C157.026 42.3025 157.568 42.3703 158.108 42.3293C158.766 42.368 159.422 42.2297 160.008 41.9287C160.594 41.6278 161.089 41.1752 161.441 40.6181H161.531V41.9691H164.053V35.2592C164.053 32.1519 161.734 30.4182 158.739 30.4182ZM158.424 40.0101C157.568 40.0101 156.375 39.5824 156.375 38.524C156.375 37.1731 157.861 36.6551 159.144 36.6551C159.978 36.6329 160.802 36.8351 161.531 37.2406C161.435 37.9997 161.068 38.6985 160.496 39.2076C159.925 39.7167 159.189 40.0017 158.424 40.0101ZM173.24 30.8009L170.245 38.3889H170.155L167.048 30.8009H164.233L168.894 41.4061L166.237 47.3054H168.961L176.144 30.8009H173.24ZM149.71 41.9982H152.322V24.4963H149.71V41.9982Z" fill="white"/>
<path d="M14.61 10.5548C14.151 11.1037 13.9192 11.8073 13.9621 12.5216V43.484C13.919 44.1983 14.1508 44.902 14.61 45.4509L14.7136 45.5518L32.0582 28.2074V27.7982L14.7136 10.4531L14.61 10.5548Z" fill="url(#paint0_linear_612_9857)"/>
<path d="M37.8398 33.9913L32.0586 28.2074V27.7982L37.8412 22.0156L37.9715 22.09L44.8214 25.9821C46.7781 27.0937 46.7781 28.9126 44.8214 30.0248L37.9715 33.917L37.8398 33.9913Z" fill="url(#paint1_linear_612_9857)"/>
<path d="M37.9705 33.9134L32.0576 28L14.6094 45.448C15.0081 45.7996 15.5172 46.0007 16.0485 46.0164C16.5799 46.0321 17.1 45.8614 17.5187 45.5339L37.9705 33.9134Z" fill="url(#paint2_linear_612_9857)"/>
<path d="M37.9705 22.0883L17.5187 10.4678C17.1 10.1403 16.5799 9.96967 16.0485 9.98537C15.5172 10.0011 15.0081 10.2021 14.6094 10.5538L32.0576 28.0019L37.9705 22.0883Z" fill="url(#paint3_linear_612_9857)"/>
<path opacity="0.2" d="M37.8401 33.7852L17.5187 45.3313C17.1161 45.6378 16.6247 45.805 16.1187 45.8077C15.6127 45.8105 15.1195 45.6485 14.7137 45.3463L14.6094 45.4506L14.713 45.5515L14.7137 45.5508C15.1195 45.8532 15.6127 46.0153 16.1187 46.0125C16.6247 46.0098 17.1162 45.8425 17.5187 45.5359L37.9705 33.9154L37.8401 33.7852Z" fill="black"/>
<path opacity="0.12" d="M14.61 45.2442C14.151 44.6953 13.9192 43.9916 13.9621 43.2773V43.4819C13.9191 44.1962 14.1509 44.8998 14.61 45.4487L14.7143 45.3444L14.61 45.2442Z" fill="black"/>
<path opacity="0.12" d="M44.8201 29.8201L37.8398 33.7866L37.9702 33.9168L44.8201 30.0247C45.223 29.8498 45.5717 29.5701 45.8298 29.2147C46.088 28.8593 46.2461 28.4412 46.2877 28.0039C46.2011 28.3999 46.0234 28.7702 45.7686 29.0855C45.5138 29.4008 45.1891 29.6523 44.8201 29.8201Z" fill="black"/>
<path opacity="0.25" d="M17.5182 10.6719L44.8199 26.1838C45.189 26.3516 45.5139 26.6032 45.7687 26.9186C46.0234 27.2341 46.2011 27.6046 46.2875 28.0007C46.2461 27.5633 46.0882 27.145 45.83 26.7894C45.5719 26.4338 45.223 26.1541 44.8199 25.9793L17.5182 10.4674C15.5616 9.35562 13.9609 10.2791 13.9609 12.5202V12.7247C13.9609 10.4837 15.5616 9.5603 17.5182 10.6719Z" fill="white"/>
<defs>
<linearGradient id="paint0_linear_612_9857" x1="30.5201" y1="12.1952" x2="7.02486" y2="35.6905" gradientUnits="userSpaceOnUse">
<stop stop-color="#00A0FF"/>
<stop offset="0.00657" stop-color="#00A1FF"/>
<stop offset="0.2601" stop-color="#00BEFF"/>
<stop offset="0.5122" stop-color="#00D2FF"/>
<stop offset="0.7604" stop-color="#00DFFF"/>
<stop offset="1" stop-color="#00E3FF"/>
</linearGradient>
<linearGradient id="paint1_linear_612_9857" x1="47.369" y1="28.0035" x2="13.4933" y2="28.0035" gradientUnits="userSpaceOnUse">
<stop stop-color="#FFE000"/>
<stop offset="0.4087" stop-color="#FFBD00"/>
<stop offset="0.7754" stop-color="#FFA500"/>
<stop offset="1" stop-color="#FF9C00"/>
</linearGradient>
<linearGradient id="paint2_linear_612_9857" x1="34.7575" y1="31.2131" x2="2.89611" y2="63.0747" gradientUnits="userSpaceOnUse">
<stop stop-color="#FF3A44"/>
<stop offset="1" stop-color="#C31162"/>
</linearGradient>
<linearGradient id="paint3_linear_612_9857" x1="10.2161" y1="0.247268" x2="24.4435" y2="14.4748" gradientUnits="userSpaceOnUse">
<stop stop-color="#32A071"/>
<stop offset="0.0685" stop-color="#2DA771"/>
<stop offset="0.4762" stop-color="#15CF74"/>
<stop offset="0.8009" stop-color="#06E775"/>
<stop offset="1" stop-color="#00F076"/>
</linearGradient>
</defs>
</svg>
