<svg width="276" height="447" viewBox="0 0 276 447" fill="none" xmlns="http://www.w3.org/2000/svg">
<path d="M14.5219 29.5123C15.8782 30.8686 18.0774 30.8686 19.4337 29.5123C20.7901 28.1559 20.7901 25.9568 19.4337 24.6005C18.0773 23.2441 15.8782 23.2441 14.5219 24.6004C13.1655 25.9568 13.1655 28.1559 14.5219 29.5123Z" fill="#F2F2F2"/>
<path d="M36.6107 51.6011C37.9671 52.9575 40.1662 52.9575 41.5226 51.6011C42.879 50.2448 42.8789 48.0457 41.5226 46.6893C40.1662 45.333 37.9671 45.3329 36.6107 46.6893C35.2544 48.0457 35.2544 50.2448 36.6107 51.6011Z" fill="#F2F2F2"/>
<path d="M63.611 73.689C62.2595 75.0405 60.0506 75.0405 58.6991 73.689C57.3476 72.3375 57.3476 70.1287 58.6991 68.7772C60.0506 67.4257 62.2595 67.4257 63.6109 68.7772C64.9624 70.1287 64.9624 72.3375 63.611 73.689Z" fill="#F2F2F2"/>
<path d="M85.6998 95.7779C84.3483 97.1294 82.1395 97.1294 80.788 95.7779C79.4365 94.4264 79.4365 92.2175 80.788 90.8661C82.1395 89.5146 84.3483 89.5146 85.6998 90.8661C87.0513 92.2176 87.0513 94.4264 85.6998 95.7779Z" fill="#F2F2F2"/>
<path d="M102.877 117.867C104.233 119.223 106.432 119.223 107.789 117.867C109.145 116.51 109.145 114.311 107.789 112.955C106.432 111.599 104.233 111.599 102.877 112.955C101.52 114.311 101.52 116.51 102.877 117.867Z" fill="#F2F2F2"/>
<path d="M124.966 139.957C126.322 141.313 128.521 141.313 129.878 139.957C131.234 138.6 131.234 136.401 129.878 135.045C128.521 133.688 126.322 133.688 124.966 135.045C123.61 136.401 123.61 138.6 124.966 139.957Z" fill="#F2F2F2"/>
<path d="M147.055 162.045C148.411 163.402 150.61 163.402 151.967 162.045C153.323 160.689 153.323 158.49 151.967 157.134C150.61 155.777 148.411 155.777 147.055 157.134C145.698 158.49 145.698 160.689 147.055 162.045Z" fill="#F2F2F2"/>
<path d="M169.142 184.133C170.499 185.49 172.698 185.49 174.054 184.133C175.41 182.777 175.41 180.578 174.054 179.222C172.698 177.865 170.499 177.865 169.142 179.222C167.786 180.578 167.786 182.777 169.142 184.133Z" fill="#F2F2F2"/>
<path d="M191.231 206.222C192.588 207.579 194.787 207.579 196.143 206.222C197.5 204.866 197.5 202.667 196.143 201.31C194.787 199.954 192.588 199.954 191.231 201.31C189.875 202.667 189.875 204.866 191.231 206.222Z" fill="#F2F2F2"/>
<path d="M213.321 228.311C214.677 229.667 216.876 229.667 218.233 228.311C219.589 226.955 219.589 224.756 218.233 223.399C216.876 222.043 214.677 222.043 213.321 223.399C211.965 224.756 211.965 226.955 213.321 228.311Z" fill="#F2F2F2"/>
<path d="M-5.11145 49.1451C-3.75508 50.5015 -1.55597 50.5015 -0.199603 49.1451C1.15676 47.7887 1.15677 45.5896 -0.199598 44.2333C-1.55597 42.8769 -3.75507 42.8769 -5.11144 44.2333C-6.46781 45.5896 -6.46782 47.7887 -5.11145 49.1451Z" fill="#F2F2F2"/>
<path d="M16.9774 71.234C18.3338 72.5904 20.5329 72.5904 21.8893 71.234C23.2456 69.8776 23.2456 67.6785 21.8893 66.3221C20.5329 64.9658 18.3338 64.9658 16.9774 66.3221C15.6211 67.6785 15.6211 69.8776 16.9774 71.234Z" fill="#F2F2F2"/>
<path d="M43.9776 93.3219C42.6262 94.6733 40.4173 94.6733 39.0658 93.3219C37.7143 91.9704 37.7143 89.7615 39.0658 88.41C40.4173 87.0585 42.6262 87.0585 43.9776 88.41C45.3291 89.7615 45.3291 91.9704 43.9776 93.3219Z" fill="#F2F2F2"/>
<path d="M66.0665 115.411C64.715 116.762 62.5062 116.762 61.1547 115.411C59.8032 114.059 59.8032 111.85 61.1547 110.499C62.5062 109.147 64.715 109.147 66.0665 110.499C67.418 111.85 67.418 114.059 66.0665 115.411Z" fill="#F2F2F2"/>
<path d="M83.2435 137.5C84.5999 138.856 86.799 138.856 88.1554 137.5C89.5118 136.143 89.5118 133.944 88.1554 132.588C86.799 131.231 84.5999 131.231 83.2435 132.588C81.8872 133.944 81.8872 136.143 83.2435 137.5Z" fill="#F2F2F2"/>
<path d="M105.333 159.588C106.689 160.945 108.888 160.945 110.244 159.588C111.601 158.232 111.601 156.033 110.244 154.677C108.888 153.32 106.689 153.32 105.333 154.677C103.976 156.033 103.976 158.232 105.333 159.588Z" fill="#F2F2F2"/>
<path d="M127.422 181.677C128.778 183.034 130.977 183.034 132.333 181.677C133.69 180.321 133.69 178.122 132.333 176.765C130.977 175.409 128.778 175.409 127.422 176.765C126.065 178.122 126.065 180.321 127.422 181.677Z" fill="#F2F2F2"/>
<path d="M149.509 203.765C150.865 205.122 153.064 205.122 154.421 203.765C155.777 202.409 155.777 200.21 154.421 198.853C153.064 197.497 150.865 197.497 149.509 198.853C148.153 200.21 148.153 202.409 149.509 203.765Z" fill="#F2F2F2"/>
<path d="M171.599 225.855C172.955 227.211 175.154 227.211 176.511 225.855C177.867 224.499 177.867 222.3 176.511 220.943C175.154 219.587 172.955 219.587 171.599 220.943C170.242 222.3 170.242 224.499 171.599 225.855Z" fill="#F2F2F2"/>
<path d="M193.688 247.944C195.044 249.3 197.243 249.3 198.599 247.944C199.956 246.588 199.956 244.388 198.599 243.032C197.243 241.676 195.044 241.676 193.688 243.032C192.331 244.388 192.331 246.588 193.688 247.944Z" fill="#F2F2F2"/>
<path d="M-2.6549 90.8678C-1.29853 92.2241 0.900576 92.2241 2.25694 90.8678C3.61331 89.5114 3.61332 87.3123 2.25695 85.9559C0.900582 84.5996 -1.29853 84.5996 -2.6549 85.9559C-4.01127 87.3123 -4.01127 89.5114 -2.6549 90.8678Z" fill="#F2F2F2"/>
<path d="M24.3451 112.956C22.9936 114.307 20.7847 114.307 19.4332 112.956C18.0817 111.604 18.0818 109.395 19.4332 108.044C20.7847 106.692 22.9936 106.692 24.3451 108.044C25.6966 109.395 25.6966 111.604 24.3451 112.956Z" fill="#F2F2F2"/>
<path d="M46.4339 135.045C45.0825 136.396 42.8736 136.396 41.5221 135.045C40.1706 133.693 40.1706 131.484 41.5221 130.133C42.8736 128.781 45.0825 128.781 46.434 130.133C47.7854 131.484 47.7854 133.693 46.4339 135.045Z" fill="#F2F2F2"/>
<path d="M63.6112 157.133C64.9676 158.49 67.1667 158.49 68.5231 157.133C69.8794 155.777 69.8794 153.578 68.5231 152.222C67.1667 150.865 64.9676 150.865 63.6112 152.222C62.2548 153.578 62.2548 155.777 63.6112 157.133Z" fill="#F2F2F2"/>
<path d="M85.7001 179.222C87.0564 180.579 89.2556 180.579 90.6119 179.222C91.9683 177.866 91.9683 175.667 90.6119 174.31C89.2556 172.954 87.0564 172.954 85.7001 174.31C84.3437 175.667 84.3437 177.866 85.7001 179.222Z" fill="#F2F2F2"/>
<path d="M107.789 201.311C109.145 202.667 111.344 202.667 112.701 201.311C114.057 199.955 114.057 197.756 112.701 196.399C111.344 195.043 109.145 195.043 107.789 196.399C106.433 197.756 106.433 199.955 107.789 201.311Z" fill="#F2F2F2"/>
<path d="M129.877 223.399C131.233 224.755 133.432 224.755 134.788 223.399C136.145 222.043 136.145 219.844 134.788 218.487C133.432 217.131 131.233 217.131 129.877 218.487C128.52 219.844 128.52 222.043 129.877 223.399Z" fill="#F2F2F2"/>
<path d="M151.965 245.488C153.322 246.844 155.521 246.844 156.877 245.488C158.234 244.132 158.234 241.932 156.877 240.576C155.521 239.22 153.322 239.22 151.965 240.576C150.609 241.932 150.609 244.132 151.965 245.488Z" fill="#F2F2F2"/>
<path d="M174.055 267.577C175.411 268.933 177.611 268.933 178.967 267.577C180.323 266.22 180.323 264.021 178.967 262.665C177.611 261.309 175.411 261.309 174.055 262.665C172.699 264.021 172.699 266.22 174.055 267.577Z" fill="#F2F2F2"/>
<path d="M4.71226 132.587C3.36078 133.939 1.15192 133.939 -0.199566 132.587C-1.55105 131.236 -1.55106 129.027 -0.199577 127.676C1.15191 126.324 3.36078 126.324 4.71226 127.676C6.06375 129.027 6.06375 131.236 4.71226 132.587Z" fill="#F2F2F2"/>
<path d="M26.8014 154.676C25.4499 156.028 23.241 156.028 21.8896 154.676C20.5381 153.325 20.5381 151.116 21.8895 149.765C23.241 148.413 25.4499 148.413 26.8014 149.765C28.1529 151.116 28.1529 153.325 26.8014 154.676Z" fill="#F2F2F2"/>
<path d="M48.8903 176.765C47.5388 178.117 45.3299 178.117 43.9784 176.765C42.6269 175.414 42.6269 173.205 43.9784 171.853C45.3299 170.502 47.5388 170.502 48.8903 171.853C50.2417 173.205 50.2417 175.414 48.8903 176.765Z" fill="#F2F2F2"/>
<path d="M70.9791 198.854C69.6276 200.206 67.4188 200.206 66.0673 198.854C64.7158 197.503 64.7158 195.294 66.0673 193.942C67.4188 192.591 69.6276 192.591 70.9791 193.942C72.3306 195.294 72.3306 197.503 70.9791 198.854Z" fill="#F2F2F2"/>
<path d="M93.0682 220.943C91.7167 222.294 89.5079 222.294 88.1564 220.943C86.8049 219.591 86.8049 217.383 88.1564 216.031C89.5079 214.68 91.7167 214.68 93.0682 216.031C94.4197 217.383 94.4197 219.591 93.0682 220.943Z" fill="#F2F2F2"/>
<path d="M115.156 243.031C113.804 244.382 111.595 244.382 110.244 243.031C108.892 241.679 108.892 239.47 110.244 238.119C111.595 236.768 113.804 236.768 115.156 238.119C116.507 239.47 116.507 241.679 115.156 243.031Z" fill="#F2F2F2"/>
<path d="M137.245 265.12C135.894 266.471 133.685 266.471 132.333 265.12C130.982 263.768 130.982 261.559 132.333 260.208C133.685 258.856 135.894 258.856 137.245 260.208C138.597 261.559 138.597 263.768 137.245 265.12Z" fill="#F2F2F2"/>
<path d="M159.334 287.209C157.983 288.56 155.774 288.56 154.423 287.209C153.071 285.857 153.071 283.648 154.422 282.297C155.774 280.945 157.983 280.945 159.334 282.297C160.686 283.648 160.686 285.857 159.334 287.209Z" fill="#F2F2F2"/>
<path d="M7.16807 174.309C5.81659 175.661 3.60772 175.661 2.25623 174.309C0.904749 172.958 0.904749 170.749 2.25623 169.397C3.60772 168.046 5.8166 168.046 7.16808 169.397C8.51957 170.749 8.51956 172.958 7.16807 174.309Z" fill="#F2F2F2"/>
<path d="M29.2572 196.399C27.9057 197.751 25.6968 197.751 24.3453 196.399C22.9939 195.048 22.9939 192.839 24.3453 191.487C25.6968 190.136 27.9057 190.136 29.2572 191.487C30.6087 192.839 30.6087 195.048 29.2572 196.399Z" fill="#F2F2F2"/>
<path d="M51.3461 218.488C49.9946 219.839 47.7857 219.839 46.4342 218.488C45.0827 217.136 45.0827 214.928 46.4342 213.576C47.7857 212.225 49.9946 212.225 51.3461 213.576C52.6975 214.928 52.6975 217.136 51.3461 218.488Z" fill="#F2F2F2"/>
<path d="M73.4349 240.577C72.0834 241.928 69.8746 241.928 68.5231 240.577C67.1716 239.225 67.1716 237.016 68.5231 235.665C69.8746 234.313 72.0834 234.313 73.4349 235.665C74.7864 237.016 74.7864 239.225 73.4349 240.577Z" fill="#F2F2F2"/>
<path d="M95.5226 262.665C94.1711 264.016 91.9622 264.016 90.6107 262.665C89.2592 261.313 89.2592 259.104 90.6107 257.753C91.9622 256.401 94.1711 256.401 95.5226 257.753C96.8741 259.104 96.874 261.313 95.5226 262.665Z" fill="#F2F2F2"/>
<path d="M117.611 284.754C116.26 286.105 114.051 286.105 112.7 284.754C111.348 283.402 111.348 281.193 112.7 279.842C114.051 278.49 116.26 278.49 117.611 279.842C118.963 281.193 118.963 283.402 117.611 284.754Z" fill="#F2F2F2"/>
<path d="M139.701 306.842C138.35 308.194 136.141 308.194 134.789 306.842C133.438 305.491 133.438 303.282 134.789 301.931C136.141 300.579 138.35 300.579 139.701 301.931C141.053 303.282 141.053 305.491 139.701 306.842Z" fill="#F2F2F2"/>
<path d="M9.62463 216.031C8.27314 217.382 6.06426 217.382 4.71278 216.031C3.36129 214.679 3.36129 212.47 4.71278 211.119C6.06426 209.768 8.27314 209.768 9.62463 211.119C10.9761 212.47 10.9761 214.679 9.62463 216.031Z" fill="#F2F2F2"/>
<path d="M31.7135 238.12C30.362 239.471 28.1531 239.471 26.8016 238.12C25.4501 236.768 25.4502 234.559 26.8016 233.208C28.1531 231.856 30.362 231.856 31.7135 233.208C33.065 234.559 33.065 236.768 31.7135 238.12Z" fill="#F2F2F2"/>
<path d="M53.8023 260.209C52.4509 261.56 50.242 261.56 48.8905 260.209C47.539 258.857 47.539 256.648 48.8905 255.297C50.242 253.945 52.4509 253.945 53.8023 255.297C55.1538 256.648 55.1538 258.857 53.8023 260.209Z" fill="#F2F2F2"/>
<path d="M75.89 282.296C74.5385 283.648 72.3296 283.648 70.9782 282.296C69.6267 280.945 69.6267 278.736 70.9782 277.385C72.3296 276.033 74.5385 276.033 75.89 277.385C77.2415 278.736 77.2415 280.945 75.89 282.296Z" fill="#F2F2F2"/>
<path d="M97.9796 304.385C96.6281 305.737 94.4192 305.737 93.0678 304.385C91.7163 303.034 91.7163 300.825 93.0678 299.474C94.4192 298.122 96.6281 298.122 97.9796 299.474C99.3311 300.825 99.3311 303.034 97.9796 304.385Z" fill="#F2F2F2"/>
<path d="M120.068 326.475C118.717 327.827 116.508 327.827 115.157 326.475C113.805 325.124 113.805 322.915 115.157 321.563C116.508 320.212 118.717 320.212 120.068 321.563C121.42 322.915 121.42 325.124 120.068 326.475Z" fill="#F2F2F2"/>
<path d="M7.16809 257.753C8.52446 259.11 10.7236 259.11 12.0799 257.753C13.4363 256.397 13.4363 254.198 12.0799 252.842C10.7236 251.485 8.52447 251.485 7.1681 252.842C5.81173 254.198 5.81172 256.397 7.16809 257.753Z" fill="#F2F2F2"/>
<path d="M29.2572 279.842C30.6136 281.199 32.8127 281.199 34.169 279.842C35.5254 278.486 35.5254 276.287 34.169 274.931C32.8127 273.574 30.6136 273.574 29.2572 274.931C27.9008 276.287 27.9008 278.486 29.2572 279.842Z" fill="#F2F2F2"/>
<path d="M51.3446 301.929C52.701 303.286 54.9001 303.286 56.2564 301.929C57.6128 300.573 57.6128 298.374 56.2565 297.017C54.9001 295.661 52.701 295.661 51.3446 297.017C49.9882 298.374 49.9882 300.573 51.3446 301.929Z" fill="#F2F2F2"/>
<path d="M73.4342 324.019C74.7906 325.376 76.9897 325.376 78.3461 324.019C79.7024 322.663 79.7024 320.464 78.3461 319.107C76.9897 317.751 74.7906 317.751 73.4342 319.107C72.0778 320.464 72.0778 322.663 73.4342 324.019Z" fill="#F2F2F2"/>
<path d="M95.5231 346.108C96.8794 347.464 99.0786 347.464 100.435 346.108C101.791 344.752 101.791 342.553 100.435 341.196C99.0786 339.84 96.8794 339.84 95.5231 341.196C94.1667 342.553 94.1667 344.752 95.5231 346.108Z" fill="#F2F2F2"/>
<path d="M14.5218 299.49C13.1703 300.841 10.9615 300.841 9.60998 299.49C8.2585 298.138 8.25851 295.929 9.60999 294.578C10.9615 293.227 13.1703 293.227 14.5218 294.578C15.8733 295.929 15.8878 298.124 14.5218 299.49Z" fill="#F2F2F2"/>
<path d="M36.6095 321.578C35.258 322.929 33.0491 322.929 31.6976 321.578C30.3462 320.226 30.3462 318.017 31.6976 316.666C33.0491 315.314 35.258 315.314 36.6095 316.666C37.961 318.017 37.9755 320.212 36.6095 321.578Z" fill="#F2F2F2"/>
<path d="M58.6984 343.667C57.3469 345.018 55.138 345.018 53.7865 343.667C52.435 342.315 52.435 340.106 53.7865 338.755C55.138 337.403 57.3469 337.403 58.6984 338.755C60.0498 340.106 60.0644 342.301 58.6984 343.667Z" fill="#F2F2F2"/>
<path d="M80.788 365.755C79.4365 367.107 77.2276 367.107 75.8761 365.755C74.5246 364.404 74.5246 362.195 75.8761 360.844C77.2276 359.492 79.4365 359.492 80.788 360.844C82.1394 362.195 82.154 364.389 80.788 365.755Z" fill="#F2F2F2"/>
<path d="M16.9769 341.211C15.6254 342.562 13.4166 342.562 12.0651 341.211C10.7136 339.859 10.7136 337.65 12.0651 336.299C13.4166 334.947 15.6254 334.947 16.9769 336.299C18.3284 337.65 18.3429 339.845 16.9769 341.211Z" fill="#F2F2F2"/>
<path d="M39.0665 363.299C37.715 364.651 35.5062 364.651 34.1547 363.299C32.8032 361.948 32.8032 359.739 34.1547 358.388C35.5062 357.036 37.715 357.036 39.0665 358.388C40.418 359.739 40.4325 361.933 39.0665 363.299Z" fill="#F2F2F2"/>
<path d="M61.1554 385.388C59.8039 386.74 57.595 386.74 56.2435 385.388C54.8921 384.037 54.8921 381.828 56.2435 380.476C57.595 379.125 59.8039 379.125 61.1554 380.476C62.5069 381.828 62.5214 384.022 61.1554 385.388Z" fill="#F2F2F2"/>
<path d="M19.4322 382.932C18.0808 384.284 15.8719 384.284 14.5204 382.932C13.1689 381.581 13.1689 379.372 14.5204 378.02C15.8719 376.669 18.0808 376.669 19.4322 378.02C20.7837 379.372 20.7837 381.581 19.4322 382.932Z" fill="#F2F2F2"/>
<path d="M41.5218 405.021C40.1704 406.373 37.9615 406.373 36.61 405.021C35.2585 403.67 35.2585 401.461 36.61 400.109C37.9615 398.758 40.1704 398.758 41.5218 400.109C42.8733 401.461 42.8733 403.67 41.5218 405.021Z" fill="#F2F2F2"/>
<path d="M-5.11169 402.564C-3.75532 403.92 -1.5562 403.92 -0.199836 402.564C1.15653 401.208 1.15653 399.009 -0.199836 397.652C-1.5562 396.296 -3.75532 396.296 -5.11169 397.652C-6.46806 399.009 -6.46806 401.208 -5.11169 402.564Z" fill="#F2F2F2"/>
<path d="M16.9772 424.653C18.3335 426.009 20.5327 426.009 21.889 424.653C23.2454 423.297 23.2454 421.097 21.889 419.741C20.5327 418.385 18.3335 418.385 16.9772 419.741C15.6208 421.097 15.6208 423.297 16.9772 424.653Z" fill="#F2F2F2"/>
<path d="M2.25646 444.287C0.904979 445.638 -1.3039 445.638 -2.65539 444.287C-4.00687 442.935 -4.00687 440.726 -2.65539 439.375C-1.3039 438.023 0.904979 438.023 2.25646 439.375C3.60795 440.726 3.60795 442.935 2.25646 444.287Z" fill="#F2F2F2"/>
</svg>
