<svg width="500" height="500" viewBox="0 0 500 500" fill="none" xmlns="http://www.w3.org/2000/svg">
<g clip-path="url(#clip0_71_9954)">
<path d="M500 0H0V500H500V0Z" fill="white"/>
<path d="M218.389 165.491C203.019 109.734 133.756 91.7727 94.063 133.443C93.493 134.041 92.924 134.65 92.354 135.268C35.447 197.128 62.33 349.571 181.094 388.208C299.858 426.845 423.388 356.29 430.328 293.218C437.268 230.146 382.476 210.328 297.446 227.964C249.404 237.928 227.957 200.201 218.389 165.491Z" fill="#E0D5F8"/>
<path d="M317.184 175.028C301.294 177.615 296.89 191.693 309.159 201.68C313.214 204.981 319.006 207.724 327.256 209.092C358.685 214.306 375.362 200.401 362.764 182.372C354.99 171.245 332.932 172.464 317.184 175.028Z" fill="#E0D5F8"/>
<path d="M71.265 288.974C63.462 274.892 48.724 275.503 43.469 290.424C41.732 295.356 41.107 301.733 42.606 309.961C48.315 341.303 67.037 352.303 79.75 334.356C87.597 323.279 78.998 302.93 71.265 288.974Z" fill="#E0D5F8"/>
<path d="M441.528 300.547C440.064 308.21 446.392 313.638 453.562 310.685C455.932 309.709 458.322 307.827 460.449 304.519C468.55 291.917 464.447 281.107 453.168 282.217C446.205 282.902 442.978 292.953 441.528 300.547Z" fill="#E0D5F8"/>
<path d="M401.357 219.683C408.994 221.277 414.529 215.043 411.698 207.824C410.762 205.438 408.922 203.016 405.651 200.833C393.189 192.519 382.311 196.437 383.228 207.733C383.794 214.706 393.789 218.104 401.357 219.683Z" fill="#E0D5F8"/>
<path d="M215.736 137.681C221.783 142.611 229.566 139.623 230.375 131.911C230.643 129.362 230.123 126.364 228.223 122.921C220.985 109.804 209.524 108.277 205.14 118.728C202.434 125.18 209.744 132.796 215.736 137.681Z" fill="#E0D5F8"/>
<path d="M457.557 412.875C460.18 413.313 462.916 412.579 464.743 410.647C465.934 409.388 466.743 407.833 466.742 406.343C466.742 406.322 466.742 406.3 466.742 406.279C466.707 395.59 479.84 396.301 484.056 383.232C488.272 370.163 471.611 369.062 462.094 377.131C455.252 382.933 447.04 374.828 437.094 381.595C428.459 387.468 433.268 401.929 419.104 397.408C414.581 395.963 410.531 397.356 407.113 399.921C403.178 402.874 400.616 407.013 399.549 411.508L400.677 412.305C428.615 429.428 441.204 410.144 457.557 412.875Z" fill="#9C78ED"/>
<path d="M429.875 412.304L466.912 388.53C467.408 388.212 467.551 387.551 467.233 387.056C466.915 386.56 466.254 386.417 465.759 386.735L425.926 412.304H429.875Z" fill="#7846D1"/>
<path d="M427.88 341.573C426.317 318.27 426.059 293.834 427.794 277.632C430.06 256.465 435.185 241.73 443.028 233.838C443.548 233.315 444.393 233.312 444.917 233.832C445.44 234.352 445.443 235.198 444.923 235.721C431.212 249.518 426.282 286.565 430.637 342.931L427.88 341.573Z" fill="#5B23A9"/>
<path d="M431.386 258.932C431.386 258.932 420.222 258.914 421.02 239.287C421.02 239.287 438.101 244.16 431.386 258.932Z" fill="#7846D1"/>
<path d="M430.451 269.029C430.451 269.029 429.847 257.881 449.489 257.586C449.489 257.586 445.573 274.912 430.451 269.029Z" fill="#7846D1"/>
<path d="M438.988 241.498C438.988 241.498 434.702 231.189 453.121 224.362C453.121 224.362 455.207 242.003 438.988 241.498Z" fill="#7846D1"/>
<path d="M427.944 289.286C427.944 289.286 417.432 293.046 411.544 274.305C411.544 274.305 429.267 273.113 427.944 289.286Z" fill="#7846D1"/>
<path d="M428.549 299.717C428.549 299.717 426.027 288.841 445.321 285.154C445.321 285.154 444.46 302.896 428.549 299.717Z" fill="#7846D1"/>
<path d="M427.958 314.081C427.958 314.081 417.519 318.039 411.277 299.414C411.277 299.414 428.974 297.887 427.958 314.081Z" fill="#7846D1"/>
<path d="M103.982 393.508L100.94 393.388L99.3269 393.323L94.7569 393.14C94.7569 393.14 52.5189 321.435 78.9789 298.051C87.1249 290.852 101.366 296.821 98.2179 329.907C95.2999 360.578 103.982 393.508 103.982 393.508Z" fill="#7846D1"/>
<path d="M100.94 393.388L99.327 393.323C91.953 375.949 88.231 357.286 86.383 344.186C84.189 328.631 84.087 317.336 84.087 317.224C84.083 316.821 84.4079 316.491 84.8109 316.49C85.2139 316.486 85.544 316.811 85.546 317.213C85.547 317.326 85.647 328.542 87.832 344.006C89.691 357.17 93.453 375.986 100.94 393.388Z" fill="#5B23A9"/>
<path d="M112.373 407.874L108.242 409.408L106.05 410.221L99.841 412.523C99.841 412.523 3.44598 340.243 25.775 294.254C32.649 280.096 55.004 280.136 69.233 326.101C82.424 368.709 112.373 407.874 112.373 407.874Z" fill="#9C78ED"/>
<path d="M108.242 409.408L106.05 410.221C86.516 391.115 71.143 368.25 61.375 351.775C49.776 332.212 43.3459 317.177 43.2849 317.027C43.0549 316.49 43.3059 315.869 43.8429 315.643C44.3799 315.413 45.001 315.664 45.228 316.199C45.292 316.35 51.6759 331.281 63.2109 350.727C73.0299 367.281 88.5409 390.328 108.242 409.408Z" fill="#7846D1"/>
<path d="M441.867 411.964C441.82 410.298 441.624 408.615 441.259 406.945C437.793 391.081 447.221 388.088 459.652 383.078C472.079 378.067 473.558 363.184 464.757 350.817C455.954 338.447 471.77 328.506 465.947 309.891C460.123 291.276 439.897 303.658 435.472 320.819C432.293 333.158 416.122 330.488 410.134 346.49C404.932 360.381 422.366 373.211 402.231 379.579C395.8 381.61 392.245 386.546 390.383 392.323C388.24 398.974 388.661 405.876 391.108 411.963L441.867 411.964Z" fill="#7846D1"/>
<path d="M417.24 411.965L450.405 330.092C450.719 329.317 450.344 328.433 449.568 328.119C448.793 327.805 447.909 328.18 447.595 328.956L413.97 411.965H417.24Z" fill="#5B23A9"/>
<path d="M140.905 164.442C140.905 164.442 141.602 149.702 132.637 146.871C118.677 142.462 114.791 149.702 112.637 154.486C109.876 160.617 111.053 172.643 119.382 173.804C131.816 175.538 140.137 168.561 140.905 164.442Z" fill="#403657"/>
<path d="M149.904 213.733C157.159 213.733 163.426 208.649 164.912 201.547C165.982 196.432 167.027 191.904 167.027 189.36V189.294C167.092 188.49 167.128 187.686 167.134 186.894C167.229 175.263 160.059 154.02 134.837 157.396C134.837 157.396 113.909 159.784 111.527 180.235C111.527 180.235 110.535 189.67 109.876 196.502C109.864 196.623 109.852 196.743 109.84 196.862C108.92 205.892 116.021 213.731 125.097 213.731H149.904V213.733Z" fill="#403657"/>
<path d="M179.847 238.042C179.847 238.042 184.307 273.373 189.401 291.511C189.401 291.511 196.639 288.14 206.112 283.563C216.384 278.601 231.151 269.547 231.151 269.547L234.883 278.537C234.883 278.537 196.738 314.538 184.103 316.577C171.468 318.615 163.724 273.373 163.724 273.373L179.847 238.042Z" fill="#7846D1"/>
<path d="M230.369 270.601C230.369 270.601 229.321 265.581 231.567 262.184C233.813 258.787 237.233 252.427 241.248 251.099C244.608 249.988 239.651 255.659 239.503 259.257C239.503 259.257 244.5 258.63 248.104 257.459C251.274 256.429 257.547 255.144 260.456 254.572C261.253 254.415 261.765 255.42 261.151 255.952C260.159 256.812 258.086 257.893 253.799 258.926C253.799 258.926 264.248 256.948 265.332 258.548C266.416 260.148 253.307 262.382 253.307 262.382C253.307 262.382 263.478 261.78 263.743 263.376C263.904 264.347 253.367 266.572 253.367 266.572C253.367 266.572 262.983 266.83 260.657 268.348C259.98 268.79 241.364 270.885 234.883 278.537C234.883 278.537 230.523 274.031 230.369 270.601Z" fill="#FFA681"/>
<path d="M115.526 231.083C115.526 231.083 94.1859 237.377 75.8079 241.523C75.8079 241.523 75.3309 233.553 74.8499 223.043C74.3279 211.647 75.2669 194.351 75.2669 194.351L65.5839 195.345C65.5839 195.345 52.0629 246.024 56.2799 258.107C60.4979 270.191 114.056 253.264 114.056 253.264L115.526 231.083Z" fill="#7846D1"/>
<path d="M74.7119 195.541C74.7119 195.541 79.6259 194.075 81.5449 190.483C83.4649 186.891 88.7679 179.658 85.4949 176.98C84.2999 176.002 83.4389 180.268 80.3439 182.11C80.3439 182.11 78.5189 177.417 77.8339 173.689C77.2309 170.41 75.3779 164.282 74.4979 161.451C74.2569 160.676 73.1289 160.703 72.9539 161.496C72.6699 162.778 72.7049 165.116 73.8359 169.378C73.8359 169.378 70.6059 159.246 68.6819 159.054C66.7589 158.862 71.0299 171.455 71.0299 171.455C71.0299 171.455 66.7209 162.222 65.1919 162.749C64.2609 163.069 67.3159 173.396 67.3159 173.396C67.3159 173.396 62.5149 165.06 62.2859 167.828C62.2189 168.634 69.2319 186.005 65.5839 195.346C65.5839 195.346 71.6219 197.037 74.7119 195.541Z" fill="#FFA681"/>
<path d="M179.049 374.932L179.219 375.687C162.602 386.938 100.444 379.256 100.444 379.256C100.551 377.952 100.689 376.588 100.871 375.178C101.065 373.605 101.306 371.977 101.582 370.294C102.333 365.769 103.34 360.877 104.471 355.842C104.835 354.257 105.198 352.649 105.581 351.033C106.703 346.228 107.897 341.355 109.027 336.609C109.418 334.977 109.802 333.368 110.173 331.768C110.691 329.547 111.181 327.362 111.651 325.244C112.263 322.426 112.809 319.719 113.267 317.17C113.575 315.455 113.844 313.811 114.049 312.25C114.286 310.598 114.448 309.037 114.547 307.591C113.559 303.94 112.638 300.363 111.781 296.894C111.354 295.128 110.935 293.401 110.524 291.693C109.247 286.228 108.125 281.027 107.145 276.155C106.797 274.385 106.453 272.662 106.141 270.982C105.054 265.236 104.177 260.036 103.47 255.499C103.197 253.689 102.94 252.002 102.715 250.409C102.466 248.666 102.253 247.054 102.067 245.592C101.233 239.158 100.945 235.511 100.945 235.511C101.091 235.393 101.245 235.286 101.403 235.171C103.288 233.831 106.236 232.571 109.512 231.452C112.97 230.266 116.795 229.235 120.166 228.421C120.676 228.299 121.178 228.18 121.668 228.065C126.098 227.03 129.41 226.429 129.41 226.429C144.482 229.587 148.782 227.555 148.782 227.555L156.445 229.815L157.346 230.131L162.93 232.091L163.155 232.174L173.169 235.699L179.847 238.042L177.255 249.996L176.125 255.216L172.711 270.952L171.589 276.153L168.19 291.834L167.072 296.983L164.258 309.976L164.819 312.458L165.918 317.275L167.661 324.934L169.246 331.861L170.337 336.662L173.617 351.106L174.712 355.88L177.964 370.158L179.049 374.932Z" fill="#9C78ED"/>
<path d="M157.345 230.131C155.741 239.552 151.173 249.03 141.677 250.053C130.205 251.294 124.257 236.904 121.669 228.064C126.099 227.029 130.69 226.017 130.69 226.017C145.762 229.174 148.67 227.251 148.67 227.251L156.444 229.815L157.345 230.131Z" fill="#FFA681"/>
<path d="M140.511 242.139C128.488 242.139 125.613 227.29 125.585 227.137C125.526 226.815 125.739 226.506 126.06 226.447C126.383 226.389 126.691 226.6 126.751 226.922C126.861 227.518 129.588 241.53 141.21 240.936C151.381 240.422 151.979 229.134 152 228.653C152.014 228.326 152.286 228.07 152.617 228.086C152.944 228.1 153.198 228.376 153.184 228.702C153.179 228.83 152.526 241.55 141.27 242.119C141.013 242.133 140.76 242.139 140.511 242.139Z" fill="white"/>
<path d="M118.943 238.044C118.943 239.665 117.629 240.979 116.008 240.979C114.387 240.979 113.073 239.665 113.073 238.044C113.073 236.423 114.387 235.109 116.008 235.109C117.629 235.109 118.943 236.423 118.943 238.044Z" fill="#7846D1"/>
<path d="M113.065 252.364C113.065 253.985 111.751 255.299 110.13 255.299C108.509 255.299 107.195 253.985 107.195 252.364C107.195 250.743 108.509 249.429 110.13 249.429C111.75 249.43 113.065 250.744 113.065 252.364Z" fill="#7846D1"/>
<path d="M131.803 259.133C131.803 260.754 130.489 262.068 128.868 262.068C127.247 262.068 125.933 260.754 125.933 259.133C125.933 257.512 127.247 256.198 128.868 256.198C130.49 256.198 131.803 257.513 131.803 259.133Z" fill="#7846D1"/>
<path d="M118.733 267.14C119.334 268.645 118.602 270.353 117.096 270.954C115.591 271.555 113.883 270.822 113.282 269.317C112.681 267.812 113.414 266.104 114.919 265.503C116.424 264.902 118.132 265.635 118.733 267.14Z" fill="#7846D1"/>
<path d="M144.174 272.56C144.174 274.181 142.86 275.495 141.239 275.495C139.618 275.495 138.304 274.181 138.304 272.56C138.304 270.939 139.618 269.625 141.239 269.625C142.86 269.625 144.174 270.939 144.174 272.56Z" fill="#7846D1"/>
<path d="M162.892 278.608C162.892 280.229 161.578 281.543 159.957 281.543C158.336 281.543 157.022 280.229 157.022 278.608C157.022 276.987 158.336 275.673 159.957 275.673C161.578 275.673 162.892 276.987 162.892 278.608Z" fill="#7846D1"/>
<path d="M166.658 240.979C166.658 242.6 165.344 243.914 163.723 243.914C162.102 243.914 160.788 242.6 160.788 240.979C160.788 239.358 162.102 238.044 163.723 238.044C165.344 238.045 166.658 239.358 166.658 240.979Z" fill="#7846D1"/>
<path d="M145.361 291.3C145.361 292.921 144.047 294.235 142.426 294.235C140.805 294.235 139.491 292.921 139.491 291.3C139.491 289.679 140.805 288.365 142.426 288.365C144.047 288.366 145.361 289.68 145.361 291.3Z" fill="#7846D1"/>
<path d="M127.281 300.401C127.281 302.022 125.967 303.336 124.346 303.336C122.725 303.336 121.411 302.022 121.411 300.401C121.411 298.78 122.725 297.466 124.346 297.466C125.967 297.467 127.281 298.781 127.281 300.401Z" fill="#7846D1"/>
<path d="M125.175 283.829C125.175 285.45 123.861 286.764 122.24 286.764C120.619 286.764 119.305 285.45 119.305 283.829C119.305 282.208 120.619 280.894 122.24 280.894C123.861 280.894 125.175 282.208 125.175 283.829Z" fill="#7846D1"/>
<path d="M154.088 259.902C154.088 261.523 152.774 262.837 151.153 262.837C149.532 262.837 148.218 261.523 148.218 259.902C148.218 258.281 149.532 256.967 151.153 256.967C152.774 256.967 154.088 258.281 154.088 259.902Z" fill="#7846D1"/>
<path d="M170.314 256.199C170.314 257.82 169 259.134 167.379 259.134C165.758 259.134 164.444 257.82 164.444 256.199C164.444 254.578 165.758 253.264 167.379 253.264C169 253.264 170.314 254.579 170.314 256.199Z" fill="#7846D1"/>
<path d="M159.957 296.157C159.957 297.778 158.643 299.092 157.022 299.092C155.401 299.092 154.087 297.778 154.087 296.157C154.087 294.536 155.401 293.222 157.022 293.222C158.643 293.222 159.957 294.536 159.957 296.157Z" fill="#7846D1"/>
<path d="M160.744 319.376C160.744 320.997 159.43 322.311 157.809 322.311C156.188 322.311 154.874 320.997 154.874 319.376C154.874 317.755 156.188 316.441 157.809 316.441C159.431 316.441 160.744 317.755 160.744 319.376Z" fill="#7846D1"/>
<path d="M145.806 309.689C146.407 311.194 145.675 312.902 144.169 313.503C142.664 314.104 140.956 313.371 140.355 311.866C139.754 310.361 140.487 308.653 141.992 308.052C143.498 307.451 145.205 308.184 145.806 309.689Z" fill="#7846D1"/>
<path d="M125.827 318.289C126.428 319.794 125.695 321.502 124.19 322.103C122.685 322.704 120.977 321.971 120.376 320.466C119.775 318.961 120.508 317.253 122.013 316.652C123.518 316.051 125.226 316.783 125.827 318.289Z" fill="#7846D1"/>
<path d="M185.267 411.944L184.659 408.287L182.291 394.103L181.479 389.244L179.218 375.687L175.108 375.872L120.617 378.343L100.445 379.254L99.148 389.798L98.541 394.71L96.75 409.276L96.421 411.944H185.267Z" fill="#9C78ED"/>
<path d="M185.264 411.944L184.708 408.639L184.662 408.292L184.269 405.957L183.876 403.645L182.281 394.097L181.819 391.277L181.472 389.243L181.426 388.942L179.368 376.573L179.229 375.694L179.044 374.931L178.882 374.26L177.957 370.168L176.131 362.169L175.599 359.88L174.697 355.88L173.61 351.094L172.87 347.811L172.338 345.522L170.327 336.667L169.587 333.43L169.24 331.858L169.078 331.141L167.668 324.922C145.52 331.465 122.054 327.581 111.65 325.246C111.188 327.35 110.679 329.546 110.17 331.766C110.054 332.252 109.939 332.737 109.823 333.222C109.638 333.985 109.453 334.748 109.268 335.511C109.199 335.881 109.106 336.228 109.014 336.598C108.159 340.228 107.257 343.927 106.378 347.603C106.193 348.366 106.031 349.129 105.846 349.869C105.753 350.262 105.661 350.632 105.569 351.025C105.199 352.643 104.829 354.262 104.459 355.834C103.997 357.938 103.557 359.995 103.141 362.03C102.979 362.793 102.817 363.533 102.679 364.273C102.263 366.331 101.893 368.342 101.569 370.284C101.291 371.972 101.06 373.59 100.875 375.185C100.806 375.67 100.759 376.156 100.69 376.618C100.621 377.404 100.528 378.167 100.459 378.93C100.459 379.046 100.436 379.138 100.436 379.254L99.141 389.796L98.933 391.437L98.656 393.726L98.54 394.697L97.107 406.233L96.829 408.545L96.737 409.285L96.417 411.942H185.264V411.944Z" fill="#403657"/>
<path d="M158.462 190.701C158.462 190.701 162.065 186.137 164.744 189.911C167.423 193.685 163.635 204.833 157.077 202.112L158.462 190.701Z" fill="#F97853"/>
<path d="M158.508 198.667C158.75 198.667 158.973 198.515 159.041 198.282C160.057 194.841 163.81 193.445 163.848 193.432C164.133 193.328 164.277 193.024 164.169 192.753C164.061 192.481 163.741 192.344 163.455 192.447C163.28 192.51 159.144 194.035 157.974 197.998C157.891 198.278 158.063 198.568 158.358 198.647C158.408 198.661 158.459 198.667 158.508 198.667Z" fill="#EA5143"/>
<path d="M162.296 196.934C162.399 196.934 162.503 196.907 162.596 196.85C162.853 196.692 162.927 196.367 162.762 196.122C162.735 196.081 162.071 195.119 160.682 194.528C160.404 194.409 160.075 194.528 159.95 194.794C159.825 195.059 159.95 195.371 160.23 195.49C161.304 195.947 161.826 196.685 161.831 196.692C161.936 196.849 162.114 196.934 162.296 196.934Z" fill="#EA5143"/>
<path d="M156.84 202.041C156.22 202.731 155.839 203.64 155.839 204.637C155.839 206.79 157.591 208.542 159.744 208.542C161.897 208.542 163.649 206.79 163.649 204.637C163.649 203.396 163.068 202.291 162.163 201.577C161.709 201.218 161.175 200.958 160.591 200.828C160.493 200.564 160.541 200.317 160.731 200.089C161.478 200.252 162.157 200.593 162.724 201.067C163.749 201.919 164.401 203.205 164.401 204.639C164.401 207.208 162.313 209.296 159.744 209.296C157.177 209.296 155.087 207.208 155.087 204.639C155.087 203.532 155.48 202.52 156.128 201.722C156.365 201.827 156.602 201.934 156.84 202.041Z" fill="white"/>
<path d="M130.69 214.021V227.696C130.69 227.696 137.046 232.599 142.005 233.025C146.959 233.457 148.671 227.611 148.671 227.611V214.885L130.69 214.021Z" fill="#FFA681"/>
<path d="M130.69 215.361V220.816C134.017 224.508 139.924 225.817 148.669 224.526L148.671 216.225L130.69 215.361Z" fill="#F97853"/>
<path d="M160.627 195.901C160.469 197.221 160.282 198.565 160.045 199.903C158.474 208.796 152.849 218.401 145.746 220.013C130.409 223.494 124.04 211.448 121.588 202.561C121.317 201.574 121.825 200.443 121.611 199.274C121.103 196.505 119.984 193.359 119.73 190.256C119.555 188.106 119.431 185.985 119.34 184.069C119.091 178.665 122.221 173.698 127.114 171.759C134.164 168.955 144.87 166.734 155.011 172.682C158.757 174.879 161.107 178.945 161.192 183.397C161.254 186.798 161.169 191.244 160.627 195.901Z" fill="#FFA681"/>
<path d="M141.177 202.782C140.891 202.782 140.639 202.576 140.59 202.285C140.536 201.96 140.754 201.653 141.079 201.599L143.125 201.255L140.306 193.748C140.19 193.44 140.346 193.097 140.654 192.981C140.962 192.867 141.306 193.021 141.421 193.329L144.748 202.19L141.276 202.773C141.243 202.779 141.21 202.782 141.177 202.782Z" fill="#F97853"/>
<path d="M148.516 192.849C148.516 194.161 149.192 195.225 150.027 195.225C150.861 195.225 151.538 194.161 151.538 192.849C151.538 191.537 150.862 190.473 150.027 190.473C149.192 190.473 148.516 191.537 148.516 192.849Z" fill="#403657"/>
<path d="M131.817 192.849C131.817 194.161 132.493 195.225 133.328 195.225C134.163 195.225 134.839 194.161 134.839 192.849C134.839 191.537 134.163 190.473 133.328 190.473C132.493 190.473 131.817 191.537 131.817 192.849Z" fill="#403657"/>
<path d="M154.468 186.617C153.253 186.38 150.797 185.989 148.181 186.082C147.493 186.106 146.941 186.625 147.036 187.173L147.038 187.187C147.114 187.624 147.583 187.919 148.133 187.877C149.916 187.743 154.58 187.772 156.751 188.418C156.811 188.104 156.601 187.77 156.295 187.478C155.83 187.034 155.178 186.755 154.468 186.617Z" fill="#403657"/>
<path d="M130.18 186.903C131.391 186.65 133.842 186.225 136.459 186.281C137.148 186.296 137.706 186.807 137.619 187.356L137.617 187.37C137.547 187.809 137.083 188.109 136.532 188.075C134.747 187.965 130.085 188.058 127.923 188.734C127.858 188.42 128.064 188.084 128.367 187.787C128.823 187.339 129.472 187.051 130.18 186.903Z" fill="#403657"/>
<path d="M148.516 206.328C148.075 208.417 146.607 212.259 141.663 212.259C136.707 212.259 135.317 208.748 134.839 206.328H148.516Z" fill="white"/>
<path d="M141.733 215.849C143.16 215.849 144.419 215.081 144.473 215.048C144.747 214.878 144.832 214.519 144.663 214.244C144.494 213.97 144.135 213.885 143.86 214.053C143.85 214.059 142.822 214.681 141.734 214.681C140.556 214.681 139.501 214.057 139.491 214.051C139.214 213.885 138.856 213.974 138.69 214.25C138.524 214.526 138.612 214.884 138.887 215.051C138.94 215.084 140.221 215.849 141.733 215.849Z" fill="#F97853"/>
<path d="M161.247 194.505C161.104 194.625 160.966 194.583 160.837 194.349C158.811 190.778 160.715 183.653 154.72 180.921C150.154 178.838 148.515 174.565 148.515 174.565C147.471 176.352 144.751 177.991 144.751 177.991C144.751 177.991 137.855 182.077 130.689 184.838C128.559 185.659 127.042 186.492 125.98 187.207C126.063 187.23 126.107 187.243 126.107 187.243C126.107 187.243 124.123 190.466 125.574 195.477C127.026 200.485 125.158 208.749 121.935 210.656C121.992 210.516 124.41 204.801 123.044 200.139C122.257 197.466 122.264 193.214 121.518 190.665C120.692 190.096 118.782 189.137 118.135 188.752C117.951 186.56 117.818 184.399 117.725 182.446C117.463 176.937 120.761 171.875 125.92 169.896C133.351 167.039 144.637 164.777 155.327 170.839C159.275 173.078 161.753 177.223 161.844 181.761C161.91 185.225 161.819 189.757 161.247 194.505Z" fill="#403657"/>
<path d="M121.519 190.665C121.519 190.665 117.33 185.582 114.858 189.247C112.386 192.912 116.036 204.148 122.088 201.506L121.519 190.665Z" fill="#FFA681"/>
<path d="M121.688 201.687C122.121 202.507 122.271 203.481 122.029 204.448C121.507 206.537 119.382 207.811 117.293 207.289C115.204 206.766 113.93 204.642 114.452 202.553C114.753 201.349 115.585 200.418 116.637 199.945C117.164 199.707 117.745 199.584 118.343 199.599C118.447 199.376 118.5 199.134 118.386 198.848C117.622 198.825 116.88 198.991 116.216 199.313C115.015 199.891 114.07 200.98 113.723 202.371C113.1 204.863 114.618 207.396 117.111 208.019C119.601 208.642 122.136 207.124 122.759 204.631C123.028 203.557 122.892 202.48 122.457 201.548C122.2 201.595 121.944 201.642 121.688 201.687Z" fill="white"/>
<path d="M120.611 197.749C120.387 197.749 120.182 197.601 120.119 197.375C119.181 194.033 115.719 192.678 115.684 192.665C115.421 192.564 115.288 192.269 115.388 192.005C115.488 191.741 115.783 191.608 116.047 191.708C116.209 191.769 120.025 193.25 121.105 197.099C121.181 197.371 121.023 197.653 120.751 197.73C120.704 197.743 120.657 197.749 120.611 197.749Z" fill="#F97853"/>
<path d="M117.116 196.066C117.021 196.066 116.925 196.04 116.84 195.985C116.602 195.832 116.534 195.516 116.687 195.278C116.713 195.239 117.325 194.304 118.607 193.731C118.863 193.615 119.167 193.731 119.283 193.989C119.398 194.247 119.283 194.549 119.025 194.665C118.034 195.108 117.552 195.826 117.548 195.832C117.449 195.983 117.284 196.066 117.116 196.066Z" fill="#F97853"/>
<path d="M343.402 301.032C333.654 308.03 318.403 312.83 318.403 312.83L315.28 301.598L312.844 292.835L311.125 286.659L293.645 286.647C294.592 289.923 295.57 293.269 296.553 296.565C297.814 300.816 299.072 304.979 300.268 308.817C301.955 314.218 303.511 318.968 304.765 322.362C305.058 323.154 305.399 324.016 305.78 324.936C308.116 331.247 310.003 338.092 318.92 333.798C326.77 330.017 337.416 324.776 342.736 321.296L343.402 301.032Z" fill="#FFA681"/>
<path d="M296.551 296.566C297.812 300.816 299.069 304.98 300.266 308.817C307.401 308.061 312.341 304.525 315.28 301.599L312.844 292.837L296.551 296.566Z" fill="#F97853"/>
<path d="M292.84 235.263C292.84 235.263 311.075 278.752 318.918 292.842C318.918 292.842 307.927 302.187 297.221 302.442C297.221 302.442 291.051 254.695 292.84 235.263Z" fill="#6020BD"/>
<path d="M250.145 411.974C250.328 408.93 250.501 406.034 250.659 403.348C251.304 392.37 251.72 384.877 251.72 384.877L247.421 384.684L244.997 384.575L215.768 383.277C215.768 383.277 215.236 391.657 214.609 403.963C214.481 406.481 214.348 409.165 214.215 411.973H250.145V411.974Z" fill="#9C78ED"/>
<path d="M247.42 384.685L251.719 384.878C251.719 384.878 251.304 392.371 250.658 403.349C239.428 404.285 227.167 404.666 214.608 403.964C215.235 391.658 215.767 383.278 215.767 383.278L244.996 384.576L247.42 384.685Z" fill="#7846D1"/>
<path d="M245.885 411.974C246.563 400.247 247.12 390.202 247.422 384.686L244.998 384.577C244.695 390.117 244.136 400.208 243.456 411.974H245.885Z" fill="#7846D1"/>
<path d="M259.565 411.974H295.495C295.362 409.165 295.23 406.482 295.101 403.964C294.474 391.658 293.942 383.278 293.942 383.278L264.713 384.576L262.29 384.685L257.991 384.878C257.991 384.878 258.406 392.371 259.051 403.349C259.209 406.034 259.382 408.931 259.565 411.974Z" fill="#9C78ED"/>
<path d="M262.29 384.685L257.99 384.878C257.99 384.878 258.405 392.371 259.051 403.349C270.281 404.285 282.542 404.666 295.101 403.964C294.474 391.658 293.942 383.278 293.942 383.278L264.713 384.576L262.29 384.685Z" fill="#7846D1"/>
<path d="M266.253 411.974C265.573 400.208 265.015 390.117 264.711 384.577L262.287 384.686C262.589 390.202 263.145 400.247 263.824 411.974H266.253Z" fill="#7846D1"/>
<path d="M209.424 362.438C209.42 363.04 209.424 363.634 209.424 364.219C209.437 374.909 209.49 383.193 209.543 387.26C219.868 390.057 230.192 391.864 240.521 392.699C240.992 392.734 241.453 392.769 241.924 392.804C242.175 392.822 242.425 392.839 242.676 392.852C243.23 392.892 243.788 392.927 244.338 392.953C244.954 392.993 245.565 393.023 246.185 393.054C253.212 393.379 260.238 393.252 267.27 392.676C268.69 392.557 270.102 392.421 271.522 392.267C271.614 392.258 271.702 392.249 271.795 392.241C272.156 392.201 272.516 392.157 272.881 392.113C273.101 392.087 273.321 392.06 273.536 392.034C281.71 391.058 289.885 389.462 298.064 387.259C298.086 385.412 298.095 382.673 298.095 379.221C298.095 378.579 298.095 377.92 298.091 377.229V377.225C298.087 372.287 298.056 366.14 298.003 359.192C297.999 358.598 297.994 358 297.99 357.393C297.95 352.767 297.902 347.812 297.84 342.645C297.831 342.047 297.827 341.449 297.818 340.847C297.752 335.548 297.673 330.043 297.581 324.454C297.524 321.042 297.462 317.599 297.392 314.151C297.322 310.66 297.247 307.164 297.163 303.69C297.145 302.934 297.128 302.177 297.106 301.421C296.306 268.569 294.921 238.374 292.63 235.006C291.043 232.675 287.406 229.936 283.123 227.175C282.6 226.841 282.068 226.502 281.527 226.164C279.702 225.025 264.818 219.968 262.927 218.856L247.194 217.757C247.097 217.814 232.054 222.889 231.958 222.941C231.312 223.31 230.656 223.684 230.01 224.058C224.439 227.272 218.942 230.658 215.776 233.574C215.314 233.996 214.901 234.409 214.549 234.814C214.268 235.135 214.017 235.447 213.815 235.755C213.626 236.032 213.441 236.498 213.265 237.136C211.361 244.053 210.363 271.236 209.866 300.812C209.831 302.932 209.8 305.064 209.769 307.201C209.756 308.138 209.743 309.079 209.729 310.02C209.716 310.666 209.707 311.317 209.703 311.964C209.699 312.289 209.694 312.61 209.69 312.936C209.668 314.545 209.65 316.15 209.637 317.747C209.624 318.93 209.611 320.108 209.597 321.287C209.455 336.182 209.411 350.649 209.424 362.438Z" fill="#7846D1"/>
<path d="M181.29 404.678C180.903 408.877 186.017 406.6 184.57 398.091C183.128 389.583 187.226 381.879 188.994 382.125C190.766 382.376 187.53 391.416 189.104 394.675C190.674 397.933 192.705 391.601 194.728 387.762C196.826 383.774 196.702 375.072 195.748 368.863C194.794 362.65 206.051 324.926 206.108 313.995L207.48 309.361L212.502 292.392L220.364 265.82C220.364 265.82 215.654 245.707 207.713 247.435C207.713 247.435 203.509 261.444 199.016 277.244C198.255 279.926 197.486 282.661 196.725 285.388C193.524 296.843 190.516 308.152 189.118 314.862C185.424 332.578 185.139 369.405 185.139 369.405C185.139 369.405 178.622 382.935 178.468 388.955C178.304 395.374 181.672 400.479 181.29 404.678Z" fill="#FFA681"/>
<path d="M196.724 285.386L207.48 309.36L212.502 292.391L199.016 277.243C198.254 279.925 197.485 282.66 196.724 285.386Z" fill="#F97853"/>
<path d="M196.191 278.246C200.909 286.337 205.707 294.384 210.486 302.444C212.06 297.172 213.692 292.111 215.222 287.458C215.226 287.445 215.231 287.436 215.235 287.423C215.846 285.563 216.444 283.769 217.016 282.054C217.025 282.023 217.034 281.992 217.047 281.966C217.245 281.364 217.438 280.77 217.636 280.19V280.186C219.918 273.287 221.686 267.803 222.191 264.607C223.554 256.002 219.839 239.143 214.606 235.818C214.47 236.121 214.057 235.185 213.811 235.757C212.892 237.881 208.811 243.127 206.792 248.236C206.533 248.887 206.269 249.564 205.996 250.254C203.072 257.768 199.497 267.543 196.191 278.246Z" fill="#7846D1"/>
<path d="M254.363 233.488C261.176 233.488 265.979 227.272 266.18 227.007C266.467 226.63 266.413 226.076 266.061 225.77C265.709 225.464 265.191 225.521 264.904 225.897C264.842 225.978 260.37 231.729 254.363 231.729C248.427 231.729 244.806 225.221 244.771 225.155C244.542 224.736 244.038 224.594 243.647 224.838C243.255 225.082 243.121 225.619 243.349 226.039C243.514 226.343 247.469 233.488 254.363 233.488Z" fill="#6020BD"/>
<path d="M283.169 293.048C283.295 293.048 283.422 293.017 283.543 292.952C283.951 292.731 284.115 292.197 283.908 291.76L280.937 285.481C280.731 285.044 280.232 284.869 279.823 285.091C279.414 285.312 279.251 285.846 279.458 286.283L282.429 292.562C282.574 292.871 282.866 293.048 283.169 293.048Z" fill="#6020BD"/>
<path d="M289.361 287.905C289.468 287.976 289.591 288.022 289.726 288.035C290.182 288.078 290.585 287.718 290.625 287.23L291.207 280.22C291.248 279.733 290.911 279.301 290.454 279.258C289.998 279.215 289.595 279.575 289.555 280.063L288.973 287.073C288.944 287.418 289.104 287.733 289.361 287.905Z" fill="#6020BD"/>
<path d="M273.398 277.036C273.797 277.036 274.148 276.728 274.215 276.294L275.288 269.351C275.362 268.868 275.057 268.411 274.605 268.331C274.152 268.252 273.726 268.578 273.652 269.062L272.579 276.005C272.505 276.488 272.81 276.945 273.262 277.025C273.308 277.032 273.354 277.036 273.398 277.036Z" fill="#6020BD"/>
<path d="M246.706 279.62C246.85 279.62 246.995 279.58 247.128 279.496C247.522 279.247 247.653 278.703 247.419 278.281L244.067 272.226C243.834 271.805 243.325 271.665 242.931 271.915C242.537 272.165 242.406 272.708 242.64 273.13L245.992 279.186C246.146 279.465 246.423 279.62 246.706 279.62Z" fill="#6020BD"/>
<path d="M279.497 252.479C279.651 252.479 279.807 252.433 279.946 252.337L285.471 248.515C285.856 248.249 285.966 247.7 285.717 247.289C285.468 246.878 284.955 246.76 284.57 247.026L279.045 250.848C278.66 251.114 278.55 251.663 278.799 252.074C278.959 252.336 279.225 252.479 279.497 252.479Z" fill="#6020BD"/>
<path d="M254.885 308.894C255.011 308.894 255.138 308.863 255.259 308.798C255.667 308.577 255.831 308.043 255.624 307.606L252.653 301.327C252.446 300.89 251.948 300.715 251.539 300.936C251.131 301.157 250.967 301.691 251.174 302.128L254.145 308.407C254.29 308.716 254.582 308.894 254.885 308.894Z" fill="#6020BD"/>
<path d="M267.939 257.203C268.215 257.203 268.485 257.056 268.643 256.787C268.886 256.372 268.768 255.824 268.38 255.565L262.803 251.831C262.415 251.572 261.903 251.696 261.66 252.112C261.417 252.527 261.535 253.075 261.923 253.334L267.5 257.068C267.637 257.159 267.789 257.203 267.939 257.203Z" fill="#6020BD"/>
<path d="M281.204 231.094C281.192 231.265 281.225 231.433 281.299 231.573C281.426 231.833 281.677 232.017 281.973 232.039C282.429 232.074 282.824 231.705 282.857 231.217L283.12 227.176C282.598 226.842 282.067 226.503 281.525 226.165L281.204 231.094Z" fill="#6020BD"/>
<path d="M288.639 269.62C288.915 269.62 289.185 269.473 289.343 269.204C289.586 268.789 289.468 268.241 289.08 267.982L283.503 264.248C283.115 263.989 282.603 264.113 282.36 264.529C282.117 264.944 282.235 265.491 282.623 265.751L288.2 269.485C288.336 269.576 288.488 269.62 288.639 269.62Z" fill="#6020BD"/>
<path d="M244.162 238.98C244.318 238.98 244.477 238.933 244.617 238.834C244.999 238.564 245.105 238.015 244.853 237.606L241.673 232.444C241.422 232.035 240.907 231.921 240.525 232.191C240.143 232.461 240.037 233.01 240.289 233.42L243.469 238.582C243.628 238.839 243.892 238.98 244.162 238.98Z" fill="#6020BD"/>
<path d="M241.311 328.147C241.529 328.147 241.746 328.056 241.909 327.874L246.466 322.797C246.783 322.444 246.772 321.883 246.442 321.544C246.112 321.204 245.587 321.216 245.27 321.57L240.713 326.646C240.395 326.999 240.407 327.56 240.737 327.9C240.898 328.065 241.105 328.147 241.311 328.147Z" fill="#6020BD"/>
<path d="M258.056 327.092C258.274 327.092 258.491 327.001 258.654 326.819L263.211 321.742C263.529 321.389 263.517 320.828 263.187 320.489C262.856 320.149 262.332 320.161 262.015 320.514L257.458 325.591C257.141 325.944 257.152 326.505 257.482 326.845C257.643 327.01 257.85 327.092 258.056 327.092Z" fill="#6020BD"/>
<path d="M270.095 361.406C270.171 361.188 270.168 360.938 270.066 360.711L267.221 354.365C267.023 353.923 266.528 353.737 266.115 353.949C265.702 354.161 265.528 354.69 265.726 355.132L268.571 361.478C268.769 361.92 269.264 362.106 269.677 361.894C269.879 361.791 270.023 361.612 270.095 361.406Z" fill="#6020BD"/>
<path d="M222.041 382.344C222.118 382.126 222.114 381.876 222.012 381.649L219.167 375.303C218.969 374.861 218.474 374.675 218.061 374.887C217.648 375.099 217.474 375.628 217.672 376.07L220.517 382.416C220.715 382.858 221.21 383.044 221.623 382.832C221.825 382.729 221.969 382.551 222.041 382.344Z" fill="#6020BD"/>
<path d="M242.676 392.854C243.231 392.893 243.786 392.929 244.337 392.955L244.917 389.002C244.987 388.518 244.678 388.065 244.226 387.991C243.774 387.916 243.35 388.246 243.28 388.73L242.676 392.854Z" fill="#6020BD"/>
<path d="M236.058 380.908C236.237 380.775 236.366 380.567 236.402 380.318L237.42 373.365C237.491 372.881 237.182 372.428 236.729 372.352C236.276 372.276 235.853 372.607 235.782 373.091L234.764 380.044C234.693 380.528 235.002 380.981 235.455 381.057C235.675 381.095 235.889 381.035 236.058 380.908Z" fill="#6020BD"/>
<path d="M276.067 322.776C276.208 322.776 276.351 322.737 276.482 322.656C276.878 322.411 277.013 321.868 276.784 321.444L273.488 315.354C273.259 314.93 272.752 314.786 272.355 315.031C271.959 315.276 271.823 315.819 272.053 316.243L275.349 322.334C275.502 322.617 275.78 322.776 276.067 322.776Z" fill="#6020BD"/>
<path d="M266.388 307.551C266.688 307.551 266.978 307.376 267.126 307.071L270.142 300.817C270.352 300.382 270.192 299.847 269.785 299.622C269.379 299.396 268.879 299.568 268.668 300.004L265.651 306.258C265.441 306.693 265.601 307.228 266.008 307.452C266.13 307.519 266.26 307.551 266.388 307.551Z" fill="#6020BD"/>
<path d="M292.6 306.635C292.686 306.745 292.797 306.828 292.912 306.881C293.192 307.004 293.52 306.96 293.767 306.74L297.159 303.693C297.142 302.937 297.126 302.18 297.106 301.424L292.699 305.381C292.35 305.698 292.304 306.256 292.6 306.635Z" fill="#6020BD"/>
<path d="M266.431 241.2C266.732 241.2 267.021 241.025 267.169 240.72L270.186 234.466C270.396 234.031 270.236 233.496 269.829 233.271C269.423 233.046 268.923 233.217 268.712 233.653L265.696 239.907C265.486 240.342 265.646 240.877 266.053 241.102C266.173 241.169 266.303 241.2 266.431 241.2Z" fill="#6020BD"/>
<path d="M247.096 264.113C247.148 264.113 247.201 264.108 247.254 264.097C247.704 264.004 247.998 263.539 247.911 263.058L246.663 256.149C246.576 255.667 246.141 255.354 245.692 255.446C245.242 255.539 244.948 256.004 245.035 256.485L246.283 263.394C246.359 263.819 246.706 264.113 247.096 264.113Z" fill="#6020BD"/>
<path d="M257.861 270.18C257.913 270.18 257.966 270.175 258.019 270.164C258.469 270.071 258.763 269.606 258.676 269.125L257.428 262.216C257.341 261.734 256.906 261.422 256.457 261.513C256.007 261.606 255.713 262.071 255.8 262.552L257.048 269.462C257.124 269.886 257.471 270.18 257.861 270.18Z" fill="#6020BD"/>
<path d="M250.149 247.383C250.424 247.383 250.692 247.238 250.85 246.972L254.376 241.031C254.621 240.618 254.507 240.069 254.12 239.807C253.732 239.545 253.221 239.668 252.975 240.08L249.449 246.021C249.204 246.434 249.318 246.983 249.705 247.245C249.843 247.339 249.997 247.383 250.149 247.383Z" fill="#6020BD"/>
<path d="M282.495 308.649C282.722 308.39 282.79 308 282.638 307.66L279.804 301.309C279.607 300.867 279.112 300.68 278.699 300.891C278.284 301.102 278.11 301.631 278.308 302.073L281.142 308.424C281.339 308.866 281.834 309.053 282.247 308.842C282.344 308.794 282.427 308.728 282.495 308.649Z" fill="#6020BD"/>
<path d="M261.164 290.223C261.495 290.223 261.808 290.009 261.936 289.659L264.334 283.106C264.501 282.65 264.291 282.136 263.864 281.957C263.437 281.778 262.956 282.003 262.79 282.46L260.392 289.013C260.225 289.469 260.435 289.983 260.862 290.162C260.961 290.203 261.063 290.223 261.164 290.223Z" fill="#6020BD"/>
<path d="M234.818 330.699C234.944 330.699 235.071 330.668 235.192 330.603C235.6 330.382 235.764 329.848 235.557 329.411L232.586 323.132C232.38 322.695 231.881 322.52 231.472 322.741C231.064 322.962 230.9 323.496 231.107 323.933L234.078 330.212C234.223 330.521 234.515 330.699 234.818 330.699Z" fill="#6020BD"/>
<path d="M278.483 375.827C278.484 375.961 278.514 376.098 278.576 376.226C278.786 376.661 279.287 376.831 279.694 376.605L285.536 373.368C285.942 373.144 286.102 372.608 285.891 372.173C285.681 371.738 285.18 371.569 284.773 371.794L278.931 375.031C278.643 375.189 278.48 375.503 278.483 375.827Z" fill="#6020BD"/>
<path d="M294.343 379.852C294.343 379.988 294.372 380.125 294.434 380.252C294.644 380.687 295.145 380.854 295.552 380.63L298.093 379.223C298.093 378.581 298.093 377.921 298.089 377.231L294.792 379.056C294.504 379.214 294.339 379.53 294.343 379.852Z" fill="#6020BD"/>
<path d="M269.795 387.679L271.793 392.243C272.155 392.204 272.517 392.16 272.882 392.115C273.1 392.089 273.318 392.062 273.536 392.036L271.295 386.926C271.102 386.482 270.609 386.287 270.193 386.498C269.779 386.707 269.598 387.235 269.795 387.679Z" fill="#6020BD"/>
<path d="M224.036 314.687C224.435 314.687 224.786 314.379 224.853 313.945L225.926 307.002C226.001 306.519 225.695 306.062 225.243 305.982C224.79 305.903 224.365 306.229 224.29 306.713L223.217 313.656C223.143 314.139 223.448 314.596 223.9 314.676C223.945 314.683 223.991 314.687 224.036 314.687Z" fill="#6020BD"/>
<path d="M223.351 263.456C223.495 263.456 223.64 263.416 223.772 263.332C224.166 263.083 224.297 262.539 224.063 262.117L220.711 256.062C220.478 255.641 219.969 255.501 219.576 255.751C219.182 256.001 219.051 256.544 219.285 256.966L222.637 263.021C222.792 263.301 223.068 263.456 223.351 263.456Z" fill="#6020BD"/>
<path d="M234.128 288.07C234.282 288.07 234.438 288.024 234.577 287.928L240.102 284.106C240.487 283.84 240.597 283.291 240.348 282.88C240.099 282.469 239.586 282.351 239.202 282.617L233.677 286.439C233.292 286.705 233.182 287.254 233.431 287.665C233.59 287.927 233.856 288.07 234.128 288.07Z" fill="#6020BD"/>
<path d="M292.627 329.349C292.753 329.349 292.88 329.318 293.001 329.253C293.409 329.032 293.573 328.498 293.366 328.061L290.395 321.782C290.188 321.345 289.69 321.17 289.281 321.392C288.872 321.613 288.709 322.147 288.916 322.583L291.887 328.862C292.033 329.172 292.324 329.349 292.627 329.349Z" fill="#6020BD"/>
<path d="M224.715 297.608C224.991 297.608 225.261 297.461 225.419 297.192C225.662 296.777 225.544 296.229 225.156 295.97L219.579 292.236C219.191 291.977 218.679 292.101 218.436 292.517C218.193 292.932 218.311 293.479 218.699 293.739L224.276 297.473C224.412 297.564 224.565 297.608 224.715 297.608Z" fill="#6020BD"/>
<path d="M238.085 306.49C238.288 306.69 238.58 306.778 238.866 306.695C239.308 306.566 239.569 306.079 239.449 305.607L237.722 298.816C237.601 298.344 237.147 298.064 236.704 298.193C236.262 298.322 236.001 298.809 236.121 299.281L237.848 306.072C237.891 306.238 237.975 306.381 238.085 306.49Z" fill="#6020BD"/>
<path d="M214.547 234.814L215.99 237.153C216.15 237.408 216.413 237.549 216.685 237.549C216.841 237.549 216.997 237.505 217.137 237.404C217.519 237.136 217.626 236.586 217.375 236.177L215.772 233.574C215.312 233.996 214.9 234.409 214.547 234.814Z" fill="#6020BD"/>
<path d="M208.24 250.253L209.774 252.742C209.934 253.001 210.197 253.142 210.469 253.142C210.625 253.142 210.782 253.094 210.925 252.997C211.307 252.724 211.41 252.175 211.159 251.766L208.984 248.235C208.742 248.885 208.495 249.562 208.24 250.253Z" fill="#6020BD"/>
<path d="M279.955 351.273C280.173 351.273 280.39 351.182 280.553 351L285.11 345.924C285.427 345.571 285.416 345.01 285.086 344.67C284.756 344.33 284.231 344.342 283.914 344.696L279.357 349.772C279.04 350.125 279.051 350.686 279.381 351.026C279.541 351.191 279.748 351.273 279.955 351.273Z" fill="#6020BD"/>
<path d="M249.634 369.02C249.852 369.02 250.069 368.929 250.232 368.747L254.789 363.67C255.106 363.317 255.095 362.756 254.765 362.416C254.435 362.076 253.91 362.088 253.593 362.442L249.036 367.518C248.719 367.871 248.73 368.432 249.06 368.772C249.221 368.938 249.428 369.02 249.634 369.02Z" fill="#6020BD"/>
<path d="M241.207 361.971C241.344 361.79 241.415 361.552 241.385 361.302L240.563 354.32C240.506 353.834 240.091 353.49 239.637 353.551C239.182 353.612 238.86 354.055 238.918 354.542L239.74 361.524C239.797 362.01 240.212 362.354 240.666 362.293C240.888 362.263 241.077 362.142 241.207 361.971Z" fill="#6020BD"/>
<path d="M258.477 381.65C258.695 381.65 258.912 381.559 259.075 381.377L263.632 376.301C263.949 375.948 263.938 375.387 263.608 375.048C263.278 374.708 262.753 374.72 262.436 375.074L257.879 380.151C257.561 380.504 257.573 381.065 257.903 381.404C258.064 381.568 258.271 381.65 258.477 381.65Z" fill="#6020BD"/>
<path d="M209.424 362.439C209.42 363.041 209.424 363.635 209.424 364.22L214.567 364.682C215.023 364.726 215.426 364.361 215.463 363.873C215.504 363.385 215.163 362.958 214.706 362.914L209.424 362.439Z" fill="#6020BD"/>
<path d="M269.662 340.599C269.88 340.599 270.097 340.507 270.26 340.326L274.817 335.249C275.134 334.896 275.123 334.335 274.793 333.995C274.462 333.655 273.938 333.667 273.621 334.021L269.064 339.097C268.747 339.45 268.758 340.012 269.088 340.351C269.249 340.517 269.455 340.599 269.662 340.599Z" fill="#6020BD"/>
<path d="M247.738 338.392C247.752 338.624 247.852 338.85 248.032 339.012L253.068 343.541C253.418 343.856 253.941 343.808 254.236 343.433C254.531 343.057 254.486 342.499 254.135 342.184L249.099 337.655C248.749 337.34 248.226 337.388 247.931 337.763C247.787 337.945 247.724 338.171 247.738 338.392Z" fill="#6020BD"/>
<path d="M223.743 363.305C223.884 363.305 224.027 363.267 224.157 363.186C224.553 362.941 224.689 362.398 224.459 361.974L221.163 355.883C220.934 355.459 220.427 355.315 220.03 355.56C219.634 355.805 219.498 356.348 219.728 356.772L223.024 362.863C223.178 363.147 223.457 363.305 223.743 363.305Z" fill="#6020BD"/>
<path d="M218.037 345.201C218.338 345.201 218.627 345.026 218.775 344.721L221.792 338.467C222.002 338.032 221.842 337.497 221.435 337.273C221.029 337.047 220.529 337.219 220.318 337.654L217.301 343.908C217.091 344.343 217.251 344.878 217.658 345.103C217.779 345.169 217.909 345.201 218.037 345.201Z" fill="#6020BD"/>
<path d="M227.035 274.193C227.335 274.193 227.625 274.018 227.773 273.713L230.789 267.459C230.999 267.024 230.839 266.489 230.432 266.264C230.026 266.039 229.526 266.21 229.315 266.646L226.299 272.9C226.089 273.335 226.249 273.87 226.656 274.095C226.777 274.161 226.907 274.193 227.035 274.193Z" fill="#6020BD"/>
<path d="M223.741 247.949C223.793 247.949 223.846 247.944 223.899 247.933C224.349 247.84 224.643 247.375 224.556 246.894L223.308 239.985C223.221 239.504 222.786 239.19 222.337 239.282C221.887 239.375 221.593 239.84 221.68 240.321L222.928 247.23C223.005 247.655 223.352 247.949 223.741 247.949Z" fill="#6020BD"/>
<path d="M208.589 271.791C208.641 271.791 208.694 271.786 208.747 271.775C209.197 271.682 209.491 271.217 209.404 270.736L208.156 263.827C208.069 263.346 207.634 263.032 207.185 263.124C206.735 263.217 206.441 263.682 206.528 264.163L207.776 271.072C207.853 271.497 208.2 271.791 208.589 271.791Z" fill="#6020BD"/>
<path d="M234.506 254.016C234.558 254.016 234.611 254.011 234.664 254C235.114 253.907 235.408 253.442 235.321 252.961L234.073 246.052C233.986 245.57 233.551 245.258 233.102 245.349C232.652 245.442 232.358 245.907 232.445 246.388L233.693 253.297C233.769 253.721 234.117 254.016 234.506 254.016Z" fill="#6020BD"/>
<path d="M229.566 229.946C229.726 229.985 229.883 229.972 230.026 229.92C230.285 229.823 230.495 229.59 230.561 229.287L231.955 222.942C231.31 223.311 230.656 223.685 230.006 224.059L228.949 228.878C228.842 229.357 229.117 229.832 229.566 229.946Z" fill="#6020BD"/>
<path d="M210.597 282.475C210.871 282.475 211.14 282.329 211.298 282.063L214.824 276.123C215.069 275.709 214.955 275.161 214.569 274.899C214.181 274.637 213.67 274.759 213.424 275.171L209.898 281.113C209.653 281.527 209.767 282.075 210.153 282.337C210.291 282.43 210.445 282.475 210.597 282.475Z" fill="#6020BD"/>
<path d="M234.145 346.301C234.372 346.042 234.439 345.652 234.288 345.312L231.455 338.961C231.258 338.519 230.763 338.332 230.35 338.543C229.935 338.754 229.761 339.284 229.959 339.725L232.792 346.076C232.989 346.518 233.484 346.706 233.897 346.494C233.993 346.445 234.076 346.379 234.145 346.301Z" fill="#6020BD"/>
<path d="M292.465 358.235L298.003 359.194C297.999 358.6 297.995 358.002 297.986 357.396L292.732 356.481C292.28 356.406 291.852 356.732 291.782 357.215C291.708 357.698 292.012 358.156 292.465 358.235Z" fill="#6020BD"/>
<path d="M294.15 342.01L297.838 342.648C297.83 342.05 297.826 341.452 297.817 340.85L294.417 340.261C293.965 340.182 293.541 340.512 293.467 340.995C293.394 341.478 293.698 341.931 294.15 342.01Z" fill="#6020BD"/>
<path d="M212.813 327.873C213.145 327.873 213.458 327.659 213.585 327.309L215.983 320.756C216.15 320.3 215.94 319.786 215.513 319.607C215.086 319.428 214.605 319.653 214.439 320.11L212.041 326.663C211.874 327.119 212.085 327.633 212.511 327.812C212.611 327.853 212.713 327.873 212.813 327.873Z" fill="#6020BD"/>
<path d="M209.767 307.199C211.324 300.766 213.28 293.616 215.219 287.456C215.223 287.443 215.228 287.434 215.232 287.421C215.83 285.517 216.428 283.71 217.013 282.052C217.022 282.021 217.031 281.991 217.044 281.964C217.224 281.441 217.409 280.935 217.589 280.443C217.615 280.355 217.633 280.271 217.633 280.188V280.184C217.633 279.889 217.448 279.612 217.154 279.502C216.771 279.366 216.349 279.559 216.213 279.942C214.225 285.359 211.877 293.16 209.863 300.811C209.829 302.929 209.798 305.062 209.767 307.199Z" fill="#6020BD"/>
<path d="M233.541 182.999C233.541 182.999 227.767 176.636 229.946 169.233C232.125 161.831 238.086 161.912 238.086 161.912C238.086 161.912 241.564 154.039 247.487 153.779C253.41 153.519 258.994 143 264.383 145.857C269.773 148.714 263.799 154.948 263.799 154.948C263.799 154.948 273.033 145.208 276.078 148.065C279.123 150.922 271.85 158.584 271.85 158.584C271.85 158.584 279.609 153.13 282.158 155.207C284.707 157.285 276.078 166.246 276.078 166.246C276.078 166.246 281.661 176.311 276.042 180.824L233.541 182.999Z" fill="#403657"/>
<path d="M273.88 185.129C273.88 185.129 277.572 180.206 280.317 184.277C283.062 188.347 279.181 200.37 272.46 197.435L273.88 185.129Z" fill="#F97853"/>
<path d="M273.928 193.72C274.176 193.72 274.404 193.556 274.475 193.305C275.517 189.593 279.362 188.088 279.401 188.074C279.694 187.962 279.841 187.634 279.73 187.342C279.619 187.049 279.291 186.901 278.999 187.012C278.819 187.08 274.582 188.725 273.382 192.999C273.297 193.301 273.474 193.614 273.776 193.699C273.826 193.713 273.877 193.72 273.928 193.72Z" fill="#EA5143"/>
<path d="M277.809 191.85C277.915 191.85 278.021 191.821 278.116 191.76C278.38 191.59 278.456 191.239 278.286 190.975C278.258 190.931 277.577 189.893 276.154 189.257C275.869 189.128 275.532 189.257 275.404 189.543C275.276 189.829 275.404 190.165 275.69 190.293C276.791 190.785 277.325 191.582 277.331 191.59C277.44 191.759 277.623 191.85 277.809 191.85Z" fill="#EA5143"/>
<path d="M235.832 185.129C235.832 185.129 232.14 180.206 229.395 184.277C226.65 188.347 230.531 200.37 237.252 197.435L235.832 185.129Z" fill="#F97853"/>
<path d="M235.785 193.72C235.537 193.72 235.309 193.556 235.238 193.305C234.197 189.593 230.351 188.088 230.312 188.074C230.019 187.962 229.872 187.634 229.983 187.342C230.094 187.049 230.422 186.901 230.714 187.012C230.894 187.08 235.132 188.725 236.331 192.999C236.416 193.301 236.24 193.614 235.937 193.699C235.887 193.713 235.836 193.72 235.785 193.72Z" fill="#EA5143"/>
<path d="M231.903 191.85C231.797 191.85 231.691 191.821 231.596 191.76C231.332 191.59 231.256 191.239 231.426 190.975C231.454 190.931 232.134 189.893 233.558 189.257C233.843 189.128 234.18 189.257 234.308 189.543C234.436 189.829 234.308 190.165 234.022 190.293C232.921 190.785 232.386 191.582 232.381 191.59C232.273 191.759 232.09 191.85 231.903 191.85Z" fill="#EA5143"/>
<path d="M245.768 207.633V219.589C245.768 219.589 249.334 225.678 254.155 226.092C258.972 226.512 263.253 220.85 263.253 220.85V208.473L245.768 207.633Z" fill="#FFA681"/>
<path d="M245.768 207.633V212.938C249.003 216.528 254.75 217.425 263.253 216.17V208.474L245.768 207.633Z" fill="#F97853"/>
<path d="M233.165 176.928C233.384 181.574 233.826 187.386 234.714 192.028V192.041C234.714 192.054 234.718 192.068 234.723 192.086C234.723 192.091 234.727 192.091 234.727 192.095C234.946 193.229 235.191 194.296 235.459 195.255C235.62 195.817 235.794 196.406 235.99 197.009C238.824 205.9 245.39 218.768 261.891 212.881C268.84 210.404 272.46 203.227 274.304 195.443C274.411 194.979 274.514 194.519 274.603 194.077C274.665 193.782 274.724 193.497 274.777 193.215L274.857 192.8C274.87 192.729 274.879 192.68 274.884 192.648C274.889 192.63 274.889 192.621 274.889 192.621C275.978 186.636 276.143 180.583 276.063 176.258C275.978 171.848 273.568 167.813 269.73 165.64C259.335 159.744 248.359 161.944 241.133 164.721C236.115 166.645 232.906 171.568 233.165 176.928Z" fill="#FFA681"/>
<path d="M234.709 192.029C234.709 192.029 234.709 192.033 234.713 192.042C234.713 192.055 234.717 192.069 234.722 192.087C234.722 192.092 234.726 192.092 234.726 192.096C234.833 192.484 235.413 194.613 235.989 197.01C238.823 205.901 245.389 218.769 261.89 212.882C268.839 210.405 272.459 203.228 274.303 195.444C274.41 194.98 274.513 194.52 274.602 194.078C274.664 193.783 274.723 193.498 274.776 193.216L274.856 192.801C274.869 192.73 274.878 192.681 274.883 192.649C274.888 192.631 274.888 192.622 274.888 192.622L272.46 192.131C271.996 194.43 270.969 196.594 269.71 198.518C267.657 193.599 257.239 196.867 257.239 196.867L257.19 196.885C256.556 197.081 255.905 197.184 255.248 197.184C254.574 197.184 253.904 197.077 253.253 196.867C253.253 196.867 242.96 193.457 240.827 198.148C238.694 194.845 237.247 191.85 237.247 191.85L234.712 192.029H234.709ZM255.223 199.095C267.002 197.506 265.15 203.848 265.15 203.848C263.842 205.04 262.646 205.91 261.843 206.361C259.272 207.794 256.741 208.338 254.907 208.249C253.099 208.173 252.604 208.544 248.033 206.071C247.225 205.638 246.408 204.995 245.609 204.232C245.609 204.232 245.609 204.232 245.605 204.232V204.228C245.408 202.987 243.413 197.064 255.223 199.095Z" fill="#403657"/>
<path d="M244.55 185.575C244.55 186.851 245.208 187.886 246.019 187.886C246.83 187.886 247.488 186.851 247.488 185.575C247.488 184.299 246.83 183.264 246.019 183.264C245.207 183.264 244.55 184.299 244.55 185.575Z" fill="#403657"/>
<path d="M262.915 185.575C262.915 186.851 263.573 187.886 264.384 187.886C265.196 187.886 265.853 186.851 265.853 185.575C265.853 184.299 265.195 183.264 264.384 183.264C263.573 183.264 262.915 184.299 262.915 185.575Z" fill="#403657"/>
<path d="M240.788 177.783C240.788 177.783 246.859 175.384 251.533 177.403L251.066 180.003C251.066 180.003 244.205 179.423 240.749 180.823C240.439 179.823 240.393 178.811 240.788 177.783Z" fill="#403657"/>
<path d="M269.654 177.795C269.654 177.795 263.538 175.378 258.83 177.412L259.301 180.031C259.301 180.031 266.212 179.446 269.694 180.858C270.006 179.85 270.051 178.831 269.654 177.795Z" fill="#403657"/>
<path d="M254.659 195.903C253.701 195.903 252.75 195.53 252.603 195.47C252.313 195.352 252.174 195.02 252.292 194.73C252.41 194.44 252.742 194.3 253.032 194.418C253.545 194.626 254.777 194.953 255.31 194.633C255.413 194.571 255.554 194.449 255.589 194.104C255.794 192.12 255.251 185.472 255.246 185.405C255.22 185.092 255.453 184.818 255.766 184.792C256.08 184.766 256.353 184.999 256.379 185.311C256.402 185.589 256.936 192.132 256.72 194.22C256.639 195.006 256.226 195.408 255.894 195.607C255.531 195.827 255.094 195.903 254.659 195.903Z" fill="#F97853"/>
<path d="M261.9 200.229C261.469 202.399 260.035 206.39 255.207 206.39C250.367 206.39 249.01 202.743 248.544 200.229H261.9Z" fill="white"/>
<path d="M233.163 176.927C233.385 181.573 233.828 187.384 234.714 192.03L237.253 191.85C237.253 191.85 236.638 187.927 236.354 185.371C236.07 182.815 235.588 178.037 237.769 177.441C239.944 176.851 238.668 171.4 241.695 169.037C244.722 166.669 251.494 166.019 255.959 168.768C260.423 171.511 265.454 168.56 267.511 169.037C269.573 169.509 272.367 172.348 271.612 175.001C270.851 177.648 273.123 179.261 273.674 182.004C274.225 184.747 272.464 192.131 272.464 192.131L274.889 192.62C275.98 186.633 276.144 180.584 276.065 176.262C275.98 171.849 273.572 167.816 269.732 165.641C259.332 159.745 248.359 161.943 241.134 164.721C236.117 166.647 232.907 171.571 233.163 176.927Z" fill="#403657"/>
<path d="M337.683 304.865C336.139 318.947 326.945 350.407 320.579 356.569C312.291 364.592 285.016 381.483 270.809 390.143C268.246 391.705 280.285 402.109 280.285 402.109C280.285 402.109 318.007 385.978 332.413 373.26C336.488 369.662 344.763 358.315 354.104 336.7C356.936 330.146 363.799 316.929 363.443 308.311C363.033 298.392 347.275 300.024 337.683 304.865Z" fill="#7846D1"/>
<path d="M308.248 385.756C308.248 385.756 297.988 389.652 294.352 393.938C290.716 398.224 285.911 401.86 287.079 403.548C288.248 405.236 293.572 400.301 293.572 400.301C293.572 400.301 295.032 405.726 300.195 406.311C305.359 406.896 315.13 396.794 315.13 396.794L308.248 385.756Z" fill="#FFA681"/>
<path d="M409.522 344.183C409.525 345.074 409.517 346.128 409.501 347.323C409.485 348.513 409.459 349.84 409.423 351.292C409.394 352.287 409.363 353.339 409.327 354.443C409.293 355.373 409.257 356.336 409.218 357.336C409.174 358.357 409.127 359.409 409.075 360.494C408.361 375.242 406.634 395.605 402.836 411.93H323.017C325.679 400.065 329.752 381.351 332.983 357.071C333.118 356.05 333.253 355.019 333.386 353.977C333.519 352.935 333.648 351.884 333.778 350.824C333.848 350.26 333.916 349.691 333.983 349.123C334.038 348.653 334.092 348.185 334.144 347.723C334.292 346.414 334.427 345.126 334.547 343.863C334.648 342.808 334.742 341.772 334.83 340.749C336.199 324.425 335.716 312.191 337.682 304.864C339.973 296.334 366.684 286.555 366.684 286.555L383.419 287.43C383.419 287.43 399.375 292.64 407.904 300.128C416.436 307.619 409.301 329.969 409.509 342.66C409.517 343.097 409.519 343.606 409.522 344.183Z" fill="#9C78ED"/>
<path d="M409.501 347.323C402.244 348.204 394.673 348.552 387.244 348.552C362.915 348.552 340.076 344.833 334.546 343.864C334.647 342.809 334.741 341.773 334.829 340.75C341.255 341.888 378.441 348.038 409.521 344.184C409.524 345.074 409.517 346.128 409.501 347.323Z" fill="#E0D5F8"/>
<path d="M409.423 351.292C409.394 352.287 409.363 353.339 409.327 354.443C402.122 355.308 394.613 355.648 387.244 355.648C361.541 355.648 337.502 351.497 333.777 350.825C333.847 350.261 333.915 349.692 333.982 349.124C334.037 348.654 334.091 348.186 334.143 347.724C337.843 348.398 376.943 355.297 409.423 351.292Z" fill="#E0D5F8"/>
<path d="M409.218 357.336C409.174 358.357 409.127 359.409 409.075 360.494C401.579 361.447 393.73 361.819 386.034 361.819C361.149 361.819 337.827 357.931 332.983 357.071C333.118 356.05 333.253 355.019 333.386 353.977C339.146 355.004 377.559 361.479 409.218 357.336Z" fill="#E0D5F8"/>
<path d="M371.511 302.61C379.832 302.61 387.508 293.765 387.841 293.377C388.052 293.131 388.023 292.76 387.777 292.549C387.532 292.338 387.161 292.366 386.949 292.612C386.869 292.705 378.829 301.968 370.794 301.41C370.473 301.387 370.19 301.632 370.168 301.955C370.145 302.278 370.389 302.559 370.713 302.581C370.979 302.601 371.246 302.61 371.511 302.61Z" fill="#7846D1"/>
<path d="M378.725 402.077C379.019 402.077 379.273 401.856 379.307 401.557C379.344 401.235 379.113 400.944 378.791 400.906C357.297 398.432 348.393 361.226 348.305 360.851C348.232 360.535 347.916 360.339 347.6 360.412C347.284 360.486 347.088 360.801 347.161 361.117C347.526 362.683 356.348 399.505 378.656 402.073C378.68 402.076 378.703 402.077 378.725 402.077Z" fill="#7846D1"/>
<path d="M370.166 390.819C370.363 390.819 370.555 390.72 370.666 390.54C370.836 390.264 370.751 389.902 370.475 389.732C359.043 382.683 357.343 372.294 357.327 372.19C357.278 371.87 356.982 371.646 356.659 371.698C356.339 371.746 356.118 372.045 356.166 372.365C356.233 372.812 357.941 383.384 369.859 390.732C369.954 390.791 370.061 390.819 370.166 390.819Z" fill="#7846D1"/>
<path d="M376.841 271.427C389.846 271.427 400.388 260.885 400.388 247.88C400.388 234.875 389.846 224.333 376.841 224.333C363.836 224.333 353.294 234.875 353.294 247.88C353.294 260.885 363.836 271.427 376.841 271.427Z" fill="#403657"/>
<path d="M353.679 243.658C353.679 243.658 347.011 241.817 347.89 235.345C348.638 229.837 355.109 233.408 354.54 229.103C353.971 224.798 352.707 220.884 358.276 219.808C363.147 218.867 363.229 222.205 369.626 217.362C377.183 211.641 382.988 224.889 389.733 225.287C399.681 225.874 400.936 231.5 401.915 236.001C402.893 240.502 399.064 243.658 399.064 243.658H353.679Z" fill="#403657"/>
<path d="M357.25 254.469C357.25 254.469 353.52 249.496 350.747 253.608C347.974 257.72 351.895 269.866 358.685 266.901L357.25 254.469Z" fill="#F97853"/>
<path d="M357.202 263.147C356.951 263.147 356.721 262.981 356.65 262.728C355.597 258.978 351.713 257.458 351.674 257.443C351.378 257.33 351.229 256.999 351.342 256.703C351.454 256.407 351.785 256.258 352.081 256.37C352.263 256.439 356.544 258.1 357.756 262.418C357.841 262.723 357.664 263.04 357.358 263.126C357.305 263.14 357.253 263.147 357.202 263.147Z" fill="#EA5143"/>
<path d="M353.28 261.258C353.173 261.258 353.066 261.229 352.97 261.167C352.703 260.995 352.627 260.64 352.798 260.374C352.827 260.33 353.514 259.281 354.952 258.638C355.24 258.508 355.581 258.638 355.71 258.927C355.839 259.216 355.71 259.556 355.421 259.685C354.309 260.183 353.769 260.987 353.764 260.995C353.654 261.166 353.469 261.258 353.28 261.258Z" fill="#EA5143"/>
<path d="M384.302 277.204V289.283C384.302 289.283 379.336 294.606 374.465 295.025C369.599 295.449 366.638 289.668 366.638 289.668V278.053L384.302 277.204Z" fill="#FFA681"/>
<path d="M384.302 277.204V282.563C381.033 286.19 375.228 287.096 366.637 285.828V278.053L384.302 277.204Z" fill="#F97853"/>
<path d="M397.037 246.183C396.813 250.877 396.365 256.747 395.47 261.441C395.246 262.612 394.994 263.714 394.712 264.7C392.17 273.6 385.812 288.863 368.013 282.506C360.152 279.7 356.508 270.943 354.884 262.038C353.782 255.99 353.616 249.879 353.696 245.512C353.782 241.054 356.215 236.98 360.094 234.782C370.601 228.826 381.687 231.046 388.986 233.852C394.053 235.797 397.295 240.772 397.037 246.183Z" fill="#FFA681"/>
<path d="M375.682 254.714V255.667C375.682 257.586 376.43 259.387 377.792 260.739C379.133 262.073 380.906 262.804 382.791 262.804H383.023C384.658 262.769 386.144 262.111 387.447 260.847C388.753 259.572 389.502 257.75 389.502 255.841V254.715C389.502 254.403 389.443 254.105 389.336 253.828C389.211 253.492 389.017 253.194 388.768 252.945C388.314 252.491 387.691 252.211 386.998 252.211H378.188C377.191 252.211 376.331 252.793 375.929 253.638C375.78 253.946 375.693 254.289 375.686 254.649C375.682 254.669 375.682 254.694 375.682 254.714ZM376.721 254.714C376.721 253.904 377.379 253.249 378.186 253.249H386.996C387.807 253.249 388.462 253.904 388.462 254.714V255.84C388.462 257.468 387.828 259.024 386.719 260.101C385.614 261.175 384.363 261.733 383.002 261.764H382.79C381.183 261.764 379.669 261.14 378.522 260.001C377.362 258.847 376.721 257.309 376.721 255.667V254.714Z" fill="#403657"/>
<path d="M358.042 254.714V255.667C358.042 257.586 358.794 259.387 360.152 260.739C361.493 262.073 363.266 262.804 365.151 262.804H365.386C367.018 262.769 368.507 262.111 369.807 260.847C371.113 259.572 371.865 257.75 371.865 255.841V254.715C371.865 254.698 371.865 254.684 371.861 254.667C371.857 254.328 371.781 254.002 371.65 253.707C371.262 252.824 370.382 252.211 369.36 252.211H360.547C359.775 252.211 359.082 252.564 358.621 253.115C358.399 253.385 358.23 253.701 358.139 254.043C358.073 254.257 358.042 254.482 358.042 254.714ZM359.082 254.714C359.082 253.904 359.74 253.249 360.547 253.249H369.36C370.167 253.249 370.825 253.904 370.825 254.714V255.84C370.825 257.468 370.188 259.024 369.083 260.101C367.978 261.175 366.727 261.733 365.366 261.764H365.151C363.543 261.764 362.03 261.14 360.886 260.001C359.722 258.847 359.081 257.309 359.081 255.667V254.714H359.082Z" fill="#403657"/>
<path d="M395.78 251.79C392.788 251.661 390.651 252.524 389.806 252.945C389.57 253.059 388.94 253.469 388.913 253.486L389.408 254.368C389.415 254.364 390.104 253.953 390.374 253.828C391.203 253.441 393.043 252.665 395.78 252.826V251.79Z" fill="#403657"/>
<path d="M376.38 254.753L376.721 253.771C376.66 253.75 375.201 253.248 373.598 253.248C371.892 253.248 370.794 253.772 370.747 253.794L371.201 254.729C371.209 254.725 372.146 254.287 373.598 254.287C375.02 254.288 376.367 254.749 376.38 254.753Z" fill="#403657"/>
<path d="M354.403 252.04V253.082C356.555 253.26 358.543 254.221 358.572 254.233L359.029 253.301C358.912 253.242 356.778 252.213 354.403 252.04Z" fill="#403657"/>
<path d="M366.198 256.046C366.198 257.335 365.534 258.381 364.714 258.381C363.894 258.381 363.23 257.336 363.23 256.046C363.23 254.757 363.895 253.711 364.714 253.711C365.533 253.711 366.198 254.756 366.198 256.046Z" fill="#403657"/>
<path d="M383.578 256.046C383.578 257.335 382.913 258.381 382.094 258.381C381.274 258.381 380.61 257.336 380.61 256.046C380.61 254.757 381.275 253.711 382.094 253.711C382.914 253.711 383.578 254.756 383.578 256.046Z" fill="#403657"/>
<path d="M359.886 248.876C359.886 248.876 366.064 246.434 370.821 248.49L370.424 250.698C370.424 250.698 365.272 249.548 360.227 251.429C359.912 250.411 359.484 249.923 359.886 248.876Z" fill="#403657"/>
<path d="M388.158 248.876C388.158 248.876 381.98 246.434 377.222 248.49L377.619 250.698C377.619 250.698 382.771 249.548 387.816 251.429C388.131 250.411 388.56 249.923 388.158 248.876Z" fill="#403657"/>
<path d="M374.315 265.831C375.283 265.831 376.243 265.454 376.392 265.394C376.685 265.274 376.825 264.94 376.706 264.646C376.587 264.353 376.251 264.212 375.958 264.331C375.44 264.541 374.196 264.871 373.656 264.548C373.552 264.485 373.41 264.362 373.374 264.014C373.167 262.01 373.715 255.294 373.721 255.226C373.747 254.91 373.512 254.633 373.197 254.607C372.88 254.58 372.604 254.816 372.578 255.132C372.555 255.413 372.015 262.023 372.233 264.132C372.315 264.926 372.732 265.332 373.067 265.533C373.435 265.753 373.876 265.831 374.315 265.831Z" fill="#F97853"/>
<path d="M367.202 268.743C367.671 271.102 369.229 275.443 374.481 275.443C379.745 275.443 381.221 271.476 381.728 268.743H367.202Z" fill="white"/>
<path d="M374.41 278.439C375.895 278.439 377.154 277.687 377.207 277.655C377.478 277.491 377.565 277.138 377.4 276.867C377.236 276.595 376.883 276.509 376.612 276.673C376.603 276.679 375.566 277.291 374.409 277.291C373.347 277.291 372.331 276.682 372.321 276.675C372.052 276.509 371.698 276.592 371.532 276.862C371.365 277.131 371.449 277.485 371.719 277.651C371.77 277.684 373.008 278.439 374.41 278.439Z" fill="#F97853"/>
<path d="M356.66 258.297C356.227 255.931 355.798 252.876 356.11 251.311C356.669 248.54 358.963 246.911 358.198 244.24C357.433 241.558 360.257 238.687 362.339 238.211C364.415 237.729 369.274 238.764 374.057 236.493C378.622 234.323 386.557 235.875 387.851 238.805C389.416 242.352 387.286 242.687 391.557 246.523C393.257 248.052 391.239 252.023 390.951 254.605C390.822 255.793 390.803 256.373 390.85 257.649L390.867 258.297H395.978C396.541 254.292 396.863 249.876 397.039 246.181C397.298 240.769 394.051 235.799 388.986 233.852C381.686 231.046 370.604 228.823 360.092 234.781C356.216 236.981 353.78 241.051 353.698 245.51C353.633 248.973 353.725 253.536 354.317 258.296H356.66V258.297Z" fill="#403657"/>
<path d="M393.712 260.505C393.696 259.168 393.791 257.831 394.024 256.515C394.343 254.715 394.865 253.081 396.708 252.331C398.19 251.727 399.773 251.715 400.899 253.386C403.672 257.498 400.583 270.295 393.793 267.33L393.712 260.505Z" fill="#FFA681"/>
<path d="M395.106 263.604C395.352 263.555 395.545 263.347 395.566 263.085C395.864 259.202 399.376 256.951 399.411 256.928C399.679 256.759 399.76 256.405 399.592 256.137C399.424 255.869 399.07 255.787 398.802 255.955C398.637 256.058 394.764 258.525 394.421 262.997C394.397 263.313 394.633 263.589 394.95 263.613C395.003 263.617 395.056 263.613 395.106 263.604Z" fill="#F97853"/>
<path d="M398.582 260.983C398.687 260.962 398.786 260.912 398.868 260.833C399.096 260.613 399.101 260.249 398.881 260.022C398.844 259.984 397.965 259.09 396.429 258.741C396.122 258.67 395.813 258.864 395.743 259.173C395.672 259.482 395.866 259.789 396.175 259.86C397.363 260.13 398.05 260.814 398.057 260.82C398.198 260.966 398.397 261.02 398.582 260.983Z" fill="#F97853"/>
<path d="M404.51 297.509C396.124 310.22 364.028 354.166 356.786 359.271C347.359 365.917 321.66 375.367 306.905 385.219C301.892 388.567 313.736 398.04 313.736 398.04C313.736 398.04 349.702 387.929 365.9 377.589C370.482 374.664 389.54 355.573 401.691 338.64C405.854 332.839 412.625 324.782 413.605 316.213C414.732 306.35 411.634 301.073 404.51 297.509Z" fill="#7846D1"/>
<path d="M340.897 411.93H240.913C239.635 411.93 238.599 410.894 238.599 409.616V401.649C238.599 400.371 239.635 399.335 240.913 399.335H340.897C342.175 399.335 343.211 400.371 343.211 401.649V409.616C343.21 410.894 342.175 411.93 340.897 411.93Z" fill="#1A0B42"/>
<path d="M238.621 411.93L218.958 338.291C217.854 334.155 220.971 330.096 225.252 330.096H268.52C271.439 330.096 274.002 332.038 274.792 334.849L296.444 411.93H238.621Z" fill="#403657"/>
<path d="M274.794 334.85L296.266 411.296H301.21L279.738 334.85C278.943 332.038 276.384 330.094 273.464 330.094H268.52C271.44 330.093 273.999 332.038 274.794 334.85Z" fill="#1A0B42"/>
<path d="M263.67 374.31C264.794 379.167 261.768 383.105 256.911 383.105C252.054 383.105 247.205 379.168 246.081 374.31C244.957 369.453 247.983 365.515 252.84 365.515C257.697 365.515 262.546 369.453 263.67 374.31Z" fill="#614C6E"/>
<path d="M397.747 140.706C394.106 140.706 391.144 137.744 391.144 134.103C391.144 130.462 394.106 127.5 397.747 127.5C401.388 127.5 404.35 130.462 404.35 134.103C404.35 137.744 401.388 140.706 397.747 140.706ZM397.747 129.57C395.248 129.57 393.215 131.603 393.215 134.102C393.215 136.601 395.248 138.634 397.747 138.634C400.246 138.634 402.279 136.601 402.279 134.102C402.278 131.603 400.245 129.57 397.747 129.57Z" fill="#7846D1"/>
<path d="M421.518 163.872C417.877 163.872 414.915 160.91 414.915 157.269C414.915 153.628 417.877 150.666 421.518 150.666C425.159 150.666 428.121 153.628 428.121 157.269C428.121 160.91 425.159 163.872 421.518 163.872ZM421.518 152.737C419.019 152.737 416.986 154.77 416.986 157.269C416.986 159.768 419.019 161.801 421.518 161.801C424.017 161.801 426.05 159.768 426.05 157.269C426.05 154.77 424.017 152.737 421.518 152.737Z" fill="#9C78ED"/>
<path d="M429.677 185.33C429.105 185.33 428.641 184.866 428.641 184.294V179.726C428.641 179.154 429.105 178.69 429.677 178.69C430.249 178.69 430.713 179.154 430.713 179.726V184.294C430.712 184.866 430.249 185.33 429.677 185.33Z" fill="#7846D1"/>
<path d="M429.677 193.324C429.105 193.324 428.641 192.86 428.641 192.288V187.72C428.641 187.148 429.105 186.684 429.677 186.684C430.249 186.684 430.713 187.148 430.713 187.72V192.288C430.712 192.861 430.249 193.324 429.677 193.324Z" fill="#7846D1"/>
<path d="M436.088 187.044H431.985C431.413 187.044 430.949 186.58 430.949 186.008C430.949 185.436 431.413 184.972 431.985 184.972H436.088C436.66 184.972 437.124 185.436 437.124 186.008C437.124 186.58 436.66 187.044 436.088 187.044Z" fill="#7846D1"/>
<path d="M427.368 187.044H423.265C422.693 187.044 422.229 186.58 422.229 186.008C422.229 185.436 422.693 184.972 423.265 184.972H427.368C427.94 184.972 428.404 185.436 428.404 186.008C428.404 186.58 427.94 187.044 427.368 187.044Z" fill="#7846D1"/>
<path d="M393.215 159.734C392.643 159.734 392.179 159.27 392.179 158.698V154.13C392.179 153.558 392.643 153.094 393.215 153.094C393.787 153.094 394.251 153.558 394.251 154.13V158.698C394.251 159.27 393.787 159.734 393.215 159.734Z" fill="#5B23A9"/>
<path d="M393.215 167.728C392.643 167.728 392.179 167.264 392.179 166.692V162.124C392.179 161.552 392.643 161.088 393.215 161.088C393.787 161.088 394.251 161.552 394.251 162.124V166.692C394.251 167.264 393.787 167.728 393.215 167.728Z" fill="#5B23A9"/>
<path d="M399.627 161.447H395.524C394.952 161.447 394.488 160.983 394.488 160.411C394.488 159.839 394.952 159.375 395.524 159.375H399.627C400.199 159.375 400.663 159.839 400.663 160.411C400.662 160.983 400.199 161.447 399.627 161.447Z" fill="#5B23A9"/>
<path d="M390.907 161.447H386.804C386.232 161.447 385.768 160.983 385.768 160.411C385.768 159.839 386.232 159.375 386.804 159.375H390.907C391.479 159.375 391.943 159.839 391.943 160.411C391.942 160.983 391.479 161.447 390.907 161.447Z" fill="#5B23A9"/>
<path d="M91.2959 110.388C91.2959 106.747 94.2579 103.785 97.8989 103.785C101.54 103.785 104.502 106.747 104.502 110.388C104.502 114.029 101.54 116.991 97.8989 116.991C94.2579 116.992 91.2959 114.029 91.2959 110.388ZM93.3679 110.388C93.3679 112.887 95.4009 114.92 97.8999 114.92C100.399 114.92 102.432 112.887 102.432 110.388C102.432 107.889 100.399 105.856 97.8999 105.856C95.4009 105.856 93.3679 107.889 93.3679 110.388Z" fill="#7846D1"/>
<path d="M64.778 135.558C64.778 131.917 67.74 128.954 71.381 128.954C75.022 128.954 77.984 131.916 77.984 135.558C77.984 139.2 75.022 142.161 71.381 142.161C67.74 142.161 64.778 139.199 64.778 135.558ZM66.849 135.558C66.849 138.057 68.882 140.09 71.381 140.09C73.88 140.09 75.913 138.057 75.913 135.558C75.913 133.059 73.88 131.026 71.381 131.026C68.882 131.026 66.849 133.059 66.849 135.558Z" fill="#9C78ED"/>
<path d="M51.0489 144.825C51.6209 144.825 52.0849 144.361 52.0849 143.789V139.221C52.0849 138.649 51.6209 138.185 51.0489 138.185C50.4769 138.185 50.0129 138.649 50.0129 139.221V143.789C50.0129 144.361 50.4769 144.825 51.0489 144.825Z" fill="#7846D1"/>
<path d="M51.0489 152.819C51.6209 152.819 52.0849 152.355 52.0849 151.783V147.215C52.0849 146.643 51.6209 146.179 51.0489 146.179C50.4769 146.179 50.0129 146.643 50.0129 147.215V151.783C50.0129 152.355 50.4769 152.819 51.0489 152.819Z" fill="#7846D1"/>
<path d="M44.6379 146.538H48.7409C49.3129 146.538 49.7769 146.074 49.7769 145.502C49.7769 144.93 49.3129 144.466 48.7409 144.466H44.6379C44.0659 144.466 43.6019 144.93 43.6019 145.502C43.6019 146.074 44.0659 146.538 44.6379 146.538Z" fill="#7846D1"/>
<path d="M53.3579 146.538H57.4609C58.0329 146.538 58.4969 146.074 58.4969 145.502C58.4969 144.93 58.0329 144.466 57.4609 144.466H53.3579C52.7859 144.466 52.3219 144.93 52.3219 145.502C52.3219 146.074 52.7859 146.538 53.3579 146.538Z" fill="#7846D1"/>
<path d="M74.9159 109.711C75.4879 109.711 75.9519 109.247 75.9519 108.675V104.107C75.9519 103.535 75.4879 103.071 74.9159 103.071C74.3439 103.071 73.8799 103.535 73.8799 104.107V108.675C73.8809 109.247 74.3449 109.711 74.9159 109.711Z" fill="#5B23A9"/>
<path d="M74.9159 117.705C75.4879 117.705 75.9519 117.241 75.9519 116.669V112.101C75.9519 111.529 75.4879 111.065 74.9159 111.065C74.3439 111.065 73.8799 111.529 73.8799 112.101V116.669C73.8809 117.241 74.3449 117.705 74.9159 117.705Z" fill="#5B23A9"/>
<path d="M68.5049 111.425H72.6079C73.1799 111.425 73.6439 110.961 73.6439 110.389C73.6439 109.817 73.1799 109.353 72.6079 109.353H68.5049C67.9329 109.353 67.4689 109.817 67.4689 110.389C67.4689 110.961 67.9329 111.425 68.5049 111.425Z" fill="#5B23A9"/>
<path d="M77.2248 111.425H81.3278C81.8998 111.425 82.3638 110.961 82.3638 110.389C82.3638 109.817 81.8998 109.353 81.3278 109.353H77.2248C76.6528 109.353 76.1888 109.817 76.1888 110.389C76.1888 110.961 76.6528 111.425 77.2248 111.425Z" fill="#5B23A9"/>
<path d="M346.03 117.399V137.506C346.03 140.164 343.874 142.32 341.216 142.32H304.707L293.685 146.274C292.553 146.681 291.47 145.568 291.904 144.448L296.073 133.681V117.398C296.073 114.74 298.229 112.584 300.889 112.584H341.215C343.873 112.584 346.03 114.741 346.03 117.399Z" fill="#9C78ED"/>
<g opacity="0.5">
<path d="M338.333 123.087H304.84C304.106 123.087 303.511 122.492 303.511 121.758C303.511 121.024 304.106 120.43 304.84 120.43H338.333C339.067 120.43 339.662 121.025 339.662 121.758C339.662 122.493 339.067 123.087 338.333 123.087Z" fill="#E0D5F8"/>
<path d="M338.333 128.437H304.84C304.106 128.437 303.511 127.842 303.511 127.108C303.511 126.374 304.106 125.78 304.84 125.78H338.333C339.067 125.78 339.662 126.375 339.662 127.108C339.662 127.842 339.067 128.437 338.333 128.437Z" fill="#E0D5F8"/>
<path d="M338.333 133.788H304.84C304.106 133.788 303.511 133.193 303.511 132.46C303.511 131.726 304.106 131.131 304.84 131.131H338.333C339.067 131.131 339.662 131.726 339.662 132.46C339.662 133.193 339.067 133.788 338.333 133.788Z" fill="#E0D5F8"/>
</g>
<path d="M453.721 419.45V420.169C453.721 424.314 450.36 427.675 446.212 427.675H56.778C52.631 427.675 49.272 424.314 49.272 420.169V419.45C49.272 415.305 52.631 411.944 56.778 411.944H446.212C450.36 411.944 453.721 415.305 453.721 419.45Z" fill="#5B23A9"/>
<path d="M453.721 419.45V419.809H49.272V419.45C49.272 415.305 52.631 411.944 56.778 411.944H446.212C450.36 411.944 453.721 415.305 453.721 419.45Z" fill="#7846D1"/>
</g>
<defs>
<clipPath id="clip0_71_9954">
<rect width="500" height="500" fill="white"/>
</clipPath>
</defs>
</svg>
