<svg width="32" height="32" viewBox="0 0 32 32" fill="none" xmlns="http://www.w3.org/2000/svg">
<path d="M0 16C0 7.16344 7.16344 0 16 0C24.8366 0 32 7.16344 32 16C32 24.8366 24.8366 32 16 32C7.16344 32 0 24.8366 0 16Z" fill="#8E36CF"/>
<path d="M16.0052 9.02208C18.2795 9.02208 18.5488 9.03206 19.4432 9.07196C20.2745 9.10853 20.7233 9.24818 21.0226 9.36456C21.4183 9.51751 21.7042 9.70371 22.0001 9.99963C22.2994 10.2989 22.4823 10.5815 22.6352 10.9772C22.7516 11.2764 22.8913 11.7286 22.9278 12.5566C22.9677 13.4543 22.9777 13.7236 22.9777 15.9946C22.9777 18.2689 22.9677 18.5382 22.9278 19.4327C22.8913 20.2639 22.7516 20.7128 22.6352 21.012C22.4823 21.4077 22.2961 21.6937 22.0001 21.9896C21.7009 22.2888 21.4183 22.4717 21.0226 22.6247C20.7233 22.741 20.2711 22.8807 19.4432 22.9173C18.5455 22.9572 18.2761 22.9671 16.0052 22.9671C13.7309 22.9671 13.4615 22.9572 12.5671 22.9173C11.7359 22.8807 11.287 22.741 10.9877 22.6247C10.5921 22.4717 10.3061 22.2855 10.0102 21.9896C9.71094 21.6903 9.52807 21.4077 9.37512 21.012C9.25874 20.7128 9.11909 20.2606 9.08252 19.4327C9.04262 18.5349 9.03264 18.2656 9.03264 15.9946C9.03264 13.7203 9.04262 13.451 9.08252 12.5566C9.11909 11.7253 9.25874 11.2764 9.37512 10.9772C9.52807 10.5815 9.71427 10.2956 10.0102 9.99963C10.3094 9.70038 10.5921 9.51751 10.9877 9.36456C11.287 9.24818 11.7392 9.10853 12.5671 9.07196C13.4615 9.03206 13.7309 9.02208 16.0052 9.02208ZM16.0052 7.48926C13.6943 7.48926 13.405 7.49923 12.4973 7.53913C11.5929 7.57903 10.9711 7.72533 10.4325 7.93481C9.87054 8.15426 9.39507 8.44353 8.92292 8.91901C8.44744 9.39116 8.15816 9.86663 7.93871 10.4252C7.72924 10.9672 7.58294 11.5857 7.54304 12.4901C7.50314 13.4011 7.49316 13.6904 7.49316 16.0013C7.49316 18.3121 7.50314 18.6014 7.54304 19.5091C7.58294 20.4135 7.72924 21.0353 7.93871 21.574C8.15816 22.1359 8.44744 22.6114 8.92292 23.0835C9.39507 23.5557 9.87054 23.8483 10.4291 24.0644C10.9711 24.2739 11.5896 24.4202 12.494 24.4601C13.4017 24.5 13.691 24.5099 16.0018 24.5099C18.3127 24.5099 18.602 24.5 19.5097 24.4601C20.4141 24.4202 21.0359 24.2739 21.5746 24.0644C22.1332 23.8483 22.6086 23.5557 23.0808 23.0835C23.5529 22.6114 23.8455 22.1359 24.0617 21.5773C24.2711 21.0353 24.4174 20.4169 24.4573 19.5125C24.4972 18.6047 24.5072 18.3155 24.5072 16.0046C24.5072 13.6937 24.4972 13.4044 24.4573 12.4967C24.4174 11.5923 24.2711 10.9705 24.0617 10.4319C23.8522 9.86663 23.5629 9.39116 23.0874 8.91901C22.6153 8.44686 22.1398 8.15426 21.5812 7.93813C21.0392 7.72866 20.4208 7.58236 19.5164 7.54246C18.6053 7.49923 18.316 7.48926 16.0052 7.48926Z" fill="white"/>
<path d="M16.0052 11.6289C13.5912 11.6289 11.6328 13.5873 11.6328 16.0013C11.6328 18.4152 13.5912 20.3737 16.0052 20.3737C18.4191 20.3737 20.3776 18.4152 20.3776 16.0013C20.3776 13.5873 18.4191 11.6289 16.0052 11.6289ZM16.0052 18.8375C14.4391 18.8375 13.169 17.5674 13.169 16.0013C13.169 14.4352 14.4391 13.1651 16.0052 13.1651C17.5713 13.1651 18.8414 14.4352 18.8414 16.0013C18.8414 17.5674 17.5713 18.8375 16.0052 18.8375Z" fill="white"/>
<path d="M21.5712 11.4563C21.5712 12.0216 21.1124 12.4771 20.5504 12.4771C19.9852 12.4771 19.5297 12.0183 19.5297 11.4563C19.5297 10.8911 19.9885 10.4355 20.5504 10.4355C21.1124 10.4355 21.5712 10.8944 21.5712 11.4563Z" fill="white"/>
</svg>
