<svg width="32" height="32" viewBox="0 0 32 32" fill="none" xmlns="http://www.w3.org/2000/svg">
<path d="M5.33329 5.33301C4.62605 5.33301 3.94777 5.61396 3.44767 6.11406C2.94758 6.61415 2.66663 7.29243 2.66663 7.99967V13.333C3.37387 13.333 4.05215 13.614 4.55224 14.1141C5.05234 14.6142 5.33329 15.2924 5.33329 15.9997C5.33329 16.7069 5.05234 17.3852 4.55224 17.8853C4.05215 18.3854 3.37387 18.6663 2.66663 18.6663V23.9997C2.66663 24.7069 2.94758 25.3852 3.44767 25.8853C3.94777 26.3854 4.62605 26.6663 5.33329 26.6663H26.6666C27.3739 26.6663 28.0521 26.3854 28.5522 25.8853C29.0523 25.3852 29.3333 24.7069 29.3333 23.9997V18.6663C28.626 18.6663 27.9478 18.3854 27.4477 17.8853C26.9476 17.3852 26.6666 16.7069 26.6666 15.9997C26.6666 15.2924 26.9476 14.6142 27.4477 14.1141C27.9478 13.614 28.626 13.333 29.3333 13.333V7.99967C29.3333 7.29243 29.0523 6.61415 28.5522 6.11406C28.0521 5.61396 27.3739 5.33301 26.6666 5.33301H5.33329ZM20.6666 9.33301L22.6666 11.333L11.3333 22.6663L9.33329 20.6663L20.6666 9.33301ZM11.7466 9.38634C13.0533 9.38634 14.1066 10.4397 14.1066 11.7463C14.1066 12.3723 13.858 12.9725 13.4154 13.4151C12.9728 13.8577 12.3725 14.1063 11.7466 14.1063C10.44 14.1063 9.38663 13.053 9.38663 11.7463C9.38663 11.1204 9.63527 10.5202 10.0779 10.0776C10.5204 9.63498 11.1207 9.38634 11.7466 9.38634ZM20.2533 17.893C21.56 17.893 22.6133 18.9463 22.6133 20.253C22.6133 20.8789 22.3647 21.4792 21.9221 21.9218C21.4795 22.3644 20.8792 22.613 20.2533 22.613C18.9466 22.613 17.8933 21.5597 17.8933 20.253C17.8933 19.6271 18.1419 19.0268 18.5845 18.5842C19.0271 18.1417 19.6274 17.893 20.2533 17.893Z" fill="#CF3DA6"/>
</svg>
