<svg width="46" height="46" viewBox="0 0 46 46" fill="none" xmlns="http://www.w3.org/2000/svg">
<g clip-path="url(#clip0_197_4906)">
<path d="M25.6395 8.14765C25.2347 7.5677 24.6161 7.1723 23.9198 7.04844C23.2235 6.92457 22.5065 7.08239 21.9266 7.48718L17.5531 10.5397C17.9579 11.1196 18.1157 11.8366 17.9919 12.5329C17.868 13.2292 17.4726 13.8478 16.8927 14.2526C16.3127 14.6574 15.5957 14.8152 14.8994 14.6913C14.2031 14.5675 13.5845 14.1721 13.1797 13.5921L8.8063 16.6446C8.22634 17.0494 7.83095 17.668 7.70708 18.3643C7.58322 19.0606 7.74104 19.7776 8.14582 20.3576L20.3557 37.8512C20.7605 38.4312 21.3791 38.8266 22.0754 38.9505C22.7717 39.0743 23.4887 38.9165 24.0687 38.5117L28.4421 35.4592C28.0373 34.8793 27.8795 34.1623 28.0034 33.466C28.1272 32.7697 28.5226 32.1511 29.1026 31.7463C29.6825 31.3415 30.3995 31.1837 31.0958 31.3076C31.7921 31.4314 32.4107 31.8268 32.8155 32.4068L37.1889 29.3543C37.7689 28.9495 38.1643 28.3309 38.2882 27.6346C38.412 26.9383 38.2542 26.2213 37.8494 25.6413L25.6395 8.14765ZM31.1353 23.0106L30.64 25.7953L14.8599 22.9883L15.3553 20.2036L31.1353 23.0106ZM25.9863 15.7266C26.7342 16.7981 26.4733 18.2647 25.4018 19.0125C24.8885 19.3708 24.254 19.5104 23.6378 19.4008C23.0215 19.2912 22.4741 18.9413 22.1158 18.428C21.368 17.3565 21.6289 15.8899 22.7004 15.1421C23.2136 14.7838 23.8482 14.6441 24.4644 14.7538C25.0806 14.8634 25.6281 15.2133 25.9863 15.7266ZM23.8794 27.5709C24.6273 28.6424 24.3664 30.109 23.2949 30.8568C22.7816 31.2151 22.1471 31.3547 21.5308 31.2451C20.9146 31.1355 20.3672 30.7856 20.0089 30.2723C19.2611 29.2008 19.522 27.7342 20.5934 26.9864C21.1067 26.6281 21.7412 26.4885 22.3575 26.5981C22.9737 26.7077 23.5212 27.0576 23.8794 27.5709Z" fill="#8D36D1"/>
</g>
<defs>
<clipPath id="clip0_197_4906">
<rect width="32" height="32" fill="white" transform="translate(26.9609 0.722656) rotate(55.0865)"/>
</clipPath>
</defs>
</svg>
