<svg width="40" height="40" viewBox="0 0 40 40" fill="none" xmlns="http://www.w3.org/2000/svg">
<path d="M30 11.932C29.9 11.9154 29.7834 11.9154 29.6834 11.932C27.3834 11.8487 25.55 9.96537 25.55 7.63203C25.55 5.2487 27.4667 3.33203 29.85 3.33203C32.2334 3.33203 34.15 5.26537 34.15 7.63203C34.1334 9.96537 32.3 11.8487 30 11.932Z" stroke="#CF3DA6" stroke-width="2" stroke-linecap="round" stroke-linejoin="round"/>
<path d="M28.2834 24.0656C30.5667 24.449 33.0834 24.049 34.8501 22.8656C37.2001 21.299 37.2001 18.7323 34.8501 17.1656C33.0667 15.9823 30.5167 15.5823 28.2334 15.9823" stroke="#CF3DA6" stroke-width="2" stroke-linecap="round" stroke-linejoin="round"/>
<path d="M9.94981 11.932C10.0498 11.9154 10.1665 11.9154 10.2665 11.932C12.5665 11.8487 14.3998 9.96537 14.3998 7.63203C14.3998 5.2487 12.4831 3.33203 10.0998 3.33203C7.71647 3.33203 5.7998 5.26537 5.7998 7.63203C5.81647 9.96537 7.64981 11.8487 9.94981 11.932Z" stroke="#CF3DA6" stroke-width="2" stroke-linecap="round" stroke-linejoin="round"/>
<path d="M11.6666 24.0656C9.38323 24.449 6.86657 24.049 5.0999 22.8656C2.7499 21.299 2.7499 18.7323 5.0999 17.1656C6.88324 15.9823 9.43323 15.5823 11.7166 15.9823" stroke="#CF3DA6" stroke-width="2" stroke-linecap="round" stroke-linejoin="round"/>
<path d="M20 24.3852C19.9 24.3685 19.7834 24.3685 19.6834 24.3852C17.3834 24.3018 15.55 22.4185 15.55 20.0852C15.55 17.7018 17.4667 15.7852 19.85 15.7852C22.2334 15.7852 24.15 17.7185 24.15 20.0852C24.1334 22.4185 22.3 24.3185 20 24.3852Z" stroke="#CF3DA6" stroke-width="2" stroke-linecap="round" stroke-linejoin="round"/>
<path d="M15.15 29.6336C12.8 31.2003 12.8 33.7669 15.15 35.3336C17.8166 37.1169 22.1833 37.1169 24.8499 35.3336C27.1999 33.7669 27.1999 31.2003 24.8499 29.6336C22.1999 27.8669 17.8166 27.8669 15.15 29.6336Z" stroke="#CF3DA6" stroke-width="2" stroke-linecap="round" stroke-linejoin="round"/>
</svg>
