<svg width="64" height="65" viewBox="0 0 64 65" fill="none" xmlns="http://www.w3.org/2000/svg">
<rect y="0.839844" width="64" height="64" rx="32" fill="#CF3DA6" fill-opacity="0.08"/>
<path d="M30.7333 36.9332L28.2666 39.3998C27.7466 39.9198 26.92 39.9198 26.3866 39.4132C26.24 39.2665 26.0933 39.1332 25.9466 38.9865C24.5733 37.5998 23.3333 36.1465 22.2266 34.6265C21.1333 33.1065 20.2533 31.5865 19.6133 30.0798C18.9866 28.5598 18.6666 27.1065 18.6666 25.7198C18.6666 24.8132 18.8266 23.9465 19.1466 23.1465C19.4666 22.3332 19.9733 21.5865 20.68 20.9198C21.5333 20.0798 22.4666 19.6665 23.4533 19.6665C23.8266 19.6665 24.2 19.7465 24.5333 19.9065C24.88 20.0665 25.1866 20.3065 25.4266 20.6532L28.52 25.0132C28.76 25.3465 28.9333 25.6532 29.0533 25.9465C29.1733 26.2265 29.24 26.5065 29.24 26.7598C29.24 27.0798 29.1466 27.3998 28.96 27.7065C28.7866 28.0132 28.5333 28.3332 28.2133 28.6532L27.2 29.7065C27.0533 29.8532 26.9866 30.0265 26.9866 30.2398C26.9866 30.3465 27 30.4398 27.0266 30.5465C27.0666 30.6532 27.1066 30.7332 27.1333 30.8132C27.3733 31.2532 27.7866 31.8265 28.3733 32.5198C28.9733 33.2132 29.6133 33.9198 30.3066 34.6265C30.44 34.7598 30.5866 34.8932 30.72 35.0265C31.2533 35.5465 31.2666 36.3998 30.7333 36.9332Z" fill="#CF3DA6"/>
<path d="M45.2934 41.4402C45.2934 41.8135 45.2267 42.2002 45.0934 42.5735C45.0534 42.6802 45.0134 42.7869 44.96 42.8935C44.7334 43.3735 44.4401 43.8269 44.0534 44.2535C43.4001 44.9735 42.68 45.4935 41.8667 45.8269C41.8534 45.8269 41.84 45.8402 41.8267 45.8402C41.04 46.1602 40.1867 46.3335 39.2667 46.3335C37.9067 46.3335 36.4534 46.0135 34.92 45.3602C33.3867 44.7069 31.8534 43.8269 30.3334 42.7202C29.8134 42.3335 29.2934 41.9469 28.8 41.5335L33.16 37.1735C33.5334 37.4535 33.8667 37.6669 34.1467 37.8135C34.2134 37.8402 34.2934 37.8802 34.3867 37.9202C34.4934 37.9602 34.6 37.9735 34.72 37.9735C34.9467 37.9735 35.12 37.8935 35.2667 37.7469L36.28 36.7469C36.6134 36.4135 36.9334 36.1602 37.24 36.0002C37.5467 35.8135 37.8534 35.7202 38.1867 35.7202C38.44 35.7202 38.7067 35.7735 39 35.8935C39.2934 36.0135 39.6 36.1869 39.9334 36.4135L44.3467 39.5469C44.6934 39.7869 44.9334 40.0669 45.08 40.4002C45.2134 40.7335 45.2934 41.0669 45.2934 41.4402Z" fill="#CF3DA6"/>
</svg>
