<svg width="32" height="32" viewBox="0 0 32 32" fill="none" xmlns="http://www.w3.org/2000/svg">
<path d="M17.7334 10.8131L19.4934 14.3331C19.7334 14.8131 20.3734 15.2931 20.9067 15.3731L24.0934 15.9064C26.1334 16.2531 26.6134 17.7198 25.1467 19.1864L22.6667 21.6798C22.2534 22.0931 22.0134 22.9064 22.1467 23.4931L22.8534 26.5731C23.4134 28.9998 22.12 29.9464 19.9734 28.6798L16.9867 26.9064C16.44 26.5864 15.56 26.5864 15.0134 26.9064L12.0134 28.6664C9.86671 29.9331 8.57338 28.9864 9.13338 26.5598L9.84005 23.4798C9.97338 22.9064 9.73338 22.0931 9.32005 21.6664L6.85338 19.1998C5.38671 17.7331 5.86671 16.2531 7.90671 15.9198L11.0934 15.3864C11.6267 15.2931 12.2667 14.8264 12.5067 14.3464L14.2667 10.8264C15.2134 8.90644 16.7867 8.90644 17.7334 10.8131Z" fill="#CF3DA6"/>
<path d="M8 13.0003C7.45333 13.0003 7 12.547 7 12.0003V2.66699C7 2.12033 7.45333 1.66699 8 1.66699C8.54667 1.66699 9 2.12033 9 2.66699V12.0003C9 12.547 8.54667 13.0003 8 13.0003Z" fill="#CF3DA6"/>
<path d="M24 13.0003C23.4533 13.0003 23 12.547 23 12.0003V2.66699C23 2.12033 23.4533 1.66699 24 1.66699C24.5467 1.66699 25 2.12033 25 2.66699V12.0003C25 12.547 24.5467 13.0003 24 13.0003Z" fill="#CF3DA6"/>
<path d="M16 6.33366C15.4533 6.33366 15 5.88033 15 5.33366V2.66699C15 2.12033 15.4533 1.66699 16 1.66699C16.5467 1.66699 17 2.12033 17 2.66699V5.33366C17 5.88033 16.5467 6.33366 16 6.33366Z" fill="#CF3DA6"/>
</svg>
