<svg width="42" height="40" viewBox="0 0 42 40" fill="none" xmlns="http://www.w3.org/2000/svg">
<path d="M36.6419 20.9161C36.6584 20.6127 36.6667 20.3072 36.6667 19.9997C36.6667 10.7949 29.2048 3.33301 20 3.33301C10.7953 3.33301 3.33337 10.7949 3.33337 19.9997C3.33337 29.0587 10.5609 36.4296 19.5642 36.6608M20 9.99967V19.9997L26.2307 23.115" stroke="#CF3DA6" stroke-width="2.5" stroke-linecap="round" stroke-linejoin="round"/>
<path d="M25.4584 34.0994C24.9281 34.0994 24.4558 34.0083 24.0415 33.826C23.6295 33.6413 23.304 33.388 23.0649 33.0661C22.8282 32.7417 22.7062 32.3677 22.6991 31.9439H24.2474C24.2569 32.1214 24.3149 32.2777 24.4214 32.4126C24.5303 32.5452 24.6747 32.6482 24.8547 32.7216C25.0346 32.795 25.237 32.8317 25.4619 32.8317C25.6963 32.8317 25.9034 32.7902 26.0834 32.7074C26.2633 32.6245 26.4041 32.5097 26.5059 32.3629C26.6077 32.2161 26.6586 32.0469 26.6586 31.8551C26.6586 31.661 26.6042 31.4893 26.4953 31.3402C26.3888 31.1887 26.2349 31.0703 26.0336 30.9851C25.8348 30.8999 25.598 30.8572 25.3234 30.8572H24.6452V29.728H25.3234C25.5554 29.728 25.7602 29.6877 25.9378 29.6072C26.1177 29.5268 26.2574 29.4155 26.3568 29.2734C26.4562 29.129 26.5059 28.9609 26.5059 28.7692C26.5059 28.5869 26.4622 28.4271 26.3746 28.2898C26.2893 28.1501 26.1686 28.0412 26.0123 27.9631C25.8585 27.8849 25.6785 27.8459 25.4726 27.8459C25.2642 27.8459 25.0737 27.8838 24.9008 27.9595C24.728 28.0329 24.5895 28.1383 24.4854 28.2756C24.3812 28.4129 24.3256 28.5739 24.3184 28.7585H22.8447C22.8518 28.3395 22.9714 27.9702 23.2034 27.6506C23.4354 27.331 23.7479 27.0812 24.1409 26.9013C24.5363 26.719 24.9825 26.6278 25.4797 26.6278C25.9816 26.6278 26.4207 26.719 26.7971 26.9013C27.1736 27.0836 27.4659 27.3298 27.6743 27.6399C27.885 27.9477 27.9891 28.2933 27.9868 28.6768C27.9891 29.084 27.8625 29.4238 27.6068 29.696C27.3535 29.9683 27.0232 30.1411 26.616 30.2145V30.2713C27.1511 30.34 27.5583 30.5258 27.8376 30.8288C28.1193 31.1295 28.259 31.5059 28.2567 31.9581C28.259 32.3724 28.1395 32.7405 27.898 33.0625C27.6589 33.3845 27.3286 33.6378 26.9072 33.8224C26.4858 34.0071 26.0029 34.0994 25.4584 34.0994ZM32.1531 34.0994C31.7791 34.0971 31.4181 34.0343 31.07 33.9112C30.7244 33.7881 30.4143 33.5881 30.1396 33.3111C29.865 33.0341 29.6472 32.6671 29.4862 32.2102C29.3276 31.7533 29.2483 31.1922 29.2483 30.527C29.2507 29.9162 29.3205 29.3705 29.4578 28.8899C29.5975 28.407 29.7964 27.9974 30.0544 27.6612C30.3148 27.325 30.6262 27.0694 30.9884 26.8942C31.3506 26.7166 31.7566 26.6278 32.2064 26.6278C32.6917 26.6278 33.1202 26.7225 33.4919 26.9119C33.8636 27.099 34.1619 27.3535 34.3868 27.6754C34.6141 27.9974 34.7514 28.3584 34.7987 28.7585H33.2824C33.2232 28.5052 33.0989 28.3063 32.9095 28.1619C32.7201 28.0175 32.4858 27.9453 32.2064 27.9453C31.7329 27.9453 31.3731 28.1513 31.1269 28.5632C30.883 28.9751 30.7587 29.535 30.754 30.2429H30.8037C30.9126 30.0275 31.0594 29.844 31.2441 29.6925C31.4311 29.5386 31.643 29.4214 31.8797 29.3409C32.1188 29.258 32.3709 29.2166 32.6361 29.2166C33.067 29.2166 33.4505 29.3184 33.7867 29.522C34.1228 29.7232 34.388 30.0002 34.5821 30.353C34.7762 30.7057 34.8733 31.1094 34.8733 31.5639C34.8733 32.0563 34.7585 32.4943 34.5289 32.8778C34.3016 33.2614 33.9832 33.562 33.5736 33.7798C33.1664 33.9953 32.6929 34.1018 32.1531 34.0994ZM32.146 32.892C32.3828 32.892 32.5947 32.8352 32.7817 32.7216C32.9687 32.608 33.1155 32.4541 33.222 32.2599C33.3286 32.0658 33.3818 31.848 33.3818 31.6065C33.3818 31.3651 33.3286 31.1484 33.222 30.9567C33.1179 30.7649 32.9735 30.6122 32.7888 30.4986C32.6041 30.3849 32.3934 30.3281 32.1567 30.3281C31.9791 30.3281 31.8146 30.3613 31.6631 30.4276C31.5139 30.4938 31.3825 30.5862 31.2689 30.7045C31.1576 30.8229 31.07 30.9602 31.0061 31.1165C30.9422 31.2704 30.9102 31.4349 30.9102 31.6101C30.9102 31.8445 30.9635 32.0587 31.07 32.2528C31.1789 32.447 31.3257 32.602 31.5104 32.718C31.6974 32.834 31.9093 32.892 32.146 32.892ZM38.6198 34.0994C38.1179 34.0994 37.6704 34.0071 37.2774 33.8224C36.8868 33.6378 36.5767 33.3833 36.347 33.0589C36.1174 32.7346 35.9978 32.3629 35.9884 31.9439H37.4798C37.4964 32.2256 37.6148 32.4541 37.835 32.6293C38.0551 32.8045 38.3167 32.892 38.6198 32.892C38.8612 32.892 39.0743 32.8388 39.259 32.7322C39.446 32.6233 39.5916 32.473 39.6958 32.2812C39.8023 32.0871 39.8556 31.8646 39.8556 31.6136C39.8556 31.358 39.8011 31.133 39.6922 30.9389C39.5857 30.7448 39.4377 30.5933 39.2483 30.4844C39.0589 30.3755 38.8423 30.3198 38.5985 30.3175C38.3854 30.3175 38.1782 30.3613 37.977 30.4489C37.7781 30.5365 37.6231 30.656 37.5118 30.8075L36.1446 30.5625L36.4891 26.7273H40.9351V27.9844H37.7568L37.5686 29.8061H37.6112C37.7391 29.6262 37.932 29.477 38.1901 29.3587C38.4481 29.2403 38.7369 29.1811 39.0566 29.1811C39.4945 29.1811 39.8852 29.2841 40.2284 29.4901C40.5717 29.696 40.8428 29.9789 41.0416 30.3388C41.2405 30.6963 41.3387 31.1082 41.3364 31.5746C41.3387 32.0646 41.2251 32.5002 40.9955 32.8814C40.7682 33.2602 40.4498 33.5585 40.0402 33.7763C39.633 33.9917 39.1595 34.0994 38.6198 34.0994Z" fill="#CF3DA6"/>
</svg>
