<svg width="40" height="40" viewBox="0 0 40 40" fill="none" xmlns="http://www.w3.org/2000/svg">
<path d="M36.6419 20.9161C36.6584 20.6127 36.6667 20.3072 36.6667 19.9997C36.6667 10.7949 29.2048 3.33301 20 3.33301C10.7953 3.33301 3.33337 10.7949 3.33337 19.9997C3.33337 29.0587 10.5609 36.4296 19.5642 36.6608M20 9.99967V19.9997L26.2307 23.115" stroke="#8E36CF" stroke-width="2.5" stroke-linecap="round" stroke-linejoin="round"/>
<path d="M27.4777 27.6278C27.8518 27.6278 28.2116 27.6906 28.5573 27.8161C28.9053 27.9415 29.2154 28.1416 29.4877 28.4162C29.7623 28.6908 29.9789 29.0554 30.1375 29.5099C30.2985 29.9621 30.3802 30.5173 30.3825 31.1754C30.3825 31.7933 30.3127 32.3449 30.173 32.8303C30.0357 33.3132 29.838 33.724 29.58 34.0625C29.3219 34.401 29.0106 34.6591 28.646 34.8366C28.2815 35.0118 27.8743 35.0994 27.4244 35.0994C26.9391 35.0994 26.5106 35.0059 26.1389 34.8189C25.7673 34.6295 25.4678 34.3726 25.2405 34.0483C25.0156 33.7216 24.8795 33.3546 24.8321 32.9474H26.3485C26.4076 33.2126 26.5319 33.4186 26.7213 33.5653C26.9107 33.7098 27.1451 33.782 27.4244 33.782C27.8979 33.782 28.2578 33.576 28.504 33.1641C28.7502 32.7498 28.8745 32.1828 28.8769 31.4631H28.8271C28.7182 31.6761 28.5715 31.8596 28.3868 32.0135C28.2021 32.165 27.9903 32.2822 27.7512 32.3651C27.5144 32.4479 27.2623 32.4893 26.9948 32.4893C26.5663 32.4893 26.1839 32.3887 25.8477 32.1875C25.5116 31.9863 25.2464 31.7093 25.0523 31.3565C24.8582 31.0038 24.7611 30.6013 24.7611 30.1491C24.7587 29.6615 24.8712 29.227 25.0985 28.8459C25.3257 28.4647 25.643 28.1664 26.0502 27.951C26.4597 27.7332 26.9356 27.6255 27.4777 27.6278ZM27.4884 28.8352C27.2493 28.8352 27.0362 28.892 26.8492 29.0057C26.6645 29.1193 26.5177 29.272 26.4088 29.4638C26.3023 29.6555 26.2502 29.8698 26.2526 30.1065C26.2526 30.3456 26.3047 30.5611 26.4088 30.7528C26.5154 30.9422 26.6598 31.0937 26.8421 31.2074C27.0267 31.3187 27.2374 31.3743 27.4742 31.3743C27.6517 31.3743 27.8163 31.3411 27.9678 31.2749C28.1193 31.2086 28.2507 31.1174 28.3619 31.0014C28.4756 30.883 28.5644 30.7469 28.6283 30.593C28.6922 30.4392 28.7242 30.2758 28.7242 30.103C28.7218 29.8733 28.6673 29.6626 28.5608 29.4709C28.4543 29.2791 28.3075 29.1252 28.1205 29.0092C27.9334 28.8932 27.7227 28.8352 27.4884 28.8352ZM34.2994 35.1598C33.6887 35.1574 33.1631 35.0071 32.7227 34.7088C32.2848 34.4105 31.9474 33.9785 31.7107 33.4126C31.4763 32.8468 31.3603 32.1662 31.3627 31.3707C31.3627 30.5777 31.4798 29.9018 31.7142 29.343C31.951 28.7843 32.2883 28.3594 32.7263 28.0682C33.1666 27.7746 33.691 27.6278 34.2994 27.6278C34.9079 27.6278 35.4311 27.7746 35.8691 28.0682C36.3094 28.3617 36.6479 28.7879 36.8847 29.3466C37.1214 29.9029 37.2386 30.5777 37.2362 31.3707C37.2362 32.1686 37.1179 32.8504 36.8811 33.4162C36.6468 33.982 36.3106 34.4141 35.8726 34.7124C35.4346 35.0107 34.9102 35.1598 34.2994 35.1598ZM34.2994 33.8849C34.7161 33.8849 35.0487 33.6754 35.2973 33.2564C35.5459 32.8374 35.669 32.2088 35.6666 31.3707C35.6666 30.8191 35.6098 30.3598 35.4962 29.9929C35.3849 29.6259 35.2263 29.3501 35.0203 29.1655C34.8167 28.9808 34.5764 28.8885 34.2994 28.8885C33.8852 28.8885 33.5537 29.0956 33.3051 29.5099C33.0566 29.9242 32.9311 30.5445 32.9287 31.3707C32.9287 31.9295 32.9843 32.3958 33.0956 32.7699C33.2093 33.1416 33.3691 33.4209 33.575 33.608C33.781 33.7926 34.0225 33.8849 34.2994 33.8849Z" fill="#8E36CF"/>
</svg>
