<svg width="34" height="36" viewBox="0 0 34 36" fill="none" xmlns="http://www.w3.org/2000/svg">
<path d="M12.0501 34.1496L15.9334 30.8829C16.5167 30.3829 17.4834 30.3829 18.0667 30.8829L21.9501 34.1496C22.8501 34.5996 23.9501 34.1496 24.2834 33.1829L25.0167 30.9663C25.2001 30.4329 25.0167 29.6496 24.6167 29.2496L20.8334 25.4496C20.5501 25.1829 20.3334 24.6496 20.3334 24.2663V19.5163C20.3334 18.8163 20.8501 18.4829 21.5001 18.7496L29.6834 22.2829C30.9667 22.8329 32.0167 22.1496 32.0167 20.7496V18.5996C32.0167 17.4829 31.1834 16.1996 30.1501 15.7663L20.8334 11.7496C20.5667 11.6329 20.3334 11.2829 20.3334 10.9829V5.98294C20.3334 4.41628 19.1834 2.56628 17.7834 1.84961C17.2834 1.59961 16.7001 1.59961 16.2001 1.84961C14.8001 2.56628 13.6501 4.43294 13.6501 5.99961V10.9996C13.6501 11.2996 13.4167 11.6496 13.1501 11.7663L3.85007 15.7829C2.81673 16.1996 1.9834 17.4829 1.9834 18.5996V20.7496C1.9834 22.1496 3.0334 22.8329 4.31673 22.2829L12.5001 18.7496C13.1334 18.4663 13.6667 18.8163 13.6667 19.5163V24.2663C13.6667 24.6496 13.4501 25.1829 13.1834 25.4496L9.40006 29.2496C9.00006 29.6496 8.81673 30.4163 9.00007 30.9663L9.7334 33.1829C10.0334 34.1496 11.1334 34.6163 12.0501 34.1496Z" stroke="#CF3DA6" stroke-width="2.5" stroke-linecap="round" stroke-linejoin="round"/>
</svg>
