<svg width="64" height="65" viewBox="0 0 64 65" fill="none" xmlns="http://www.w3.org/2000/svg">
<rect y="0.839844" width="64" height="64" rx="32" fill="#CF3DA6" fill-opacity="0.08"/>
<path d="M33.7334 27.8131L35.4934 31.3331C35.7334 31.8131 36.3734 32.2931 36.9067 32.3731L40.0934 32.9064C42.1334 33.2531 42.6134 34.7198 41.1467 36.1864L38.6667 38.6798C38.2534 39.0931 38.0134 39.9064 38.1467 40.4931L38.8534 43.5731C39.4134 45.9998 38.12 46.9464 35.9734 45.6798L32.9867 43.9064C32.44 43.5864 31.56 43.5864 31.0134 43.9064L28.0134 45.6664C25.8667 46.9331 24.5734 45.9864 25.1334 43.5598L25.84 40.4798C25.9734 39.9064 25.7334 39.0931 25.32 38.6664L22.8534 36.1998C21.3867 34.7331 21.8667 33.2531 23.9067 32.9198L27.0934 32.3864C27.6267 32.2931 28.2667 31.8264 28.5067 31.3464L30.2667 27.8264C31.2134 25.9064 32.7867 25.9064 33.7334 27.8131Z" fill="#CF3DA6"/>
<path d="M24 29.9998C23.4533 29.9998 23 29.5465 23 28.9998V19.6665C23 19.1198 23.4533 18.6665 24 18.6665C24.5467 18.6665 25 19.1198 25 19.6665V28.9998C25 29.5465 24.5467 29.9998 24 29.9998Z" fill="#CF3DA6"/>
<path d="M40 29.9998C39.4533 29.9998 39 29.5465 39 28.9998V19.6665C39 19.1198 39.4533 18.6665 40 18.6665C40.5467 18.6665 41 19.1198 41 19.6665V28.9998C41 29.5465 40.5467 29.9998 40 29.9998Z" fill="#CF3DA6"/>
<path d="M32 23.3332C31.4533 23.3332 31 22.8798 31 22.3332V19.6665C31 19.1198 31.4533 18.6665 32 18.6665C32.5467 18.6665 33 19.1198 33 19.6665V22.3332C33 22.8798 32.5467 23.3332 32 23.3332Z" fill="#CF3DA6"/>
</svg>
