<svg width="33" height="32" viewBox="0 0 33 32" fill="none" xmlns="http://www.w3.org/2000/svg">
<path d="M0.333252 16C0.333252 7.16344 7.4967 0 16.3333 0C25.1698 0 32.3333 7.16344 32.3333 16C32.3333 24.8366 25.1698 32 16.3333 32C7.4967 32 0.333252 24.8366 0.333252 16Z" fill="#55ACEE"/>
<path d="M15.8541 13.0046L15.8876 13.5582L15.328 13.4905C13.2912 13.2306 11.5117 12.3493 10.0008 10.8692L9.26216 10.1347L9.0719 10.6771C8.669 11.886 8.92641 13.1628 9.76579 14.0215C10.2135 14.496 10.1127 14.5638 9.3405 14.2814C9.0719 14.191 8.83688 14.1232 8.81449 14.1571C8.73615 14.2362 9.00475 15.2643 9.21739 15.6711C9.50838 16.236 10.1015 16.7897 10.7507 17.1173L11.299 17.3772L10.6499 17.3885C10.0232 17.3885 10.0008 17.3998 10.068 17.6371C10.2918 18.3715 11.1759 19.1511 12.1608 19.4901L12.8547 19.7273L12.2503 20.0889C11.355 20.6086 10.303 20.9024 9.25097 20.925C8.74734 20.9363 8.33325 20.9815 8.33325 21.0154C8.33325 21.1284 9.69864 21.7611 10.4932 22.0097C12.8771 22.7441 15.7086 22.4277 17.835 21.1736C19.3459 20.281 20.8567 18.5071 21.5618 16.7897C21.9423 15.8745 22.3228 14.2023 22.3228 13.4001C22.3228 12.8803 22.3564 12.8125 22.9831 12.1911C23.3525 11.8295 23.6994 11.4341 23.7666 11.3211C23.8785 11.1064 23.8673 11.1064 23.2965 11.2985C22.3452 11.6375 22.2109 11.5923 22.681 11.0838C23.0279 10.7223 23.442 10.0669 23.442 9.87487C23.442 9.84097 23.2741 9.89747 23.0839 9.99916C22.8824 10.1121 22.4348 10.2816 22.099 10.3833L21.4947 10.5754L20.9463 10.2025C20.6441 9.99916 20.2188 9.77318 19.995 9.70539C19.4242 9.54721 18.5512 9.56981 18.0364 9.75059C16.6375 10.259 15.7533 11.5697 15.8541 13.0046Z" fill="white"/>
</svg>
