<svg width="49" height="30" viewBox="0 0 49 30" fill="none" xmlns="http://www.w3.org/2000/svg">
<rect x="0.5" y="0.5" width="48" height="29" rx="2.5" fill="white" stroke="#DEDEDE"/>
<g clip-path="url(#clip0_84_326)">
<path d="M16.4733 6H23.449C24.4228 6 25.0284 6.81641 24.8013 7.82138L21.5536 22.1634C21.3244 23.1649 20.3493 23.982 19.375 23.982H12.3999C11.4275 23.982 10.8205 23.1649 11.0477 22.1634L14.2967 7.82138C14.5239 6.81641 15.4983 6 16.4733 6Z" fill="#E21836"/>
<path d="M22.8693 6H30.8913C31.8648 6 31.4259 6.81641 31.1969 7.82138L27.9495 22.1634C27.7218 23.1649 27.7928 23.982 26.8172 23.982H18.7953C17.8196 23.982 17.2159 23.1649 17.445 22.1634L20.6921 7.82138C20.9226 6.81641 21.8951 6 22.8693 6Z" fill="#00447C"/>
<path d="M30.5721 6H37.5478C38.523 6 39.1286 6.81641 38.8997 7.82138L35.6524 22.1634C35.4232 23.1649 34.4476 23.982 33.4725 23.982H26.5001C25.5245 23.982 24.9193 23.1649 25.1479 22.1634L28.3956 7.82138C28.6227 6.81641 29.5965 6 30.5721 6Z" fill="#007B84"/>
<path d="M18.2956 10.5966C17.5783 10.6041 17.3664 10.5966 17.2987 10.5802C17.2727 10.7073 16.7886 13.0041 16.7873 13.006C16.683 13.4706 16.6072 13.802 16.3496 14.0158C16.2034 14.1401 16.0327 14.2002 15.8347 14.2002C15.5167 14.2002 15.3313 14.0376 15.3002 13.7295L15.2942 13.6238C15.2942 13.6238 15.3911 13.0013 15.3911 12.9978C15.3911 12.9978 15.8992 10.9047 15.9902 10.6281C15.995 10.6124 15.9963 10.6041 15.9975 10.5966C15.0086 10.6056 14.8333 10.5966 14.8213 10.5802C14.8146 10.6027 14.7901 10.7325 14.7901 10.7325L14.2713 13.0916L14.2268 13.2917L14.1406 13.9461C14.1406 14.1401 14.1777 14.2986 14.2514 14.4326C14.4878 14.8574 15.162 14.9211 15.5434 14.9211C16.0347 14.9211 16.4957 14.8137 16.8072 14.6176C17.3478 14.2891 17.4894 13.7754 17.6155 13.3189L17.674 13.0848C17.674 13.0848 18.1973 10.9109 18.2863 10.6281C18.2895 10.6124 18.291 10.6041 18.2956 10.5966ZM20.0762 12.3503C19.9501 12.3503 19.7196 12.3818 19.5125 12.4862C19.4373 12.5259 19.3662 12.5717 19.2912 12.6173L19.3589 12.366L19.3218 12.3237C18.8827 12.4152 18.7844 12.4274 18.3787 12.4862L18.3448 12.5094C18.2976 12.9111 18.2557 13.2131 18.0812 14.0028C18.0143 14.2949 17.9461 14.5866 17.8764 14.878L17.895 14.9148C18.3109 14.8923 18.437 14.8923 18.7984 14.8984L18.8276 14.8658C18.8735 14.6239 18.8794 14.5672 18.9811 14.0772C19.0289 13.845 19.1286 13.3347 19.1777 13.1531C19.2679 13.11 19.357 13.0677 19.442 13.0677C19.6446 13.0677 19.6199 13.2494 19.6121 13.3218C19.6034 13.4433 19.5296 13.8403 19.454 14.1812L19.4034 14.4011C19.3683 14.5637 19.3297 14.7215 19.2945 14.8826L19.3098 14.9148C19.7195 14.8923 19.8445 14.8923 20.1944 14.8984L20.2355 14.8658C20.2989 14.488 20.3174 14.3868 20.4296 13.8368L20.486 13.5842C20.5957 13.0895 20.6508 12.8387 20.5678 12.6344C20.4801 12.4055 20.2695 12.3503 20.0762 12.3503ZM22.0656 12.8681C21.8477 12.9112 21.7088 12.9398 21.5708 12.9583C21.434 12.9808 21.3004 13.0014 21.09 13.0314L21.0733 13.047L21.0579 13.0593C21.0361 13.2207 21.0208 13.3601 20.9917 13.524C20.967 13.6934 20.9291 13.886 20.8674 14.1626C20.8196 14.3744 20.795 14.4482 20.7678 14.5226C20.7412 14.5972 20.712 14.6697 20.6583 14.8779L20.6709 14.8971L20.6814 14.9148C20.8781 14.9052 21.0069 14.8984 21.1391 14.8971C21.2712 14.8923 21.4082 14.8971 21.6199 14.8983L21.6385 14.8829L21.6584 14.8656C21.689 14.6778 21.6935 14.6273 21.7122 14.5357C21.7308 14.4374 21.7627 14.3013 21.8412 13.9379C21.8782 13.7672 21.9195 13.597 21.958 13.4228C21.9979 13.2494 22.0397 13.0786 22.0795 12.9078L22.0736 12.8872L22.0656 12.8681ZM22.0702 12.1699C21.8722 12.0498 21.525 12.0879 21.2911 12.2538C21.058 12.4165 21.0315 12.6474 21.2288 12.7691C21.4232 12.8859 21.7719 12.8511 22.0037 12.6837C22.2363 12.5175 22.2654 12.2888 22.0702 12.1699ZM23.2671 14.9525C23.6675 14.9525 24.078 14.8389 24.387 14.5022C24.6247 14.229 24.7337 13.8225 24.7714 13.6551C24.8943 13.1004 24.7986 12.8414 24.6785 12.6837C24.4958 12.4432 24.173 12.366 23.8383 12.366C23.637 12.366 23.1575 12.3865 22.7829 12.7418C22.5138 12.9979 22.3896 13.3457 22.3147 13.6789C22.239 14.0186 22.1519 14.63 22.6986 14.8575C22.8672 14.932 23.1104 14.9525 23.2671 14.9525ZM23.2358 13.7043C23.3281 13.2842 23.4372 12.9317 23.7153 12.9317C23.9333 12.9317 23.9492 13.194 23.8522 13.6154C23.8349 13.709 23.7553 14.0569 23.6477 14.2049C23.5725 14.3143 23.4837 14.3805 23.3852 14.3805C23.356 14.3805 23.1821 14.3805 23.1794 14.1149C23.1781 13.9838 23.2041 13.8498 23.2358 13.7043ZM25.7723 14.8985L25.8036 14.8658C25.848 14.6239 25.8553 14.5671 25.9536 14.0774C26.0028 13.845 26.1045 13.3349 26.1522 13.1531C26.2426 13.1099 26.3303 13.0676 26.418 13.0676C26.6191 13.0676 26.5946 13.2492 26.5866 13.3217C26.5793 13.4434 26.5055 13.8402 26.4285 14.1811L26.3807 14.401C26.3441 14.5637 26.3043 14.7214 26.2691 14.8827L26.2844 14.9149C26.6957 14.8924 26.8158 14.8924 27.1677 14.8985L27.2103 14.8658C27.272 14.4878 27.2887 14.3867 27.4043 13.8368L27.4593 13.584C27.5696 13.0894 27.6254 12.8388 27.5437 12.6345C27.4534 12.4056 27.2416 12.3504 27.0509 12.3504C26.9246 12.3504 26.6929 12.3816 26.487 12.4863C26.4134 12.5259 26.3395 12.5715 26.2671 12.6174L26.3303 12.3661L26.2963 12.3236C25.8573 12.4152 25.7571 12.4274 25.3519 12.4863L25.3207 12.5094C25.2716 12.9112 25.2317 13.213 25.0571 14.0029C24.9902 14.2949 24.922 14.5866 24.8525 14.878L24.8711 14.9149C25.2875 14.8924 25.4117 14.8924 25.7723 14.8985ZM28.793 14.9148C28.8189 14.785 28.9724 14.0159 28.9737 14.0159C28.9737 14.0159 29.1044 13.4515 29.1125 13.431C29.1125 13.431 29.1537 13.3723 29.1948 13.349H29.2553C29.8264 13.349 30.4714 13.349 30.9768 12.9665C31.3208 12.7042 31.556 12.3168 31.6609 11.846C31.6881 11.7306 31.7081 11.5934 31.7081 11.4561C31.7081 11.2758 31.673 11.0973 31.5713 10.958C31.3135 10.587 30.8002 10.5802 30.2076 10.5774L29.9156 10.5802C29.157 10.5899 28.8529 10.587 28.7279 10.5713C28.7174 10.6281 28.6975 10.7292 28.6975 10.7292C28.6975 10.7292 28.4258 12.0245 28.4258 12.0265L27.7449 14.9101C28.4072 14.9019 28.6787 14.9019 28.793 14.9148ZM29.2965 12.614C29.2965 12.614 29.5853 11.3213 29.5839 11.3263L29.5933 11.2599L29.5974 11.2095L29.7129 11.2217C29.7129 11.2217 30.3087 11.2743 30.3225 11.2757C30.5577 11.3693 30.6546 11.6105 30.587 11.9252C30.5252 12.213 30.3439 12.4549 30.1107 12.5717C29.9187 12.6707 29.6836 12.6789 29.4413 12.6789H29.2846L29.2965 12.614ZM31.0951 13.7283C31.0187 14.063 30.931 14.6744 31.4749 14.8923C31.6484 14.9681 31.8038 14.9907 31.9616 14.9825C32.1285 14.9733 32.2831 14.8872 32.4263 14.7634L32.3874 14.9163L32.4122 14.9489C32.8034 14.932 32.9248 14.932 33.3486 14.9354L33.3871 14.9052C33.4489 14.531 33.5073 14.1676 33.6682 13.4515C33.7465 13.1086 33.8247 12.769 33.9051 12.4274L33.8925 12.3899C33.4549 12.4732 33.338 12.4911 32.9169 12.5524L32.885 12.5792C32.8807 12.6141 32.8762 12.6475 32.8722 12.6809C32.8068 12.5721 32.7118 12.4792 32.5655 12.4214C32.3782 12.3455 31.9386 12.4432 31.5607 12.7971C31.295 13.0499 31.1675 13.3962 31.0951 13.7283ZM32.0143 13.7487C32.108 13.3361 32.2155 12.9871 32.4944 12.9871C32.6707 12.9871 32.7636 13.1544 32.7447 13.4398C32.7285 13.517 32.7117 13.594 32.6943 13.6709C32.6665 13.7935 32.6363 13.915 32.6068 14.0367C32.5769 14.12 32.542 14.1985 32.5038 14.2508C32.4321 14.3555 32.2613 14.4203 32.163 14.4203C32.1351 14.4203 31.9631 14.4203 31.9572 14.1593C31.9557 14.0294 31.9818 13.8957 32.0143 13.7487ZM36.8143 12.3864L36.7804 12.3467C36.3474 12.4369 36.2689 12.4513 35.8711 12.5065L35.8418 12.5366C35.8405 12.5415 35.8393 12.5489 35.8372 12.5558L35.8359 12.549C35.5397 13.2519 35.5484 13.1003 35.3073 13.6536C35.3059 13.6284 35.3059 13.6127 35.3046 13.586L35.2442 12.3864L35.2064 12.3467C34.7527 12.4369 34.742 12.4513 34.323 12.5065L34.2903 12.5366C34.2858 12.551 34.2857 12.5667 34.283 12.5838L34.2857 12.59C34.3381 12.8652 34.3256 12.8037 34.3781 13.2382C34.4026 13.4514 34.4353 13.6658 34.4597 13.8764C34.501 14.2288 34.5242 14.4023 34.5746 14.9401C34.2918 15.4203 34.2247 15.6021 33.9523 16.0235L33.9542 16.0277L33.7624 16.3397C33.7405 16.3726 33.7206 16.3951 33.6927 16.4048C33.6621 16.4203 33.6223 16.4231 33.567 16.4231H33.4607L33.3028 16.9635L33.8448 16.9731C34.1628 16.9718 34.3628 16.8188 34.4704 16.6131L34.8112 16.0125H34.8057L34.8416 15.9702C35.0708 15.4627 36.8143 12.3864 36.8143 12.3864ZM31.0951 19.4838H30.8652L31.7161 16.5891H31.9983L32.088 16.291L32.0965 16.6226C32.086 16.8275 32.2427 17.0092 32.6545 16.9792H33.1309L33.2947 16.4219H33.1155C33.0125 16.4219 32.9646 16.3951 32.9706 16.3377L32.962 16.0003H32.0801V16.0021C31.795 16.0082 30.9434 16.0302 30.771 16.0775C30.5624 16.1326 30.3426 16.2954 30.3426 16.2954L30.429 15.9968H29.604L29.432 16.5891L28.5698 19.528H28.4025L28.2384 20.0814H29.8815L29.8265 20.2659H30.6361L30.6899 20.0814H30.917L31.0951 19.4838ZM30.4209 17.1773C30.2887 17.2149 30.043 17.3289 30.043 17.3289L30.2616 16.5891H30.917L30.759 17.1281C30.759 17.1281 30.5564 17.1405 30.421 17.1773M30.4336 18.2341C30.4336 18.2341 30.2277 18.2608 30.0922 18.2922C29.9588 18.3338 29.7084 18.465 29.7084 18.465L29.9343 17.6951H30.593L30.4336 18.2341ZM30.0663 19.4905H29.4088L29.5995 18.8408H30.2548L30.0663 19.4905ZM31.6497 17.6951H32.5974L32.4613 18.1488H31.501L31.3568 18.6447H32.1971L31.5608 19.5662C31.5163 19.634 31.4763 19.6579 31.4319 19.6769C31.3874 19.7002 31.3289 19.7276 31.2613 19.7276H31.0281L30.868 20.2707H31.4777C31.7946 20.2707 31.9819 20.1224 32.12 19.9278L32.5564 19.3136L32.65 19.9373C32.67 20.054 32.7515 20.1224 32.8068 20.149C32.8678 20.1805 32.9309 20.2345 33.0201 20.2426C33.1155 20.2467 33.1846 20.2501 33.2305 20.2501H33.5302L33.71 19.6422H33.5919C33.5241 19.6422 33.4071 19.6305 33.3873 19.6086C33.3673 19.582 33.3673 19.5411 33.3567 19.4788L33.2616 18.8538H32.8724L33.0431 18.6447H34.0016L34.149 18.1488H33.2617L33.3998 17.6951H34.2845L34.4486 17.1357H31.8111L31.6497 17.6951ZM23.6451 19.6169L23.8662 18.86H24.7755L24.9415 18.297H24.0315L24.1704 17.8311H25.0596L25.2245 17.286H22.9995L22.8381 17.8311H23.3437L23.2088 18.2969H22.702L22.534 18.8695H23.0393L22.7444 19.871C22.7047 20.0035 22.7631 20.054 22.8002 20.1157C22.8381 20.1756 22.8765 20.2154 22.9629 20.2379C23.0521 20.2583 23.1131 20.2706 23.196 20.2706H24.221L24.4036 19.6469L23.9493 19.7111C23.8615 19.7111 23.6185 19.7003 23.6451 19.6169ZM23.7493 15.9935L23.519 16.4217C23.4698 16.5152 23.4253 16.5734 23.3853 16.6001C23.3501 16.6226 23.2803 16.6321 23.1794 16.6321H23.0592L22.8985 17.18H23.2977C23.4898 17.18 23.6371 17.1077 23.7075 17.0714C23.7832 17.0298 23.8031 17.0535 23.8615 16.9955L23.9964 16.8753H25.2431L25.4085 16.305H24.4959L24.6553 15.9933L23.7493 15.9935ZM25.5898 19.6279C25.5686 19.5964 25.5839 19.5409 25.6164 19.4255L25.9571 18.2655H27.1693C27.3459 18.2629 27.4733 18.2608 27.5565 18.2547C27.6455 18.245 27.7424 18.2123 27.8479 18.1536C27.957 18.092 28.0128 18.0271 28.0598 17.9526C28.1123 17.8784 28.1967 17.7156 28.2691 17.4648L28.6975 15.9968L27.4396 16.0044C27.4396 16.0044 27.0522 16.0631 26.8817 16.1281C26.7097 16.2005 26.4638 16.4026 26.4638 16.4026L26.5773 16.0002H25.8003L24.7125 19.7111C24.6739 19.8551 24.648 19.9598 24.642 20.0226C24.6401 20.0903 24.7251 20.1573 24.7802 20.2078C24.8453 20.2583 24.9415 20.2501 25.0338 20.2583C25.131 20.2659 25.269 20.2706 25.4596 20.2706H26.0568L26.24 19.634L25.7055 19.6859C25.6483 19.6859 25.6071 19.6544 25.5898 19.6279ZM26.1769 17.4821H27.45L27.3691 17.7429C27.3578 17.749 27.3306 17.73 27.201 17.7458H26.0985L26.1769 17.4821ZM26.432 16.6068H27.7159L27.6235 16.9211C27.6235 16.9211 27.0184 16.9151 26.9215 16.9334C26.495 17.0093 26.2459 17.2437 26.2459 17.2437L26.432 16.6068ZM27.3978 18.6167C27.3871 18.6558 27.3704 18.6795 27.3472 18.6974C27.3213 18.7145 27.2794 18.7206 27.2171 18.7206H27.0357L27.0464 18.4029H26.2918L26.2611 19.9564C26.26 20.0684 26.2705 20.1333 26.3503 20.1853C26.4301 20.2501 26.6758 20.2584 27.0065 20.2584H27.4793L27.65 19.6768L27.2384 19.7001L27.1015 19.7083C27.0829 19.7001 27.0649 19.6926 27.045 19.6722C27.0277 19.6545 26.9984 19.6653 27.0032 19.5533L27.0065 19.155L27.4381 19.1367C27.6713 19.1367 27.7709 19.0586 27.8559 18.9844C27.937 18.9132 27.9635 18.8314 27.9942 18.7206L28.0666 18.368H27.4733L27.3978 18.6167Z" fill="#FEFEFE"/>
</g>
<defs>
<clipPath id="clip0_84_326">
<rect width="28" height="18" fill="white" transform="translate(11 6)"/>
</clipPath>
</defs>
</svg>
