<svg width="133" height="417" viewBox="0 0 133 417" fill="none" xmlns="http://www.w3.org/2000/svg">
<path fill-rule="evenodd" clip-rule="evenodd" d="M-77.6757 349.123C-105.911 353.541 -107.133 402.019 -133.672 412.622C-159.423 422.91 -188.808 412.068 -215.38 404.14C-247.344 394.602 -284.616 388.347 -304.583 361.626C-324.393 335.113 -319.986 297.824 -319.548 264.73C-319.136 233.572 -313.861 202.94 -302.103 174.083C-290.504 145.615 -268.948 123.685 -251.707 98.2348C-230.488 66.9114 -222.397 22.029 -188.171 5.9035C-154.658 -9.88607 -115.431 10.2798 -78.9726 16.8509C-43.688 23.2104 -4.0427 21.3603 23.6867 44.0875C51.3001 66.7196 51.7847 108.487 70.1723 139.091C88.6674 169.874 130.731 189.406 132.547 225.271C134.377 261.441 99.3677 288.269 79.2464 318.382C62.5605 343.353 53.2964 382.206 23.8236 387.98C-12.1797 395.033 -41.4291 343.452 -77.6757 349.123Z" fill="url(#paint0_linear_65_4428)"/>
<defs>
<linearGradient id="paint0_linear_65_4428" x1="39.7951" y1="-67.9996" x2="-383.066" y2="373.89" gradientUnits="userSpaceOnUse">
<stop stop-color="#5E29B5"/>
<stop offset="1" stop-color="#C14EEA"/>
</linearGradient>
</defs>
</svg>
