<svg width="49" height="30" viewBox="0 0 49 30" fill="none" xmlns="http://www.w3.org/2000/svg">
<rect x="0.5" y="0.5" width="48" height="29" rx="2.5" fill="white" stroke="#DEDEDE"/>
<g clip-path="url(#clip0_84_323)">
<path d="M25.0324 13.1841C25.0148 14.5716 26.2752 15.3458 27.2247 15.8062C28.2003 16.2785 28.5279 16.5813 28.5241 17.0038C28.5168 17.6501 27.7459 17.9354 27.0246 17.9465C25.766 17.9659 25.0343 17.6085 24.4525 17.3381L23.9992 19.4488C24.5828 19.7164 25.6636 19.9498 26.7843 19.96C29.4151 19.96 31.1362 18.668 31.1455 16.6647C31.1558 14.1223 27.611 13.9816 27.6352 12.8452C27.6436 12.5006 27.9741 12.1329 28.6982 12.0394C29.0566 11.9922 30.0461 11.956 31.1679 12.47L31.6082 10.4279C31.0049 10.2093 30.2296 10 29.2642 10C26.7881 10 25.0465 11.3097 25.0324 13.1841ZM35.839 10.1759C35.3586 10.1759 34.9538 10.4547 34.7731 10.8826L31.0152 19.81H33.644L34.1672 18.3716H37.3795L37.683 19.81H40L37.9781 10.1759H35.839ZM36.2067 12.7785L36.9654 16.3962H34.8877L36.2067 12.7785ZM21.8451 10.176L19.773 19.8099H22.2781L24.3492 10.1758L21.8451 10.176ZM18.1393 10.176L15.5319 16.7333L14.4772 11.1577C14.3534 10.5353 13.8647 10.1759 13.322 10.1759H9.0597L9 10.4557C9.87502 10.6446 10.8692 10.9493 11.4715 11.2753C11.8401 11.4745 11.9452 11.6486 12.0663 12.1218L14.064 19.81H16.7113L20.7698 10.1759L18.1393 10.176Z" fill="url(#paint0_linear_84_323)"/>
</g>
<defs>
<linearGradient id="paint0_linear_84_323" x1="1434.19" y1="39.9398" x2="1462.88" y2="-982.975" gradientUnits="userSpaceOnUse">
<stop stop-color="#222357"/>
<stop offset="1" stop-color="#254AA5"/>
</linearGradient>
<clipPath id="clip0_84_323">
<rect width="31" height="10" fill="white" transform="translate(9 10)"/>
</clipPath>
</defs>
</svg>
