<svg width="64" height="65" viewBox="0 0 64 65" fill="none" xmlns="http://www.w3.org/2000/svg">
<rect y="0.839844" width="64" height="64" rx="32" fill="#CF3DA6" fill-opacity="0.08"/>
<path d="M21.3334 22.3335C20.6262 22.3335 19.9479 22.6144 19.4478 23.1145C18.9477 23.6146 18.6667 24.2929 18.6667 25.0002V30.3335C19.374 30.3335 20.0523 30.6144 20.5524 31.1145C21.0525 31.6146 21.3334 32.2929 21.3334 33.0002C21.3334 33.7074 21.0525 34.3857 20.5524 34.8858C20.0523 35.3859 19.374 35.6668 18.6667 35.6668V41.0002C18.6667 41.7074 18.9477 42.3857 19.4478 42.8858C19.9479 43.3859 20.6262 43.6668 21.3334 43.6668H42.6667C43.374 43.6668 44.0523 43.3859 44.5524 42.8858C45.0525 42.3857 45.3334 41.7074 45.3334 41.0002V35.6668C44.6262 35.6668 43.9479 35.3859 43.4478 34.8858C42.9477 34.3857 42.6667 33.7074 42.6667 33.0002C42.6667 32.2929 42.9477 31.6146 43.4478 31.1145C43.9479 30.6144 44.6262 30.3335 45.3334 30.3335V25.0002C45.3334 24.2929 45.0525 23.6146 44.5524 23.1145C44.0523 22.6144 43.374 22.3335 42.6667 22.3335H21.3334ZM36.6667 26.3335L38.6667 28.3335L27.3334 39.6668L25.3334 37.6668L36.6667 26.3335ZM27.7467 26.3868C29.0534 26.3868 30.1067 27.4402 30.1067 28.7468C30.1067 29.3727 29.8581 29.973 29.4155 30.4156C28.9729 30.8582 28.3727 31.1068 27.7467 31.1068C26.4401 31.1068 25.3867 30.0535 25.3867 28.7468C25.3867 28.1209 25.6354 27.5206 26.078 27.0781C26.5206 26.6355 27.1208 26.3868 27.7467 26.3868ZM36.2534 34.8935C37.5601 34.8935 38.6134 35.9468 38.6134 37.2535C38.6134 37.8794 38.3648 38.4797 37.9222 38.9223C37.4796 39.3649 36.8793 39.6135 36.2534 39.6135C34.9467 39.6135 33.8934 38.5602 33.8934 37.2535C33.8934 36.6276 34.1421 36.0273 34.5846 35.5847C35.0272 35.1421 35.6275 34.8935 36.2534 34.8935Z" fill="#CF3DA6"/>
</svg>
