<svg width="32" height="32" viewBox="0 0 32 32" fill="none" xmlns="http://www.w3.org/2000/svg">
<path d="M0 16C0 7.16344 7.16344 0 16 0C24.8366 0 32 7.16344 32 16C32 24.8366 24.8366 32 16 32C7.16344 32 0 24.8366 0 16Z" fill="#8E36CF"/>
<path fill-rule="evenodd" clip-rule="evenodd" d="M22.6679 10.499C23.4022 10.7005 23.9805 11.2943 24.1768 12.0483C24.5335 13.4148 24.5335 16.2661 24.5335 16.2661C24.5335 16.2661 24.5335 19.1174 24.1768 20.484C23.9805 21.238 23.4022 21.8318 22.6679 22.0334C21.3371 22.3995 16.0001 22.3995 16.0001 22.3995C16.0001 22.3995 10.6632 22.3995 9.3323 22.0334C8.59795 21.8318 8.01962 21.238 7.82335 20.484C7.4668 19.1174 7.4668 16.2661 7.4668 16.2661C7.4668 16.2661 7.4668 13.4148 7.82335 12.0483C8.01962 11.2943 8.59795 10.7005 9.3323 10.499C10.6632 10.1328 16.0001 10.1328 16.0001 10.1328C16.0001 10.1328 21.3371 10.1328 22.6679 10.499ZM14.4004 13.8662V19.1995L18.6671 16.533L14.4004 13.8662Z" fill="white"/>
</svg>
