<svg width="33" height="32" viewBox="0 0 33 32" fill="none" xmlns="http://www.w3.org/2000/svg">
<path d="M0.333252 16C0.333252 7.16344 7.4967 0 16.3333 0C25.1698 0 32.3333 7.16344 32.3333 16C32.3333 24.8366 25.1698 32 16.3333 32C7.4967 32 0.333252 24.8366 0.333252 16Z" fill="#FF0000"/>
<path d="M24.5101 12.0483C24.3138 11.2943 23.7355 10.7005 23.0011 10.499C21.6703 10.1328 16.3334 10.1328 16.3334 10.1328C16.3334 10.1328 10.9965 10.1328 9.66555 10.499C8.9312 10.7005 8.35287 11.2943 8.15661 12.0483C7.80005 13.4148 7.80005 16.2661 7.80005 16.2661C7.80005 16.2661 7.80005 19.1174 8.15661 20.484C8.35287 21.238 8.9312 21.8318 9.66555 22.0334C10.9965 22.3995 16.3334 22.3995 16.3334 22.3995C16.3334 22.3995 21.6703 22.3995 23.0011 22.0334C23.7355 21.8318 24.3138 21.238 24.5101 20.484C24.8667 19.1174 24.8667 16.2661 24.8667 16.2661C24.8667 16.2661 24.8667 13.4148 24.5101 12.0483Z" fill="white"/>
<path d="M14.7332 19.2005V13.8672L18.9998 16.534L14.7332 19.2005Z" fill="#FF0000"/>
</svg>
